<?xml version="1.0" encoding="utf-8"?>
<!-- Generator: Adobe Illustrator 16.0.4, SVG Export Plug-In . SVG Version: 6.00 Build 0)  -->
<!DOCTYPE svg PUBLIC "-//W3C//DTD SVG 1.1//EN" "http://www.w3.org/Graphics/SVG/1.1/DTD/svg11.dtd">
<svg version="1.1" xmlns="http://www.w3.org/2000/svg" xmlns:xlink="http://www.w3.org/1999/xlink" x="0px" y="0px"
	 width="178.582px" height="249.448px" viewBox="0 0 178.582 249.448" enable-background="new 0 0 178.582 249.448"
	 xml:space="preserve">
<g id="ace">
</g>
<g id="two">
</g>
<g id="three">
</g>
<g id="four">
</g>
<g id="nine">
</g>
<g id="five">
</g>
<g id="six">
</g>
<g id="seven">
</g>
<g id="eight">
</g>
<g id="ten">
	<g>
		<path fill="#F4F4F2" stroke="#000000" d="M178.582,235.275c0,7.827-6.345,14.173-14.173,14.173H14.173
			C6.346,249.448,0,243.103,0,235.275V14.173C0,6.345,6.346,0,14.173,0h150.236c7.828,0,14.173,6.346,14.173,14.174V235.275z"/>
		<path d="M12.757,42.52c-1.864,0-3.377,1.703-3.377,3.801c0,1.2,0.501,2.265,1.269,2.967c0.259,0.237,0.147,0.495-0.115,0.334
			c-0.48-0.292-1.022-0.478-1.606-0.478c-1.798,0-3.257,1.643-3.257,3.667c0,2.023,1.459,3.667,3.257,3.667
			c1.198,0,2.247-0.729,2.81-1.817c0.056-0.106,0.101-0.252,0.178-0.252c0.107,0,0.157,0.175,0.157,0.503
			c0,1.314-0.505,2.851-1.252,4.615c0.323-0.076,1.299-0.271,1.938-0.271c0.638,0,1.613,0.195,1.937,0.271
			c-0.746-1.765-1.252-3.301-1.252-4.615c0-0.328,0.05-0.503,0.157-0.503c0.078,0,0.122,0.146,0.178,0.252
			c0.562,1.088,1.612,1.817,2.81,1.817c1.798,0,3.257-1.644,3.257-3.667c0-2.024-1.459-3.667-3.257-3.667
			c-0.584,0-1.126,0.186-1.606,0.478c-0.263,0.16-0.374-0.097-0.115-0.334c0.769-0.703,1.269-1.767,1.269-2.967
			C16.133,44.223,14.62,42.52,12.757,42.52z"/>
		<path d="M165.827,206.929c1.863,0,3.377-1.704,3.377-3.802c0-1.199-0.501-2.264-1.269-2.967c-0.26-0.237-0.147-0.494,0.115-0.334
			c0.479,0.292,1.021,0.477,1.606,0.477c1.797,0,3.257-1.643,3.257-3.667c0-2.022-1.46-3.665-3.257-3.665
			c-1.199,0-2.247,0.728-2.811,1.816c-0.056,0.105-0.1,0.252-0.178,0.252c-0.106,0-0.156-0.176-0.156-0.503
			c0-1.314,0.505-2.851,1.251-4.616c-0.322,0.076-1.299,0.271-1.937,0.271s-1.613-0.195-1.937-0.271
			c0.745,1.766,1.252,3.302,1.252,4.616c0,0.327-0.051,0.503-0.158,0.503c-0.077,0-0.123-0.146-0.177-0.252
			c-0.563-1.089-1.613-1.816-2.811-1.816c-1.798,0-3.257,1.643-3.257,3.665c0,2.024,1.459,3.667,3.257,3.667
			c0.585,0,1.126-0.185,1.606-0.477c0.264-0.16,0.375,0.097,0.116,0.334c-0.769,0.703-1.269,1.768-1.269,2.967
			C162.451,205.225,163.964,206.929,165.827,206.929z"/>
		<path d="M45.354,25.512c-4.66,0-8.441,4.258-8.441,9.504c0,2.999,1.252,5.66,3.17,7.416c0.648,0.593,0.371,1.237-0.289,0.836
			c-1.199-0.729-2.553-1.192-4.015-1.192c-4.494,0-8.142,4.106-8.142,9.167s3.647,9.167,8.142,9.167
			c2.995,0,5.617-1.822,7.025-4.542c0.138-0.266,0.249-0.631,0.443-0.631c0.268,0,0.393,0.438,0.393,1.256
			c0,3.288-1.262,7.126-3.128,11.539c0.806-0.192,3.247-0.678,4.842-0.678s4.035,0.486,4.841,0.678
			c-1.866-4.412-3.128-8.251-3.128-11.539c0-0.818,0.125-1.256,0.393-1.256c0.194,0,0.305,0.365,0.443,0.631
			c1.408,2.719,4.03,4.542,7.025,4.542c4.495,0,8.143-4.107,8.143-9.167s-3.647-9.167-8.143-9.167c-1.461,0-2.815,0.463-4.015,1.192
			c-0.66,0.401-0.938-0.243-0.289-0.836c1.918-1.756,3.169-4.417,3.169-7.416C53.794,29.77,50.013,25.512,45.354,25.512z"/>
		<path d="M46.063,77.48c-4.659,0-8.44,4.258-8.44,9.503c0,3,1.251,5.66,3.169,7.417c0.648,0.593,0.371,1.237-0.289,0.836
			c-1.199-0.729-2.553-1.193-4.015-1.193c-4.494,0-8.142,4.106-8.142,9.166c0,5.06,3.647,9.167,8.142,9.167
			c2.995,0,5.617-1.822,7.025-4.541c0.139-0.266,0.249-0.631,0.444-0.631c0.267,0,0.392,0.438,0.392,1.256
			c0,3.287-1.262,7.126-3.127,11.541c0.805-0.192,3.246-0.68,4.841-0.68s4.035,0.487,4.841,0.68
			c-1.866-4.415-3.127-8.254-3.127-11.541c0-0.818,0.124-1.256,0.392-1.256c0.195,0,0.306,0.365,0.443,0.631
			c1.408,2.719,4.03,4.541,7.025,4.541c4.495,0,8.143-4.107,8.143-9.167c0-5.06-3.647-9.166-8.143-9.166
			c-1.461,0-2.815,0.464-4.014,1.193c-0.66,0.401-0.938-0.243-0.29-0.836c1.919-1.756,3.17-4.417,3.17-7.417
			C54.504,81.738,50.723,77.48,46.063,77.48z"/>
		<path d="M46.063,223.937c4.659,0,8.44-4.257,8.44-9.503c0-3-1.251-5.66-3.17-7.417c-0.647-0.593-0.37-1.238,0.29-0.837
			c1.199,0.73,2.553,1.193,4.015,1.193c4.494,0,8.142-4.106,8.142-9.166c0-5.061-3.647-9.168-8.142-9.168
			c-2.996,0-5.618,1.822-7.026,4.541c-0.138,0.266-0.248,0.631-0.443,0.631c-0.267,0-0.392-0.438-0.392-1.256
			c0-3.287,1.262-7.126,3.127-11.538c-0.806,0.191-3.247,0.679-4.841,0.679c-1.595,0-4.036-0.487-4.842-0.679
			c1.866,4.412,3.128,8.251,3.128,11.538c0,0.818-0.125,1.256-0.392,1.256c-0.195,0-0.306-0.365-0.443-0.631
			c-1.408-2.719-4.03-4.541-7.026-4.541c-4.494,0-8.142,4.107-8.142,9.168c0,5.06,3.647,9.166,8.142,9.166
			c1.462,0,2.816-0.463,4.015-1.193c0.66-0.401,0.938,0.244,0.289,0.837c-1.918,1.757-3.169,4.417-3.169,7.417
			C37.623,219.68,41.404,223.937,46.063,223.937z"/>
		<path d="M46.063,171.969c4.659,0,8.44-4.258,8.44-9.504c0-3-1.251-5.66-3.17-7.416c-0.647-0.594-0.37-1.238,0.29-0.837
			c1.199,0.729,2.553,1.193,4.015,1.193c4.494,0,8.142-4.106,8.142-9.167s-3.647-9.168-8.142-9.168
			c-2.996,0-5.618,1.822-7.026,4.542c-0.138,0.265-0.248,0.63-0.443,0.63c-0.267,0-0.392-0.437-0.392-1.256
			c0-3.286,1.262-7.125,3.127-11.537c-0.806,0.191-3.247,0.678-4.841,0.678c-1.595,0-4.036-0.486-4.842-0.678
			c1.866,4.412,3.128,8.251,3.128,11.537c0,0.819-0.125,1.256-0.392,1.256c-0.195,0-0.306-0.365-0.443-0.63
			c-1.408-2.72-4.03-4.542-7.026-4.542c-4.494,0-8.142,4.107-8.142,9.168s3.647,9.167,8.142,9.167c1.462,0,2.816-0.464,4.015-1.193
			c0.66-0.401,0.938,0.243,0.289,0.837c-1.918,1.756-3.169,4.416-3.169,7.416C37.623,167.711,41.404,171.969,46.063,171.969z"/>
		<path d="M132.52,25.512c-4.659,0-8.44,4.258-8.44,9.504c0,2.999,1.251,5.66,3.17,7.416c0.647,0.593,0.37,1.237-0.29,0.836
			c-1.199-0.729-2.553-1.192-4.015-1.192c-4.494,0-8.142,4.106-8.142,9.167s3.647,9.167,8.142,9.167
			c2.995,0,5.617-1.822,7.025-4.542c0.139-0.266,0.249-0.631,0.444-0.631c0.267,0,0.392,0.438,0.392,1.256
			c0,3.287-1.262,7.126-3.127,11.538c0.806-0.192,3.246-0.678,4.841-0.678s4.035,0.486,4.841,0.678
			c-1.866-4.412-3.128-8.251-3.128-11.538c0-0.819,0.125-1.256,0.393-1.256c0.195,0,0.306,0.365,0.443,0.631
			c1.408,2.719,4.031,4.542,7.025,4.542c4.494,0,8.143-4.107,8.143-9.167s-3.648-9.167-8.143-9.167
			c-1.461,0-2.814,0.463-4.015,1.192c-0.659,0.401-0.938-0.243-0.289-0.836c1.918-1.756,3.17-4.417,3.17-7.416
			C140.96,29.77,137.178,25.512,132.52,25.512z"/>
		<path d="M132.52,77.48c-4.659,0-8.44,4.258-8.44,9.503c0,3,1.251,5.66,3.17,7.417c0.647,0.593,0.37,1.237-0.29,0.836
			c-1.199-0.729-2.553-1.193-4.015-1.193c-4.494,0-8.142,4.106-8.142,9.166c0,5.06,3.647,9.167,8.142,9.167
			c2.995,0,5.617-1.822,7.025-4.541c0.139-0.266,0.249-0.631,0.444-0.631c0.267,0,0.392,0.438,0.392,1.256
			c0,3.287-1.262,7.126-3.127,11.541c0.806-0.192,3.246-0.68,4.841-0.68s4.035,0.487,4.841,0.68
			c-1.866-4.415-3.128-8.254-3.128-11.541c0-0.818,0.125-1.256,0.393-1.256c0.195,0,0.306,0.365,0.443,0.631
			c1.408,2.719,4.031,4.541,7.025,4.541c4.494,0,8.143-4.107,8.143-9.167c0-5.06-3.648-9.166-8.143-9.166
			c-1.461,0-2.814,0.464-4.015,1.193c-0.659,0.401-0.938-0.243-0.289-0.836c1.918-1.756,3.17-4.417,3.17-7.417
			C140.96,81.738,137.178,77.48,132.52,77.48z"/>
		<path d="M132.52,223.937c4.659,0,8.44-4.257,8.44-9.503c0-3-1.252-5.66-3.17-7.417c-0.647-0.593-0.37-1.238,0.289-0.837
			c1.2,0.73,2.554,1.193,4.016,1.193c4.493,0,8.142-4.106,8.142-9.166c0-5.061-3.648-9.168-8.142-9.168
			c-2.995,0-5.618,1.822-7.025,4.541c-0.139,0.266-0.249,0.631-0.444,0.631c-0.267,0-0.393-0.438-0.393-1.256
			c0-3.287,1.263-7.126,3.128-11.538c-0.806,0.191-3.246,0.679-4.841,0.679s-4.035-0.487-4.842-0.679
			c1.866,4.412,3.128,8.251,3.128,11.538c0,0.818-0.124,1.256-0.392,1.256c-0.195,0-0.306-0.365-0.443-0.631
			c-1.408-2.719-4.031-4.541-7.025-4.541c-4.495,0-8.143,4.107-8.143,9.168c0,5.06,3.647,9.166,8.143,9.166
			c1.461,0,2.814-0.463,4.014-1.193c0.66-0.401,0.938,0.244,0.29,0.837c-1.919,1.757-3.17,4.417-3.17,7.417
			C124.079,219.68,127.86,223.937,132.52,223.937z"/>
		<path d="M132.52,171.969c4.659,0,8.44-4.258,8.44-9.504c0-3-1.252-5.66-3.17-7.416c-0.647-0.594-0.37-1.238,0.289-0.837
			c1.2,0.729,2.554,1.193,4.016,1.193c4.493,0,8.142-4.106,8.142-9.167s-3.648-9.168-8.142-9.168c-2.995,0-5.618,1.822-7.025,4.542
			c-0.139,0.265-0.249,0.63-0.444,0.63c-0.267,0-0.393-0.437-0.393-1.256c0-3.286,1.263-7.125,3.128-11.537
			c-0.806,0.191-3.246,0.678-4.841,0.678s-4.035-0.486-4.842-0.678c1.866,4.412,3.128,8.251,3.128,11.537
			c0,0.819-0.124,1.256-0.392,1.256c-0.195,0-0.306-0.365-0.443-0.63c-1.408-2.72-4.031-4.542-7.025-4.542
			c-4.495,0-8.143,4.107-8.143,9.168s3.647,9.167,8.143,9.167c1.461,0,2.814-0.464,4.014-1.193c0.66-0.401,0.938,0.243,0.29,0.837
			c-1.919,1.756-3.17,4.416-3.17,7.416C124.079,167.711,127.86,171.969,132.52,171.969z"/>
		<path d="M89.291,53.858c-4.659,0-8.44,4.258-8.44,9.503c0,2.999,1.251,5.66,3.17,7.416c0.647,0.594,0.37,1.237-0.289,0.836
			c-1.199-0.729-2.554-1.192-4.015-1.192c-4.494,0-8.142,4.106-8.142,9.166c0,5.06,3.647,9.167,8.142,9.167
			c2.995,0,5.617-1.822,7.025-4.541c0.138-0.267,0.248-0.631,0.443-0.631c0.268,0,0.393,0.437,0.393,1.256
			c0,3.287-1.262,7.126-3.128,11.541c0.806-0.192,3.247-0.679,4.841-0.679c1.595,0,4.036,0.487,4.841,0.679
			c-1.866-4.415-3.128-8.254-3.128-11.541c0-0.819,0.125-1.256,0.393-1.256c0.195,0,0.306,0.364,0.443,0.631
			c1.408,2.719,4.03,4.541,7.025,4.541c4.495,0,8.143-4.107,8.143-9.167c0-5.06-3.647-9.166-8.143-9.166
			c-1.461,0-2.815,0.463-4.014,1.192c-0.66,0.401-0.938-0.242-0.29-0.836c1.919-1.756,3.17-4.417,3.17-7.416
			C97.731,58.116,93.95,53.858,89.291,53.858z"/>
		<path d="M89.291,195.59c4.66,0,8.441-4.258,8.441-9.504c0-2.999-1.252-5.66-3.17-7.416c-0.647-0.593-0.37-1.238,0.289-0.836
			c1.199,0.729,2.554,1.193,4.015,1.193c4.494,0,8.142-4.107,8.142-9.167s-3.647-9.168-8.142-9.168
			c-2.995,0-5.617,1.822-7.025,4.542c-0.138,0.265-0.248,0.631-0.444,0.631c-0.267,0-0.392-0.438-0.392-1.257
			c0-3.286,1.263-7.126,3.128-11.538c-0.806,0.191-3.247,0.678-4.842,0.678s-4.035-0.486-4.842-0.678
			c1.867,4.412,3.129,8.252,3.129,11.538c0,0.819-0.125,1.257-0.393,1.257c-0.195,0-0.306-0.366-0.443-0.631
			c-1.408-2.72-4.03-4.542-7.025-4.542c-4.494,0-8.143,4.108-8.143,9.168s3.648,9.167,8.143,9.167c1.461,0,2.815-0.464,4.014-1.193
			c0.66-0.402,0.938,0.243,0.29,0.836c-1.919,1.756-3.17,4.417-3.17,7.416C80.851,191.332,84.632,195.59,89.291,195.59z"/>
		<g>
			<g>
				<polygon points="5.669,38.231 5.669,14.173 7.851,14.173 7.851,38.231 5.669,38.231 				"/>
			</g>
			<path d="M12.409,36.95c-0.794-0.816-1.303-1.98-1.302-3.262l0,0V18.752c-0.001-1.282,0.508-2.445,1.302-3.262l0,0
				c0.794-0.82,1.881-1.317,3.066-1.317l0,0c1.185,0,2.271,0.497,3.065,1.317l0,0c0.794,0.816,1.303,1.979,1.302,3.262l0,0v14.937
				c0.001,1.282-0.508,2.445-1.302,3.262l0,0c-0.794,0.82-1.881,1.317-3.065,1.317l0,0C14.29,38.268,13.203,37.771,12.409,36.95
				L12.409,36.95z M13.906,17.227c-0.393,0.409-0.617,0.938-0.618,1.525l0,0v14.937c0.001,0.588,0.226,1.117,0.618,1.525l0,0
				c0.393,0.405,0.943,0.666,1.569,0.666l0,0c0.624,0,1.176-0.261,1.568-0.666l0,0c0.393-0.409,0.616-0.938,0.618-1.525l0,0V18.752
				c-0.002-0.588-0.226-1.117-0.618-1.525l0,0c-0.393-0.405-0.944-0.666-1.568-0.666l0,0C14.85,16.561,14.299,16.822,13.906,17.227
				L13.906,17.227z"/>
		</g>
		<g>
			<g>
				<polygon points="172.914,211.217 172.914,235.275 170.732,235.275 170.732,211.217 172.914,211.217 				"/>
			</g>
			<path d="M166.174,212.498c0.794,0.816,1.303,1.979,1.302,3.262l0,0v14.936c0.001,1.283-0.508,2.445-1.302,3.262l0,0
				c-0.794,0.82-1.881,1.318-3.066,1.318l0,0c-1.185,0-2.271-0.498-3.065-1.318l0,0c-0.794-0.816-1.303-1.979-1.302-3.262l0,0
				V215.76c-0.001-1.282,0.508-2.445,1.302-3.262l0,0c0.794-0.82,1.881-1.318,3.065-1.318l0,0
				C164.293,211.18,165.38,211.678,166.174,212.498L166.174,212.498z M164.677,232.221c0.393-0.408,0.617-0.938,0.618-1.525l0,0
				V215.76c-0.001-0.588-0.226-1.117-0.618-1.525l0,0c-0.393-0.406-0.943-0.666-1.569-0.666l0,0c-0.624,0-1.176,0.26-1.568,0.666
				l0,0c-0.393,0.408-0.616,0.938-0.618,1.525l0,0v14.936c0.002,0.588,0.226,1.117,0.618,1.525l0,0
				c0.393,0.405,0.944,0.666,1.568,0.666l0,0C163.733,232.887,164.284,232.626,164.677,232.221L164.677,232.221z"/>
		</g>
	</g>
</g>
<g id="jack">
</g>
<g id="queen">
</g>
<g id="king">
</g>
<g id="jolly">
</g>
<g id="back">
</g>
</svg>
