<?xml version="1.0" encoding="utf-8"?>
<!-- Generator: Adobe Illustrator 16.0.4, SVG Export Plug-In . SVG Version: 6.00 Build 0)  -->
<!DOCTYPE svg PUBLIC "-//W3C//DTD SVG 1.1//EN" "http://www.w3.org/Graphics/SVG/1.1/DTD/svg11.dtd">
<svg version="1.1" xmlns="http://www.w3.org/2000/svg" xmlns:xlink="http://www.w3.org/1999/xlink" x="0px" y="0px"
	 width="178.584px" height="249.442px" viewBox="0 0 178.584 249.442" enable-background="new 0 0 178.584 249.442"
	 xml:space="preserve">
<g id="ace">
</g>
<g id="two">
</g>
<g id="three">
</g>
<g id="four">
</g>
<g id="five">
</g>
<g id="six">
</g>
<g id="seven">
</g>
<g id="eight">
</g>
<g id="nine">
</g>
<g id="ten">
	<g>
		<path fill="#F4F4F2" stroke="#000000" d="M178.584,235.27c0,7.828-6.346,14.174-14.174,14.174H14.174
			C6.346,249.444,0,243.098,0,235.27V14.171C0,6.344,6.346-0.002,14.174-0.002H164.41c7.828,0,14.174,6.346,14.174,14.173V235.27z"
			/>
		<path fill="#E44145" d="M12.768,42.519c1.786,3.47,4.145,6.309,7.075,8.512c-2.931,2.207-5.289,5.039-7.075,8.496
			C10.965,56.069,8.6,53.237,5.67,51.03C8.6,48.827,10.965,45.988,12.768,42.519L12.768,42.519z"/>
		<path fill="#E44145" d="M165.839,189.916c1.786,3.47,4.146,6.308,7.075,8.513c-2.93,2.206-5.289,5.038-7.075,8.495
			c-1.802-3.457-4.169-6.289-7.098-8.495C161.67,196.223,164.037,193.385,165.839,189.916L165.839,189.916z"/>
		<path fill="#E44145" d="M46.089,25.51c4.469,8.675,10.365,15.77,17.691,21.283c-7.326,5.517-13.223,12.595-17.691,21.236
			c-4.503-8.641-10.417-15.72-17.742-21.236C35.672,41.279,41.586,34.185,46.089,25.51L46.089,25.51z"/>
		<path fill="#E44145" d="M46.088,77.479c4.469,8.675,10.365,15.77,17.692,21.284c-7.327,5.516-13.224,12.595-17.692,21.233
			c-4.502-8.638-10.416-15.717-17.741-21.233C35.672,93.249,41.586,86.154,46.088,77.479L46.088,77.479z"/>
		<path fill="#E44145" d="M46.089,129.444c4.469,8.674,10.364,15.77,17.691,21.283c-7.327,5.517-13.223,12.596-17.691,21.236
			c-4.503-8.641-10.417-15.72-17.742-21.236C35.672,145.213,41.586,138.118,46.089,129.444L46.089,129.444z"/>
		<path fill="#E44145" d="M46.089,181.411c4.469,8.675,10.364,15.77,17.691,21.283c-7.327,5.517-13.223,12.597-17.691,21.237
			c-4.503-8.641-10.417-15.721-17.742-21.237C35.672,197.18,41.586,190.085,46.089,181.411L46.089,181.411z"/>
		<path fill="#E44145" d="M132.546,25.51c4.469,8.675,10.364,15.77,17.691,21.283c-7.327,5.517-13.223,12.595-17.691,21.236
			c-4.502-8.642-10.417-15.72-17.741-21.236C122.129,41.279,128.044,34.185,132.546,25.51L132.546,25.51z"/>
		<path fill="#E44145" d="M132.545,77.48c4.469,8.675,10.365,15.77,17.691,21.283c-7.326,5.516-13.223,12.595-17.691,21.234
			c-4.502-8.639-10.418-15.718-17.742-21.234C122.127,93.25,128.043,86.155,132.545,77.48L132.545,77.48z"/>
		<path fill="#E44145" d="M132.545,129.445c4.469,8.674,10.365,15.769,17.691,21.282c-7.326,5.518-13.223,12.596-17.691,21.237
			c-4.502-8.642-10.417-15.72-17.741-21.237C122.128,145.213,128.043,138.119,132.545,129.445L132.545,129.445z"/>
		<path fill="#E44145" d="M132.546,181.411c4.468,8.675,10.364,15.77,17.691,21.283c-7.327,5.517-13.224,12.597-17.691,21.237
			c-4.503-8.641-10.417-15.721-17.741-21.237C122.129,197.18,128.043,190.085,132.546,181.411L132.546,181.411z"/>
		<path fill="#E44145" d="M89.316,53.856c4.47,8.675,10.365,15.77,17.691,21.284c-7.326,5.517-13.222,12.595-17.691,21.236
			c-4.502-8.642-10.417-15.72-17.741-21.236C78.899,69.626,84.814,62.531,89.316,53.856L89.316,53.856z"/>
		<path fill="#E44145" d="M89.316,153.065c4.47,8.674,10.365,15.77,17.691,21.283c-7.326,5.517-13.222,12.596-17.691,21.236
			c-4.502-8.641-10.417-15.72-17.741-21.236C78.899,168.834,84.814,161.739,89.316,153.065L89.316,153.065z"/>
		<g>
			<g>
				<polygon fill="#E44145" points="5.67,38.229 5.67,14.171 7.851,14.171 7.851,38.229 5.67,38.229 				"/>
			</g>
			<path fill="#E44145" d="M12.41,36.949c-0.794-0.816-1.304-1.98-1.302-3.262l0,0V18.75c-0.002-1.282,0.508-2.445,1.302-3.262l0,0
				c0.793-0.82,1.88-1.317,3.065-1.317l0,0c1.185,0,2.271,0.497,3.066,1.317l0,0c0.793,0.817,1.303,1.98,1.301,3.262l0,0v14.937
				c0.002,1.281-0.508,2.445-1.301,3.262l0,0c-0.795,0.82-1.882,1.317-3.066,1.317l0,0C14.29,38.266,13.203,37.769,12.41,36.949
				L12.41,36.949z M13.907,17.225c-0.393,0.408-0.617,0.938-0.618,1.525l0,0v14.937c0.001,0.588,0.226,1.116,0.618,1.525l0,0
				c0.392,0.405,0.943,0.666,1.568,0.666l0,0c0.625,0,1.176-0.261,1.568-0.666l0,0c0.393-0.409,0.617-0.938,0.618-1.525l0,0V18.75
				c-0.001-0.588-0.226-1.117-0.618-1.525l0,0c-0.393-0.405-0.943-0.666-1.568-0.666l0,0C14.851,16.559,14.299,16.82,13.907,17.225
				L13.907,17.225z"/>
		</g>
		<g>
			<g>
				<polygon fill="#E44145" points="172.914,211.211 172.914,235.27 170.732,235.27 170.732,211.211 172.914,211.211 				"/>
			</g>
			<path fill="#E44145" d="M166.174,212.493c0.795,0.816,1.303,1.98,1.303,3.262l0,0v14.937c0,1.282-0.508,2.445-1.303,3.263l0,0
				c-0.793,0.819-1.881,1.316-3.066,1.316l0,0c-1.184,0-2.271-0.497-3.064-1.316l0,0c-0.795-0.817-1.303-1.98-1.303-3.263l0,0
				v-14.937c0-1.281,0.508-2.445,1.303-3.262l0,0c0.793-0.82,1.881-1.316,3.064-1.316l0,0
				C164.293,211.176,165.381,211.672,166.174,212.493L166.174,212.493z M164.678,232.216c0.393-0.408,0.617-0.938,0.617-1.525l0,0
				v-14.937c0-0.588-0.225-1.116-0.617-1.525l0,0c-0.393-0.405-0.943-0.666-1.57-0.666l0,0c-0.623,0-1.176,0.261-1.568,0.666l0,0
				c-0.393,0.409-0.615,0.938-0.617,1.525l0,0v14.937c0.002,0.588,0.225,1.117,0.617,1.525l0,0c0.393,0.405,0.945,0.666,1.568,0.666
				l0,0C163.734,232.882,164.285,232.622,164.678,232.216L164.678,232.216z"/>
		</g>
	</g>
</g>
<g id="jack">
</g>
<g id="queen">
</g>
<g id="king">
</g>
<g id="jolly">
</g>
<g id="back">
</g>
</svg>
