<?xml version="1.0" encoding="utf-8"?>
<!-- Generator: Adobe Illustrator 16.0.4, SVG Export Plug-In . SVG Version: 6.00 Build 0)  -->
<!DOCTYPE svg PUBLIC "-//W3C//DTD SVG 1.1//EN" "http://www.w3.org/Graphics/SVG/1.1/DTD/svg11.dtd">
<svg version="1.1" xmlns="http://www.w3.org/2000/svg" xmlns:xlink="http://www.w3.org/1999/xlink" x="0px" y="0px"
	 width="178.583px" height="249.445px" viewBox="0 0 178.583 249.445" enable-background="new 0 0 178.583 249.445"
	 xml:space="preserve">
<g id="ace">
</g>
<g id="two">
</g>
<g id="three">
</g>
<g id="four">
</g>
<g id="five">
</g>
<g id="six">
</g>
<g id="seven">
</g>
<g id="eight">
</g>
<g id="nine">
</g>
<g id="ten">
	<g>
		<g>
			<path fill="#F4F4F2" stroke="#000000" d="M178.584,235.274c0,7.828-6.346,14.174-14.174,14.174H14.174
				C6.346,249.448,0,243.103,0,235.274V14.172C0,6.345,6.346-0.001,14.174-0.001H164.41c7.828,0,14.174,6.346,14.174,14.173V235.274
				z"/>
		</g>
		<g>
			<path fill="#E44145" d="M12.755,59.526c-0.007-0.01-0.013-0.02-0.02-0.029c-0.007,0.01-0.013,0.02-0.02,0.029H12.755z"/>
			<path fill="#E44145" d="M16.73,42.618c-1.247-0.387-3.188,0.294-3.899,3.122c-0.06,0.155-0.122,0.151-0.178-0.006
				c-1.029-2.864-2.723-3.49-3.913-3.116c-1.763,0.569-3.195,2.672-3.062,5.356c0.034,4.685,4.226,7.044,7.057,11.522
				c2.831-4.479,7.067-6.832,7.082-11.536C20.062,45.249,18.543,43.177,16.73,42.618z"/>
		</g>
		<g>
			<path fill="#E44145" d="M165.831,189.919c0.007,0.012,0.014,0.02,0.021,0.031c0.006-0.012,0.013-0.02,0.02-0.031H165.831z"/>
			<path fill="#E44145" d="M165.852,189.95c-2.833,4.477-7.073,6.83-7.084,11.535c-0.244,2.711,1.271,4.783,3.087,5.344
				c1.247,0.387,3.188-0.295,3.9-3.123c0.06-0.154,0.122-0.152,0.179,0.004c1.025,2.865,2.722,3.492,3.912,3.119
				c1.768-0.57,3.195-2.674,3.06-5.357C172.874,196.788,168.683,194.427,165.852,189.95z"/>
		</g>
		<g>
			<path fill="#E44145" d="M46.06,68.03c-0.016-0.024-0.031-0.048-0.047-0.072c-0.016,0.024-0.031,0.048-0.047,0.072H46.06z"/>
			<path fill="#E44145" d="M55.997,25.76c-3.117-0.969-7.964,0.735-9.743,7.805c-0.15,0.387-0.306,0.378-0.446-0.014
				c-2.57-7.163-6.805-8.727-9.782-7.791c-4.41,1.423-7.984,6.682-7.658,13.391c0.091,11.712,10.572,17.608,17.646,28.808
				c7.074-11.199,17.673-17.08,17.702-28.842C64.327,32.337,60.533,27.156,55.997,25.76z"/>
		</g>
		<g>
			<path fill="#E44145" d="M55.997,76.784c-3.117-0.97-7.964,0.734-9.743,7.805c-0.15,0.387-0.306,0.378-0.446-0.014
				c-2.57-7.162-6.805-8.727-9.782-7.791c-4.41,1.422-7.984,6.682-7.658,13.391c0.091,11.711,10.572,17.607,17.646,28.807
				c7.074-11.199,17.673-17.078,17.702-28.841C64.327,83.361,60.533,78.18,55.997,76.784z"/>
			<path fill="#E44145" d="M46.06,119.054c-0.016-0.024-0.031-0.048-0.047-0.072c-0.016,0.024-0.031,0.048-0.047,0.072H46.06z"/>
		</g>
		<g>
			<path fill="#E44145" d="M46.067,178.581c0.016,0.023,0.031,0.047,0.047,0.072c0.016-0.025,0.031-0.049,0.047-0.072H46.067z"/>
			<path fill="#E44145" d="M63.759,207.462c-0.088-11.711-10.568-17.609-17.645-28.809c-7.074,11.199-17.673,17.08-17.702,28.842
				c-0.612,6.779,3.182,11.961,7.718,13.357c3.116,0.967,7.964-0.736,9.743-7.805c0.15-0.387,0.306-0.379,0.446,0.014
				c2.569,7.162,6.805,8.727,9.782,7.791C60.512,219.429,64.086,214.171,63.759,207.462z"/>
		</g>
		<g>
			<path fill="#E44145" d="M63.759,156.438c-0.088-11.711-10.568-17.609-17.645-28.809c-7.074,11.199-17.673,17.08-17.702,28.842
				c-0.612,6.781,3.182,11.961,7.718,13.357c3.116,0.969,7.964-0.736,9.743-7.807c0.15-0.387,0.306-0.379,0.446,0.016
				c2.569,7.162,6.805,8.727,9.782,7.791C60.512,168.405,64.086,163.147,63.759,156.438z"/>
			<path fill="#E44145" d="M46.067,127.558c0.016,0.023,0.031,0.047,0.047,0.072c0.016-0.025,0.031-0.049,0.047-0.072H46.067z"/>
		</g>
		<g>
			<path fill="#E44145" d="M99.232,54.106c-3.117-0.969-7.971,0.735-9.754,7.805c-0.148,0.387-0.307,0.379-0.445-0.014
				c-2.572-7.162-6.803-8.727-9.783-7.791c-4.41,1.422-7.98,6.682-7.654,13.391c0.088,11.711,10.567,17.607,17.641,28.808
				c7.081-11.2,17.68-17.079,17.707-28.842C107.559,60.684,103.762,55.502,99.232,54.106z"/>
			<path fill="#E44145" d="M89.283,96.377c-0.016-0.024-0.031-0.048-0.047-0.072c-0.016,0.024-0.031,0.048-0.047,0.072H89.283z"/>
		</g>
		<g>
			<path fill="#E44145" d="M106.987,181.946c-0.085-11.715-10.566-17.611-17.646-28.805c-7.073,11.193-17.672,17.074-17.701,28.84
				c-0.612,6.781,3.184,11.963,7.716,13.359c3.116,0.967,7.962-0.736,9.743-7.809c0.148-0.385,0.305-0.377,0.445,0.016
				c2.575,7.162,6.812,8.727,9.786,7.793C103.742,193.917,107.316,188.659,106.987,181.946z"/>
			<path fill="#E44145" d="M89.295,153.069c0.016,0.023,0.031,0.047,0.047,0.072c0.016-0.025,0.031-0.049,0.047-0.072H89.295z"/>
		</g>
		<g>
			<path fill="#E44145" d="M132.516,68.03c-0.016-0.025-0.032-0.049-0.049-0.074c-0.016,0.025-0.032,0.049-0.048,0.074H132.516z"/>
			<path fill="#E44145" d="M142.453,25.76c-3.117-0.969-7.965,0.736-9.746,7.805c-0.145,0.387-0.303,0.379-0.444-0.014
				c-2.569-7.162-6.801-8.727-9.78-7.791c-4.413,1.423-7.987,6.682-7.658,13.392c0.091,11.709,10.566,17.606,17.643,28.805
				c7.078-11.198,17.671-17.078,17.704-28.839C150.785,32.337,146.988,27.156,142.453,25.76z"/>
		</g>
		<g>
			<path fill="#E44145" d="M142.453,76.783c-3.117-0.968-7.965,0.735-9.746,7.806c-0.145,0.387-0.303,0.378-0.444-0.014
				c-2.569-7.163-6.801-8.728-9.78-7.792c-4.413,1.423-7.987,6.682-7.658,13.392c0.091,11.711,10.566,17.607,17.643,28.805
				c7.078-11.197,17.671-17.078,17.704-28.839C150.785,83.36,146.988,78.18,142.453,76.783z"/>
			<path fill="#E44145" d="M132.516,119.054c-0.016-0.025-0.032-0.049-0.049-0.074c-0.016,0.025-0.032,0.049-0.048,0.074H132.516z"
				/>
		</g>
		<g>
			<path fill="#E44145" d="M150.217,207.462c-0.092-11.711-10.567-17.607-17.645-28.807c-7.078,11.199-17.677,17.08-17.703,28.84
				c-0.615,6.779,3.183,11.961,7.717,13.357c3.117,0.967,7.965-0.736,9.747-7.805c0.145-0.389,0.303-0.379,0.441,0.014
				c2.572,7.162,6.804,8.727,9.784,7.791C146.967,219.429,150.539,214.171,150.217,207.462z"/>
			<path fill="#E44145" d="M132.524,178.581c0.016,0.025,0.032,0.049,0.048,0.074c0.017-0.025,0.033-0.049,0.049-0.074H132.524z"/>
		</g>
		<g>
			<path fill="#E44145" d="M132.523,127.558c0.016,0.025,0.032,0.049,0.049,0.074c0.016-0.025,0.032-0.049,0.048-0.074H132.523z"/>
			<path fill="#E44145" d="M150.216,156.438c-0.091-11.711-10.566-17.607-17.644-28.807c-7.078,11.199-17.678,17.08-17.703,28.84
				c-0.615,6.781,3.182,11.961,7.717,13.357c3.117,0.967,7.964-0.736,9.746-7.805c0.145-0.387,0.303-0.379,0.441,0.014
				c2.572,7.162,6.804,8.727,9.784,7.791C146.966,168.407,150.539,163.147,150.216,156.438z"/>
		</g>
		<g>
			<g>
				<polygon fill="#E44145" points="5.67,38.23 5.67,14.172 7.851,14.172 7.851,38.23 5.67,38.23 				"/>
			</g>
			<path fill="#E44145" d="M12.41,36.95c-0.794-0.817-1.304-1.981-1.302-3.262l0,0V18.751c-0.002-1.282,0.508-2.445,1.302-3.262l0,0
				c0.793-0.82,1.88-1.317,3.065-1.317l0,0c1.185,0,2.271,0.497,3.066,1.317l0,0c0.793,0.817,1.303,1.98,1.301,3.262l0,0v14.937
				c0.002,1.281-0.508,2.445-1.301,3.262l0,0c-0.795,0.82-1.882,1.316-3.066,1.316l0,0C14.29,38.267,13.203,37.771,12.41,36.95
				L12.41,36.95z M13.907,17.226c-0.393,0.408-0.617,0.938-0.618,1.525l0,0v14.937c0.001,0.588,0.226,1.116,0.618,1.525l0,0
				c0.392,0.405,0.943,0.666,1.568,0.666l0,0c0.625,0,1.176-0.261,1.568-0.666l0,0c0.393-0.409,0.617-0.938,0.618-1.525l0,0V18.751
				c-0.001-0.588-0.226-1.117-0.618-1.525l0,0c-0.393-0.405-0.943-0.666-1.568-0.666l0,0C14.851,16.56,14.299,16.821,13.907,17.226
				L13.907,17.226z"/>
		</g>
		<g>
			<g>
				<polygon fill="#E44145" points="172.914,211.216 172.914,235.274 170.732,235.274 170.732,211.216 172.914,211.216 				"/>
			</g>
			<path fill="#E44145" d="M166.174,212.497c0.794,0.816,1.303,1.98,1.302,3.262l0,0v14.936c0.001,1.283-0.508,2.445-1.302,3.264
				l0,0c-0.793,0.818-1.881,1.316-3.066,1.316l0,0c-1.184,0-2.271-0.498-3.065-1.316l0,0c-0.794-0.818-1.303-1.98-1.302-3.264l0,0
				v-14.936c-0.001-1.281,0.508-2.445,1.302-3.262l0,0c0.794-0.82,1.882-1.316,3.065-1.316l0,0
				C164.293,211.181,165.381,211.677,166.174,212.497L166.174,212.497z M164.677,232.22c0.393-0.408,0.617-0.938,0.618-1.525l0,0
				v-14.936c-0.001-0.588-0.226-1.117-0.618-1.525l0,0c-0.392-0.406-0.943-0.666-1.569-0.666l0,0c-0.624,0-1.176,0.26-1.568,0.666
				l0,0c-0.393,0.408-0.616,0.938-0.617,1.525l0,0v14.936c0.001,0.588,0.225,1.117,0.617,1.525l0,0
				c0.393,0.406,0.944,0.666,1.568,0.666l0,0C163.733,232.886,164.285,232.626,164.677,232.22L164.677,232.22z"/>
		</g>
	</g>
</g>
<g id="jack">
</g>
<g id="queen">
</g>
<g id="king">
</g>
<g id="jolly">
</g>
<g id="back">
</g>
</svg>
