<?xml version="1.0" encoding="utf-8"?>
<!-- Generator: Adobe Illustrator 16.0.4, SVG Export Plug-In . SVG Version: 6.00 Build 0)  -->
<!DOCTYPE svg PUBLIC "-//W3C//DTD SVG 1.1//EN" "http://www.w3.org/Graphics/SVG/1.1/DTD/svg11.dtd">
<svg version="1.1" xmlns="http://www.w3.org/2000/svg" xmlns:xlink="http://www.w3.org/1999/xlink" x="0px" y="0px"
	 width="178.582px" height="249.44px" viewBox="0 0 178.582 249.44" enable-background="new 0 0 178.582 249.44"
	 xml:space="preserve">
<g id="ace">
</g>
<g id="two">
</g>
<g id="three">
</g>
<g id="four">
</g>
<g id="five">
</g>
<g id="six">
</g>
<g id="seven">
</g>
<g id="eight">
</g>
<g id="nine">
</g>
<g id="ten">
	<path fill="#F4F4F2" stroke="#000000" d="M178.584,235.267c0,7.827-6.346,14.173-14.174,14.173H14.174
		C6.346,249.44,0,243.094,0,235.267V14.174C0,6.346,6.346,0,14.174,0H164.41c7.828,0,14.174,6.346,14.174,14.174V235.267z"/>
	<g>
		<g>
			<polygon points="5.67,38.231 5.67,14.173 7.851,14.173 7.851,38.231 5.67,38.231 			"/>
		</g>
		<path d="M12.41,36.95c-0.794-0.816-1.304-1.979-1.302-3.262l0,0V18.752c-0.002-1.282,0.508-2.445,1.302-3.262l0,0
			c0.793-0.82,1.88-1.317,3.065-1.317l0,0c1.185,0,2.271,0.497,3.066,1.317l0,0c0.793,0.816,1.303,1.979,1.301,3.262l0,0v14.937
			c0.002,1.282-0.508,2.445-1.301,3.262l0,0c-0.795,0.82-1.882,1.317-3.066,1.317l0,0C14.29,38.268,13.203,37.771,12.41,36.95
			L12.41,36.95z M13.907,17.227c-0.393,0.409-0.617,0.938-0.618,1.525l0,0v14.937c0.001,0.588,0.226,1.117,0.618,1.525l0,0
			c0.392,0.405,0.943,0.666,1.568,0.666l0,0c0.625,0,1.176-0.261,1.568-0.666l0,0c0.393-0.408,0.617-0.938,0.618-1.525l0,0V18.752
			c-0.001-0.588-0.226-1.116-0.618-1.525l0,0c-0.393-0.404-0.943-0.666-1.568-0.666l0,0C14.851,16.561,14.299,16.822,13.907,17.227
			L13.907,17.227z"/>
	</g>
	<g>
		<g>
			<polygon points="172.914,211.208 172.914,235.267 170.732,235.267 170.732,211.208 172.914,211.208 			"/>
		</g>
		<path d="M166.174,212.49c0.793,0.816,1.303,1.979,1.301,3.262l0,0v14.936c0.002,1.283-0.508,2.445-1.301,3.262l0,0
			c-0.793,0.82-1.881,1.318-3.066,1.318l0,0c-1.184,0-2.271-0.498-3.066-1.318l0,0c-0.793-0.816-1.303-1.979-1.301-3.262l0,0
			v-14.936c-0.002-1.282,0.508-2.445,1.301-3.262l0,0c0.795-0.82,1.883-1.318,3.066-1.318l0,0
			C164.293,211.171,165.381,211.669,166.174,212.49L166.174,212.49z M164.676,232.212c0.393-0.408,0.617-0.938,0.619-1.525l0,0
			v-14.936c-0.002-0.588-0.227-1.117-0.619-1.525l0,0c-0.391-0.406-0.943-0.666-1.568-0.666l0,0c-0.625,0-1.176,0.26-1.568,0.666
			l0,0c-0.393,0.408-0.617,0.938-0.617,1.525l0,0v14.936c0,0.588,0.225,1.117,0.617,1.525l0,0c0.393,0.405,0.943,0.666,1.568,0.666
			l0,0C163.732,232.878,164.285,232.618,164.676,232.212L164.676,232.212z"/>
	</g>
	<path fill-rule="evenodd" clip-rule="evenodd" stroke="#000000" stroke-linejoin="round" d="M12.747,42.521
		c-0.041,0.027-0.07,0.041-0.117,0.072c-3.038,1.939-6.583,5.725-6.946,10.441c-0.173,2.244,1.263,3.798,3.118,3.832
		c1.184,0.021,2.137-0.399,2.652-1.203c0.429-0.668,0.538-1.699,0.607-1.223c0.25,1.816-0.511,3.562-0.922,5.088
		c0.459-0.167,1.035-0.251,1.613-0.253h0.01c0.577,0.002,1.152,0.086,1.61,0.253c-0.411-1.525-1.17-3.271-0.921-5.088
		c0.069-0.477,0.179,0.555,0.606,1.223c0.516,0.804,1.469,1.225,2.652,1.203c1.855-0.034,3.291-1.588,3.118-3.832
		c-0.363-4.717-3.908-8.502-6.943-10.441c-0.033-0.024-0.062-0.04-0.11-0.072H12.747z"/>
	<path fill-rule="evenodd" clip-rule="evenodd" stroke="#000000" stroke-linejoin="round" d="M165.818,206.92
		c-0.041-0.027-0.07-0.042-0.117-0.072c-3.039-1.94-6.584-5.725-6.947-10.441c-0.172-2.244,1.264-3.798,3.119-3.832
		c1.184-0.021,2.137,0.399,2.652,1.203c0.428,0.668,0.537,1.699,0.607,1.223c0.25-1.816-0.512-3.562-0.922-5.088
		c0.459,0.167,1.035,0.251,1.613,0.253h0.01c0.576-0.002,1.152-0.086,1.609-0.253c-0.41,1.525-1.17,3.271-0.92,5.088
		c0.068,0.477,0.178-0.555,0.605-1.223c0.516-0.804,1.469-1.225,2.652-1.203c1.855,0.034,3.291,1.588,3.119,3.832
		c-0.363,4.717-3.908,8.501-6.943,10.441c-0.033,0.024-0.062,0.04-0.111,0.072H165.818z"/>
	<path fill-rule="evenodd" clip-rule="evenodd" stroke="#000000" stroke-linejoin="round" d="M46.039,25.512
		c-0.102,0.067-0.174,0.104-0.293,0.181c-7.595,4.85-16.456,14.311-17.364,26.104c-0.432,5.61,3.155,9.495,7.794,9.58
		c2.961,0.054,5.342-0.998,6.632-3.008c1.072-1.671,1.346-4.248,1.52-3.058c0.625,4.542-1.277,8.907-2.307,12.721
		c1.147-0.417,2.59-0.627,4.034-0.632h0.023c1.442,0.005,2.882,0.215,4.027,0.632c-1.027-3.813-2.926-8.179-2.303-12.721
		c0.174-1.19,0.446,1.387,1.517,3.058c1.289,2.01,3.671,3.062,6.631,3.008c4.639-0.085,8.227-3.97,7.794-9.58
		c-0.908-11.793-9.77-21.254-17.358-26.104c-0.082-0.062-0.155-0.1-0.274-0.181H46.039z"/>
	<path fill-rule="evenodd" clip-rule="evenodd" stroke="#000000" stroke-linejoin="round" d="M90.686,53.858
		c-0.102,0.067-0.174,0.104-0.293,0.181c-7.596,4.85-16.457,14.311-17.365,26.104c-0.432,5.61,3.155,9.495,7.794,9.58
		c2.961,0.054,5.343-0.998,6.632-3.008c1.072-1.671,1.346-4.248,1.52-3.058c0.625,4.542-1.277,8.907-2.307,12.721
		c1.148-0.417,2.59-0.627,4.035-0.632h0.023c1.441,0.005,2.881,0.215,4.027,0.632c-1.027-3.813-2.926-8.179-2.303-12.721
		c0.174-1.19,0.445,1.387,1.516,3.058c1.289,2.01,3.672,3.062,6.631,3.008c4.639-0.085,8.227-3.97,7.795-9.58
		c-0.908-11.793-9.77-21.254-17.359-26.104c-0.082-0.062-0.154-0.1-0.273-0.181H90.686z"/>
	<path fill-rule="evenodd" clip-rule="evenodd" stroke="#000000" stroke-linejoin="round" d="M133.914,25.512
		c-0.102,0.067-0.174,0.104-0.293,0.181c-7.596,4.85-16.457,14.311-17.365,26.104c-0.432,5.61,3.156,9.495,7.795,9.58
		c2.961,0.054,5.342-0.998,6.631-3.008c1.072-1.671,1.346-4.248,1.52-3.058c0.625,4.542-1.277,8.907-2.307,12.721
		c1.148-0.417,2.59-0.627,4.035-0.632h0.023c1.441,0.005,2.881,0.215,4.027,0.632c-1.027-3.813-2.926-8.179-2.303-12.721
		c0.174-1.19,0.445,1.387,1.516,3.058c1.289,2.01,3.672,3.062,6.631,3.008c4.639-0.085,8.227-3.97,7.795-9.58
		c-0.908-11.793-9.77-21.254-17.359-26.104c-0.082-0.062-0.154-0.1-0.273-0.181H133.914z"/>
	<path fill-rule="evenodd" clip-rule="evenodd" stroke="#000000" stroke-linejoin="round" d="M46.039,77.48
		c-0.102,0.067-0.174,0.104-0.293,0.181c-7.595,4.85-16.456,14.311-17.364,26.102c-0.432,5.609,3.155,9.494,7.794,9.578
		c2.961,0.055,5.342-0.998,6.632-3.007c1.072-1.67,1.346-4.248,1.52-3.056c0.625,4.54-1.277,8.904-2.307,12.717
		c1.147-0.418,2.59-0.627,4.034-0.633h0.023c1.442,0.006,2.882,0.215,4.027,0.633c-1.027-3.813-2.926-8.177-2.303-12.717
		c0.174-1.191,0.446,1.386,1.517,3.056c1.289,2.009,3.671,3.062,6.631,3.007c4.639-0.084,8.227-3.968,7.794-9.578
		c-0.908-11.792-9.77-21.252-17.358-26.102c-0.082-0.062-0.155-0.1-0.274-0.181H46.039z"/>
	<path fill-rule="evenodd" clip-rule="evenodd" stroke="#000000" stroke-linejoin="round" d="M132.496,77.48
		c-0.102,0.067-0.174,0.104-0.293,0.181c-7.596,4.85-16.457,14.311-17.365,26.103c-0.432,5.608,3.156,9.493,7.795,9.577
		c2.961,0.055,5.342-0.998,6.631-3.007c1.072-1.67,1.346-4.248,1.52-3.056c0.625,4.54-1.277,8.904-2.307,12.717
		c1.148-0.418,2.59-0.627,4.035-0.633h0.023c1.441,0.006,2.881,0.215,4.027,0.633c-1.027-3.813-2.926-8.177-2.303-12.717
		c0.174-1.191,0.445,1.386,1.516,3.056c1.289,2.009,3.672,3.062,6.631,3.007c4.639-0.084,8.227-3.968,7.795-9.577
		c-0.908-11.792-9.77-21.253-17.359-26.103c-0.082-0.062-0.154-0.1-0.273-0.181H132.496z"/>
	<path fill-rule="evenodd" clip-rule="evenodd" stroke="#000000" stroke-linejoin="round" d="M46.039,223.928
		c-0.102-0.067-0.174-0.104-0.293-0.181c-7.595-4.85-16.456-14.311-17.364-26.104c-0.432-5.611,3.155-9.496,7.794-9.58
		c2.961-0.055,5.342,0.998,6.632,3.008c1.072,1.671,1.346,4.248,1.52,3.057c0.625-4.541-1.277-8.906-2.307-12.721
		c1.147,0.418,2.59,0.627,4.034,0.633h0.023c1.442-0.006,2.882-0.215,4.027-0.633c-1.027,3.814-2.926,8.18-2.303,12.721
		c0.174,1.191,0.446-1.386,1.517-3.057c1.289-2.01,3.671-3.062,6.631-3.008c4.639,0.084,8.227,3.969,7.794,9.58
		c-0.908,11.793-9.77,21.254-17.358,26.104c-0.082,0.062-0.155,0.1-0.274,0.181H46.039z"/>
	<path fill-rule="evenodd" clip-rule="evenodd" stroke="#000000" stroke-linejoin="round" d="M132.496,223.928
		c-0.102-0.067-0.174-0.104-0.293-0.181c-7.594-4.85-16.455-14.311-17.363-26.104c-0.432-5.611,3.154-9.496,7.793-9.58
		c2.961-0.055,5.342,0.998,6.633,3.008c1.072,1.671,1.346,4.248,1.52,3.057c0.625-4.541-1.277-8.906-2.307-12.721
		c1.146,0.418,2.59,0.627,4.033,0.633h0.023c1.443-0.006,2.883-0.215,4.027-0.633c-1.027,3.814-2.926,8.18-2.303,12.721
		c0.174,1.191,0.447-1.386,1.518-3.057c1.289-2.01,3.67-3.062,6.631-3.008c4.639,0.084,8.227,3.969,7.793,9.58
		c-0.908,11.793-9.77,21.254-17.357,26.104c-0.082,0.062-0.156,0.1-0.275,0.181H132.496z"/>
	<path fill-rule="evenodd" clip-rule="evenodd" stroke="#000000" stroke-linejoin="round" d="M46.039,171.959
		c-0.102-0.067-0.174-0.104-0.293-0.181c-7.595-4.85-16.456-14.311-17.364-26.104c-0.432-5.611,3.155-9.496,7.794-9.58
		c2.961-0.055,5.342,0.998,6.632,3.008c1.072,1.671,1.346,4.248,1.52,3.057c0.625-4.541-1.277-8.906-2.307-12.721
		c1.147,0.418,2.59,0.627,4.034,0.633h0.023c1.442-0.006,2.882-0.215,4.027-0.633c-1.027,3.814-2.926,8.18-2.303,12.721
		c0.174,1.191,0.446-1.386,1.517-3.057c1.289-2.01,3.671-3.062,6.631-3.008c4.639,0.084,8.227,3.969,7.794,9.58
		c-0.908,11.793-9.77,21.254-17.358,26.104c-0.082,0.062-0.155,0.1-0.274,0.181H46.039z"/>
	<path fill-rule="evenodd" clip-rule="evenodd" stroke="#000000" stroke-linejoin="round" d="M89.268,195.582
		c-0.102-0.068-0.174-0.104-0.293-0.182c-7.595-4.85-16.456-14.311-17.364-26.104c-0.432-5.61,3.155-9.495,7.794-9.58
		c2.961-0.054,5.342,0.998,6.633,3.008c1.072,1.672,1.346,4.248,1.52,3.058c0.625-4.542-1.277-8.907-2.307-12.721
		c1.146,0.417,2.59,0.627,4.033,0.632h0.023c1.443-0.005,2.883-0.215,4.027-0.632c-1.027,3.813-2.926,8.179-2.303,12.721
		c0.174,1.19,0.447-1.386,1.518-3.058c1.289-2.01,3.67-3.062,6.631-3.008c4.639,0.085,8.227,3.97,7.793,9.58
		c-0.908,11.793-9.77,21.254-17.357,26.104c-0.082,0.062-0.156,0.1-0.275,0.182H89.268z"/>
	<path fill-rule="evenodd" clip-rule="evenodd" stroke="#000000" stroke-linejoin="round" d="M132.496,171.959
		c-0.102-0.067-0.174-0.104-0.293-0.181c-7.594-4.85-16.455-14.311-17.363-26.104c-0.432-5.611,3.154-9.496,7.793-9.58
		c2.961-0.055,5.342,0.998,6.633,3.008c1.072,1.671,1.346,4.248,1.52,3.057c0.625-4.541-1.277-8.906-2.307-12.721
		c1.146,0.418,2.59,0.627,4.033,0.633h0.023c1.443-0.006,2.883-0.215,4.027-0.633c-1.027,3.814-2.926,8.18-2.303,12.721
		c0.174,1.191,0.447-1.386,1.518-3.057c1.289-2.01,3.67-3.062,6.631-3.008c4.639,0.084,8.227,3.969,7.793,9.58
		c-0.908,11.793-9.77,21.254-17.357,26.104c-0.082,0.062-0.156,0.1-0.275,0.181H132.496z"/>
</g>
<g id="jack">
</g>
<g id="queen">
</g>
<g id="king">
</g>
<g id="joker">
</g>
<g id="back">
</g>
</svg>
