<?xml version="1.0" encoding="utf-8"?>
<!-- Generator: Adobe Illustrator 16.0.4, SVG Export Plug-In . SVG Version: 6.00 Build 0)  -->
<!DOCTYPE svg PUBLIC "-//W3C//DTD SVG 1.1//EN" "http://www.w3.org/Graphics/SVG/1.1/DTD/svg11.dtd">
<svg version="1.1" xmlns="http://www.w3.org/2000/svg" xmlns:xlink="http://www.w3.org/1999/xlink" x="0px" y="0px"
	 width="178.583px" height="249.449px" viewBox="0 0 178.583 249.449" enable-background="new 0 0 178.583 249.449"
	 xml:space="preserve">
<g id="ace">
</g>
<g id="two">
	<g>
		<path fill="#F4F4F2" stroke="#000000" d="M178.583,235.275c0,7.828-6.346,14.174-14.174,14.174H14.174
			C6.346,249.449,0,243.104,0,235.275V14.173C0,6.346,6.346,0,14.174,0h150.234c7.828,0,14.174,6.346,14.174,14.173V235.275z"/>
		<path d="M12.756,42.52c-1.861,0-3.375,1.703-3.375,3.802c0,1.2,0.5,2.264,1.268,2.967c0.258,0.237,0.146,0.495-0.115,0.334
			c-0.48-0.291-1.023-0.477-1.607-0.477c-1.797,0-3.256,1.643-3.256,3.666c0,2.024,1.459,3.667,3.256,3.667
			c1.199,0,2.248-0.729,2.811-1.816c0.055-0.106,0.1-0.253,0.178-0.253c0.107,0,0.156,0.176,0.156,0.503
			c0,1.315-0.504,2.852-1.25,4.615c0.322-0.076,1.297-0.271,1.936-0.271s1.615,0.194,1.936,0.271c-0.746-1.764-1.25-3.3-1.25-4.615
			c0-0.327,0.051-0.503,0.158-0.503c0.078,0,0.121,0.146,0.176,0.253c0.564,1.088,1.613,1.816,2.811,1.816
			c1.797,0,3.256-1.643,3.256-3.667c0-2.023-1.459-3.666-3.256-3.666c-0.584,0-1.127,0.186-1.605,0.477
			c-0.264,0.161-0.375-0.097-0.115-0.334c0.766-0.703,1.268-1.767,1.268-2.967C16.133,44.223,14.622,42.52,12.756,42.52z"/>
		<path d="M165.825,206.93c1.865,0,3.377-1.704,3.377-3.802c0-1.2-0.502-2.265-1.268-2.967c-0.258-0.237-0.146-0.495,0.113-0.335
			c0.48,0.291,1.023,0.478,1.609,0.478c1.795,0,3.258-1.644,3.258-3.667s-1.463-3.667-3.258-3.667c-1.199,0-2.246,0.729-2.811,1.816
			c-0.055,0.106-0.1,0.253-0.18,0.253c-0.107,0-0.156-0.175-0.156-0.503c0-1.313,0.508-2.851,1.25-4.614
			c-0.322,0.075-1.295,0.27-1.936,0.27c-0.635,0-1.611-0.194-1.936-0.27c0.744,1.764,1.252,3.301,1.252,4.614
			c0,0.328-0.051,0.503-0.156,0.503c-0.082,0-0.123-0.146-0.178-0.253c-0.566-1.087-1.615-1.816-2.811-1.816
			c-1.799,0-3.256,1.644-3.256,3.667s1.457,3.667,3.256,3.667c0.582,0,1.125-0.187,1.605-0.478c0.266-0.16,0.377,0.098,0.117,0.335
			c-0.77,0.702-1.27,1.767-1.27,2.967C162.45,205.226,163.961,206.93,165.825,206.93z"/>
		<path d="M89.293,25.512c-4.66,0-8.441,4.258-8.441,9.504c0,2.999,1.252,5.66,3.172,7.417c0.648,0.593,0.369,1.237-0.289,0.836
			c-1.201-0.729-2.555-1.192-4.016-1.192c-4.494,0-8.145,4.105-8.145,9.166s3.65,9.168,8.145,9.168c2.994,0,5.619-1.822,7.025-4.542
			c0.139-0.266,0.25-0.631,0.443-0.631c0.268,0,0.393,0.438,0.393,1.256c0,3.287-1.264,7.127-3.129,11.538
			c0.807-0.191,3.25-0.678,4.842-0.678s4.033,0.486,4.84,0.678c-1.865-4.411-3.131-8.251-3.131-11.538
			c0-0.818,0.129-1.256,0.395-1.256c0.195,0,0.305,0.365,0.441,0.631c1.41,2.72,4.031,4.542,7.027,4.542
			c4.496,0,8.143-4.107,8.143-9.168s-3.646-9.166-8.143-9.166c-1.459,0-2.814,0.463-4.012,1.192
			c-0.662,0.401-0.941-0.243-0.291-0.836c1.916-1.757,3.168-4.418,3.168-7.417C97.731,29.77,93.95,25.512,89.293,25.512z"/>
		<path d="M89.293,223.938c4.656,0,8.438-4.258,8.438-9.506c0-2.998-1.252-5.658-3.168-7.414c-0.65-0.594-0.371-1.239,0.291-0.837
			c1.197,0.729,2.553,1.193,4.012,1.193c4.496,0,8.143-4.106,8.143-9.167s-3.646-9.168-8.143-9.168
			c-2.996,0-5.615,1.822-7.027,4.541c-0.137,0.266-0.246,0.631-0.441,0.631c-0.266,0-0.395-0.437-0.395-1.256
			c0-3.286,1.266-7.125,3.131-11.537c-0.807,0.191-3.248,0.678-4.84,0.678c-1.594,0-4.035-0.486-4.842-0.678
			c1.867,4.412,3.129,8.251,3.129,11.537c0,0.819-0.125,1.256-0.393,1.256c-0.193,0-0.305-0.365-0.441-0.631
			c-1.408-2.719-4.033-4.541-7.027-4.541c-4.494,0-8.145,4.107-8.145,9.168s3.65,9.167,8.145,9.167c1.461,0,2.814-0.464,4.016-1.193
			c0.658-0.402,0.938,0.243,0.289,0.837c-1.92,1.756-3.172,4.416-3.172,7.414C80.852,219.68,84.633,223.938,89.293,223.938z"/>
		<path d="M19.821,34.496l-2.275-0.01l-0.008,1.448l-9.561-0.001c0.049-0.332,0.193-0.754,0.463-1.237
			c0.488-0.892,1.35-1.937,2.387-2.974c1.035-1.038,2.24-2.076,3.416-3.021l0.004-0.004l0.01-0.008
			c1.42-1.182,2.631-2.057,3.617-3.098c0.488-0.521,0.92-1.094,1.242-1.76c0.322-0.664,0.529-1.41,0.605-2.234
			c0.018-0.174,0.025-0.359,0.025-0.562c0-0.562-0.066-1.239-0.254-1.972c-0.279-1.092-0.846-2.322-1.928-3.291
			c-1.08-0.973-2.652-1.607-4.676-1.601c-1.625-0.003-2.961,0.419-3.979,1.107c-0.764,0.513-1.342,1.161-1.77,1.829
			c-0.639,1.006-0.951,2.055-1.115,2.895c-0.162,0.842-0.176,1.484-0.176,1.695c0,0.038,0,0.062,0,0.072l1.975-0.053l0.303-0.004
			c0-0.002,0-0.008,0-0.016c-0.006-0.178,0.041-1.621,0.666-2.859c0.309-0.621,0.74-1.188,1.367-1.609
			c0.627-0.418,1.473-0.721,2.729-0.725c1.059,0.002,1.832,0.207,2.418,0.506c0.873,0.449,1.387,1.121,1.721,1.881
			c0.332,0.752,0.443,1.588,0.441,2.144c0,0.132-0.006,0.247-0.014,0.337c-0.057,0.576-0.186,1.016-0.379,1.42
			c-0.291,0.602-0.766,1.155-1.486,1.803c-0.715,0.643-1.654,1.359-2.762,2.275c-1.619,1.305-3.32,2.793-4.666,4.326
			c-0.676,0.769-1.262,1.549-1.705,2.352c-0.416,0.758-0.707,1.546-0.766,2.385H5.684l-0.008,0.145v0.002l0,0l-0.002,0.006
			l-0.006,2.182h14.156v-1L19.821,34.496z"/>
		<path d="M158.743,214.951l2.275,0.01l0.01-1.447h9.561c-0.051,0.334-0.195,0.756-0.463,1.238
			c-0.488,0.891-1.352,1.938-2.387,2.973c-1.035,1.039-2.242,2.078-3.416,3.023l-0.006,0.002l-0.008,0.008
			c-1.42,1.184-2.633,2.057-3.617,3.1c-0.49,0.521-0.92,1.094-1.242,1.758c-0.324,0.664-0.531,1.41-0.607,2.236
			c-0.016,0.172-0.025,0.358-0.025,0.561c0.002,0.561,0.066,1.24,0.254,1.972c0.281,1.091,0.848,2.322,1.93,3.292
			c1.078,0.973,2.652,1.607,4.676,1.6c1.625,0.003,2.959-0.42,3.979-1.107c0.764-0.513,1.342-1.16,1.768-1.83
			c0.641-1.006,0.951-2.053,1.117-2.895c0.162-0.842,0.176-1.482,0.176-1.693c0-0.039,0-0.064-0.002-0.072l-1.973,0.053
			l-0.303,0.004c0,0.002,0,0.007,0,0.016c0.006,0.178-0.043,1.62-0.666,2.857c-0.309,0.623-0.74,1.188-1.367,1.609
			c-0.629,0.42-1.473,0.723-2.729,0.727c-1.059-0.002-1.832-0.209-2.418-0.508c-0.873-0.449-1.387-1.119-1.723-1.879
			c-0.332-0.754-0.443-1.588-0.441-2.145c0-0.132,0.008-0.246,0.016-0.338c0.055-0.575,0.184-1.016,0.379-1.42
			c0.291-0.602,0.766-1.154,1.486-1.801c0.713-0.643,1.654-1.359,2.76-2.275c1.621-1.307,3.32-2.795,4.668-4.326
			c0.674-0.77,1.262-1.549,1.705-2.353c0.416-0.757,0.707-1.546,0.766-2.386h0.008l0.008-0.144c0-0.001,0-0.001,0-0.002l0,0v-0.007
			l0.006-2.181h-14.154v1.001L158.743,214.951z"/>
	</g>
</g>
<g id="three">
</g>
<g id="four">
</g>
<g id="nine">
</g>
<g id="five">
</g>
<g id="six">
</g>
<g id="seven">
</g>
<g id="eight">
</g>
<g id="ten">
</g>
<g id="jack">
</g>
<g id="queen">
</g>
<g id="king">
</g>
<g id="jolly">
</g>
<g id="back">
</g>
</svg>
