<?xml version="1.0" encoding="utf-8"?>
<!-- Generator: Adobe Illustrator 16.0.4, SVG Export Plug-In . SVG Version: 6.00 Build 0)  -->
<!DOCTYPE svg PUBLIC "-//W3C//DTD SVG 1.1//EN" "http://www.w3.org/Graphics/SVG/1.1/DTD/svg11.dtd">
<svg version="1.1" xmlns="http://www.w3.org/2000/svg" xmlns:xlink="http://www.w3.org/1999/xlink" x="0px" y="0px"
	 width="178.583px" height="249.449px" viewBox="0 0 178.583 249.449" enable-background="new 0 0 178.583 249.449"
	 xml:space="preserve">
<g id="ace">
</g>
<g id="two">
	<g>
		<path fill="#F4F4F2" stroke="#000000" d="M178.583,235.275c0,7.828-6.346,14.174-14.174,14.174H14.173
			C6.346,249.449,0,243.104,0,235.275V14.174C0,6.346,6.346,0,14.173,0H164.41c7.828,0,14.174,6.346,14.174,14.174V235.275z"/>
		<path fill="#E44145" d="M12.767,42.52c1.787,3.471,4.145,6.309,7.076,8.512c-2.931,2.207-5.289,5.039-7.076,8.496
			c-1.802-3.457-4.168-6.289-7.098-8.496C8.599,48.828,10.965,45.99,12.767,42.52L12.767,42.52z"/>
		<path fill="#E44145" d="M165.837,189.921c1.787,3.47,4.146,6.308,7.076,8.513c-2.93,2.206-5.289,5.038-7.076,8.495
			c-1.803-3.457-4.168-6.289-7.098-8.495C161.669,196.229,164.035,193.391,165.837,189.921L165.837,189.921z"/>
		<path fill="#E44145" d="M89.316,25.512c4.469,8.675,10.365,15.77,17.691,21.283c-7.326,5.517-13.223,12.595-17.691,21.237
			C84.814,59.39,78.9,52.312,71.575,46.795C78.9,41.281,84.814,34.187,89.316,25.512L89.316,25.512z"/>
		<path fill="#E44145" d="M89.316,181.417c4.469,8.675,10.364,15.77,17.691,21.282c-7.327,5.517-13.223,12.596-17.691,21.237
			c-4.502-8.642-10.416-15.721-17.741-21.237C78.9,197.187,84.814,190.092,89.316,181.417L89.316,181.417z"/>
		<path fill="#E44145" d="M19.822,34.496l-2.276-0.01l-0.009,1.448h-9.56c0.05-0.333,0.195-0.756,0.462-1.238
			c0.489-0.891,1.352-1.938,2.387-2.973c1.036-1.039,2.242-2.078,3.416-3.023l0.005-0.003l0.009-0.008
			c1.419-1.183,2.632-2.056,3.617-3.099c0.49-0.521,0.92-1.094,1.242-1.758c0.324-0.664,0.531-1.411,0.607-2.236
			c0.016-0.173,0.025-0.358,0.025-0.561c-0.001-0.561-0.066-1.239-0.253-1.972c-0.281-1.092-0.848-2.322-1.929-3.291
			c-1.079-0.973-2.652-1.607-4.676-1.601c-1.625-0.003-2.959,0.42-3.978,1.107c-0.764,0.513-1.343,1.161-1.769,1.829
			c-0.639,1.007-0.951,2.055-1.116,2.896c-0.163,0.842-0.176,1.483-0.176,1.694c0,0.038,0,0.062,0.001,0.072l1.974-0.053
			l0.303-0.004c0-0.003,0-0.008,0-0.016c-0.006-0.178,0.042-1.621,0.665-2.858c0.31-0.622,0.741-1.188,1.367-1.609
			c0.628-0.42,1.473-0.722,2.729-0.726c1.058,0.001,1.832,0.208,2.418,0.506c0.873,0.45,1.386,1.12,1.722,1.881
			c0.331,0.753,0.443,1.588,0.44,2.144c0,0.132-0.006,0.247-0.014,0.337c-0.055,0.576-0.184,1.017-0.379,1.42
			c-0.291,0.603-0.766,1.155-1.485,1.802c-0.715,0.643-1.655,1.359-2.761,2.276c-1.621,1.306-3.321,2.793-4.668,4.326
			c-0.674,0.769-1.262,1.549-1.705,2.352c-0.415,0.758-0.707,1.546-0.765,2.385H5.683l-0.008,0.145c0,0.001,0,0.001,0,0.002l0,0
			v0.007l-0.006,2.181h14.155v-1.001L19.822,34.496z"/>
		<path fill="#E44145" d="M158.744,214.951l2.275,0.01l0.01-1.447h9.56c-0.05,0.333-0.194,0.756-0.463,1.238
			c-0.488,0.891-1.351,1.938-2.386,2.973c-1.037,1.039-2.242,2.078-3.417,3.023l-0.005,0.002l-0.009,0.008
			c-1.42,1.184-2.632,2.057-3.616,3.1c-0.49,0.521-0.92,1.094-1.243,1.758s-0.53,1.41-0.606,2.236
			c-0.017,0.172-0.025,0.358-0.025,0.561c0.001,0.561,0.066,1.239,0.254,1.972c0.281,1.091,0.847,2.322,1.929,3.291
			c1.079,0.973,2.651,1.607,4.676,1.601c1.625,0.003,2.96-0.42,3.978-1.107c0.765-0.513,1.343-1.161,1.77-1.83
			c0.639-1.006,0.951-2.054,1.115-2.895c0.163-0.842,0.176-1.483,0.177-1.694c0-0.038-0.001-0.063-0.001-0.072l-1.974,0.053
			l-0.304,0.004c0,0.003,0,0.008,0,0.016c0.006,0.178-0.041,1.621-0.664,2.858c-0.311,0.622-0.742,1.188-1.368,1.609
			c-0.628,0.42-1.473,0.722-2.729,0.726c-1.059-0.001-1.831-0.208-2.419-0.507c-0.873-0.449-1.385-1.119-1.721-1.88
			c-0.332-0.753-0.443-1.588-0.441-2.144c0-0.132,0.006-0.247,0.015-0.338c0.056-0.575,0.185-1.016,0.38-1.42
			c0.291-0.602,0.765-1.154,1.484-1.801c0.715-0.643,1.655-1.359,2.762-2.276c1.621-1.306,3.32-2.794,4.667-4.326
			c0.675-0.769,1.263-1.549,1.706-2.352c0.414-0.758,0.707-1.546,0.765-2.386h0.008l0.008-0.144c0-0.001,0.001-0.001,0.001-0.002
			l0,0v-0.007l0.006-2.181H158.74v1.001L158.744,214.951z"/>
	</g>
</g>
<g id="three">
</g>
<g id="four">
</g>
<g id="five">
</g>
<g id="six">
</g>
<g id="seven">
</g>
<g id="eight">
</g>
<g id="nine">
</g>
<g id="ten">
</g>
<g id="jack">
</g>
<g id="queen">
</g>
<g id="king">
</g>
<g id="jolly">
</g>
<g id="back">
</g>
</svg>
