<?xml version="1.0" encoding="utf-8"?>
<!-- Generator: Adobe Illustrator 16.0.4, SVG Export Plug-In . SVG Version: 6.00 Build 0)  -->
<!DOCTYPE svg PUBLIC "-//W3C//DTD SVG 1.1//EN" "http://www.w3.org/Graphics/SVG/1.1/DTD/svg11.dtd">
<svg version="1.1" xmlns="http://www.w3.org/2000/svg" xmlns:xlink="http://www.w3.org/1999/xlink" x="0px" y="0px"
	 width="178.584px" height="249.449px" viewBox="0 0 178.584 249.449" enable-background="new 0 0 178.584 249.449"
	 xml:space="preserve">
<g id="ace">
</g>
<g id="two">
	<g>
		<path fill="#F4F4F2" stroke="#000000" d="M178.583,235.275c0,7.828-6.346,14.174-14.174,14.174H14.173
			C6.346,249.449,0,243.104,0,235.275V14.173C0,6.346,6.346,0,14.173,0h150.236c7.828,0,14.174,6.346,14.174,14.173V235.275z"/>
		<g>
			<path fill="#E44145" d="M16.729,42.619c-1.246-0.388-3.186,0.294-3.898,3.122c-0.059,0.154-0.121,0.151-0.178-0.006
				c-1.027-2.865-2.721-3.491-3.912-3.116c-1.766,0.568-3.194,2.672-3.064,5.356c0.036,4.684,4.229,7.043,7.059,11.523
				c2.83-4.479,7.068-6.832,7.082-11.537C20.062,45.25,18.542,43.178,16.729,42.619z"/>
			<path fill="#E44145" d="M12.755,59.527c-0.007-0.01-0.014-0.019-0.02-0.029c-0.006,0.01-0.013,0.019-0.02,0.029H12.755z"/>
		</g>
		<g>
			<path fill="#E44145" d="M165.849,189.949c-2.83,4.479-7.07,6.833-7.082,11.538c-0.246,2.712,1.273,4.785,3.086,5.344
				c1.246,0.387,3.186-0.295,3.898-3.123c0.061-0.154,0.123-0.15,0.178,0.006c1.029,2.864,2.723,3.49,3.912,3.117
				c1.766-0.569,3.195-2.674,3.064-5.357C172.87,196.789,168.678,194.428,165.849,189.949z"/>
			<path fill="#E44145" d="M165.829,189.921c0.006,0.01,0.014,0.019,0.02,0.028c0.006-0.009,0.012-0.018,0.018-0.028H165.829z"/>
		</g>
		<g>
			<path fill="#E44145" d="M89.292,181.417c0.016,0.025,0.033,0.049,0.049,0.074c0.016-0.025,0.031-0.049,0.047-0.074H89.292z"/>
			<path fill="#E44145" d="M106.987,210.297c-0.088-11.71-10.565-17.607-17.646-28.806c-7.076,11.199-17.671,17.079-17.701,28.839
				c-0.612,6.781,3.183,11.963,7.715,13.358c3.117,0.968,7.963-0.736,9.744-7.806c0.148-0.387,0.305-0.379,0.445,0.014
				c2.572,7.162,6.811,8.728,9.789,7.792C103.741,222.266,107.313,217.007,106.987,210.297z"/>
		</g>
		<g>
			<path fill="#E44145" d="M89.282,68.031c-0.016-0.025-0.031-0.049-0.047-0.074c-0.016,0.025-0.033,0.049-0.049,0.074H89.282z"/>
			<path fill="#E44145" d="M99.228,25.761c-3.117-0.969-7.971,0.735-9.752,7.805c-0.148,0.387-0.305,0.378-0.445-0.015
				c-2.568-7.162-6.803-8.727-9.779-7.79c-4.41,1.422-7.982,6.681-7.656,13.391c0.088,11.71,10.566,17.607,17.641,28.806
				c7.082-11.199,17.678-17.079,17.707-28.84C107.556,32.338,103.761,27.156,99.228,25.761z"/>
		</g>
		<path fill="#E44145" d="M19.821,34.496l-2.275-0.01l-0.01,1.448h-9.56c0.05-0.333,0.194-0.756,0.462-1.238
			c0.489-0.891,1.352-1.938,2.387-2.973c1.037-1.039,2.242-2.078,3.416-3.023l0.006-0.003l0.009-0.008
			c1.419-1.183,2.632-2.056,3.616-3.099c0.49-0.521,0.92-1.094,1.242-1.758c0.324-0.664,0.531-1.411,0.607-2.236
			c0.017-0.173,0.025-0.358,0.025-0.561c-0.001-0.561-0.066-1.239-0.254-1.972c-0.281-1.092-0.848-2.322-1.929-3.291
			c-1.079-0.973-2.651-1.607-4.676-1.601c-1.626-0.003-2.96,0.42-3.978,1.107c-0.765,0.513-1.344,1.161-1.77,1.829
			c-0.639,1.007-0.951,2.055-1.115,2.896c-0.163,0.842-0.176,1.483-0.177,1.694c0,0.038,0.001,0.062,0.001,0.072l1.974-0.053
			l0.304-0.004c0-0.003,0-0.008,0-0.016c-0.006-0.178,0.041-1.621,0.664-2.858c0.311-0.622,0.742-1.188,1.367-1.609
			c0.629-0.42,1.473-0.722,2.729-0.726c1.058,0.001,1.831,0.208,2.419,0.506c0.873,0.45,1.385,1.12,1.721,1.881
			c0.332,0.753,0.443,1.588,0.441,2.144c0,0.132-0.006,0.247-0.015,0.337c-0.056,0.576-0.185,1.017-0.38,1.42
			c-0.291,0.603-0.766,1.155-1.484,1.802c-0.715,0.643-1.656,1.359-2.762,2.276c-1.621,1.306-3.32,2.793-4.668,4.326
			c-0.674,0.769-1.262,1.549-1.705,2.352c-0.414,0.758-0.707,1.546-0.765,2.385H5.683l-0.008,0.145c0,0.001,0,0.001,0,0.002l0,0
			v0.007l-0.006,2.181h14.156v-1.001L19.821,34.496z"/>
		<path fill="#E44145" d="M158.761,214.951l2.275,0.01l0.01-1.447h9.561c-0.051,0.333-0.195,0.756-0.463,1.238
			c-0.488,0.891-1.352,1.938-2.387,2.973c-1.035,1.039-2.242,2.078-3.416,3.023l-0.006,0.002l-0.008,0.008
			c-1.42,1.184-2.633,2.057-3.617,3.1c-0.49,0.521-0.92,1.094-1.242,1.758c-0.324,0.664-0.531,1.41-0.607,2.236
			c-0.016,0.172-0.025,0.358-0.025,0.561c0.002,0.561,0.066,1.239,0.254,1.972c0.281,1.091,0.848,2.322,1.93,3.291
			c1.078,0.973,2.652,1.607,4.676,1.601c1.625,0.003,2.959-0.42,3.977-1.107c0.766-0.513,1.344-1.161,1.77-1.83
			c0.639-1.006,0.951-2.054,1.115-2.895c0.164-0.842,0.178-1.483,0.178-1.694c0-0.038-0.002-0.063-0.002-0.072l-1.973,0.053
			l-0.305,0.004c0,0.003,0.002,0.008,0.002,0.016c0.006,0.178-0.043,1.621-0.666,2.858c-0.311,0.622-0.742,1.188-1.367,1.609
			c-0.629,0.42-1.473,0.722-2.729,0.726c-1.059-0.001-1.832-0.208-2.42-0.507c-0.873-0.449-1.385-1.119-1.721-1.88
			c-0.332-0.753-0.443-1.588-0.441-2.144c0-0.132,0.008-0.247,0.016-0.338c0.055-0.575,0.184-1.016,0.379-1.42
			c0.291-0.602,0.766-1.154,1.484-1.801c0.715-0.643,1.656-1.359,2.762-2.276c1.621-1.306,3.32-2.794,4.668-4.326
			c0.674-0.769,1.262-1.549,1.705-2.352c0.416-0.758,0.707-1.546,0.766-2.386h0.008l0.008-0.144c0-0.001,0-0.001,0-0.002l0,0v-0.007
			l0.006-2.181h-14.156v1.001L158.761,214.951z"/>
	</g>
</g>
<g id="three">
</g>
<g id="four">
</g>
<g id="five">
</g>
<g id="six">
</g>
<g id="seven">
</g>
<g id="eight">
</g>
<g id="nine">
</g>
<g id="ten">
</g>
<g id="jack">
</g>
<g id="queen">
</g>
<g id="king">
</g>
<g id="jolly">
</g>
<g id="back">
</g>
</svg>
