<?xml version="1.0" encoding="utf-8"?>
<!-- Generator: Adobe Illustrator 16.0.4, SVG Export Plug-In . SVG Version: 6.00 Build 0)  -->
<!DOCTYPE svg PUBLIC "-//W3C//DTD SVG 1.1//EN" "http://www.w3.org/Graphics/SVG/1.1/DTD/svg11.dtd">
<svg version="1.1" xmlns="http://www.w3.org/2000/svg" xmlns:xlink="http://www.w3.org/1999/xlink" x="0px" y="0px"
	 width="178.582px" height="249.448px" viewBox="0 0 178.582 249.448" enable-background="new 0 0 178.582 249.448"
	 xml:space="preserve">
<g id="ace">
</g>
<g id="two">
	<g>
		<path fill="#F4F4F2" stroke="#000000" d="M178.582,235.275c0,7.828-6.345,14.174-14.173,14.174H14.173
			C6.346,249.449,0,243.104,0,235.275V14.173C0,6.346,6.346,0,14.173,0h150.236c7.828,0,14.173,6.346,14.173,14.173V235.275z"/>
		<path fill-rule="evenodd" clip-rule="evenodd" stroke="#000000" stroke-width="0.1625" stroke-linejoin="round" d="M89.268,25.512
			c-0.103,0.067-0.175,0.104-0.293,0.181c-7.596,4.85-16.456,14.311-17.364,26.104c-0.433,5.61,3.155,9.494,7.793,9.579
			c2.961,0.054,5.342-0.998,6.632-3.007c1.072-1.672,1.346-4.248,1.52-3.058c0.625,4.541-1.276,8.906-2.306,12.72
			c1.147-0.417,2.589-0.627,4.033-0.632h0.024c1.442,0.005,2.881,0.215,4.027,0.632c-1.028-3.813-2.927-8.179-2.303-12.72
			c0.173-1.19,0.446,1.386,1.517,3.058c1.289,2.009,3.67,3.061,6.631,3.007c4.639-0.085,8.226-3.969,7.794-9.579
			c-0.909-11.794-9.77-21.255-17.358-26.104c-0.083-0.062-0.155-0.099-0.274-0.181H89.268z"/>
		<path fill-rule="evenodd" clip-rule="evenodd" stroke="#000000" stroke-width="0.1625" stroke-linejoin="round" d="
			M89.268,223.938c-0.103-0.067-0.175-0.104-0.293-0.181c-7.596-4.85-16.456-14.311-17.364-26.104
			c-0.433-5.61,3.155-9.495,7.793-9.58c2.961-0.054,5.342,0.998,6.632,3.008c1.072,1.671,1.346,4.248,1.52,3.058
			c0.625-4.542-1.276-8.907-2.306-12.721c1.147,0.417,2.589,0.627,4.033,0.632h0.024c1.442-0.005,2.881-0.215,4.027-0.632
			c-1.028,3.813-2.927,8.179-2.303,12.721c0.173,1.19,0.446-1.387,1.517-3.058c1.289-2.01,3.67-3.062,6.631-3.008
			c4.639,0.085,8.226,3.97,7.794,9.58c-0.909,11.793-9.77,21.254-17.358,26.104c-0.083,0.062-0.155,0.1-0.274,0.181H89.268z"/>
		<path fill-rule="evenodd" clip-rule="evenodd" stroke="#000000" stroke-width="0.065" stroke-linejoin="round" d="M12.747,42.52
			c-0.041,0.027-0.07,0.042-0.117,0.072c-3.038,1.94-6.583,5.725-6.946,10.441c-0.173,2.244,1.263,3.798,3.117,3.832
			c1.185,0.021,2.137-0.399,2.653-1.203c0.429-0.668,0.538-1.699,0.607-1.223c0.25,1.816-0.511,3.562-0.922,5.088
			c0.459-0.167,1.035-0.251,1.613-0.253h0.01c0.576,0.002,1.152,0.086,1.61,0.253c-0.411-1.525-1.17-3.271-0.921-5.088
			c0.069-0.477,0.179,0.555,0.606,1.223c0.516,0.804,1.469,1.225,2.652,1.203c1.855-0.034,3.291-1.588,3.118-3.832
			c-0.364-4.717-3.908-8.501-6.943-10.441c-0.033-0.024-0.062-0.039-0.11-0.072H12.747z"/>
		<path fill-rule="evenodd" clip-rule="evenodd" stroke="#000000" stroke-width="0.065" stroke-linejoin="round" d="M165.817,206.93
			c-0.041-0.026-0.07-0.041-0.117-0.072c-3.038-1.939-6.583-5.724-6.946-10.441c-0.173-2.244,1.263-3.798,3.117-3.832
			c1.185-0.021,2.137,0.399,2.653,1.203c0.429,0.669,0.538,1.699,0.607,1.223c0.25-1.816-0.511-3.562-0.922-5.088
			c0.459,0.167,1.035,0.251,1.613,0.253h0.01c0.576-0.002,1.152-0.086,1.61-0.253c-0.411,1.525-1.17,3.271-0.921,5.088
			c0.069,0.477,0.179-0.554,0.606-1.223c0.516-0.804,1.469-1.225,2.652-1.203c1.855,0.034,3.291,1.588,3.118,3.832
			c-0.364,4.718-3.908,8.502-6.943,10.441c-0.033,0.025-0.062,0.04-0.11,0.072H165.817z"/>
		<path d="M19.839,34.497l-2.278-0.01l-0.009,1.448l-9.572-0.001c0.05-0.333,0.194-0.755,0.463-1.237
			c0.489-0.892,1.353-1.938,2.39-2.974c1.037-1.038,2.244-2.077,3.421-3.022l0.005-0.003l0.009-0.008
			c1.422-1.183,2.635-2.057,3.621-3.099c0.49-0.521,0.922-1.094,1.244-1.759c0.324-0.664,0.531-1.41,0.607-2.235
			c0.017-0.173,0.025-0.358,0.025-0.561c-0.001-0.562-0.066-1.24-0.254-1.972c-0.281-1.092-0.849-2.322-1.932-3.292
			c-1.08-0.973-2.655-1.607-4.682-1.6c-1.627-0.003-2.963,0.419-3.982,1.107c-0.766,0.513-1.345,1.16-1.771,1.829
			c-0.64,1.006-0.952,2.054-1.117,2.895c-0.163,0.842-0.177,1.483-0.177,1.694c0,0.039,0.001,0.063,0.001,0.072l1.976-0.053
			l0.305-0.004c0-0.002-0.001-0.007-0.001-0.016c-0.006-0.178,0.042-1.62,0.667-2.858c0.31-0.622,0.742-1.188,1.368-1.609
			c0.629-0.419,1.475-0.722,2.732-0.726c1.06,0.002,1.834,0.208,2.422,0.507c0.874,0.449,1.388,1.12,1.724,1.88
			c0.332,0.753,0.443,1.588,0.441,2.145c0,0.132-0.007,0.246-0.015,0.337c-0.056,0.576-0.185,1.016-0.38,1.42
			c-0.291,0.602-0.767,1.155-1.487,1.802c-0.716,0.643-1.657,1.359-2.765,2.275c-1.622,1.306-3.324,2.794-4.673,4.326
			c-0.675,0.77-1.264,1.549-1.707,2.353c-0.416,0.757-0.708,1.546-0.767,2.385H5.684l-0.008,0.145c0,0,0,0.001,0,0.002l0,0
			l-0.001,0.006l-0.006,2.182h14.174v-1.001L19.839,34.497z"/>
		<path d="M158.743,214.952l2.279,0.01l0.009-1.447h9.572c-0.051,0.332-0.195,0.755-0.464,1.238
			c-0.488,0.891-1.353,1.937-2.39,2.973c-1.037,1.039-2.244,2.077-3.42,3.022l-0.005,0.003l-0.009,0.008
			c-1.422,1.183-2.636,2.057-3.622,3.099c-0.489,0.521-0.921,1.094-1.243,1.759c-0.324,0.664-0.531,1.41-0.608,2.235
			c-0.016,0.173-0.024,0.358-0.024,0.562c0.001,0.561,0.066,1.238,0.254,1.971c0.28,1.092,0.848,2.322,1.932,3.291
			c1.079,0.973,2.654,1.607,4.682,1.602c1.627,0.002,2.963-0.42,3.982-1.107c0.766-0.514,1.344-1.162,1.771-1.83
			c0.64-1.006,0.952-2.055,1.116-2.895c0.164-0.842,0.177-1.484,0.178-1.695c0-0.037-0.001-0.062-0.001-0.072l-1.977,0.053
			l-0.304,0.004c0,0.003,0,0.008,0,0.016c0.006,0.178-0.041,1.621-0.666,2.859c-0.311,0.621-0.742,1.188-1.369,1.609
			c-0.629,0.419-1.475,0.721-2.731,0.725c-1.061-0.001-1.835-0.207-2.423-0.506c-0.874-0.449-1.387-1.12-1.723-1.881
			c-0.332-0.752-0.443-1.588-0.441-2.143c0-0.133,0.006-0.248,0.015-0.338c0.055-0.576,0.184-1.016,0.379-1.42
			c0.292-0.602,0.767-1.154,1.487-1.802c0.716-0.643,1.657-1.359,2.765-2.276c1.623-1.305,3.325-2.793,4.674-4.326
			c0.675-0.768,1.263-1.549,1.707-2.352c0.416-0.758,0.708-1.545,0.767-2.385h0.008l0.008-0.145c0,0,0-0.001,0-0.002l0,0v-0.006
			l0.006-2.182H158.74v1.001L158.743,214.952z"/>
	</g>
</g>
<g id="three">
</g>
<g id="four">
</g>
<g id="five">
</g>
<g id="six">
</g>
<g id="seven">
</g>
<g id="eight">
</g>
<g id="nine">
</g>
<g id="ten">
</g>
<g id="jack">
</g>
<g id="queen">
</g>
<g id="king">
</g>
<g id="joker">
</g>
<g id="back">
</g>
</svg>
