<?xml version="1.0" encoding="utf-8"?>
<!-- Generator: Adobe Illustrator 16.0.4, SVG Export Plug-In . SVG Version: 6.00 Build 0)  -->
<!DOCTYPE svg PUBLIC "-//W3C//DTD SVG 1.1//EN" "http://www.w3.org/Graphics/SVG/1.1/DTD/svg11.dtd">
<svg version="1.1" xmlns="http://www.w3.org/2000/svg" xmlns:xlink="http://www.w3.org/1999/xlink" x="0px" y="0px"
	 width="178.581px" height="249.449px" viewBox="0 0 178.581 249.449" enable-background="new 0 0 178.581 249.449"
	 xml:space="preserve">
<g id="ace">
</g>
<g id="two">
</g>
<g id="three">
	<g>
		<path fill="#F4F4F2" stroke="#000000" d="M178.581,235.275c0,7.828-6.345,14.174-14.173,14.174H14.172
			c-7.828,0-14.174-6.346-14.174-14.174V14.173C-0.002,6.346,6.344,0,14.172,0h150.236c7.828,0,14.173,6.346,14.173,14.173V235.275z
			"/>
		<path d="M12.754,42.52c-1.861,0-3.375,1.703-3.375,3.802c0,1.2,0.5,2.264,1.269,2.966c0.258,0.238,0.146,0.496-0.115,0.335
			c-0.481-0.291-1.024-0.478-1.608-0.478c-1.797,0-3.256,1.643-3.256,3.668c0,2.023,1.459,3.666,3.256,3.666
			c1.2,0,2.249-0.729,2.811-1.816c0.056-0.106,0.101-0.252,0.179-0.252c0.107,0,0.155,0.175,0.155,0.502
			c0,1.314-0.504,2.851-1.25,4.615c0.323-0.076,1.299-0.271,1.936-0.271c0.639,0,1.615,0.194,1.937,0.271
			c-0.746-1.765-1.251-3.301-1.251-4.615c0-0.327,0.051-0.502,0.158-0.502c0.078,0,0.121,0.146,0.177,0.252
			c0.564,1.088,1.613,1.816,2.81,1.816c1.798,0,3.257-1.643,3.257-3.666c0-2.025-1.459-3.668-3.257-3.668
			c-0.583,0-1.126,0.187-1.605,0.478c-0.264,0.161-0.375-0.097-0.115-0.335c0.766-0.702,1.269-1.766,1.269-2.966
			C16.132,44.223,14.619,42.52,12.754,42.52z"/>
		<path d="M165.822,206.93c1.864,0,3.375-1.704,3.375-3.803c0-1.198-0.499-2.264-1.267-2.966c-0.257-0.237-0.146-0.494,0.114-0.335
			c0.48,0.293,1.023,0.478,1.61,0.478c1.794,0,3.257-1.643,3.257-3.666c0-2.024-1.463-3.667-3.257-3.667
			c-1.2,0-2.248,0.729-2.811,1.816c-0.055,0.106-0.101,0.252-0.181,0.252c-0.108,0-0.153-0.175-0.153-0.502
			c0-1.314,0.505-2.85,1.247-4.616c-0.323,0.077-1.295,0.272-1.936,0.272c-0.634,0-1.612-0.195-1.936-0.272
			c0.743,1.767,1.253,3.302,1.253,4.616c0,0.327-0.051,0.502-0.158,0.502c-0.08,0-0.121-0.146-0.176-0.252
			c-0.567-1.088-1.616-1.816-2.811-1.816c-1.8,0-3.256,1.643-3.256,3.667c0,2.023,1.456,3.666,3.256,3.666
			c0.582,0,1.124-0.185,1.606-0.478c0.264-0.159,0.375,0.098,0.115,0.335c-0.77,0.702-1.27,1.768-1.27,2.966
			C162.447,205.226,163.958,206.93,165.822,206.93z"/>
		<path d="M89.289,25.512c-4.659,0-8.44,4.258-8.44,9.504c0,2.999,1.253,5.66,3.172,7.416c0.647,0.594,0.369,1.238-0.29,0.837
			c-1.2-0.729-2.554-1.193-4.017-1.193c-4.492,0-8.141,4.106-8.141,9.167s3.648,9.168,8.141,9.168c2.997,0,5.617-1.823,7.027-4.542
			c0.138-0.266,0.247-0.631,0.444-0.631c0.266,0,0.391,0.438,0.391,1.256c0,3.287-1.263,7.127-3.127,11.538
			c0.805-0.191,3.248-0.678,4.84-0.678c1.592,0,4.038,0.486,4.84,0.678c-1.866-4.411-3.125-8.251-3.125-11.538
			c0-0.818,0.122-1.256,0.389-1.256c0.195,0,0.306,0.365,0.445,0.631c1.406,2.719,4.03,4.542,7.028,4.542
			c4.489,0,8.14-4.107,8.14-9.168s-3.65-9.167-8.14-9.167c-1.466,0-2.819,0.464-4.019,1.193c-0.66,0.401-0.937-0.243-0.29-0.837
			c1.918-1.756,3.173-4.417,3.173-7.416C97.731,29.77,93.95,25.512,89.289,25.512z"/>
		<path d="M89.289,103.465c-4.659,0-8.44,4.254-8.44,9.496c0,2.998,1.253,5.662,3.172,7.42c0.647,0.594,0.369,1.238-0.29,0.838
			c-1.2-0.73-2.554-1.195-4.017-1.195c-4.492,0-8.141,4.11-8.141,9.168c0,5.057,3.648,9.16,8.141,9.16
			c2.997,0,5.617-1.82,7.027-4.537c0.138-0.266,0.247-0.63,0.444-0.63c0.266,0,0.391,0.437,0.391,1.254
			c0,3.285-1.263,7.126-3.127,11.546c0.805-0.191,3.248-0.68,4.84-0.68c1.592,0,4.038,0.488,4.84,0.68
			c-1.866-4.42-3.125-8.261-3.125-11.546c0-0.817,0.122-1.254,0.389-1.254c0.195,0,0.306,0.364,0.445,0.63
			c1.406,2.717,4.03,4.537,7.028,4.537c4.489,0,8.14-4.104,8.14-9.16c0-5.058-3.65-9.168-8.14-9.168
			c-1.466,0-2.819,0.465-4.019,1.195c-0.66,0.4-0.937-0.244-0.29-0.838c1.918-1.758,3.173-4.422,3.173-7.42
			C97.731,107.719,93.95,103.465,89.289,103.465z"/>
		<path d="M89.289,223.938c4.662,0,8.443-4.258,8.443-9.504c0-2.998-1.256-5.66-3.174-7.416c-0.646-0.594-0.37-1.238,0.29-0.836
			c1.2,0.729,2.553,1.193,4.019,1.193c4.489,0,8.14-4.107,8.14-9.168c0-5.06-3.65-9.167-8.14-9.167
			c-2.997,0-5.621,1.822-7.028,4.541c-0.14,0.266-0.25,0.631-0.445,0.631c-0.267,0-0.389-0.437-0.389-1.257
			c0-3.285,1.26-7.125,3.124-11.537c-0.802,0.191-3.247,0.679-4.839,0.679c-1.593,0-4.035-0.487-4.841-0.679
			c1.866,4.412,3.128,8.252,3.128,11.537c0,0.82-0.125,1.257-0.391,1.257c-0.197,0-0.307-0.365-0.443-0.631
			c-1.41-2.719-4.031-4.541-7.027-4.541c-4.493,0-8.142,4.107-8.142,9.167c0,5.061,3.648,9.168,8.142,9.168
			c1.462,0,2.815-0.465,4.016-1.193c0.659-0.402,0.938,0.242,0.29,0.836c-1.919,1.756-3.171,4.418-3.171,7.416
			C80.85,219.68,84.631,223.938,89.289,223.938z"/>
		<g>
			<path d="M13.811,21.961l5.877-5.248h0.02v-0.018l0.006-0.006l-0.006-0.006v-2.511L6.178,14.174l0.007,1.812v2.256h2.078v-1.541
				l7.913,0.008l-7.769,7.195l1.12,1.658c0.847-0.779,1.91-1.244,3.078-1.244c1.37,0,2.743,0.641,3.643,1.68
				c0.896,1.041,1.448,2.467,1.449,4.053c-0.001,1.588-0.553,3.012-1.449,4.054c-0.899,1.04-2.272,1.679-3.643,1.679
				s-2.601-0.639-3.5-1.679c-0.648-0.753-1.117-1.708-1.326-2.778l-2.112,0.436c0.68,3.717,3.528,6.504,6.938,6.506
				c3.917-0.002,7.234-3.678,7.235-8.217C19.84,25.988,17.179,22.623,13.811,21.961z"/>
			<polygon points="9.527,25.562 9.527,25.562 9.526,25.562 			"/>
		</g>
		<g>
			<path d="M164.768,227.486l-5.877,5.248h-0.02v0.018l-0.006,0.006l0.006,0.008v2.51h13.53l-0.007-1.812v-2.258h-2.079v1.543
				l-7.913-0.01l7.769-7.195l-1.119-1.658c-0.848,0.781-1.911,1.244-3.079,1.244c-1.369,0-2.743-0.639-3.642-1.678
				c-0.897-1.041-1.449-2.467-1.449-4.055c0-1.586,0.552-3.012,1.449-4.053c0.898-1.039,2.272-1.679,3.642-1.68
				c1.37,0.001,2.601,0.641,3.5,1.68c0.648,0.754,1.117,1.707,1.326,2.779l2.112-0.437c-0.68-3.717-3.527-6.505-6.938-6.506
				c-3.917,0.001-7.234,3.679-7.234,8.216C158.739,223.46,161.4,226.824,164.768,227.486z"/>
			<polygon points="169.052,223.885 169.052,223.885 169.052,223.885 			"/>
		</g>
	</g>
</g>
<g id="four">
</g>
<g id="nine">
</g>
<g id="five">
</g>
<g id="six">
</g>
<g id="seven">
</g>
<g id="eight">
</g>
<g id="ten">
</g>
<g id="jack">
</g>
<g id="queen">
</g>
<g id="king">
</g>
<g id="jolly">
</g>
<g id="back">
</g>
</svg>
