<?xml version="1.0" encoding="utf-8"?>
<!-- Generator: Adobe Illustrator 16.0.4, SVG Export Plug-In . SVG Version: 6.00 Build 0)  -->
<!DOCTYPE svg PUBLIC "-//W3C//DTD SVG 1.1//EN" "http://www.w3.org/Graphics/SVG/1.1/DTD/svg11.dtd">
<svg version="1.1" xmlns="http://www.w3.org/2000/svg" xmlns:xlink="http://www.w3.org/1999/xlink" x="0px" y="0px"
	 width="178.582px" height="249.449px" viewBox="0 0 178.582 249.449" enable-background="new 0 0 178.582 249.449"
	 xml:space="preserve">
<g id="ace">
</g>
<g id="two">
</g>
<g id="three">
	<g>
		<path fill="#F4F4F2" stroke="#000000" d="M178.582,235.275c0,7.828-6.346,14.174-14.174,14.174H14.174
			C6.346,249.449,0,243.104,0,235.275V14.173C0,6.346,6.346,0,14.174,0h150.234c7.828,0,14.174,6.346,14.174,14.173V235.275z"/>
		<path fill="#E44145" d="M12.768,42.52c1.787,3.471,4.145,6.309,7.076,8.513c-2.931,2.207-5.289,5.038-7.076,8.495
			c-1.802-3.457-4.167-6.288-7.098-8.495C8.601,48.828,10.966,45.99,12.768,42.52L12.768,42.52z"/>
		<path fill="#E44145" d="M165.836,189.921c1.786,3.47,4.146,6.308,7.075,8.513c-2.93,2.206-5.289,5.038-7.075,8.495
			c-1.802-3.457-4.169-6.289-7.098-8.495C161.667,196.229,164.035,193.391,165.836,189.921L165.836,189.921z"/>
		<path fill="#E44145" d="M89.315,25.512c4.467,8.675,10.364,15.77,17.69,21.283c-7.326,5.517-13.223,12.595-17.69,21.236
			c-4.501-8.642-10.415-15.72-17.74-21.236C78.9,41.281,84.814,34.187,89.315,25.512L89.315,25.512z"/>
		<path fill="#E44145" d="M89.315,103.464c4.467,8.681,10.364,15.777,17.69,21.274c-7.326,5.515-13.223,12.601-17.69,21.245
			c-4.501-8.645-10.416-15.73-17.74-21.245C78.9,119.241,84.814,112.145,89.315,103.464L89.315,103.464z"/>
		<path fill="#E44145" d="M89.315,181.417c4.467,8.675,10.364,15.77,17.69,21.282c-7.326,5.517-13.223,12.596-17.69,21.237
			c-4.501-8.642-10.415-15.721-17.74-21.237C78.9,197.187,84.814,190.092,89.315,181.417L89.315,181.417z"/>
		<g>
			<path fill="#E44145" d="M13.813,21.962l5.877-5.249h0.02v-0.018l0.006-0.005l-0.006-0.008v-2.51L6.18,14.174l0.007,1.812v2.256
				h2.079V16.7l7.914,0.009L8.41,23.904l1.119,1.659c0.847-0.781,1.911-1.244,3.079-1.245c1.369,0.001,2.743,0.64,3.642,1.679
				c0.897,1.042,1.449,2.467,1.449,4.055c0,1.587-0.552,3.012-1.449,4.053c-0.899,1.04-2.272,1.679-3.642,1.68
				c-1.371-0.001-2.601-0.64-3.5-1.68c-0.648-0.753-1.117-1.708-1.327-2.778L5.67,31.762c0.679,3.717,3.527,6.505,6.938,6.506
				c3.917-0.001,7.234-3.679,7.234-8.216C19.843,25.988,17.181,22.624,13.813,21.962z"/>
			<polygon fill="#E44145" points="9.529,25.563 9.529,25.563 9.529,25.563 			"/>
		</g>
		<g>
			<path fill="#E44145" d="M164.768,227.486l-5.877,5.248h-0.02v0.018l-0.007,0.006l0.007,0.008l-0.001,2.51l13.531-0.001
				l-0.008-1.812v-2.257h-2.078v1.543l-7.913-0.01l7.769-7.195l-1.119-1.658c-0.848,0.781-1.911,1.244-3.079,1.244
				c-1.37,0-2.743-0.639-3.642-1.678c-0.897-1.042-1.449-2.467-1.449-4.055c0-1.587,0.552-3.012,1.449-4.053
				c0.898-1.04,2.271-1.679,3.642-1.68c1.37,0.001,2.601,0.64,3.499,1.68c0.649,0.753,1.117,1.707,1.327,2.778l2.112-0.436
				c-0.68-3.717-3.527-6.505-6.938-6.506c-3.917,0.001-7.235,3.679-7.235,8.216C158.738,223.46,161.4,226.824,164.768,227.486z"/>
			<polygon fill="#E44145" points="169.052,223.885 169.052,223.885 169.052,223.885 			"/>
		</g>
	</g>
</g>
<g id="four">
</g>
<g id="five">
</g>
<g id="six">
</g>
<g id="seven">
</g>
<g id="eight">
</g>
<g id="nine">
</g>
<g id="ten">
</g>
<g id="jack">
</g>
<g id="queen">
</g>
<g id="king">
</g>
<g id="jolly">
</g>
<g id="back">
</g>
</svg>
