<?xml version="1.0" encoding="utf-8"?>
<!-- Generator: Adobe Illustrator 16.0.4, SVG Export Plug-In . SVG Version: 6.00 Build 0)  -->
<!DOCTYPE svg PUBLIC "-//W3C//DTD SVG 1.1//EN" "http://www.w3.org/Graphics/SVG/1.1/DTD/svg11.dtd">
<svg version="1.1" xmlns="http://www.w3.org/2000/svg" xmlns:xlink="http://www.w3.org/1999/xlink" x="0px" y="0px"
	 width="178.91px" height="249.449px" viewBox="0 0 178.91 249.449" enable-background="new 0 0 178.91 249.449"
	 xml:space="preserve">
<g id="ace">
</g>
<g id="two">
</g>
<g id="three">
	<g>
		<path fill="#F4F4F2" stroke="#000000" d="M178.583,235.276c0,7.827-6.346,14.173-14.174,14.173H14.174
			C6.346,249.449,0,243.104,0,235.276V14.174C0,6.346,6.346,0,14.174,0h150.235c7.828,0,14.174,6.346,14.174,14.174V235.276z"/>
		<g>
			<path fill="#E44145" d="M16.729,42.619c-1.246-0.387-3.186,0.295-3.898,3.122c-0.059,0.155-0.121,0.151-0.177-0.005
				c-1.028-2.865-2.722-3.491-3.913-3.117c-1.764,0.569-3.193,2.673-3.062,5.356c0.034,4.685,4.228,7.043,7.057,11.524
				c2.83-4.48,7.07-6.833,7.082-11.538C20.062,45.25,18.543,43.178,16.729,42.619z"/>
			<path fill="#E44145" d="M12.754,59.527c-0.006-0.01-0.014-0.019-0.02-0.028c-0.006,0.009-0.012,0.018-0.018,0.028H12.754z"/>
		</g>
		<g>
			<path fill="#E44145" d="M165.829,189.922c0.006,0.01,0.013,0.019,0.019,0.028c0.006-0.009,0.013-0.018,0.019-0.028H165.829z"/>
			<path fill="#E44145" d="M165.848,189.95c-2.83,4.48-7.069,6.833-7.082,11.538c-0.245,2.712,1.274,4.785,3.087,5.344
				c1.246,0.387,3.186-0.295,3.898-3.123c0.06-0.154,0.123-0.15,0.178,0.006c1.028,2.865,2.722,3.49,3.912,3.117
				c1.766-0.569,3.194-2.673,3.063-5.357C172.87,196.79,168.677,194.43,165.848,189.95z"/>
		</g>
		<g>
			<path fill="#E44145" d="M106.988,210.298c-0.088-11.71-10.568-17.607-17.648-28.806c-7.074,11.199-17.671,17.079-17.701,28.839
				c-0.612,6.781,3.183,11.963,7.717,13.358c3.117,0.968,7.963-0.736,9.744-7.806c0.148-0.387,0.305-0.379,0.445,0.014
				c2.571,7.162,6.808,8.728,9.786,7.792C103.741,222.267,107.315,217.008,106.988,210.298z"/>
			<path fill="#E44145" d="M89.293,181.418c0.016,0.025,0.031,0.049,0.047,0.074c0.016-0.025,0.033-0.049,0.049-0.074H89.293z"/>
		</g>
		<g>
			<path fill="#E44145" d="M89.285,68.031c-0.016-0.025-0.033-0.049-0.049-0.074c-0.016,0.025-0.031,0.049-0.047,0.074H89.285z"/>
			<path fill="#E44145" d="M99.228,25.761c-3.117-0.969-7.969,0.735-9.749,7.805c-0.148,0.387-0.305,0.378-0.445-0.014
				c-2.57-7.163-6.805-8.727-9.783-7.791c-4.408,1.423-7.982,6.681-7.655,13.391c0.088,11.71,10.566,17.607,17.642,28.806
				c7.08-11.199,17.678-17.079,17.708-28.84C107.557,32.338,103.761,27.156,99.228,25.761z"/>
		</g>
		<g>
			<path fill="#E44145" d="M89.285,145.984c-0.016-0.025-0.033-0.049-0.049-0.074c-0.016,0.025-0.031,0.049-0.047,0.074H89.285z"/>
			<path fill="#E44145" d="M99.228,103.714c-3.117-0.969-7.969,0.735-9.749,7.804c-0.148,0.387-0.305,0.378-0.445-0.014
				c-2.57-7.162-6.805-8.727-9.783-7.79c-4.408,1.422-7.982,6.68-7.655,13.39c0.088,11.712,10.566,17.61,17.642,28.807
				c7.08-11.197,17.678-17.079,17.708-28.841C107.557,110.289,103.761,105.109,99.228,103.714z"/>
		</g>
		<g>
			<path fill="#E44145" d="M13.812,21.962l5.877-5.248h0.02v-0.018l0.006-0.006l-0.006-0.007v-2.511L6.18,14.174l0.006,1.812v2.257
				h2.079v-1.542l7.913,0.009L8.41,23.905l1.119,1.658c0.847-0.78,1.91-1.244,3.078-1.244c1.369,0,2.743,0.64,3.643,1.679
				c0.896,1.041,1.448,2.467,1.449,4.054c-0.001,1.587-0.553,3.012-1.449,4.053c-0.899,1.04-2.273,1.679-3.643,1.68
				c-1.37-0.001-2.6-0.64-3.5-1.68c-0.648-0.753-1.117-1.707-1.326-2.778L5.67,31.762c0.679,3.717,3.527,6.505,6.938,6.506
				c3.918-0.001,7.234-3.678,7.234-8.216C19.842,25.988,17.181,22.624,13.812,21.962z"/>
			<polygon fill="#E44145" points="9.529,25.563 9.529,25.563 9.528,25.563 			"/>
		</g>
		<g>
			<path fill="#E44145" d="M164.77,227.487l-5.877,5.248h-0.02v0.018l-0.007,0.006l0.007,0.007l-0.001,2.511l13.531-0.002
				l-0.008-1.812v-2.256h-2.078v1.542l-7.913-0.009l7.769-7.195l-1.119-1.658c-0.848,0.78-1.911,1.244-3.079,1.244
				c-1.37,0-2.743-0.64-3.642-1.679c-0.897-1.042-1.449-2.467-1.449-4.054c0-1.588,0.552-3.012,1.449-4.053
				c0.898-1.041,2.271-1.68,3.642-1.68s2.601,0.639,3.499,1.68c0.649,0.752,1.117,1.707,1.327,2.777l2.112-0.436
				c-0.68-3.717-3.527-6.504-6.938-6.506c-3.917,0.002-7.235,3.679-7.235,8.217C158.739,223.46,161.401,226.825,164.77,227.487z"/>
			<polygon fill="#E44145" points="169.054,223.886 169.054,223.886 169.054,223.886 			"/>
		</g>
	</g>
</g>
<g id="four">
</g>
<g id="five">
</g>
<g id="six">
</g>
<g id="seven">
</g>
<g id="eight">
</g>
<g id="nine">
</g>
<g id="ten">
</g>
<g id="jack">
</g>
<g id="queen">
</g>
<g id="king">
</g>
<g id="jolly">
</g>
<g id="back">
</g>
</svg>
