<?xml version="1.0" encoding="utf-8"?>
<!-- Generator: Adobe Illustrator 16.0.4, SVG Export Plug-In . SVG Version: 6.00 Build 0)  -->
<!DOCTYPE svg PUBLIC "-//W3C//DTD SVG 1.1//EN" "http://www.w3.org/Graphics/SVG/1.1/DTD/svg11.dtd">
<svg version="1.1" xmlns="http://www.w3.org/2000/svg" xmlns:xlink="http://www.w3.org/1999/xlink" x="0px" y="0px"
	 width="178.583px" height="249.449px" viewBox="0 0 178.583 249.449" enable-background="new 0 0 178.583 249.449"
	 xml:space="preserve">
<g id="ace">
</g>
<g id="two">
</g>
<g id="three">
</g>
<g id="four">
	<g>
		<path fill="#F4F4F2" stroke="#000000" d="M178.583,235.275c0,7.828-6.345,14.174-14.173,14.174H14.175
			c-7.828,0-14.174-6.346-14.174-14.174V14.173C0.001,6.346,6.347,0,14.175,0H164.41c7.828,0,14.173,6.346,14.173,14.173V235.275z"
			/>
		<path d="M12.757,42.52c-1.863,0-3.377,1.703-3.377,3.802c0,1.2,0.501,2.265,1.27,2.967c0.259,0.237,0.147,0.495-0.116,0.334
			c-0.479-0.291-1.021-0.477-1.606-0.477c-1.797,0-3.256,1.643-3.256,3.666c0,2.024,1.459,3.667,3.256,3.667
			c1.198,0,2.248-0.729,2.811-1.816c0.056-0.105,0.1-0.252,0.178-0.252c0.107,0,0.156,0.175,0.156,0.502
			c0,1.314-0.504,2.852-1.251,4.615c0.323-0.076,1.299-0.271,1.937-0.271c0.639,0,1.614,0.194,1.937,0.271
			c-0.745-1.764-1.251-3.301-1.251-4.615c0-0.327,0.05-0.502,0.157-0.502c0.077,0,0.122,0.146,0.177,0.252
			c0.563,1.088,1.612,1.816,2.811,1.816c1.798,0,3.257-1.643,3.257-3.667c0-2.023-1.459-3.666-3.257-3.666
			c-0.584,0-1.126,0.186-1.606,0.477c-0.263,0.161-0.374-0.097-0.115-0.334c0.768-0.702,1.269-1.767,1.269-2.967
			C16.134,44.223,14.62,42.52,12.757,42.52z"/>
		<path d="M165.828,206.93c1.863,0,3.376-1.704,3.376-3.803c0-1.199-0.5-2.264-1.268-2.966c-0.26-0.238-0.147-0.495,0.115-0.335
			c0.479,0.292,1.021,0.477,1.606,0.477c1.797,0,3.257-1.643,3.257-3.666s-1.46-3.666-3.257-3.666c-1.198,0-2.247,0.729-2.811,1.816
			c-0.056,0.105-0.1,0.252-0.177,0.252c-0.107,0-0.157-0.175-0.157-0.502c0-1.314,0.505-2.852,1.25-4.616
			c-0.321,0.076-1.298,0.271-1.936,0.271c-0.639,0-1.613-0.195-1.937-0.271c0.745,1.765,1.252,3.302,1.252,4.616
			c0,0.327-0.052,0.502-0.158,0.502c-0.078,0-0.123-0.146-0.177-0.252c-0.562-1.088-1.612-1.816-2.811-1.816
			c-1.798,0-3.257,1.643-3.257,3.666s1.459,3.666,3.257,3.666c0.585,0,1.126-0.185,1.606-0.477c0.264-0.16,0.374,0.097,0.116,0.335
			c-0.769,0.702-1.269,1.767-1.269,2.966C162.452,205.226,163.965,206.93,165.828,206.93z"/>
		<path d="M46.065,25.512c-4.66,0-8.441,4.258-8.441,9.504c0,2.999,1.252,5.66,3.17,7.417c0.647,0.593,0.371,1.237-0.289,0.836
			c-1.2-0.729-2.554-1.193-4.016-1.193c-4.494,0-8.142,4.106-8.142,9.167s3.647,9.168,8.142,9.168c2.996,0,5.618-1.823,7.025-4.542
			c0.139-0.266,0.25-0.631,0.445-0.631c0.266,0,0.391,0.438,0.391,1.256c0,3.287-1.262,7.126-3.127,11.538
			c0.806-0.191,3.247-0.678,4.842-0.678c1.594,0,4.035,0.486,4.841,0.678c-1.866-4.412-3.128-8.251-3.128-11.538
			c0-0.818,0.125-1.256,0.393-1.256c0.194,0,0.306,0.365,0.442,0.631c1.408,2.719,4.031,4.542,7.026,4.542
			c4.494,0,8.142-4.107,8.142-9.168s-3.647-9.167-8.142-9.167c-1.462,0-2.816,0.464-4.015,1.193c-0.66,0.401-0.938-0.243-0.29-0.836
			c1.92-1.757,3.17-4.418,3.17-7.417C54.505,29.77,50.724,25.512,46.065,25.512z"/>
		<path d="M46.064,223.789c4.659,0,8.441-4.258,8.441-9.502c0-3.001-1.251-5.662-3.171-7.418c-0.647-0.592-0.37-1.236,0.29-0.837
			c1.199,0.73,2.553,1.194,4.015,1.194c4.494,0,8.142-4.107,8.142-9.167c0-5.061-3.647-9.167-8.142-9.167
			c-2.995,0-5.617,1.822-7.025,4.541c-0.138,0.266-0.249,0.629-0.443,0.629c-0.268,0-0.393-0.436-0.393-1.254
			c0-3.287,1.262-7.127,3.128-11.539c-0.806,0.192-3.247,0.68-4.842,0.68s-4.035-0.487-4.841-0.68
			c1.866,4.412,3.127,8.252,3.127,11.539c0,0.818-0.124,1.254-0.391,1.254c-0.195,0-0.307-0.363-0.444-0.629
			c-1.408-2.719-4.03-4.541-7.026-4.541c-4.494,0-8.142,4.106-8.142,9.167c0,5.06,3.647,9.167,8.142,9.167
			c1.462,0,2.816-0.464,4.016-1.194c0.66-0.399,0.938,0.245,0.289,0.837c-1.918,1.756-3.17,4.417-3.17,7.418
			C37.624,219.531,41.405,223.789,46.064,223.789z"/>
		<path d="M132.521,25.66c-4.659,0-8.439,4.258-8.439,9.504c0,2.998,1.25,5.66,3.169,7.416c0.648,0.594,0.371,1.237-0.289,0.836
			c-1.199-0.729-2.554-1.192-4.015-1.192c-4.494,0-8.142,4.106-8.142,9.167c0,5.06,3.647,9.167,8.142,9.167
			c2.994,0,5.617-1.822,7.024-4.542c0.14-0.266,0.25-0.631,0.445-0.631c0.267,0,0.392,0.438,0.392,1.257
			c0,3.286-1.262,7.126-3.127,11.538c0.805-0.191,3.246-0.679,4.84-0.679c1.596,0,4.037,0.487,4.842,0.679
			c-1.866-4.412-3.128-8.252-3.128-11.538c0-0.819,0.125-1.257,0.393-1.257c0.195,0,0.306,0.365,0.443,0.631
			c1.408,2.72,4.03,4.542,7.025,4.542c4.494,0,8.142-4.107,8.142-9.167c0-5.061-3.647-9.167-8.142-9.167
			c-1.461,0-2.814,0.463-4.015,1.192c-0.659,0.401-0.938-0.242-0.289-0.836c1.917-1.756,3.17-4.418,3.17-7.416
			C140.962,29.918,137.18,25.66,132.521,25.66z"/>
		<path d="M132.521,223.938c4.66,0,8.441-4.258,8.441-9.504c0-2.998-1.253-5.66-3.17-7.416c-0.647-0.594-0.37-1.238,0.289-0.836
			c1.2,0.729,2.554,1.193,4.016,1.193c4.493,0,8.141-4.107,8.141-9.168c0-5.06-3.647-9.167-8.141-9.167
			c-2.996,0-5.618,1.822-7.026,4.54c-0.138,0.266-0.248,0.632-0.443,0.632c-0.267,0-0.393-0.437-0.393-1.257
			c0-3.286,1.263-7.125,3.128-11.537c-0.805,0.191-3.246,0.678-4.842,0.678c-1.594,0-4.035-0.486-4.841-0.678
			c1.866,4.412,3.128,8.251,3.128,11.537c0,0.82-0.124,1.257-0.392,1.257c-0.195,0-0.306-0.366-0.443-0.632
			c-1.408-2.718-4.032-4.54-7.025-4.54c-4.495,0-8.143,4.107-8.143,9.167c0,5.061,3.647,9.168,8.143,9.168
			c1.46,0,2.814-0.465,4.014-1.193c0.66-0.402,0.938,0.242,0.289,0.836c-1.919,1.756-3.169,4.418-3.169,7.416
			C124.081,219.68,127.862,223.938,132.521,223.938z"/>
		<g>
			<polygon fill="none" points="8.289,29.74 14.63,29.74 14.626,18.605 			"/>
			<path d="M19.843,32.132V29.74h-2.978l-0.007-15.566h-2.234v0.001l-0.077-0.001L5.67,29.74v2.392h8.961l0.002,3.739l-1.497,0.006
				l0.008,2.391l5.236-0.019l-0.008-2.392l-1.504,0.006l-0.002-3.731H19.843z M8.289,29.74l6.337-11.135L14.63,29.74H8.289z"/>
		</g>
		<g>
			<polygon fill="none" points="170.295,219.709 163.954,219.709 163.959,230.844 			"/>
			<path d="M158.741,217.316v2.393h2.978l0.007,15.566l2.235-0.001v-0.001l0.076,0.001l8.877-15.565v-2.393h-8.961l-0.002-3.738
				l1.497-0.006l-0.008-2.391l-5.236,0.018l0.008,2.393l1.505-0.006l0.001,3.73H158.741z M170.295,219.709l-6.336,11.135
				l-0.005-11.135H170.295z"/>
		</g>
	</g>
</g>
<g id="nine">
</g>
<g id="five">
</g>
<g id="six">
</g>
<g id="seven">
</g>
<g id="eight">
</g>
<g id="ten">
</g>
<g id="jack">
</g>
<g id="queen">
</g>
<g id="king">
</g>
<g id="jolly">
</g>
<g id="back">
</g>
</svg>
