<?xml version="1.0" encoding="utf-8"?>
<!-- Generator: Adobe Illustrator 16.0.4, SVG Export Plug-In . SVG Version: 6.00 Build 0)  -->
<!DOCTYPE svg PUBLIC "-//W3C//DTD SVG 1.1//EN" "http://www.w3.org/Graphics/SVG/1.1/DTD/svg11.dtd">
<svg version="1.1" xmlns="http://www.w3.org/2000/svg" xmlns:xlink="http://www.w3.org/1999/xlink" x="0px" y="0px"
	 width="178.583px" height="249.449px" viewBox="0 0 178.583 249.449" enable-background="new 0 0 178.583 249.449"
	 xml:space="preserve">
<g id="ace">
</g>
<g id="two">
</g>
<g id="three">
</g>
<g id="four">
	<g>
		<path fill="#F4F4F2" stroke="#000000" d="M178.583,235.275c0,7.828-6.346,14.174-14.174,14.174H14.173
			C6.346,249.449,0,243.104,0,235.275V14.173C0,6.346,6.346,0,14.173,0h150.236c7.828,0,14.174,6.346,14.174,14.173V235.275z"/>
		<path fill="#E44145" d="M12.768,42.52c1.786,3.471,4.146,6.309,7.075,8.513c-2.93,2.207-5.289,5.038-7.075,8.495
			c-1.802-3.457-4.167-6.288-7.098-8.495C8.601,48.828,10.966,45.99,12.768,42.52L12.768,42.52z"/>
		<path fill="#E44145" d="M165.837,189.921c1.787,3.47,4.146,6.308,7.076,8.513c-2.93,2.206-5.289,5.038-7.076,8.495
			c-1.803-3.457-4.168-6.289-7.098-8.495C161.669,196.229,164.034,193.391,165.837,189.921L165.837,189.921z"/>
		<path fill="#E44145" d="M46.089,25.512c4.469,8.675,10.365,15.77,17.691,21.283c-7.326,5.517-13.223,12.595-17.691,21.236
			c-4.504-8.642-10.418-15.72-17.742-21.236C35.671,41.281,41.585,34.187,46.089,25.512L46.089,25.512z"/>
		<path fill="#E44145" d="M46.089,181.417c4.469,8.675,10.364,15.769,17.691,21.282c-7.327,5.518-13.223,12.596-17.691,21.237
			c-4.504-8.642-10.418-15.72-17.742-21.237C35.671,197.186,41.585,190.092,46.089,181.417L46.089,181.417z"/>
		<path fill="#E44145" d="M132.544,25.51c4.469,8.675,10.365,15.771,17.691,21.284c-7.326,5.517-13.223,12.596-17.691,21.237
			c-4.502-8.642-10.416-15.721-17.74-21.237C122.128,41.28,128.042,34.185,132.544,25.51L132.544,25.51z"/>
		<path fill="#E44145" d="M132.544,181.417c4.469,8.675,10.363,15.77,17.691,21.282c-7.328,5.517-13.223,12.596-17.691,21.237
			c-4.502-8.642-10.416-15.721-17.742-21.237C122.128,197.187,128.042,190.092,132.544,181.417L132.544,181.417z"/>
		<path fill="#E44145" d="M19.843,32.131v-2.392h-2.979l-0.006-15.566l-2.236,0.001l0,0h-0.076L5.669,29.739v2.392h8.961l0.002,3.74
			l-1.496,0.005l0.007,2.392l5.236-0.019l-0.008-2.392l-1.505,0.005l-0.001-3.731H19.843z M8.288,29.739l6.336-11.134l0.005,11.134
			H8.288z"/>
		<path fill="#E44145" d="M158.739,217.316v2.393h2.979l0.006,15.566l2.236-0.001v-0.001l0.076,0.001l8.877-15.565v-2.393h-8.961
			l-0.002-3.739l1.496-0.005l-0.006-2.392l-5.236,0.019l0.008,2.392l1.504-0.005l0.002,3.73H158.739z M170.294,219.709
			l-6.336,11.134l-0.004-11.134H170.294z"/>
	</g>
</g>
<g id="five">
</g>
<g id="six">
</g>
<g id="seven">
</g>
<g id="eight">
</g>
<g id="nine">
</g>
<g id="ten">
</g>
<g id="jack">
</g>
<g id="queen">
</g>
<g id="king">
</g>
<g id="jolly">
</g>
<g id="back">
</g>
</svg>
