<?xml version="1.0" encoding="utf-8"?>
<!-- Generator: Adobe Illustrator 16.0.4, SVG Export Plug-In . SVG Version: 6.00 Build 0)  -->
<!DOCTYPE svg PUBLIC "-//W3C//DTD SVG 1.1//EN" "http://www.w3.org/Graphics/SVG/1.1/DTD/svg11.dtd">
<svg version="1.1" xmlns="http://www.w3.org/2000/svg" xmlns:xlink="http://www.w3.org/1999/xlink" x="0px" y="0px"
	 width="178.583px" height="249.449px" viewBox="0 0 178.583 249.449" enable-background="new 0 0 178.583 249.449"
	 xml:space="preserve">
<g id="ace">
</g>
<g id="two">
</g>
<g id="three">
</g>
<g id="four">
	<g>
		<path fill="#F4F4F2" stroke="#000000" d="M178.583,235.275c0,7.828-6.346,14.174-14.174,14.174H14.173
			C6.346,249.449,0,243.104,0,235.275V14.173C0,6.346,6.346,0,14.173,0h150.236c7.828,0,14.174,6.346,14.174,14.173V235.275z"/>
		<g>
			<path fill="#E44145" d="M16.729,42.619c-1.246-0.388-3.186,0.294-3.898,3.122c-0.059,0.154-0.121,0.151-0.178-0.006
				c-1.027-2.865-2.721-3.49-3.912-3.116c-1.766,0.568-3.194,2.672-3.064,5.356c0.036,4.684,4.229,7.043,7.059,11.522
				c2.83-4.479,7.068-6.832,7.082-11.536C20.062,45.25,18.543,43.178,16.729,42.619z"/>
			<path fill="#E44145" d="M12.755,59.527c-0.006-0.01-0.014-0.02-0.02-0.029c-0.006,0.01-0.014,0.019-0.02,0.029H12.755z"/>
		</g>
		<g>
			<path fill="#E44145" d="M165.849,189.951c-2.832,4.479-7.07,6.833-7.082,11.536c-0.246,2.712,1.273,4.784,3.086,5.343
				c1.248,0.387,3.188-0.295,3.9-3.123c0.059-0.154,0.121-0.15,0.176,0.006c1.029,2.865,2.723,3.491,3.914,3.117
				c1.764-0.568,3.193-2.673,3.062-5.356C172.87,196.79,168.679,194.43,165.849,189.951z"/>
			<path fill="#E44145" d="M165.829,189.922c0.006,0.01,0.014,0.02,0.02,0.029c0.006-0.01,0.014-0.019,0.02-0.029H165.829z"/>
		</g>
		<g>
			<path fill="#E44145" d="M55.997,25.761c-3.117-0.969-7.964,0.735-9.745,7.805c-0.147,0.387-0.304,0.379-0.445-0.014
				c-2.569-7.162-6.804-8.727-9.782-7.791c-4.41,1.423-7.984,6.682-7.656,13.391c0.088,11.711,10.568,17.608,17.643,28.808
				C53.087,56.76,63.685,50.88,63.714,39.117C64.327,32.338,60.532,27.156,55.997,25.761z"/>
			<path fill="#E44145" d="M46.058,68.031c-0.016-0.024-0.031-0.048-0.047-0.072c-0.016,0.024-0.031,0.048-0.047,0.072H46.058z"/>
		</g>
		<g>
			<path fill="#E44145" d="M63.759,210.298c-0.088-11.711-10.568-17.608-17.644-28.807c-7.076,11.199-17.675,17.079-17.704,28.84
				c-0.613,6.78,3.184,11.962,7.717,13.357c3.117,0.968,7.965-0.735,9.746-7.806c0.148-0.387,0.305-0.379,0.445,0.014
				c2.57,7.163,6.804,8.728,9.782,7.792C60.513,222.266,64.085,217.008,63.759,210.298z"/>
			<path fill="#E44145" d="M46.067,181.417c0.016,0.025,0.032,0.049,0.048,0.074c0.016-0.025,0.032-0.049,0.048-0.074H46.067z"/>
		</g>
		<g>
			<path fill="#E44145" d="M132.515,65.196c-0.016-0.025-0.032-0.049-0.048-0.074c-0.016,0.025-0.032,0.049-0.048,0.074H132.515z"/>
			<path fill="#E44145" d="M142.454,22.926c-3.117-0.968-7.965,0.735-9.746,7.805c-0.148,0.388-0.305,0.379-0.445-0.014
				c-2.57-7.162-6.805-8.727-9.783-7.791c-4.41,1.423-7.984,6.682-7.656,13.391c0.088,11.711,10.568,17.608,17.644,28.806
				c7.076-11.198,17.675-17.079,17.704-28.84C150.784,29.503,146.987,24.321,142.454,22.926z"/>
		</g>
		<g>
			<path fill="#E44145" d="M150.216,210.299c-0.088-11.711-10.568-17.609-17.644-28.808c-7.076,11.199-17.675,17.079-17.704,28.84
				c-0.613,6.78,3.184,11.962,7.717,13.357c3.117,0.968,7.965-0.735,9.746-7.806c0.148-0.387,0.305-0.379,0.445,0.014
				c2.57,7.163,6.805,8.729,9.783,7.792C146.97,222.266,150.542,217.008,150.216,210.299z"/>
			<path fill="#E44145" d="M132.524,181.417c0.016,0.025,0.032,0.049,0.048,0.074c0.016-0.025,0.032-0.049,0.048-0.074H132.524z"/>
		</g>
		<path fill="#E44145" d="M19.843,32.131v-2.392h-2.979l-0.006-15.566l-2.236,0.001l0,0h-0.076L5.669,29.739v2.392h8.961l0.002,3.74
			l-1.496,0.005l0.007,2.392l5.236-0.019l-0.008-2.392l-1.505,0.005l-0.001-3.731H19.843z M8.288,29.739l6.336-11.134l0.005,11.134
			H8.288z"/>
		<path fill="#E44145" d="M158.739,217.316v2.393h2.979l0.006,15.566l2.236-0.001v-0.001l0.076,0.001l8.877-15.565v-2.393h-8.961
			l-0.002-3.739l1.496-0.005l-0.006-2.392l-5.236,0.019l0.008,2.392l1.504-0.005l0.002,3.73H158.739z M170.294,219.709
			l-6.336,11.134l-0.004-11.134H170.294z"/>
	</g>
</g>
<g id="five">
</g>
<g id="six">
</g>
<g id="seven">
</g>
<g id="eight">
</g>
<g id="nine">
</g>
<g id="ten">
</g>
<g id="jack">
</g>
<g id="queen">
</g>
<g id="king">
</g>
<g id="jolly">
</g>
<g id="back">
</g>
</svg>
