<?xml version="1.0" encoding="utf-8"?>
<!-- Generator: Adobe Illustrator 16.0.4, SVG Export Plug-In . SVG Version: 6.00 Build 0)  -->
<!DOCTYPE svg PUBLIC "-//W3C//DTD SVG 1.1//EN" "http://www.w3.org/Graphics/SVG/1.1/DTD/svg11.dtd">
<svg version="1.1" xmlns="http://www.w3.org/2000/svg" xmlns:xlink="http://www.w3.org/1999/xlink" x="0px" y="0px"
	 width="178.582px" height="249.449px" viewBox="0 0 178.582 249.449" enable-background="new 0 0 178.582 249.449"
	 xml:space="preserve">
<g id="ace">
</g>
<g id="two">
</g>
<g id="three">
</g>
<g id="four">
</g>
<g id="nine">
</g>
<g id="five">
	<g>
		<path fill="#F4F4F2" stroke="#000000" d="M178.582,235.275c0,7.828-6.345,14.174-14.173,14.174H14.174
			C6.346,249.449,0,243.104,0,235.275V14.173C0,6.346,6.346,0,14.174,0h150.235c7.828,0,14.173,6.346,14.173,14.173V235.275z"/>
		<path d="M12.756,42.52c-1.863,0-3.377,1.703-3.377,3.802c0,1.2,0.501,2.264,1.27,2.966c0.259,0.238,0.147,0.496-0.116,0.335
			c-0.479-0.291-1.021-0.478-1.606-0.478c-1.797,0-3.256,1.643-3.256,3.668c0,2.023,1.459,3.666,3.256,3.666
			c1.198,0,2.248-0.729,2.811-1.816c0.056-0.106,0.1-0.252,0.178-0.252c0.107,0,0.156,0.175,0.156,0.502
			c0,1.314-0.504,2.851-1.251,4.615c0.323-0.076,1.299-0.271,1.937-0.271c0.639,0,1.614,0.194,1.937,0.271
			c-0.745-1.765-1.251-3.301-1.251-4.615c0-0.327,0.05-0.502,0.157-0.502c0.077,0,0.122,0.146,0.177,0.252
			c0.563,1.088,1.612,1.816,2.811,1.816c1.798,0,3.257-1.643,3.257-3.666c0-2.025-1.459-3.668-3.257-3.668
			c-0.584,0-1.126,0.187-1.606,0.478c-0.263,0.161-0.374-0.097-0.115-0.335c0.768-0.702,1.269-1.766,1.269-2.966
			C16.133,44.223,14.619,42.52,12.756,42.52z"/>
		<path d="M165.827,206.93c1.863,0,3.376-1.704,3.376-3.802c0-1.2-0.501-2.265-1.268-2.968c-0.26-0.236-0.147-0.494,0.115-0.334
			c0.479,0.293,1.021,0.478,1.605,0.478c1.798,0,3.258-1.644,3.258-3.667s-1.46-3.666-3.258-3.666c-1.198,0-2.246,0.729-2.81,1.816
			c-0.056,0.106-0.1,0.252-0.178,0.252c-0.106,0-0.156-0.175-0.156-0.502c0-1.314,0.505-2.851,1.251-4.615
			c-0.322,0.076-1.299,0.271-1.937,0.271s-1.613-0.195-1.938-0.271c0.746,1.765,1.253,3.301,1.253,4.615
			c0,0.327-0.052,0.502-0.158,0.502c-0.078,0-0.123-0.146-0.177-0.252c-0.563-1.088-1.612-1.816-2.811-1.816
			c-1.797,0-3.257,1.643-3.257,3.666s1.46,3.667,3.257,3.667c0.584,0,1.126-0.185,1.605-0.478c0.265-0.16,0.375,0.098,0.117,0.334
			c-0.769,0.703-1.269,1.768-1.269,2.968C162.451,205.226,163.964,206.93,165.827,206.93z"/>
		<path d="M46.064,25.512c-4.66,0-8.441,4.258-8.441,9.504c0,2.999,1.252,5.66,3.17,7.416c0.647,0.594,0.371,1.238-0.289,0.836
			c-1.2-0.729-2.554-1.192-4.016-1.192c-4.494,0-8.142,4.106-8.142,9.167s3.647,9.168,8.142,9.168c2.996,0,5.617-1.823,7.025-4.542
			c0.139-0.266,0.25-0.631,0.445-0.631c0.266,0,0.391,0.438,0.391,1.256c0,3.287-1.262,7.126-3.127,11.538
			c0.806-0.191,3.247-0.678,4.842-0.678c1.594,0,4.035,0.486,4.841,0.678c-1.866-4.412-3.128-8.251-3.128-11.538
			c0-0.818,0.125-1.256,0.393-1.256c0.194,0,0.305,0.365,0.442,0.631c1.408,2.719,4.031,4.542,7.026,4.542
			c4.494,0,8.142-4.107,8.142-9.168s-3.647-9.167-8.142-9.167c-1.462,0-2.816,0.464-4.015,1.192c-0.66,0.402-0.938-0.242-0.29-0.836
			c1.919-1.756,3.17-4.417,3.17-7.416C54.504,29.77,50.723,25.512,46.064,25.512z"/>
		<path d="M46.063,223.937c4.659,0,8.441-4.258,8.441-9.503c0-3-1.252-5.661-3.171-7.417c-0.647-0.593-0.37-1.238,0.29-0.837
			c1.199,0.73,2.553,1.193,4.015,1.193c4.494,0,8.142-4.106,8.142-9.166c0-5.061-3.647-9.168-8.142-9.168
			c-2.995,0-5.617,1.822-7.025,4.541c-0.138,0.266-0.249,0.631-0.443,0.631c-0.268,0-0.393-0.438-0.393-1.256
			c0-3.287,1.262-7.126,3.127-11.538c-0.805,0.191-3.246,0.679-4.841,0.679s-4.035-0.487-4.841-0.679
			c1.865,4.412,3.127,8.251,3.127,11.538c0,0.818-0.124,1.256-0.391,1.256c-0.195,0-0.307-0.365-0.444-0.631
			c-1.408-2.719-4.03-4.541-7.026-4.541c-4.494,0-8.142,4.107-8.142,9.168c0,5.06,3.647,9.166,8.142,9.166
			c1.462,0,2.816-0.463,4.016-1.193c0.66-0.401,0.938,0.244,0.289,0.837c-1.918,1.756-3.17,4.417-3.17,7.417
			C37.623,219.679,41.404,223.937,46.063,223.937z"/>
		<path d="M132.52,25.512c-4.659,0-8.439,4.258-8.439,9.504c0,2.999,1.25,5.66,3.169,7.416c0.647,0.594,0.371,1.238-0.289,0.836
			c-1.199-0.729-2.554-1.192-4.015-1.192c-4.494,0-8.142,4.106-8.142,9.167s3.647,9.168,8.142,9.168
			c2.994,0,5.617-1.823,7.024-4.542c0.139-0.267,0.25-0.631,0.445-0.631c0.266,0,0.392,0.438,0.392,1.256
			c0,3.287-1.263,7.126-3.128,11.538c0.806-0.191,3.247-0.678,4.841-0.678c1.596,0,4.036,0.486,4.842,0.678
			c-1.866-4.412-3.128-8.251-3.128-11.538c0-0.818,0.125-1.256,0.392-1.256c0.196,0,0.306,0.364,0.444,0.631
			c1.408,2.719,4.03,4.542,7.025,4.542c4.494,0,8.142-4.107,8.142-9.168s-3.647-9.167-8.142-9.167c-1.461,0-2.814,0.464-4.015,1.192
			c-0.66,0.402-0.938-0.242-0.289-0.836c1.917-1.756,3.169-4.417,3.169-7.416C140.96,29.77,137.179,25.512,132.52,25.512z"/>
		<path d="M132.52,223.938c4.66,0,8.44-4.258,8.44-9.504c0-3-1.252-5.66-3.169-7.416c-0.647-0.594-0.371-1.238,0.289-0.837
			c1.2,0.73,2.554,1.193,4.015,1.193c4.494,0,8.142-4.106,8.142-9.167s-3.647-9.168-8.142-9.168c-2.995,0-5.617,1.823-7.025,4.542
			c-0.139,0.266-0.248,0.63-0.444,0.63c-0.266,0-0.392-0.437-0.392-1.256c0-3.286,1.263-7.125,3.128-11.537
			c-0.806,0.191-3.246,0.678-4.842,0.678c-1.594,0-4.035-0.486-4.841-0.678c1.866,4.412,3.128,8.251,3.128,11.537
			c0,0.819-0.125,1.256-0.392,1.256c-0.195,0-0.306-0.364-0.444-0.63c-1.407-2.719-4.031-4.542-7.024-4.542
			c-4.495,0-8.143,4.107-8.143,9.168s3.647,9.167,8.143,9.167c1.46,0,2.814-0.463,4.014-1.193c0.66-0.401,0.938,0.243,0.289,0.837
			c-1.919,1.756-3.169,4.416-3.169,7.416C124.08,219.68,127.861,223.938,132.52,223.938z"/>
		<path d="M89.295,103.465c-4.66,0-8.443,4.259-8.443,9.506c0,3,1.252,5.661,3.171,7.42c0.648,0.595,0.37,1.24-0.29,0.838
			c-1.199-0.73-2.553-1.195-4.015-1.195c-4.494,0-8.143,4.115-8.143,9.184c0,5.053,3.648,9.154,8.143,9.154
			c2.995,0,5.618-1.82,7.026-4.535c0.139-0.266,0.249-0.631,0.444-0.631c0.267,0,0.392,0.438,0.392,1.255
			c0,3.282-1.262,7.115-3.127,11.524c0.805-0.191,3.247-0.678,4.842-0.678c1.592,0,4.03,0.486,4.836,0.678
			c-1.866-4.409-3.127-8.242-3.127-11.524c0-0.817,0.125-1.255,0.392-1.255c0.194,0,0.305,0.365,0.443,0.631
			c1.407,2.715,4.03,4.535,7.025,4.535c4.495,0,8.144-4.102,8.144-9.154c0-5.068-3.648-9.184-8.144-9.184
			c-1.461,0-2.815,0.465-4.015,1.195c-0.66,0.402-0.938-0.243-0.289-0.838c1.919-1.759,3.17-4.42,3.17-7.42
			C97.73,107.724,93.948,103.465,89.295,103.465z"/>
		<path d="M17.734,23.133c-1.312-1.621-3.193-2.676-5.287-2.674c-1.31-0.002-2.536,0.416-3.592,1.121l-0.004-5.031h9.366v-2.376
			H6.612v0.831H6.601l0.007,9.732h2.25c0.757-1.09,2.402-1.9,3.59-1.902c1.367,0.002,2.621,0.674,3.578,1.846
			c0.951,1.17,1.567,2.828,1.566,4.684c0.001,1.855-0.615,3.513-1.566,4.683c-0.957,1.171-2.211,1.845-3.578,1.845
			c-1.013,0-1.951-0.365-2.767-1.027c-0.813-0.66-1.49-1.623-1.909-2.779l-2.103,0.851c0.56,1.536,1.47,2.86,2.637,3.812
			c1.165,0.949,2.601,1.522,4.142,1.521c0.001,0,0.003,0,0.004,0c2.094,0,3.973-1.055,5.283-2.675
			c1.317-1.624,2.107-3.823,2.108-6.229C19.842,26.957,19.052,24.757,17.734,23.133z"/>
		<path d="M160.849,226.314c1.312,1.621,3.192,2.676,5.286,2.676c1.31,0,2.536-0.417,3.592-1.123l0.004,5.031h-9.365v2.377h11.604
			v-0.831h0.013l-0.007-9.733l-2.251,0.002c-0.757,1.088-2.402,1.9-3.59,1.9c-1.367,0-2.621-0.674-3.578-1.846
			c-0.951-1.168-1.566-2.828-1.565-4.682c-0.001-1.855,0.614-3.514,1.565-4.684c0.957-1.172,2.211-1.844,3.578-1.846
			c1.013,0.002,1.951,0.367,2.767,1.027c0.813,0.662,1.491,1.625,1.91,2.781l2.102-0.852c-0.559-1.537-1.469-2.859-2.637-3.811
			c-1.165-0.949-2.601-1.523-4.142-1.522c-0.001,0-0.003,0-0.004,0c-2.093,0-3.972,1.056-5.282,2.675
			c-1.318,1.623-2.107,3.822-2.108,6.23C158.741,222.492,159.53,224.691,160.849,226.314z"/>
	</g>
</g>
<g id="six">
</g>
<g id="seven">
</g>
<g id="eight">
</g>
<g id="ten">
</g>
<g id="jack">
</g>
<g id="queen">
</g>
<g id="king">
</g>
<g id="jolly">
</g>
<g id="back">
</g>
</svg>
