<?xml version="1.0" encoding="utf-8"?>
<!-- Generator: Adobe Illustrator 16.0.4, SVG Export Plug-In . SVG Version: 6.00 Build 0)  -->
<!DOCTYPE svg PUBLIC "-//W3C//DTD SVG 1.1//EN" "http://www.w3.org/Graphics/SVG/1.1/DTD/svg11.dtd">
<svg version="1.1" xmlns="http://www.w3.org/2000/svg" xmlns:xlink="http://www.w3.org/1999/xlink" x="0px" y="0px"
	 width="178.584px" height="249.449px" viewBox="0 0 178.584 249.449" enable-background="new 0 0 178.584 249.449"
	 xml:space="preserve">
<g id="ace">
</g>
<g id="two">
</g>
<g id="three">
</g>
<g id="four">
</g>
<g id="five">
	<g>
		<path fill="#F4F4F2" stroke="#000000" d="M178.584,235.275c0,7.828-6.346,14.174-14.174,14.174H14.174
			C6.346,249.449,0,243.104,0,235.275V14.173C0,6.346,6.346,0,14.174,0H164.41c7.828,0,14.174,6.346,14.174,14.173V235.275z"/>
		<path fill="#E44145" d="M12.768,42.52c1.785,3.471,4.144,6.309,7.075,8.512c-2.932,2.207-5.29,5.039-7.075,8.496
			c-1.803-3.457-4.167-6.289-7.099-8.496C8.601,48.828,10.965,45.99,12.768,42.52L12.768,42.52z"/>
		<path fill="#E44145" d="M165.838,189.921c1.791,3.47,4.146,6.308,7.076,8.513c-2.93,2.206-5.285,5.038-7.076,8.495
			c-1.799-3.457-4.166-6.289-7.097-8.495C161.672,196.229,164.039,193.391,165.838,189.921L165.838,189.921z"/>
		<path fill="#E44145" d="M46.088,25.512c4.47,8.675,10.365,15.77,17.692,21.283c-7.327,5.517-13.223,12.595-17.692,21.237
			c-4.501-8.643-10.416-15.721-17.741-21.237C35.672,41.281,41.587,34.187,46.088,25.512L46.088,25.512z"/>
		<path fill="#E44145" d="M89.314,103.464c4.469,8.686,10.369,15.778,17.693,21.269c-7.324,5.514-13.225,12.604-17.693,21.252
			c-4.501-8.648-10.414-15.738-17.739-21.252C78.9,119.242,84.813,112.149,89.314,103.464L89.314,103.464z"/>
		<path fill="#E44145" d="M46.087,181.417c4.47,8.675,10.365,15.77,17.692,21.283c-7.327,5.517-13.223,12.596-17.692,21.236
			c-4.5-8.641-10.415-15.72-17.74-21.236C35.672,197.187,41.587,190.092,46.087,181.417L46.087,181.417z"/>
		<path fill="#E44145" d="M132.549,25.512c4.464,8.675,10.364,15.771,17.688,21.284c-7.324,5.516-13.225,12.594-17.688,21.236
			c-4.506-8.643-10.417-15.721-17.744-21.236C122.132,41.282,128.043,34.187,132.549,25.512L132.549,25.512z"/>
		<path fill="#E44145" d="M132.549,181.417c4.463,8.676,10.363,15.77,17.688,21.283c-7.324,5.517-13.225,12.596-17.688,21.236
			c-4.506-8.641-10.417-15.72-17.745-21.236C122.132,197.187,128.043,190.093,132.549,181.417L132.549,181.417z"/>
		<path fill="#E44145" d="M17.734,23.134c-1.312-1.622-3.192-2.676-5.287-2.675c-1.309-0.001-2.535,0.416-3.592,1.122l-0.003-5.032
			h9.365v-2.376H6.612v0.831H6.601l0.007,9.733l2.251-0.002c0.757-1.088,2.402-1.899,3.589-1.901
			c1.368,0.002,2.622,0.675,3.579,1.846c0.951,1.17,1.566,2.828,1.565,4.684c0.001,1.854-0.614,3.513-1.565,4.683
			c-0.957,1.172-2.211,1.844-3.579,1.846c-1.012-0.001-1.95-0.367-2.767-1.027c-0.813-0.661-1.49-1.624-1.909-2.78L5.67,32.935
			c0.559,1.537,1.469,2.859,2.636,3.811c1.166,0.95,2.601,1.523,4.142,1.522c0.001,0,0.003,0,0.005,0
			c2.093,0,3.972-1.055,5.282-2.675c1.318-1.624,2.107-3.822,2.108-6.229C19.842,26.956,19.053,24.757,17.734,23.134z"/>
		<path fill="#E44145" d="M160.85,226.314c1.311,1.621,3.192,2.676,5.286,2.675c1.31,0.001,2.536-0.416,3.592-1.122l0.003,5.031
			h-9.365v2.377h11.605v-0.831h0.012l-0.006-9.733l-2.251,0.002c-0.757,1.088-2.402,1.899-3.59,1.9
			c-1.368-0.001-2.622-0.674-3.578-1.846c-0.952-1.169-1.567-2.828-1.565-4.683c-0.002-1.854,0.613-3.513,1.565-4.683
			c0.956-1.172,2.21-1.844,3.578-1.846c1.013,0.001,1.95,0.367,2.767,1.027c0.813,0.661,1.49,1.624,1.91,2.78l2.102-0.851
			c-0.559-1.537-1.469-2.859-2.637-3.811c-1.165-0.95-2.601-1.523-4.142-1.522c-0.001,0-0.003,0-0.004,0
			c-2.093,0-3.972,1.055-5.282,2.675c-1.318,1.623-2.107,3.822-2.109,6.229C158.742,222.492,159.531,224.691,160.85,226.314z"/>
	</g>
</g>
<g id="six">
</g>
<g id="seven">
</g>
<g id="eight">
</g>
<g id="nine">
</g>
<g id="ten">
</g>
<g id="jack">
</g>
<g id="queen">
</g>
<g id="king">
</g>
<g id="jolly">
</g>
<g id="back">
</g>
</svg>
