<?xml version="1.0" encoding="utf-8"?>
<!-- Generator: Adobe Illustrator 16.0.4, SVG Export Plug-In . SVG Version: 6.00 Build 0)  -->
<!DOCTYPE svg PUBLIC "-//W3C//DTD SVG 1.1//EN" "http://www.w3.org/Graphics/SVG/1.1/DTD/svg11.dtd">
<svg version="1.1" xmlns="http://www.w3.org/2000/svg" xmlns:xlink="http://www.w3.org/1999/xlink" x="0px" y="0px"
	 width="178.584px" height="249.449px" viewBox="0 0 178.584 249.449" enable-background="new 0 0 178.584 249.449"
	 xml:space="preserve">
<g id="ace">
</g>
<g id="two">
</g>
<g id="three">
</g>
<g id="four">
</g>
<g id="five">
	<g>
		<path fill="#F4F4F2" stroke="#000000" d="M178.584,235.275c0,7.828-6.346,14.174-14.174,14.174H14.174
			C6.346,249.449,0,243.104,0,235.275V14.173C0,6.346,6.346,0,14.174,0H164.41c7.828,0,14.174,6.346,14.174,14.173V235.275z"/>
		<g>
			<path fill="#E44145" d="M12.754,59.527c-0.006-0.01-0.013-0.019-0.019-0.028c-0.006,0.009-0.013,0.018-0.019,0.028H12.754z"/>
			<path fill="#E44145" d="M16.73,42.619c-1.247-0.387-3.186,0.294-3.898,3.122c-0.06,0.154-0.122,0.151-0.178-0.006
				c-1.028-2.865-2.722-3.491-3.913-3.116c-1.765,0.569-3.194,2.673-3.063,5.356c0.035,4.685,4.228,7.043,7.058,11.524
				c2.83-4.48,7.069-6.833,7.081-11.538C20.062,45.25,18.543,43.178,16.73,42.619z"/>
		</g>
		<g>
			<path fill="#E44145" d="M165.85,189.949c-2.832,4.48-7.07,6.833-7.082,11.537c-0.246,2.712,1.273,4.785,3.086,5.344
				c1.246,0.387,3.186-0.295,3.898-3.123c0.061-0.154,0.123-0.15,0.178,0.006c1.029,2.865,2.723,3.49,3.913,3.117
				c1.765-0.569,3.194-2.673,3.063-5.357C172.871,196.79,168.679,194.429,165.85,189.949z"/>
			<path fill="#E44145" d="M165.83,189.921c0.006,0.01,0.013,0.019,0.02,0.028c0.006-0.01,0.013-0.019,0.019-0.028H165.83z"/>
		</g>
		<g>
			<path fill="#E44145" d="M55.998,22.926c-3.117-0.969-7.965,0.735-9.746,7.805c-0.147,0.388-0.305,0.379-0.445-0.014
				c-2.569-7.162-6.804-8.727-9.782-7.791c-4.41,1.423-7.984,6.682-7.656,13.392c0.087,11.71,10.568,17.607,17.644,28.806
				c7.075-11.199,17.674-17.079,17.703-28.84C64.328,29.503,60.532,24.322,55.998,22.926z"/>
			<path fill="#E44145" d="M46.059,65.196c-0.016-0.025-0.032-0.048-0.047-0.073c-0.016,0.025-0.032,0.048-0.048,0.073H46.059z"/>
		</g>
		<g>
			<path fill="#E44145" d="M46.068,181.416c0.016,0.025,0.032,0.048,0.047,0.073c0.016-0.025,0.032-0.048,0.048-0.073H46.068z"/>
			<path fill="#E44145" d="M63.759,210.297c-0.088-11.71-10.568-17.608-17.644-28.808c-7.075,11.2-17.674,17.08-17.703,28.841
				c-0.613,6.781,3.183,11.963,7.717,13.357c3.117,0.969,7.965-0.734,9.746-7.805c0.147-0.387,0.305-0.379,0.445,0.014
				c2.569,7.162,6.804,8.728,9.782,7.791C60.513,222.266,64.086,217.007,63.759,210.297z"/>
		</g>
		<g>
			<path fill="#E44145" d="M142.455,22.926c-3.118-0.969-7.965,0.736-9.746,7.805c-0.148,0.388-0.305,0.379-0.445-0.014
				c-2.57-7.162-6.805-8.727-9.782-7.791c-4.411,1.423-7.985,6.682-7.657,13.392c0.088,11.71,10.568,17.606,17.644,28.805
				c7.076-11.199,17.674-17.079,17.704-28.839C150.784,29.503,146.988,24.322,142.455,22.926z"/>
			<path fill="#E44145" d="M132.516,65.196c-0.016-0.025-0.032-0.049-0.048-0.074c-0.016,0.025-0.032,0.049-0.048,0.074H132.516z"/>
		</g>
		<g>
			<path fill="#E44145" d="M150.216,207.463c-0.088-11.711-10.569-17.609-17.644-28.809c-7.076,11.199-17.674,17.081-17.703,28.842
				c-0.613,6.78,3.183,11.961,7.716,13.357c3.118,0.967,7.965-0.736,9.747-7.805c0.147-0.388,0.304-0.38,0.444,0.014
				c2.569,7.162,6.804,8.727,9.783,7.791C146.969,219.43,150.543,214.172,150.216,207.463z"/>
			<path fill="#E44145" d="M132.525,178.582c0.016,0.024,0.031,0.048,0.047,0.072c0.016-0.024,0.031-0.048,0.047-0.072H132.525z"/>
		</g>
		<g>
			<path fill="#E44145" d="M99.229,103.713c-3.117-0.968-7.971,0.736-9.752,7.805c-0.148,0.387-0.305,0.378-0.445-0.015
				c-2.568-7.161-6.803-8.725-9.78-7.79c-4.409,1.423-7.982,6.681-7.655,13.39c0.088,11.715,10.566,17.612,17.641,28.809
				c7.082-11.197,17.678-17.076,17.707-28.843C107.557,110.289,103.762,105.109,99.229,103.713z"/>
			<path fill="#E44145" d="M89.283,145.984c-0.016-0.025-0.031-0.048-0.047-0.073c-0.016,0.025-0.032,0.048-0.048,0.073H89.283z"/>
		</g>
		<path fill="#E44145" d="M17.734,23.134c-1.312-1.622-3.192-2.676-5.287-2.675c-1.309-0.001-2.535,0.416-3.592,1.122l-0.003-5.032
			h9.365v-2.376H6.612v0.831H6.601l0.007,9.733l2.251-0.002c0.757-1.088,2.402-1.899,3.589-1.901
			c1.368,0.002,2.622,0.675,3.579,1.846c0.951,1.17,1.566,2.828,1.565,4.684c0.001,1.854-0.614,3.513-1.565,4.683
			c-0.957,1.172-2.211,1.844-3.579,1.846c-1.012-0.001-1.95-0.367-2.767-1.027c-0.813-0.661-1.49-1.624-1.909-2.78L5.67,32.935
			c0.559,1.537,1.469,2.859,2.636,3.811c1.166,0.95,2.601,1.523,4.142,1.522c0.001,0,0.003,0,0.005,0
			c2.093,0,3.972-1.055,5.282-2.675c1.318-1.624,2.107-3.822,2.108-6.229C19.842,26.956,19.053,24.757,17.734,23.134z"/>
		<path fill="#E44145" d="M160.85,226.314c1.311,1.621,3.192,2.676,5.286,2.675c1.31,0.001,2.536-0.416,3.592-1.122l0.003,5.031
			h-9.365v2.377h11.605v-0.831h0.012l-0.006-9.733l-2.251,0.002c-0.757,1.088-2.402,1.899-3.59,1.9
			c-1.368-0.001-2.622-0.674-3.578-1.846c-0.952-1.169-1.567-2.828-1.565-4.683c-0.002-1.854,0.613-3.513,1.565-4.683
			c0.956-1.172,2.21-1.844,3.578-1.846c1.013,0.001,1.95,0.367,2.767,1.027c0.813,0.661,1.49,1.624,1.91,2.78l2.102-0.851
			c-0.559-1.537-1.469-2.859-2.637-3.811c-1.165-0.95-2.601-1.523-4.142-1.522c-0.001,0-0.003,0-0.004,0
			c-2.093,0-3.972,1.055-5.282,2.675c-1.318,1.623-2.107,3.822-2.109,6.229C158.742,222.492,159.531,224.691,160.85,226.314z"/>
	</g>
</g>
<g id="six">
</g>
<g id="seven">
</g>
<g id="eight">
</g>
<g id="nine">
</g>
<g id="ten">
</g>
<g id="jack">
</g>
<g id="queen">
</g>
<g id="king">
</g>
<g id="jolly">
</g>
<g id="back">
</g>
</svg>
