<?xml version="1.0" encoding="utf-8"?>
<!-- Generator: Adobe Illustrator 16.0.4, SVG Export Plug-In . SVG Version: 6.00 Build 0)  -->
<!DOCTYPE svg PUBLIC "-//W3C//DTD SVG 1.1//EN" "http://www.w3.org/Graphics/SVG/1.1/DTD/svg11.dtd">
<svg version="1.1" xmlns="http://www.w3.org/2000/svg" xmlns:xlink="http://www.w3.org/1999/xlink" x="0px" y="0px"
	 width="178.584px" height="249.448px" viewBox="0 0 178.584 249.448" enable-background="new 0 0 178.584 249.448"
	 xml:space="preserve">
<g id="ace">
</g>
<g id="two">
</g>
<g id="three">
</g>
<g id="four">
</g>
<g id="five">
	<g>
		<path fill="#F4F4F2" stroke="#000000" d="M178.583,235.275c0,7.828-6.346,14.174-14.174,14.174H14.173
			C6.346,249.449,0,243.104,0,235.275V14.173C0,6.346,6.346,0,14.173,0h150.236c7.828,0,14.174,6.346,14.174,14.173V235.275z"/>
		<path stroke="#000000" d="M17.733,23.133c-1.312-1.621-3.192-2.676-5.286-2.675c-1.31-0.001-2.536,0.417-3.592,1.122l-0.004-5.031
			h9.365v-2.376H6.611v0.831H6.6l0.007,9.732l2.251-0.001c0.757-1.089,2.402-1.9,3.59-1.901c1.367,0.001,2.621,0.674,3.578,1.846
			c0.951,1.169,1.566,2.828,1.565,4.683c0.001,1.855-0.614,3.514-1.565,4.684c-0.957,1.171-2.211,1.844-3.578,1.845
			c-1.013-0.001-1.951-0.366-2.768-1.027c-0.812-0.661-1.49-1.624-1.909-2.78l-2.102,0.852c0.559,1.536,1.469,2.859,2.636,3.811
			c1.166,0.949,2.602,1.523,4.143,1.522c0,0,0.002,0,0.004,0c2.093,0,3.972-1.056,5.282-2.675c1.318-1.624,2.107-3.823,2.108-6.23
			C19.841,26.956,19.052,24.757,17.733,23.133z"/>
		<path stroke="#000000" d="M160.849,226.314c1.311,1.621,3.191,2.676,5.285,2.676c1.311,0,2.537-0.417,3.594-1.123l0.002,5.031
			h-9.365v2.377h11.605v-0.831h0.012l-0.006-9.733l-2.252,0.002c-0.756,1.088-2.402,1.9-3.59,1.9c-1.367,0-2.621-0.674-3.578-1.846
			c-0.951-1.168-1.566-2.828-1.564-4.682c-0.002-1.855,0.613-3.514,1.564-4.684c0.957-1.172,2.211-1.844,3.578-1.846
			c1.014,0.002,1.951,0.367,2.768,1.027c0.814,0.662,1.49,1.625,1.91,2.781l2.102-0.852c-0.559-1.537-1.469-2.859-2.637-3.811
			c-1.166-0.949-2.602-1.523-4.143-1.522c0,0-0.002,0-0.004,0c-2.092,0-3.971,1.056-5.281,2.675
			c-1.318,1.623-2.107,3.822-2.109,6.23C158.741,222.492,159.53,224.691,160.849,226.314z"/>
		<path fill-rule="evenodd" clip-rule="evenodd" stroke="#000000" stroke-width="0.065" stroke-linejoin="round" d="M12.746,42.52
			c-0.041,0.026-0.07,0.041-0.117,0.072c-3.038,1.939-6.583,5.724-6.946,10.441c-0.173,2.244,1.263,3.798,3.118,3.832
			c1.184,0.021,2.137-0.399,2.652-1.203c0.429-0.669,0.538-1.699,0.607-1.223c0.25,1.816-0.511,3.562-0.922,5.088
			c0.459-0.167,1.035-0.251,1.613-0.253h0.01c0.576,0.002,1.152,0.086,1.61,0.253c-0.411-1.525-1.17-3.271-0.921-5.088
			c0.069-0.477,0.179,0.554,0.606,1.223c0.516,0.804,1.469,1.225,2.652,1.203c1.855-0.034,3.291-1.588,3.118-3.832
			c-0.363-4.718-3.908-8.502-6.943-10.441c-0.033-0.025-0.062-0.04-0.11-0.072H12.746z"/>
		<path fill-rule="evenodd" clip-rule="evenodd" stroke="#000000" stroke-width="0.065" stroke-linejoin="round" d="M165.817,206.93
			c-0.041-0.027-0.07-0.041-0.117-0.072c-3.037-1.939-6.582-5.725-6.945-10.441c-0.174-2.244,1.262-3.799,3.117-3.832
			c1.184-0.021,2.137,0.398,2.652,1.203c0.43,0.668,0.539,1.699,0.607,1.223c0.25-1.816-0.51-3.562-0.922-5.088
			c0.459,0.166,1.035,0.25,1.613,0.252h0.01c0.576-0.002,1.152-0.086,1.611-0.252c-0.412,1.525-1.17,3.271-0.922,5.088
			c0.07,0.477,0.18-0.555,0.607-1.223c0.516-0.805,1.469-1.225,2.65-1.203c1.855,0.033,3.291,1.588,3.119,3.832
			c-0.363,4.717-3.908,8.502-6.943,10.441c-0.033,0.024-0.062,0.039-0.109,0.072H165.817z"/>
		<path fill-rule="evenodd" clip-rule="evenodd" stroke="#000000" stroke-width="0.1625" stroke-linejoin="round" d="M46.038,25.512
			c-0.102,0.067-0.174,0.104-0.293,0.181c-7.595,4.85-16.456,14.311-17.364,26.104c-0.432,5.61,3.155,9.494,7.794,9.579
			c2.961,0.054,5.342-0.998,6.632-3.007c1.072-1.672,1.346-4.248,1.52-3.058c0.625,4.541-1.277,8.906-2.307,12.72
			c1.147-0.417,2.59-0.627,4.034-0.632h0.023c1.442,0.005,2.882,0.215,4.027,0.632c-1.027-3.813-2.926-8.179-2.303-12.72
			c0.174-1.19,0.446,1.386,1.517,3.058c1.289,2.009,3.671,3.061,6.631,3.007c4.639-0.085,8.227-3.969,7.794-9.579
			c-0.908-11.794-9.77-21.255-17.358-26.104c-0.082-0.062-0.155-0.1-0.274-0.181H46.038z"/>
		<path fill-rule="evenodd" clip-rule="evenodd" stroke="#000000" stroke-width="0.1625" stroke-linejoin="round" d="
			M132.495,25.512c-0.102,0.067-0.174,0.104-0.293,0.181c-7.596,4.85-16.455,14.311-17.363,26.104
			c-0.434,5.61,3.154,9.494,7.793,9.579c2.961,0.054,5.342-0.998,6.631-3.007c1.072-1.672,1.346-4.248,1.52-3.058
			c0.625,4.541-1.275,8.906-2.305,12.72c1.146-0.417,2.588-0.627,4.033-0.632h0.023c1.443,0.005,2.881,0.215,4.027,0.632
			c-1.027-3.813-2.926-8.179-2.303-12.72c0.174-1.19,0.447,1.386,1.518,3.058c1.289,2.009,3.67,3.061,6.631,3.007
			c4.639-0.085,8.227-3.969,7.793-9.579c-0.908-11.794-9.77-21.255-17.357-26.104c-0.084-0.062-0.156-0.1-0.275-0.181H132.495z"/>
		<path fill-rule="evenodd" clip-rule="evenodd" stroke="#000000" stroke-width="0.1625" stroke-linejoin="round" d="
			M89.267,103.465c-0.102,0.067-0.174,0.103-0.293,0.181c-7.595,4.849-16.456,14.31-17.364,26.104
			c-0.432,5.609,3.155,9.494,7.794,9.578c2.961,0.055,5.342-0.997,6.631-3.006c1.072-1.672,1.346-4.248,1.52-3.059
			c0.625,4.542-1.275,8.907-2.305,12.721c1.146-0.417,2.588-0.627,4.033-0.632h0.023c1.443,0.005,2.881,0.215,4.027,0.632
			c-1.027-3.813-2.926-8.179-2.303-12.721c0.174-1.189,0.447,1.387,1.518,3.059c1.289,2.009,3.67,3.061,6.631,3.006
			c4.639-0.084,8.227-3.969,7.793-9.578c-0.908-11.795-9.77-21.256-17.357-26.104c-0.084-0.062-0.156-0.1-0.275-0.181H89.267z"/>
		<path fill-rule="evenodd" clip-rule="evenodd" stroke="#000000" stroke-width="0.1625" stroke-linejoin="round" d="
			M46.038,223.938c-0.102-0.068-0.174-0.104-0.293-0.182c-7.595-4.849-16.456-14.31-17.364-26.104
			c-0.432-5.61,3.155-9.494,7.794-9.579c2.961-0.054,5.342,0.997,6.632,3.007c1.072,1.672,1.346,4.248,1.52,3.058
			c0.625-4.542-1.277-8.907-2.307-12.72c1.147,0.416,2.59,0.627,4.034,0.631h0.023c1.442-0.004,2.882-0.215,4.027-0.631
			c-1.027,3.812-2.926,8.178-2.303,12.72c0.174,1.19,0.446-1.386,1.517-3.058c1.289-2.01,3.671-3.061,6.631-3.007
			c4.639,0.085,8.227,3.969,7.794,9.579c-0.908,11.794-9.77,21.255-17.358,26.104c-0.082,0.062-0.155,0.1-0.274,0.182H46.038z"/>
		<path fill-rule="evenodd" clip-rule="evenodd" stroke="#000000" stroke-width="0.1625" stroke-linejoin="round" d="
			M132.495,223.938c-0.102-0.067-0.174-0.104-0.293-0.182c-7.594-4.849-16.455-14.31-17.363-26.104
			c-0.432-5.61,3.154-9.494,7.793-9.579c2.961-0.054,5.342,0.997,6.633,3.007c1.072,1.672,1.346,4.248,1.52,3.058
			c0.625-4.542-1.277-8.907-2.307-12.72c1.146,0.416,2.59,0.627,4.033,0.631h0.023c1.443-0.004,2.883-0.215,4.027-0.631
			c-1.027,3.812-2.926,8.178-2.303,12.72c0.174,1.19,0.447-1.386,1.518-3.058c1.289-2.01,3.67-3.061,6.631-3.007
			c4.639,0.085,8.227,3.969,7.793,9.579c-0.908,11.794-9.77,21.255-17.357,26.104c-0.082,0.062-0.156,0.1-0.275,0.182H132.495z"/>
	</g>
</g>
<g id="six">
</g>
<g id="seven">
</g>
<g id="eight">
</g>
<g id="nine">
</g>
<g id="ten">
</g>
<g id="jack">
</g>
<g id="queen">
</g>
<g id="king">
</g>
<g id="joker">
</g>
<g id="back">
</g>
</svg>
