<?xml version="1.0" encoding="utf-8"?>
<!-- Generator: Adobe Illustrator 16.0.4, SVG Export Plug-In . SVG Version: 6.00 Build 0)  -->
<!DOCTYPE svg PUBLIC "-//W3C//DTD SVG 1.1//EN" "http://www.w3.org/Graphics/SVG/1.1/DTD/svg11.dtd">
<svg version="1.1" xmlns="http://www.w3.org/2000/svg" xmlns:xlink="http://www.w3.org/1999/xlink" x="0px" y="0px"
	 width="178.583px" height="249.448px" viewBox="0 0 178.583 249.448" enable-background="new 0 0 178.583 249.448"
	 xml:space="preserve">
<g id="ace">
</g>
<g id="two">
</g>
<g id="three">
</g>
<g id="four">
</g>
<g id="nine">
</g>
<g id="five">
</g>
<g id="six">
	<g>
		<path fill="#F4F4F2" stroke="#000000" d="M178.583,235.275c0,7.827-6.345,14.173-14.173,14.173H14.174
			C6.346,249.448,0,243.103,0,235.275V14.174C0,6.346,6.346,0,14.174,0H164.41c7.828,0,14.173,6.346,14.173,14.174V235.275z"/>
		<path d="M12.757,42.521c-1.864,0-3.377,1.703-3.377,3.801c0,1.2,0.5,2.264,1.269,2.966c0.259,0.237,0.148,0.495-0.116,0.334
			c-0.48-0.292-1.021-0.477-1.606-0.477c-1.797,0-3.256,1.642-3.256,3.667c0,2.024,1.459,3.667,3.256,3.667
			c1.198,0,2.248-0.729,2.811-1.816c0.056-0.107,0.1-0.253,0.178-0.253c0.107,0,0.157,0.175,0.157,0.503
			c0,1.314-0.504,2.851-1.251,4.615c0.323-0.076,1.299-0.271,1.937-0.271c0.638,0,1.614,0.195,1.936,0.271
			c-0.746-1.765-1.251-3.301-1.251-4.615c0-0.328,0.05-0.503,0.157-0.503c0.077,0,0.122,0.146,0.177,0.253
			c0.563,1.088,1.612,1.816,2.81,1.816c1.798,0,3.257-1.643,3.257-3.667c0-2.024-1.459-3.667-3.257-3.667
			c-0.584,0-1.126,0.185-1.606,0.477c-0.263,0.161-0.374-0.097-0.115-0.334c0.768-0.702,1.269-1.767,1.269-2.966
			C16.133,44.223,14.62,42.521,12.757,42.521z"/>
		<path d="M165.828,206.929c1.863,0,3.376-1.704,3.376-3.802c0-1.198-0.5-2.264-1.268-2.967c-0.26-0.237-0.147-0.494,0.115-0.334
			c0.479,0.293,1.021,0.477,1.606,0.477c1.797,0,3.257-1.643,3.257-3.666s-1.46-3.666-3.257-3.666c-1.198,0-2.247,0.729-2.811,1.816
			c-0.056,0.105-0.1,0.252-0.177,0.252c-0.107,0-0.157-0.175-0.157-0.503c0-1.313,0.505-2.851,1.25-4.616
			c-0.321,0.077-1.298,0.272-1.936,0.272c-0.639,0-1.613-0.195-1.937-0.272c0.745,1.766,1.252,3.303,1.252,4.616
			c0,0.328-0.052,0.503-0.158,0.503c-0.078,0-0.123-0.146-0.177-0.252c-0.562-1.088-1.612-1.816-2.811-1.816
			c-1.798,0-3.257,1.643-3.257,3.666s1.459,3.666,3.257,3.666c0.585,0,1.126-0.184,1.606-0.477c0.264-0.16,0.374,0.097,0.116,0.334
			c-0.769,0.703-1.269,1.769-1.269,2.967C162.452,205.225,163.964,206.929,165.828,206.929z"/>
		<path d="M46.065,25.616c-4.66,0-8.441,4.258-8.441,9.504c0,2.999,1.251,5.66,3.17,7.417c0.647,0.593,0.371,1.237-0.289,0.836
			c-1.2-0.729-2.554-1.193-4.016-1.193c-4.493,0-8.142,4.107-8.142,9.167c0,5.061,3.648,9.168,8.142,9.168
			c2.996,0,5.618-1.823,7.026-4.542c0.138-0.266,0.25-0.631,0.444-0.631c0.267,0,0.392,0.438,0.392,1.256
			c0,3.287-1.262,7.126-3.127,11.539c0.806-0.192,3.247-0.678,4.842-0.678c1.594,0,4.035,0.486,4.841,0.678
			c-1.867-4.413-3.128-8.251-3.128-11.539c0-0.818,0.125-1.256,0.393-1.256c0.194,0,0.306,0.365,0.443,0.631
			c1.408,2.719,4.03,4.542,7.026,4.542c4.494,0,8.142-4.107,8.142-9.168c0-5.06-3.647-9.167-8.142-9.167
			c-1.462,0-2.816,0.464-4.015,1.193c-0.66,0.401-0.938-0.243-0.289-0.836c1.918-1.757,3.169-4.418,3.169-7.417
			C54.504,29.874,50.723,25.616,46.065,25.616z"/>
		<path d="M46.065,103.517c-4.66,0-8.441,4.253-8.441,9.492c0,3,1.251,5.668,3.17,7.428c0.647,0.594,0.371,1.24-0.289,0.838
			c-1.2-0.731-2.554-1.195-4.016-1.195c-4.493,0-8.142,4.115-8.142,9.172c0,5.054,3.648,9.157,8.142,9.157
			c2.996,0,5.618-1.82,7.026-4.537c0.138-0.266,0.25-0.63,0.444-0.63c0.267,0,0.392,0.437,0.392,1.255
			c0,3.283-1.262,7.123-3.127,11.54c0.806-0.192,3.247-0.679,4.842-0.679c1.594,0,4.035,0.486,4.841,0.679
			c-1.867-4.417-3.128-8.257-3.128-11.54c0-0.818,0.125-1.255,0.393-1.255c0.194,0,0.306,0.364,0.443,0.63
			c1.408,2.717,4.03,4.537,7.026,4.537c4.494,0,8.142-4.104,8.142-9.157c0-5.057-3.647-9.172-8.142-9.172
			c-1.462,0-2.816,0.464-4.015,1.195c-0.66,0.402-0.938-0.244-0.289-0.838c1.918-1.76,3.169-4.428,3.169-7.428
			C54.504,107.77,50.723,103.517,46.065,103.517z"/>
		<path d="M46.064,223.937c4.66,0,8.441-4.258,8.441-9.505c0-2.998-1.251-5.658-3.17-7.415c-0.648-0.593-0.371-1.237,0.289-0.837
			c1.199,0.73,2.553,1.193,4.015,1.193c4.494,0,8.142-4.105,8.142-9.166s-3.647-9.168-8.142-9.168c-2.995,0-5.618,1.822-7.026,4.541
			c-0.137,0.266-0.249,0.632-0.443,0.632c-0.268,0-0.393-0.438-0.393-1.257c0-3.286,1.262-7.125,3.128-11.538
			c-0.806,0.192-3.247,0.679-4.842,0.679s-4.035-0.486-4.841-0.679c1.866,4.413,3.127,8.252,3.127,11.538
			c0,0.818-0.124,1.257-0.392,1.257c-0.194,0-0.305-0.366-0.443-0.632c-1.408-2.719-4.03-4.541-7.025-4.541
			c-4.494,0-8.143,4.107-8.143,9.168s3.648,9.166,8.143,9.166c1.461,0,2.815-0.463,4.015-1.193c0.66-0.4,0.938,0.244,0.289,0.837
			c-1.918,1.757-3.169,4.417-3.169,7.415C37.624,219.679,41.405,223.937,46.064,223.937z"/>
		<path d="M132.52,25.513c-4.66,0-8.44,4.258-8.44,9.503c0,2.999,1.251,5.66,3.169,7.417c0.647,0.593,0.371,1.237-0.288,0.836
			c-1.2-0.729-2.554-1.192-4.016-1.192c-4.494,0-8.142,4.106-8.142,9.167s3.647,9.167,8.142,9.167c2.995,0,5.618-1.822,7.025-4.541
			c0.139-0.267,0.249-0.631,0.444-0.631c0.267,0,0.393,0.438,0.393,1.256c0,3.287-1.264,7.126-3.129,11.538
			c0.806-0.191,3.247-0.678,4.842-0.678s4.035,0.487,4.842,0.678c-1.866-4.412-3.128-8.251-3.128-11.538
			c0-0.819,0.125-1.256,0.392-1.256c0.194,0,0.307,0.365,0.443,0.631c1.407,2.719,4.029,4.541,7.026,4.541
			c4.494,0,8.141-4.107,8.141-9.167s-3.646-9.167-8.141-9.167c-1.461,0-2.815,0.463-4.015,1.192
			c-0.661,0.401-0.938-0.243-0.289-0.836c1.918-1.756,3.169-4.417,3.169-7.417C140.96,29.771,137.179,25.513,132.52,25.513z"/>
		<path d="M132.52,103.465c-4.66,0-8.44,4.253-8.44,9.492c0,2.999,1.251,5.666,3.169,7.426c0.647,0.595,0.371,1.239-0.288,0.839
			c-1.2-0.732-2.554-1.196-4.016-1.196c-4.494,0-8.142,4.116-8.142,9.173c0,5.054,3.647,9.156,8.142,9.156
			c2.995,0,5.618-1.819,7.025-4.535c0.139-0.267,0.249-0.63,0.444-0.63c0.267,0,0.393,0.437,0.393,1.254
			c0,3.283-1.264,7.123-3.129,11.541c0.806-0.193,3.247-0.68,4.842-0.68s4.035,0.486,4.842,0.68
			c-1.866-4.418-3.128-8.258-3.128-11.541c0-0.817,0.125-1.254,0.392-1.254c0.194,0,0.307,0.363,0.443,0.63
			c1.407,2.716,4.029,4.535,7.026,4.535c4.494,0,8.141-4.103,8.141-9.156c0-5.057-3.646-9.173-8.141-9.173
			c-1.461,0-2.815,0.464-4.015,1.196c-0.661,0.4-0.938-0.244-0.289-0.839c1.918-1.76,3.169-4.427,3.169-7.426
			C140.96,107.718,137.179,103.465,132.52,103.465z"/>
		<path d="M132.519,223.937c4.66,0,8.442-4.257,8.442-9.505c0-2.998-1.252-5.658-3.17-7.414c-0.648-0.594-0.372-1.239,0.289-0.838
			c1.2,0.73,2.554,1.194,4.015,1.194c4.494,0,8.141-4.106,8.141-9.167s-3.646-9.168-8.141-9.168c-2.997,0-5.618,1.822-7.026,4.541
			c-0.137,0.266-0.249,0.631-0.443,0.631c-0.267,0-0.392-0.438-0.392-1.256c0-3.286,1.262-7.126,3.127-11.538
			c-0.806,0.192-3.246,0.679-4.842,0.679c-1.594,0-4.035-0.486-4.841-0.679c1.866,4.412,3.129,8.252,3.129,11.538
			c0,0.818-0.126,1.256-0.393,1.256c-0.195,0-0.306-0.365-0.443-0.631c-1.408-2.719-4.031-4.541-7.025-4.541
			c-4.495,0-8.143,4.107-8.143,9.168s3.647,9.167,8.143,9.167c1.461,0,2.814-0.464,4.015-1.194c0.659-0.401,0.938,0.244,0.288,0.838
			c-1.918,1.756-3.169,4.416-3.169,7.414C124.08,219.68,127.861,223.937,132.519,223.937z"/>
		<g>
			<path fill="none" d="M14.862,23.775c-0.577-0.294-1.242-0.464-2.019-0.465c-0.015,0-0.033,0.001-0.055,0.001
				c-0.756,0.009-1.41,0.193-1.986,0.511c-0.575,0.318-1.076,0.775-1.496,1.354c-0.84,1.153-1.345,2.811-1.343,4.639
				c0,0.117,0.009,0.229,0.013,0.345c0.009,0.092,0.012,0.181,0.021,0.273l-0.011,0.002c0.106,1.537,0.605,2.833,1.351,3.762
				c0.851,1.049,1.998,1.664,3.44,1.671c0.759-0.001,1.42-0.176,2.002-0.483c0.582-0.31,1.088-0.754,1.514-1.319
				c0.851-1.127,1.365-2.751,1.363-4.573c0-1.362-0.276-2.589-0.763-3.566C16.407,24.948,15.725,24.218,14.862,23.775z"/>
			<path d="M18.02,23.492c-0.604-0.792-1.359-1.445-2.235-1.893c-0.876-0.448-1.871-0.689-2.941-0.688
				c-0.028,0-0.054,0.001-0.075,0.001c-1.074,0.011-2.074,0.283-2.949,0.768c-0.581,0.321-1.101,0.736-1.562,1.219
				c0.042-0.249,0.084-0.488,0.127-0.708c0.132-0.678,0.263-1.215,0.359-1.577c0.049-0.181,0.088-0.318,0.115-0.409
				c0.013-0.044,0.023-0.077,0.029-0.097c0.004-0.011,0.007-0.018,0.008-0.021c0-0.001,0.001-0.002,0.001-0.002v-0.002l0.01-0.029
				l0.006-0.026l0.002-0.005v-0.001c0.023-0.083,0.296-0.936,0.912-1.735c0.32-0.416,0.727-0.819,1.237-1.128
				c0.512-0.309,1.13-0.531,1.925-0.576c0.111-0.006,0.218-0.008,0.322-0.008c1.412,0.004,2.34,0.502,2.952,0.986
				c0.305,0.243,0.523,0.484,0.66,0.655c0.067,0.086,0.115,0.154,0.144,0.195c0.014,0.021,0.021,0.033,0.024,0.039
				c0.003,0.003,0.003,0.003,0.003,0.003l0.543-0.388l1.304-0.895c-0.053-0.09-0.477-0.818-1.391-1.55
				c-0.909-0.732-2.332-1.45-4.239-1.446c-0.14,0-0.284,0.003-0.432,0.012c-1.155,0.061-2.146,0.415-2.945,0.916
				c-1.203,0.753-1.971,1.803-2.44,2.649c-0.428,0.774-0.619,1.393-0.664,1.55c-0.113,0.36-1.158,3.747-1.16,8.376
				c0,0.851,0.044,1.748,0.128,2.672c0.096,2.108,0.758,4.012,1.899,5.435c1.227,1.54,3.026,2.484,5.06,2.484
				c0.007,0,0.015,0,0.021,0c1.071,0,2.072-0.255,2.952-0.722c1.323-0.7,2.362-1.864,3.056-3.267
				c0.695-1.405,1.057-3.052,1.058-4.786C19.842,27.207,19.228,25.083,18.02,23.492z M16.293,34.066
				c-0.426,0.565-0.932,1.009-1.514,1.319c-0.582,0.307-1.243,0.482-2.002,0.483c-1.442-0.007-2.59-0.622-3.44-1.671
				c-0.746-0.929-1.245-2.225-1.351-3.762l0.011-0.002c-0.01-0.093-0.013-0.182-0.021-0.273c-0.004-0.115-0.013-0.228-0.013-0.345
				c-0.002-1.828,0.503-3.485,1.343-4.639c0.42-0.579,0.921-1.036,1.496-1.354c0.576-0.317,1.23-0.502,1.986-0.511
				c0.021,0,0.04-0.001,0.055-0.001c0.776,0.001,1.441,0.171,2.019,0.465c0.863,0.442,1.545,1.173,2.032,2.151
				c0.486,0.978,0.763,2.204,0.763,3.566C17.659,31.315,17.144,32.939,16.293,34.066z"/>
		</g>
		<g>
			<path fill="none" d="M163.722,225.673c0.576,0.294,1.242,0.464,2.018,0.465c0.015,0,0.034-0.001,0.056-0.001
				c0.756-0.009,1.409-0.193,1.985-0.511c0.575-0.318,1.075-0.775,1.496-1.354c0.841-1.153,1.345-2.811,1.343-4.639
				c0-0.117-0.008-0.229-0.013-0.344c-0.009-0.093-0.011-0.182-0.021-0.274l0.011-0.001c-0.106-1.537-0.605-2.834-1.352-3.763
				c-0.851-1.05-1.997-1.664-3.44-1.671c-0.758,0.001-1.419,0.176-2.002,0.483c-0.581,0.31-1.087,0.754-1.513,1.319
				c-0.851,1.127-1.365,2.75-1.364,4.572c0,1.362,0.277,2.589,0.763,3.566C162.177,224.5,162.859,225.23,163.722,225.673z"/>
			<path d="M160.564,225.956c0.604,0.792,1.359,1.445,2.235,1.893c0.875,0.448,1.871,0.689,2.94,0.688c0.029,0,0.055,0,0.076,0
				c1.074-0.012,2.074-0.284,2.949-0.769c0.58-0.321,1.1-0.736,1.561-1.218c-0.041,0.248-0.084,0.487-0.126,0.707
				c-0.133,0.678-0.264,1.215-0.359,1.577c-0.049,0.181-0.088,0.318-0.115,0.409c-0.014,0.044-0.023,0.077-0.029,0.098
				c-0.004,0.01-0.006,0.018-0.007,0.021c0,0.001-0.002,0.002-0.002,0.002v0.002l-0.01,0.029l-0.007,0.026l-0.002,0.005v0.001
				c-0.022,0.083-0.296,0.936-0.912,1.735c-0.319,0.417-0.727,0.819-1.237,1.128s-1.129,0.531-1.924,0.576
				c-0.111,0.006-0.218,0.008-0.323,0.008c-1.411-0.004-2.339-0.502-2.951-0.986c-0.305-0.242-0.523-0.484-0.66-0.655
				c-0.067-0.086-0.115-0.154-0.144-0.194c-0.014-0.021-0.021-0.034-0.025-0.04c-0.002-0.003-0.002-0.003-0.002-0.003l-0.544,0.388
				l-1.304,0.895c0.053,0.09,0.478,0.818,1.392,1.55c0.909,0.732,2.332,1.451,4.238,1.447c0.141,0,0.284-0.004,0.433-0.013
				c1.154-0.061,2.146-0.415,2.945-0.916c1.203-0.753,1.97-1.803,2.439-2.649c0.428-0.774,0.619-1.393,0.665-1.55
				c0.112-0.36,1.157-3.747,1.159-8.376c0-0.85-0.044-1.748-0.128-2.672c-0.096-2.107-0.758-4.012-1.899-5.435
				c-1.227-1.54-3.025-2.484-5.059-2.484c-0.007,0-0.015,0-0.022,0c-1.07-0.001-2.071,0.255-2.951,0.722
				c-1.323,0.7-2.362,1.865-3.056,3.268c-0.695,1.405-1.057,3.053-1.058,4.785C158.742,222.241,159.356,224.365,160.564,225.956z
				 M162.291,215.383c0.426-0.565,0.932-1.01,1.513-1.319c0.583-0.308,1.244-0.482,2.002-0.483c1.443,0.007,2.59,0.621,3.44,1.671
				c0.746,0.929,1.245,2.226,1.352,3.763l-0.011,0.001c0.01,0.093,0.012,0.182,0.021,0.274c0.005,0.114,0.013,0.227,0.013,0.344
				c0.002,1.828-0.502,3.485-1.343,4.639c-0.421,0.579-0.921,1.036-1.496,1.354c-0.576,0.317-1.229,0.502-1.985,0.511
				c-0.021,0-0.041,0.001-0.056,0.001c-0.775-0.001-1.441-0.171-2.018-0.465c-0.863-0.442-1.545-1.173-2.033-2.151
				c-0.485-0.978-0.763-2.204-0.763-3.566C160.925,218.133,161.44,216.51,162.291,215.383z"/>
		</g>
	</g>
</g>
<g id="seven">
</g>
<g id="eight">
</g>
<g id="ten">
</g>
<g id="jack">
</g>
<g id="queen">
</g>
<g id="king">
</g>
<g id="jolly">
</g>
<g id="back">
</g>
</svg>
