<?xml version="1.0" encoding="utf-8"?>
<!-- Generator: Adobe Illustrator 16.0.4, SVG Export Plug-In . SVG Version: 6.00 Build 0)  -->
<!DOCTYPE svg PUBLIC "-//W3C//DTD SVG 1.1//EN" "http://www.w3.org/Graphics/SVG/1.1/DTD/svg11.dtd">
<svg version="1.1" xmlns="http://www.w3.org/2000/svg" xmlns:xlink="http://www.w3.org/1999/xlink" x="0px" y="0px"
	 width="178.583px" height="249.442px" viewBox="0 0 178.583 249.442" enable-background="new 0 0 178.583 249.442"
	 xml:space="preserve">
<g id="ace">
</g>
<g id="two">
</g>
<g id="three">
</g>
<g id="four">
</g>
<g id="five">
</g>
<g id="six">
	<g>
		<path fill="#F4F4F2" stroke="#000000" d="M178.583,235.271c0,7.828-6.346,14.174-14.174,14.174H14.173
			C6.346,249.445,0,243.099,0,235.271V14.172C0,6.344,6.346-0.001,14.173-0.001H164.41c7.828,0,14.174,6.346,14.174,14.173V235.271z
			"/>
		<path fill="#E44145" d="M12.768,42.519c1.787,3.47,4.145,6.309,7.076,8.512c-2.931,2.207-5.289,5.039-7.076,8.496
			C10.965,56.07,8.6,53.238,5.67,51.031C8.6,48.828,10.965,45.989,12.768,42.519L12.768,42.519z"/>
		<path fill="#E44145" d="M165.838,189.917c1.786,3.47,4.146,6.308,7.075,8.513c-2.93,2.206-5.289,5.038-7.075,8.495
			c-1.802-3.457-4.169-6.289-7.098-8.495C161.669,196.224,164.037,193.386,165.838,189.917L165.838,189.917z"/>
		<path fill="#E44145" d="M46.088,25.511c4.469,8.674,10.365,15.77,17.691,21.283c-7.326,5.517-13.223,12.595-17.691,21.237
			c-4.503-8.642-10.417-15.721-17.742-21.237C35.671,41.28,41.585,34.185,46.088,25.511L46.088,25.511z"/>
		<path fill="#E44145" d="M46.088,103.463c4.468,8.679,10.364,15.775,17.691,21.273c-7.327,5.513-13.224,12.599-17.691,21.244
			c-4.503-8.645-10.417-15.73-17.742-21.244C35.671,119.238,41.585,112.143,46.088,103.463L46.088,103.463z"/>
		<path fill="#E44145" d="M46.088,181.413c4.469,8.675,10.364,15.769,17.691,21.282c-7.327,5.518-13.223,12.597-17.691,21.237
			c-4.503-8.641-10.417-15.72-17.742-21.237C35.671,197.181,41.585,190.087,46.088,181.413L46.088,181.413z"/>
		<path fill="#E44145" d="M132.544,25.511c4.47,8.674,10.365,15.77,17.691,21.283c-7.326,5.517-13.222,12.595-17.691,21.237
			c-4.502-8.642-10.416-15.721-17.74-21.237C122.128,41.28,128.042,34.185,132.544,25.511L132.544,25.511z"/>
		<path fill="#E44145" d="M132.544,103.463c4.469,8.68,10.364,15.773,17.691,21.271c-7.327,5.515-13.223,12.6-17.691,21.246
			c-4.502-8.646-10.416-15.73-17.741-21.246C122.128,119.236,128.042,112.143,132.544,103.463L132.544,103.463z"/>
		<path fill="#E44145" d="M132.544,181.413c4.469,8.675,10.364,15.77,17.691,21.283c-7.327,5.517-13.223,12.595-17.691,21.236
			c-4.502-8.642-10.416-15.72-17.741-21.236C122.128,197.182,128.042,190.087,132.544,181.413L132.544,181.413z"/>
		<path fill="#E44145" d="M18.019,23.491c-0.604-0.792-1.359-1.445-2.235-1.893c-0.875-0.448-1.872-0.689-2.941-0.689
			c-0.029,0-0.055,0-0.076,0c-1.074,0.011-2.074,0.284-2.949,0.768c-0.581,0.321-1.1,0.737-1.561,1.218
			c0.042-0.248,0.084-0.488,0.126-0.708c0.132-0.677,0.263-1.215,0.359-1.577c0.049-0.181,0.088-0.318,0.115-0.409
			c0.014-0.044,0.023-0.077,0.029-0.098c0.004-0.01,0.006-0.018,0.007-0.021c0-0.001,0.001-0.002,0.001-0.002v-0.002l0.01-0.029
			l0.006-0.026l0.002-0.005v0c0.023-0.083,0.296-0.937,0.913-1.736c0.319-0.417,0.727-0.82,1.237-1.128
			c0.511-0.309,1.129-0.531,1.924-0.576c0.111-0.006,0.218-0.008,0.323-0.008c1.412,0.004,2.339,0.502,2.952,0.986
			c0.304,0.243,0.523,0.484,0.66,0.656c0.067,0.086,0.115,0.154,0.144,0.194c0.013,0.021,0.021,0.034,0.025,0.04
			c0.002,0.003,0.002,0.003,0.002,0.003l0.544-0.387l1.304-0.895c-0.053-0.09-0.478-0.818-1.391-1.55
			c-0.909-0.732-2.333-1.451-4.239-1.447c-0.14,0-0.284,0.004-0.432,0.012c-1.155,0.061-2.146,0.416-2.946,0.917
			c-1.203,0.753-1.97,1.803-2.44,2.649c-0.428,0.774-0.619,1.393-0.665,1.55c-0.113,0.36-1.157,3.746-1.159,8.375
			c0,0.85,0.044,1.749,0.127,2.671c0.096,2.108,0.758,4.013,1.9,5.436c1.227,1.539,3.025,2.484,5.059,2.484c0.007,0,0.015,0,0.022,0
			c1.071,0,2.071-0.255,2.951-0.723c1.324-0.699,2.363-1.864,3.056-3.267c0.695-1.405,1.056-3.053,1.058-4.785
			C19.841,27.206,19.227,25.082,18.019,23.491z M16.293,34.064c-0.426,0.565-0.932,1.01-1.513,1.319
			c-0.583,0.307-1.244,0.483-2.002,0.483c-1.443-0.006-2.59-0.622-3.441-1.67c-0.746-0.929-1.245-2.226-1.351-3.763l0.011-0.001
			c-0.01-0.093-0.012-0.182-0.021-0.274c-0.005-0.114-0.013-0.227-0.013-0.344c-0.002-1.828,0.502-3.485,1.343-4.639
			c0.42-0.579,0.921-1.036,1.496-1.354c0.576-0.318,1.23-0.502,1.985-0.511c0.021,0,0.041,0,0.056,0
			c0.776,0.001,1.441,0.17,2.018,0.464c0.863,0.443,1.544,1.173,2.033,2.152c0.485,0.978,0.763,2.204,0.763,3.566
			C17.658,31.314,17.143,32.937,16.293,34.064z"/>
		<path fill="#E44145" d="M160.564,225.952c0.604,0.792,1.359,1.445,2.234,1.893c0.876,0.448,1.871,0.689,2.941,0.688
			c0.029,0,0.055,0,0.076,0c1.074-0.012,2.074-0.283,2.949-0.768c0.58-0.322,1.1-0.737,1.561-1.219
			c-0.041,0.248-0.084,0.488-0.127,0.708c-0.131,0.677-0.262,1.215-0.358,1.577c-0.05,0.181-0.089,0.318-0.115,0.408
			c-0.014,0.044-0.022,0.077-0.029,0.098c-0.004,0.01-0.007,0.018-0.007,0.021c0,0.001-0.002,0.002-0.002,0.002v0.002l-0.01,0.029
			l-0.006,0.026l-0.002,0.006l0,0c-0.023,0.083-0.297,0.937-0.913,1.736c-0.319,0.416-0.727,0.819-1.237,1.127
			c-0.512,0.309-1.129,0.531-1.924,0.576c-0.111,0.006-0.219,0.008-0.323,0.008c-1.411-0.004-2.339-0.502-2.952-0.986
			c-0.304-0.242-0.523-0.484-0.66-0.655c-0.066-0.086-0.115-0.153-0.143-0.194c-0.014-0.021-0.021-0.034-0.025-0.039
			c-0.002-0.004-0.002-0.004-0.002-0.004l-0.544,0.388l-1.304,0.895c0.053,0.091,0.478,0.818,1.391,1.55
			c0.91,0.732,2.333,1.451,4.239,1.447c0.14,0,0.284-0.004,0.433-0.012c1.154-0.062,2.146-0.416,2.945-0.917
			c1.203-0.753,1.97-1.803,2.439-2.649c0.428-0.773,0.619-1.393,0.664-1.55c0.113-0.36,1.158-3.746,1.16-8.376
			c0-0.85-0.044-1.748-0.127-2.671c-0.097-2.108-0.759-4.013-1.9-5.436c-1.227-1.539-3.025-2.484-5.059-2.484
			c-0.008,0-0.016,0-0.022,0c-1.071,0-2.071,0.255-2.952,0.723c-1.322,0.699-2.361,1.864-3.055,3.267
			c-0.695,1.405-1.057,3.053-1.059,4.785C158.742,222.237,159.355,224.361,160.564,225.952z M162.291,215.378
			c0.426-0.565,0.932-1.01,1.513-1.318c0.583-0.308,1.243-0.483,2.002-0.484c1.442,0.007,2.59,0.622,3.44,1.671
			c0.746,0.929,1.245,2.226,1.352,3.763l-0.012,0.001c0.01,0.093,0.014,0.182,0.021,0.274c0.004,0.114,0.013,0.227,0.013,0.344
			c0.002,1.828-0.503,3.485-1.343,4.639c-0.42,0.579-0.921,1.036-1.496,1.355c-0.576,0.317-1.23,0.502-1.985,0.511
			c-0.022,0-0.041,0-0.056,0c-0.775-0.001-1.441-0.17-2.018-0.464c-0.863-0.443-1.545-1.174-2.033-2.152
			c-0.486-0.978-0.763-2.204-0.763-3.566C160.925,218.128,161.44,216.505,162.291,215.378z"/>
	</g>
</g>
<g id="seven">
</g>
<g id="eight">
</g>
<g id="nine">
</g>
<g id="ten">
</g>
<g id="jack">
</g>
<g id="queen">
</g>
<g id="king">
</g>
<g id="jolly">
</g>
<g id="back">
</g>
</svg>
