<?xml version="1.0" encoding="utf-8"?>
<!-- Generator: Adobe Illustrator 16.0.4, SVG Export Plug-In . SVG Version: 6.00 Build 0)  -->
<!DOCTYPE svg PUBLIC "-//W3C//DTD SVG 1.1//EN" "http://www.w3.org/Graphics/SVG/1.1/DTD/svg11.dtd">
<svg version="1.1" xmlns="http://www.w3.org/2000/svg" xmlns:xlink="http://www.w3.org/1999/xlink" x="0px" y="0px"
	 width="178.583px" height="249.445px" viewBox="0 0 178.583 249.445" enable-background="new 0 0 178.583 249.445"
	 xml:space="preserve">
<g id="ace">
</g>
<g id="two">
</g>
<g id="three">
</g>
<g id="four">
</g>
<g id="five">
</g>
<g id="six">
	<g>
		<path fill="#F4F4F2" stroke="#000000" d="M178.583,235.274c0,7.828-6.346,14.174-14.174,14.174H14.173
			C6.346,249.448,0,243.103,0,235.274V14.173C0,6.345,6.346-0.001,14.173-0.001h150.236c7.828,0,14.174,6.346,14.174,14.174V235.274
			z"/>
		<g>
			<path fill="#E44145" d="M16.729,42.618c-1.247-0.387-3.186,0.295-3.898,3.123c-0.06,0.154-0.122,0.15-0.178-0.006
				c-1.028-2.865-2.722-3.491-3.913-3.117c-1.764,0.569-3.193,2.673-3.062,5.356c0.035,4.685,4.227,7.044,7.057,11.523
				c2.83-4.479,7.069-6.831,7.082-11.537C20.062,45.249,18.543,43.177,16.729,42.618z"/>
			<path fill="#E44145" d="M12.754,59.526c-0.006-0.01-0.013-0.019-0.02-0.028c-0.006,0.01-0.012,0.019-0.019,0.028H12.754z"/>
		</g>
		<g>
			<path fill="#E44145" d="M165.829,189.921c0.006,0.01,0.013,0.018,0.019,0.027c0.006-0.01,0.013-0.018,0.019-0.027H165.829z"/>
			<path fill="#E44145" d="M165.848,189.948c-2.83,4.48-7.069,6.832-7.082,11.537c-0.245,2.713,1.274,4.785,3.087,5.344
				c1.246,0.387,3.186-0.295,3.898-3.123c0.061-0.154,0.123-0.15,0.179,0.006c1.028,2.865,2.722,3.49,3.911,3.117
				c1.766-0.568,3.195-2.674,3.064-5.357C172.87,196.788,168.678,194.429,165.848,189.948z"/>
		</g>
		<g>
			<path fill="#E44145" d="M46.058,65.196c-0.016-0.025-0.032-0.049-0.048-0.073c-0.016,0.024-0.031,0.048-0.047,0.073H46.058z"/>
			<path fill="#E44145" d="M55.997,22.926c-3.117-0.969-7.964,0.735-9.746,7.805c-0.147,0.387-0.304,0.379-0.445-0.014
				c-2.569-7.163-6.804-8.727-9.782-7.791c-4.41,1.423-7.984,6.682-7.656,13.391c0.088,11.711,10.568,17.608,17.643,28.807
				c7.076-11.198,17.674-17.079,17.704-28.84C64.327,29.503,60.531,24.321,55.997,22.926z"/>
		</g>
		<g>
			<path fill="#E44145" d="M46.067,181.417c0.016,0.025,0.032,0.049,0.048,0.074c0.016-0.025,0.031-0.049,0.047-0.074H46.067z"/>
			<path fill="#E44145" d="M63.758,210.296c-0.088-11.711-10.567-17.607-17.643-28.805c-7.076,11.197-17.674,17.078-17.704,28.838
				c-0.613,6.781,3.183,11.963,7.717,13.357c3.117,0.969,7.965-0.734,9.746-7.805c0.147-0.387,0.305-0.379,0.445,0.014
				c2.569,7.162,6.804,8.729,9.782,7.791C60.512,222.265,64.086,217.007,63.758,210.296z"/>
		</g>
		<g>
			<path fill="#E44145" d="M132.515,144.565c-0.016-0.025-0.032-0.049-0.048-0.074c-0.016,0.025-0.032,0.049-0.048,0.074H132.515z"
				/>
			<path fill="#E44145" d="M142.453,102.296c-3.117-0.969-7.964,0.735-9.745,7.804c-0.148,0.387-0.305,0.378-0.445-0.015
				c-2.57-7.161-6.804-8.725-9.783-7.789c-4.41,1.422-7.984,6.68-7.656,13.388c0.088,11.716,10.567,17.612,17.644,28.808
				c7.076-11.195,17.674-17.076,17.704-28.841C150.784,108.871,146.987,103.691,142.453,102.296z"/>
		</g>
		<g>
			<path fill="#E44145" d="M142.454,22.926c-3.118-0.969-7.966,0.735-9.747,7.805c-0.147,0.387-0.304,0.379-0.444-0.014
				c-2.57-7.162-6.805-8.727-9.783-7.791c-4.41,1.423-7.984,6.682-7.656,13.391c0.088,11.71,10.567,17.607,17.644,28.806
				c7.076-11.197,17.673-17.078,17.703-28.84C150.783,29.503,146.987,24.321,142.454,22.926z"/>
			<path fill="#E44145" d="M132.515,65.196c-0.016-0.025-0.032-0.049-0.048-0.074c-0.016,0.025-0.032,0.049-0.048,0.074H132.515z"/>
		</g>
		<g>
			<path fill="#E44145" d="M132.524,181.417c0.016,0.025,0.031,0.049,0.047,0.072c0.016-0.023,0.031-0.047,0.047-0.072H132.524z"/>
			<path fill="#E44145" d="M150.216,210.296c-0.088-11.711-10.569-17.607-17.645-28.807c-7.074,11.199-17.674,17.078-17.703,28.84
				c-0.613,6.781,3.184,11.963,7.717,13.357c3.117,0.969,7.965-0.734,9.746-7.805c0.148-0.387,0.305-0.379,0.445,0.014
				c2.57,7.162,6.803,8.729,9.783,7.791C146.97,222.265,150.542,217.007,150.216,210.296z"/>
		</g>
		<g>
			<path fill="#E44145" d="M46.058,144.565c-0.016-0.023-0.032-0.049-0.048-0.072c-0.016,0.023-0.031,0.049-0.047,0.072H46.058z"/>
			<path fill="#E44145" d="M55.997,102.296c-3.117-0.969-7.965,0.735-9.746,7.804c-0.147,0.387-0.304,0.378-0.445-0.014
				c-2.569-7.162-6.804-8.726-9.782-7.79c-4.41,1.423-7.984,6.68-7.656,13.39c0.088,11.716,10.567,17.61,17.643,28.808
				c7.076-11.195,17.674-17.076,17.704-28.843C64.327,108.871,60.531,103.691,55.997,102.296z"/>
		</g>
		<path fill="#E44145" d="M18.019,23.492c-0.604-0.792-1.358-1.445-2.235-1.893c-0.875-0.448-1.871-0.689-2.94-0.689
			c-0.029,0-0.055,0-0.076,0c-1.074,0.011-2.074,0.284-2.949,0.768c-0.581,0.321-1.1,0.737-1.562,1.218
			c0.042-0.248,0.084-0.488,0.127-0.708c0.133-0.677,0.264-1.215,0.359-1.577c0.049-0.181,0.088-0.318,0.115-0.409
			c0.014-0.044,0.023-0.077,0.029-0.098c0.004-0.01,0.006-0.018,0.007-0.021c0-0.001,0.001-0.002,0.001-0.002v-0.002l0.011-0.029
			l0.007-0.026l0.002-0.005v0c0.022-0.083,0.296-0.937,0.912-1.736c0.319-0.417,0.727-0.82,1.237-1.128
			c0.511-0.309,1.129-0.531,1.924-0.576c0.111-0.006,0.218-0.008,0.323-0.008c1.412,0.004,2.34,0.502,2.951,0.986
			c0.305,0.243,0.523,0.484,0.66,0.656c0.068,0.086,0.115,0.154,0.145,0.194c0.013,0.021,0.021,0.034,0.024,0.04
			c0.002,0.003,0.002,0.003,0.002,0.003l0.544-0.387l1.304-0.895c-0.053-0.09-0.478-0.818-1.392-1.55
			c-0.908-0.732-2.332-1.451-4.238-1.447c-0.141,0-0.284,0.004-0.432,0.012c-1.155,0.061-2.146,0.416-2.946,0.917
			c-1.203,0.753-1.97,1.803-2.44,2.649c-0.428,0.774-0.618,1.393-0.664,1.55c-0.113,0.36-1.157,3.746-1.159,8.375
			c0,0.85,0.044,1.749,0.128,2.671c0.096,2.108,0.758,4.013,1.899,5.436c1.227,1.539,3.025,2.484,5.059,2.484
			c0.007,0,0.015,0,0.022,0c1.07,0,2.071-0.254,2.951-0.723c1.324-0.699,2.363-1.864,3.057-3.266
			c0.695-1.405,1.056-3.053,1.057-4.785C19.841,27.207,19.227,25.083,18.019,23.492z M16.293,34.065
			c-0.426,0.565-0.933,1.01-1.514,1.319c-0.582,0.307-1.244,0.483-2.002,0.483c-1.443-0.006-2.59-0.622-3.441-1.67
			c-0.745-0.929-1.244-2.226-1.351-3.763l0.011-0.001c-0.01-0.093-0.012-0.182-0.021-0.274c-0.005-0.114-0.013-0.227-0.013-0.344
			c-0.002-1.828,0.502-3.485,1.343-4.639c0.421-0.579,0.921-1.036,1.496-1.354c0.576-0.318,1.229-0.502,1.985-0.511
			c0.021,0,0.041,0,0.056,0c0.776,0.001,1.441,0.17,2.019,0.464c0.862,0.443,1.544,1.173,2.032,2.152
			c0.485,0.978,0.763,2.204,0.763,3.566C17.657,31.315,17.143,32.938,16.293,34.065z"/>
		<path fill="#E44145" d="M160.563,225.954c0.604,0.793,1.359,1.445,2.234,1.893c0.876,0.449,1.871,0.689,2.941,0.689
			c0.029,0,0.055,0,0.076,0c1.074-0.012,2.074-0.283,2.949-0.768c0.58-0.322,1.1-0.738,1.561-1.219
			c-0.041,0.248-0.084,0.488-0.127,0.707c-0.131,0.678-0.262,1.215-0.358,1.578c-0.05,0.18-0.089,0.318-0.115,0.408
			c-0.014,0.043-0.022,0.076-0.029,0.098c-0.004,0.01-0.007,0.018-0.007,0.02s-0.002,0.002-0.002,0.002v0.002l-0.01,0.029
			l-0.006,0.027l-0.002,0.006l0,0c-0.023,0.082-0.297,0.936-0.913,1.736c-0.319,0.416-0.727,0.818-1.237,1.127
			c-0.512,0.309-1.129,0.531-1.924,0.576c-0.111,0.006-0.219,0.008-0.323,0.008c-1.411-0.004-2.339-0.502-2.952-0.986
			c-0.304-0.242-0.523-0.484-0.66-0.656c-0.066-0.086-0.115-0.152-0.143-0.193c-0.014-0.021-0.021-0.035-0.025-0.039
			c-0.002-0.004-0.002-0.004-0.002-0.004l-0.544,0.387l-1.304,0.895c0.053,0.092,0.478,0.818,1.391,1.551
			c0.91,0.732,2.333,1.451,4.239,1.447c0.14,0,0.284-0.004,0.433-0.012c1.154-0.062,2.146-0.416,2.945-0.918
			c1.203-0.752,1.97-1.803,2.439-2.648c0.428-0.773,0.619-1.393,0.664-1.551c0.113-0.359,1.158-3.746,1.16-8.375
			c0-0.85-0.044-1.748-0.127-2.672c-0.097-2.107-0.759-4.012-1.9-5.436c-1.227-1.539-3.025-2.484-5.059-2.484
			c-0.008,0-0.016,0-0.022,0c-1.071,0-2.071,0.256-2.952,0.723c-1.322,0.699-2.361,1.865-3.055,3.268
			c-0.695,1.404-1.057,3.053-1.059,4.785C158.741,222.239,159.354,224.364,160.563,225.954z M162.29,215.382
			c0.426-0.566,0.932-1.01,1.513-1.318c0.583-0.309,1.243-0.484,2.002-0.484c1.442,0.006,2.59,0.621,3.44,1.67
			c0.746,0.93,1.245,2.227,1.352,3.764h-0.012c0.01,0.094,0.014,0.182,0.021,0.275c0.004,0.113,0.013,0.227,0.013,0.344
			c0.002,1.828-0.503,3.484-1.343,4.639c-0.42,0.578-0.921,1.035-1.496,1.355c-0.576,0.316-1.23,0.502-1.985,0.51
			c-0.022,0-0.041,0-0.056,0c-0.775,0-1.441-0.17-2.018-0.463c-0.863-0.443-1.545-1.174-2.033-2.152
			c-0.486-0.979-0.763-2.205-0.763-3.566C160.925,218.132,161.439,216.509,162.29,215.382z"/>
	</g>
</g>
<g id="seven">
</g>
<g id="eight">
</g>
<g id="nine">
</g>
<g id="ten">
</g>
<g id="jack">
</g>
<g id="queen">
</g>
<g id="king">
</g>
<g id="jolly">
</g>
<g id="back">
</g>
</svg>
