<?xml version="1.0" encoding="utf-8"?>
<!-- Generator: Adobe Illustrator 16.0.4, SVG Export Plug-In . SVG Version: 6.00 Build 0)  -->
<!DOCTYPE svg PUBLIC "-//W3C//DTD SVG 1.1//EN" "http://www.w3.org/Graphics/SVG/1.1/DTD/svg11.dtd">
<svg version="1.1" xmlns="http://www.w3.org/2000/svg" xmlns:xlink="http://www.w3.org/1999/xlink" x="0px" y="0px"
	 width="178.583px" height="249.44px" viewBox="0 0 178.583 249.44" enable-background="new 0 0 178.583 249.44"
	 xml:space="preserve">
<g id="ace">
</g>
<g id="two">
</g>
<g id="three">
</g>
<g id="four">
</g>
<g id="five">
</g>
<g id="six">
	<g>
		<path fill="#F4F4F2" stroke="#000000" d="M178.583,235.27c0,7.828-6.346,14.174-14.174,14.174H14.173
			C6.345,249.444,0,243.098,0,235.27V14.171C0,6.343,6.345-0.002,14.173-0.002h150.236c7.828,0,14.174,6.346,14.174,14.174V235.27z"
			/>
		<g>
			<path fill="none" d="M14.861,23.774c-0.577-0.295-1.242-0.464-2.018-0.465c-0.015,0-0.034,0-0.056,0
				c-0.755,0.01-1.409,0.193-1.985,0.512c-0.575,0.318-1.076,0.775-1.496,1.354c-0.841,1.153-1.345,2.811-1.343,4.639
				c0,0.117,0.008,0.229,0.013,0.344c0.008,0.093,0.011,0.182,0.021,0.274l-0.011,0.001c0.106,1.537,0.605,2.834,1.351,3.763
				c0.851,1.049,1.998,1.664,3.441,1.671c0.758-0.001,1.419-0.177,2.002-0.483c0.581-0.31,1.087-0.754,1.513-1.319
				c0.85-1.127,1.365-2.75,1.364-4.572c0-1.362-0.277-2.589-0.763-3.566C16.405,24.947,15.724,24.216,14.861,23.774z"/>
			<path d="M18.019,23.491c-0.604-0.792-1.358-1.445-2.235-1.893c-0.875-0.448-1.872-0.689-2.941-0.688c-0.029,0-0.055,0-0.076,0
				c-1.074,0.012-2.074,0.284-2.949,0.769c-0.581,0.321-1.1,0.736-1.561,1.218c0.042-0.248,0.084-0.487,0.126-0.708
				c0.132-0.677,0.263-1.215,0.359-1.576c0.049-0.182,0.088-0.318,0.115-0.409c0.014-0.044,0.023-0.077,0.029-0.098
				c0.004-0.01,0.006-0.018,0.007-0.021c0-0.001,0.001-0.002,0.001-0.002v-0.002l0.01-0.029l0.006-0.026l0.002-0.005v-0.001
				c0.023-0.083,0.296-0.937,0.913-1.735c0.319-0.417,0.727-0.82,1.237-1.128c0.511-0.309,1.129-0.531,1.924-0.576
				c0.111-0.006,0.218-0.008,0.323-0.008c1.412,0.004,2.339,0.502,2.952,0.986c0.304,0.242,0.523,0.484,0.661,0.655
				c0.067,0.086,0.115,0.154,0.144,0.194c0.013,0.021,0.021,0.034,0.024,0.04c0.002,0.003,0.002,0.003,0.002,0.003l0.544-0.388
				l1.304-0.895c-0.053-0.09-0.478-0.818-1.391-1.55c-0.909-0.732-2.333-1.451-4.239-1.447c-0.14,0-0.284,0.004-0.432,0.013
				c-1.155,0.061-2.146,0.415-2.946,0.916c-1.203,0.753-1.97,1.803-2.44,2.649c-0.428,0.774-0.619,1.393-0.665,1.55
				c-0.113,0.36-1.157,3.746-1.159,8.376c0,0.85,0.044,1.748,0.127,2.671c0.096,2.108,0.758,4.013,1.9,5.436
				c1.227,1.539,3.025,2.484,5.059,2.484c0.007,0,0.015,0,0.022,0c1.071,0,2.071-0.255,2.951-0.723
				c1.324-0.699,2.363-1.864,3.057-3.267c0.695-1.405,1.056-3.053,1.058-4.785C19.841,27.206,19.227,25.082,18.019,23.491z
				 M16.292,34.064c-0.426,0.565-0.932,1.01-1.513,1.319c-0.583,0.307-1.244,0.482-2.002,0.483c-1.443-0.007-2.59-0.622-3.441-1.671
				c-0.746-0.929-1.245-2.226-1.351-3.763l0.011-0.001c-0.01-0.093-0.012-0.182-0.021-0.274c-0.005-0.114-0.013-0.227-0.013-0.344
				c-0.002-1.828,0.502-3.485,1.343-4.639c0.42-0.579,0.921-1.036,1.496-1.354c0.576-0.318,1.23-0.502,1.985-0.512
				c0.021,0,0.041,0,0.056,0c0.776,0.001,1.441,0.17,2.018,0.465c0.863,0.442,1.544,1.173,2.033,2.151
				c0.485,0.978,0.763,2.204,0.763,3.566C17.657,31.314,17.143,32.937,16.292,34.064z"/>
		</g>
		<g>
			<path fill="none" d="M163.721,225.668c0.576,0.293,1.242,0.463,2.018,0.465c0.016,0,0.033-0.002,0.057-0.002
				c0.754-0.008,1.408-0.193,1.984-0.51c0.576-0.318,1.076-0.775,1.496-1.355c0.84-1.152,1.346-2.811,1.344-4.639
				c0-0.117-0.01-0.229-0.014-0.344c-0.008-0.092-0.012-0.182-0.021-0.273l0.012-0.002c-0.105-1.537-0.605-2.834-1.352-3.762
				c-0.85-1.051-1.998-1.664-3.439-1.672c-0.76,0.002-1.42,0.176-2.002,0.484s-1.088,0.754-1.514,1.318
				c-0.85,1.127-1.365,2.75-1.363,4.572c0,1.363,0.275,2.59,0.762,3.566C162.176,224.495,162.858,225.225,163.721,225.668z"/>
			<path d="M160.563,225.952c0.604,0.791,1.359,1.445,2.234,1.893c0.877,0.447,1.871,0.689,2.941,0.688c0.029,0,0.055,0,0.076,0
				c1.074-0.012,2.074-0.283,2.949-0.768c0.58-0.322,1.1-0.736,1.561-1.219c-0.041,0.248-0.084,0.488-0.127,0.707
				c-0.131,0.678-0.262,1.215-0.357,1.578c-0.051,0.18-0.09,0.318-0.115,0.408c-0.014,0.045-0.023,0.078-0.029,0.098
				c-0.004,0.01-0.008,0.018-0.008,0.021l-0.002,0.002v0.002l-0.01,0.029l-0.006,0.025l-0.002,0.006l0,0
				c-0.023,0.084-0.297,0.936-0.912,1.736c-0.32,0.416-0.727,0.818-1.238,1.127s-1.129,0.531-1.924,0.576
				c-0.111,0.006-0.219,0.008-0.322,0.008c-1.412-0.004-2.34-0.502-2.953-0.986c-0.303-0.242-0.523-0.484-0.66-0.654
				c-0.066-0.086-0.115-0.154-0.143-0.195c-0.014-0.021-0.021-0.033-0.025-0.039c-0.002-0.004-0.002-0.004-0.002-0.004l-0.543,0.389
				l-1.305,0.895c0.053,0.09,0.479,0.818,1.391,1.549c0.91,0.732,2.334,1.451,4.24,1.447c0.139,0,0.283-0.004,0.432-0.012
				c1.154-0.061,2.146-0.416,2.945-0.916c1.203-0.754,1.971-1.803,2.439-2.65c0.428-0.773,0.619-1.393,0.664-1.549
				c0.113-0.361,1.158-3.748,1.16-8.377c0-0.85-0.043-1.748-0.127-2.672c-0.096-2.107-0.758-4.012-1.9-5.434
				c-1.227-1.541-3.025-2.484-5.059-2.484c-0.008,0-0.016,0-0.021,0c-1.072-0.002-2.072,0.254-2.953,0.721
				c-1.322,0.701-2.361,1.865-3.055,3.268c-0.695,1.406-1.057,3.053-1.059,4.785C158.741,222.237,159.354,224.36,160.563,225.952z
				 M162.29,215.377c0.426-0.564,0.932-1.01,1.514-1.318s1.242-0.482,2.002-0.484c1.441,0.008,2.59,0.621,3.439,1.672
				c0.746,0.928,1.246,2.225,1.352,3.762l-0.012,0.002c0.01,0.092,0.014,0.182,0.021,0.273c0.004,0.115,0.014,0.227,0.014,0.344
				c0.002,1.828-0.504,3.486-1.344,4.639c-0.42,0.58-0.92,1.037-1.496,1.355c-0.576,0.316-1.23,0.502-1.984,0.51
				c-0.023,0-0.041,0.002-0.057,0.002c-0.775-0.002-1.441-0.172-2.018-0.465c-0.863-0.443-1.545-1.174-2.033-2.152
				c-0.486-0.977-0.762-2.203-0.762-3.566C160.924,218.127,161.44,216.504,162.29,215.377z"/>
		</g>
		<path fill-rule="evenodd" clip-rule="evenodd" stroke="#000000" stroke-width="0.065" stroke-linejoin="round" d="M12.746,42.518
			c-0.041,0.026-0.07,0.041-0.117,0.072c-3.038,1.939-6.583,5.724-6.946,10.441C5.51,55.276,6.945,56.83,8.8,56.864
			c1.184,0.021,2.137-0.399,2.653-1.203c0.429-0.669,0.538-1.699,0.607-1.223c0.25,1.816-0.511,3.562-0.922,5.088
			c0.459-0.167,1.035-0.251,1.613-0.253h0.01c0.577,0.002,1.152,0.086,1.61,0.253c-0.411-1.525-1.17-3.271-0.921-5.088
			c0.069-0.477,0.179,0.554,0.606,1.223c0.516,0.804,1.469,1.225,2.652,1.203c1.855-0.034,3.291-1.588,3.118-3.832
			c-0.364-4.718-3.908-8.502-6.943-10.441c-0.033-0.025-0.062-0.04-0.11-0.072H12.746z"/>
		<path fill-rule="evenodd" clip-rule="evenodd" stroke="#000000" stroke-width="0.065" stroke-linejoin="round" d="
			M165.817,206.924c-0.041-0.027-0.07-0.041-0.117-0.072c-3.039-1.939-6.584-5.725-6.947-10.441
			c-0.172-2.244,1.264-3.799,3.119-3.832c1.184-0.021,2.137,0.398,2.652,1.203c0.428,0.668,0.537,1.699,0.607,1.223
			c0.25-1.816-0.512-3.562-0.922-5.088c0.459,0.166,1.035,0.25,1.613,0.252h0.01c0.576-0.002,1.152-0.086,1.609-0.252
			c-0.41,1.525-1.17,3.271-0.92,5.088c0.068,0.477,0.178-0.555,0.605-1.223c0.516-0.805,1.469-1.225,2.654-1.203
			c1.855,0.033,3.291,1.588,3.117,3.832c-0.363,4.717-3.908,8.502-6.943,10.441c-0.033,0.023-0.062,0.039-0.111,0.072H165.817z"/>
		<path fill-rule="evenodd" clip-rule="evenodd" stroke="#000000" stroke-width="0.1625" stroke-linejoin="round" d="M46.039,25.51
			c-0.103,0.066-0.175,0.103-0.293,0.181C38.151,30.54,29.29,40,28.381,51.794c-0.432,5.61,3.155,9.495,7.793,9.579
			c2.961,0.055,5.342-0.997,6.633-3.007c1.072-1.672,1.346-4.248,1.52-3.058c0.625,4.542-1.277,8.907-2.307,12.721
			c1.147-0.417,2.59-0.627,4.033-0.632h0.024c1.442,0.005,2.882,0.215,4.027,0.632c-1.028-3.813-2.927-8.179-2.303-12.721
			c0.173-1.19,0.446,1.386,1.517,3.058c1.289,2.01,3.67,3.062,6.631,3.007c4.639-0.084,8.226-3.969,7.794-9.579
			C62.834,40,53.974,30.54,46.385,25.691c-0.082-0.062-0.155-0.1-0.274-0.181H46.039z"/>
		<path fill-rule="evenodd" clip-rule="evenodd" stroke="#000000" stroke-width="0.1625" stroke-linejoin="round" d="
			M132.495,25.509c-0.102,0.067-0.174,0.104-0.293,0.181c-7.596,4.85-16.455,14.311-17.363,26.104
			c-0.434,5.61,3.154,9.494,7.793,9.579c2.961,0.054,5.342-0.998,6.631-3.007c1.072-1.672,1.346-4.248,1.52-3.058
			c0.625,4.541-1.275,8.906-2.305,12.72c1.146-0.417,2.588-0.627,4.033-0.632h0.023c1.443,0.005,2.881,0.215,4.027,0.632
			c-1.027-3.813-2.926-8.179-2.303-12.72c0.174-1.19,0.447,1.386,1.518,3.058c1.289,2.009,3.67,3.061,6.631,3.007
			c4.639-0.085,8.225-3.969,7.793-9.579C149.292,40,140.43,30.54,132.842,25.69c-0.084-0.062-0.156-0.099-0.275-0.181H132.495z"/>
		<path fill-rule="evenodd" clip-rule="evenodd" stroke="#000000" stroke-width="0.1625" stroke-linejoin="round" d="M46.04,103.463
			c-0.104,0.066-0.176,0.103-0.293,0.18c-7.596,4.849-16.457,14.308-17.365,26.102c-0.433,5.609,3.155,9.494,7.792,9.578
			c2.961,0.055,5.342-0.996,6.633-3.006c1.072-1.672,1.346-4.248,1.52-3.059c0.625,4.543-1.277,8.908-2.307,12.721
			c1.148-0.416,2.59-0.627,4.033-0.631h0.025c1.441,0.004,2.881,0.215,4.027,0.631c-1.029-3.812-2.928-8.178-2.303-12.721
			c0.172-1.189,0.445,1.387,1.516,3.059c1.289,2.01,3.67,3.061,6.631,3.006c4.639-0.084,8.227-3.969,7.795-9.578
			c-0.91-11.794-9.77-21.253-17.359-26.102c-0.082-0.062-0.154-0.1-0.273-0.18H46.04z"/>
		<path fill-rule="evenodd" clip-rule="evenodd" stroke="#000000" stroke-width="0.1625" stroke-linejoin="round" d="
			M132.495,103.463c-0.102,0.066-0.174,0.104-0.293,0.18c-7.596,4.849-16.455,14.308-17.363,26.102
			c-0.434,5.609,3.154,9.494,7.793,9.578c2.961,0.055,5.342-0.998,6.631-3.006c1.072-1.672,1.346-4.248,1.52-3.059
			c0.625,4.541-1.275,8.906-2.305,12.721c1.146-0.418,2.588-0.627,4.033-0.633h0.023c1.443,0.006,2.881,0.215,4.027,0.633
			c-1.027-3.814-2.926-8.18-2.303-12.721c0.174-1.189,0.447,1.387,1.518,3.059c1.289,2.008,3.67,3.061,6.631,3.006
			c4.639-0.084,8.225-3.969,7.793-9.578c-0.908-11.794-9.77-21.253-17.357-26.102c-0.084-0.061-0.156-0.099-0.275-0.18H132.495z"/>
		<path fill-rule="evenodd" clip-rule="evenodd" stroke="#000000" stroke-width="0.1625" stroke-linejoin="round" d="
			M46.039,223.932c-0.103-0.068-0.175-0.104-0.293-0.182c-7.596-4.85-16.456-14.311-17.364-26.104
			c-0.433-5.611,3.155-9.494,7.793-9.58c2.961-0.053,5.342,0.998,6.632,3.008c1.072,1.672,1.346,4.248,1.52,3.057
			c0.625-4.541-1.276-8.906-2.306-12.719c1.147,0.416,2.589,0.627,4.033,0.631h0.024c1.442-0.004,2.881-0.215,4.027-0.631
			c-1.028,3.812-2.927,8.178-2.303,12.719c0.173,1.191,0.446-1.385,1.517-3.057c1.289-2.01,3.67-3.061,6.631-3.008
			c4.639,0.086,8.226,3.969,7.794,9.58c-0.909,11.793-9.77,21.254-17.358,26.104c-0.083,0.062-0.155,0.1-0.274,0.182H46.039z"/>
		<path fill-rule="evenodd" clip-rule="evenodd" stroke="#000000" stroke-width="0.1625" stroke-linejoin="round" d="
			M132.495,223.932c-0.102-0.066-0.174-0.104-0.293-0.182c-7.596-4.848-16.455-14.309-17.363-26.104
			c-0.434-5.609,3.154-9.494,7.793-9.578c2.961-0.055,5.342,0.996,6.631,3.006c1.072,1.672,1.346,4.248,1.52,3.059
			c0.625-4.543-1.275-8.908-2.305-12.721c1.146,0.416,2.588,0.627,4.033,0.631h0.023c1.443-0.004,2.881-0.215,4.027-0.631
			c-1.027,3.812-2.926,8.178-2.303,12.721c0.174,1.189,0.447-1.387,1.518-3.059c1.289-2.01,3.67-3.061,6.631-3.006
			c4.639,0.084,8.225,3.969,7.793,9.578c-0.908,11.795-9.77,21.256-17.357,26.104c-0.084,0.062-0.156,0.1-0.275,0.182H132.495z"/>
	</g>
</g>
<g id="seven">
</g>
<g id="eight">
</g>
<g id="nine">
</g>
<g id="ten">
</g>
<g id="jack">
</g>
<g id="queen">
</g>
<g id="king">
</g>
<g id="joker">
</g>
<g id="back">
</g>
</svg>
