<?xml version="1.0" encoding="utf-8"?>
<!-- Generator: Adobe Illustrator 16.0.4, SVG Export Plug-In . SVG Version: 6.00 Build 0)  -->
<!DOCTYPE svg PUBLIC "-//W3C//DTD SVG 1.1//EN" "http://www.w3.org/Graphics/SVG/1.1/DTD/svg11.dtd">
<svg version="1.1" xmlns="http://www.w3.org/2000/svg" xmlns:xlink="http://www.w3.org/1999/xlink" x="0px" y="0px"
	 width="178.582px" height="249.449px" viewBox="0 0 178.582 249.449" enable-background="new 0 0 178.582 249.449"
	 xml:space="preserve">
<g id="ace">
</g>
<g id="two">
</g>
<g id="three">
</g>
<g id="four">
</g>
<g id="nine">
</g>
<g id="five">
</g>
<g id="six">
</g>
<g id="seven">
	<g>
		<path fill="#F4F4F2" stroke="#000000" d="M178.582,235.276c0,7.827-6.345,14.173-14.173,14.173H14.173
			C6.346,249.449,0,243.103,0,235.276V14.174C0,6.346,6.346,0,14.173,0h150.236c7.828,0,14.173,6.346,14.173,14.174V235.276z"/>
		<path d="M12.756,42.521c-1.864,0-3.377,1.703-3.377,3.801c0,1.2,0.5,2.265,1.269,2.967c0.259,0.237,0.148,0.495-0.116,0.334
			c-0.48-0.292-1.021-0.477-1.606-0.477c-1.797,0-3.256,1.643-3.256,3.667c0,2.023,1.459,3.667,3.256,3.667
			c1.198,0,2.248-0.729,2.811-1.817c0.056-0.105,0.1-0.252,0.178-0.252c0.107,0,0.157,0.175,0.157,0.502
			c0,1.315-0.504,2.851-1.251,4.616c0.323-0.077,1.299-0.271,1.937-0.271c0.638,0,1.614,0.195,1.936,0.271
			c-0.746-1.765-1.251-3.301-1.251-4.616c0-0.327,0.05-0.502,0.157-0.502c0.077,0,0.122,0.146,0.177,0.252
			c0.563,1.088,1.612,1.817,2.81,1.817c1.798,0,3.257-1.644,3.257-3.667c0-2.024-1.459-3.667-3.257-3.667
			c-0.584,0-1.126,0.186-1.606,0.477c-0.263,0.161-0.374-0.097-0.115-0.334c0.768-0.702,1.269-1.767,1.269-2.967
			C16.133,44.224,14.619,42.521,12.756,42.521z"/>
		<path d="M165.827,206.929c1.863,0,3.376-1.704,3.376-3.802c0-1.199-0.5-2.264-1.268-2.967c-0.26-0.237-0.147-0.494,0.115-0.334
			c0.479,0.292,1.021,0.477,1.606,0.477c1.797,0,3.257-1.643,3.257-3.666s-1.46-3.666-3.257-3.666c-1.198,0-2.247,0.728-2.811,1.816
			c-0.056,0.105-0.1,0.252-0.177,0.252c-0.107,0-0.157-0.176-0.157-0.502c0-1.315,0.505-2.851,1.25-4.617
			c-0.321,0.077-1.298,0.273-1.936,0.273c-0.639,0-1.613-0.196-1.937-0.273c0.745,1.767,1.252,3.302,1.252,4.617
			c0,0.326-0.052,0.502-0.158,0.502c-0.078,0-0.123-0.146-0.177-0.252c-0.562-1.089-1.612-1.816-2.811-1.816
			c-1.798,0-3.257,1.643-3.257,3.666s1.459,3.666,3.257,3.666c0.585,0,1.126-0.185,1.606-0.477c0.264-0.16,0.374,0.097,0.116,0.334
			c-0.769,0.703-1.269,1.768-1.269,2.967C162.451,205.225,163.964,206.929,165.827,206.929z"/>
		<path d="M46.064,25.512c-4.66,0-8.441,4.259-8.441,9.504c0,2.999,1.251,5.66,3.17,7.417c0.647,0.593,0.371,1.237-0.289,0.836
			c-1.2-0.729-2.554-1.193-4.016-1.193c-4.494,0-8.142,4.107-8.142,9.167c0,5.061,3.647,9.168,8.142,9.168
			c2.996,0,5.618-1.823,7.025-4.542c0.139-0.266,0.25-0.63,0.444-0.63c0.267,0,0.392,0.437,0.392,1.256
			c0,3.287-1.262,7.126-3.127,11.539c0.806-0.192,3.247-0.679,4.841-0.679s4.035,0.487,4.841,0.679
			c-1.866-4.412-3.127-8.251-3.127-11.539c0-0.819,0.125-1.256,0.393-1.256c0.194,0,0.306,0.365,0.442,0.63
			c1.408,2.719,4.03,4.542,7.026,4.542c4.494,0,8.142-4.107,8.142-9.168c0-5.06-3.647-9.167-8.142-9.167
			c-1.462,0-2.816,0.463-4.015,1.193c-0.66,0.401-0.938-0.243-0.29-0.836c1.918-1.756,3.169-4.417,3.169-7.417
			C54.503,29.771,50.723,25.512,46.064,25.512z"/>
		<path d="M46.064,103.465c-4.66,0-8.441,4.255-8.441,9.496c0,2.999,1.252,5.662,3.17,7.42c0.647,0.595,0.371,1.239-0.289,0.837
			c-1.2-0.729-2.554-1.193-4.016-1.193c-4.494,0-8.142,4.109-8.142,9.167c0,5.056,3.648,9.16,8.142,9.16
			c2.996,0,5.618-1.821,7.026-4.538c0.138-0.266,0.25-0.63,0.444-0.63c0.267,0,0.391,0.437,0.391,1.255
			c0,3.283-1.262,7.125-3.127,11.545c0.806-0.192,3.247-0.68,4.842-0.68c1.594,0,4.035,0.487,4.841,0.68
			c-1.866-4.42-3.128-8.262-3.128-11.545c0-0.818,0.125-1.255,0.393-1.255c0.194,0,0.306,0.364,0.443,0.63
			c1.408,2.717,4.03,4.538,7.026,4.538c4.494,0,8.142-4.104,8.142-9.16c0-5.058-3.647-9.167-8.142-9.167
			c-1.462,0-2.816,0.464-4.015,1.193c-0.66,0.402-0.938-0.242-0.289-0.837c1.918-1.758,3.169-4.421,3.169-7.42
			C54.504,107.72,50.723,103.465,46.064,103.465z"/>
		<path d="M46.064,223.937c4.659,0,8.441-4.257,8.441-9.505c0-2.998-1.251-5.658-3.17-7.415c-0.648-0.594-0.371-1.239,0.289-0.837
			c1.199,0.73,2.553,1.193,4.015,1.193c4.494,0,8.142-4.106,8.142-9.166c0-5.061-3.647-9.168-8.142-9.168
			c-2.995,0-5.617,1.822-7.026,4.541c-0.137,0.266-0.249,0.631-0.443,0.631c-0.268,0-0.393-0.438-0.393-1.256
			c0-3.287,1.262-7.126,3.127-11.538c-0.806,0.19-3.247,0.679-4.841,0.679c-1.595,0-4.036-0.488-4.841-0.679
			c1.866,4.412,3.127,8.251,3.127,11.538c0,0.818-0.124,1.256-0.391,1.256c-0.195,0-0.306-0.365-0.444-0.631
			c-1.408-2.719-4.03-4.541-7.026-4.541c-4.494,0-8.142,4.107-8.142,9.168c0,5.06,3.648,9.166,8.142,9.166
			c1.461,0,2.816-0.463,4.015-1.193c0.66-0.402,0.938,0.243,0.289,0.837c-1.918,1.757-3.169,4.417-3.169,7.415
			C37.624,219.68,41.405,223.937,46.064,223.937z"/>
		<path d="M132.52,25.513c-4.659,0-8.44,4.258-8.44,9.504c0,2.999,1.251,5.66,3.17,7.416c0.647,0.594,0.371,1.237-0.289,0.836
			c-1.2-0.729-2.554-1.192-4.015-1.192c-4.494,0-8.142,4.106-8.142,9.166c0,5.061,3.647,9.168,8.142,9.168
			c2.994,0,5.617-1.823,7.025-4.542c0.138-0.266,0.249-0.63,0.444-0.63c0.266,0,0.392,0.437,0.392,1.255
			c0,3.288-1.263,7.126-3.128,11.539c0.806-0.192,3.247-0.679,4.841-0.679c1.596,0,4.036,0.487,4.843,0.679
			c-1.866-4.412-3.129-8.251-3.129-11.539c0-0.819,0.126-1.255,0.393-1.255c0.194,0,0.306,0.364,0.442,0.63
			c1.408,2.719,4.03,4.542,7.026,4.542c4.495,0,8.142-4.107,8.142-9.168c0-5.06-3.646-9.166-8.142-9.166
			c-1.461,0-2.815,0.463-4.014,1.192c-0.661,0.401-0.938-0.242-0.29-0.836c1.918-1.756,3.169-4.417,3.169-7.416
			C140.96,29.771,137.18,25.513,132.52,25.513z"/>
		<path d="M132.52,103.465c-4.659,0-8.44,4.255-8.44,9.496c0,2.999,1.251,5.662,3.17,7.42c0.647,0.594,0.371,1.237-0.289,0.837
			c-1.2-0.73-2.554-1.194-4.015-1.194c-4.494,0-8.142,4.11-8.142,9.167c0,5.056,3.647,9.16,8.142,9.16
			c2.994,0,5.617-1.821,7.025-4.538c0.138-0.266,0.249-0.63,0.444-0.63c0.266,0,0.392,0.438,0.392,1.255
			c0,3.285-1.263,7.125-3.128,11.546c0.806-0.192,3.247-0.681,4.841-0.681c1.596,0,4.036,0.488,4.843,0.681
			c-1.866-4.421-3.129-8.261-3.129-11.546c0-0.817,0.126-1.255,0.393-1.255c0.194,0,0.306,0.364,0.443,0.63
			c1.407,2.717,4.029,4.538,7.025,4.538c4.495,0,8.142-4.104,8.142-9.16c0-5.057-3.646-9.167-8.142-9.167
			c-1.461,0-2.815,0.464-4.014,1.194c-0.661,0.4-0.938-0.243-0.29-0.837c1.918-1.758,3.169-4.421,3.169-7.42
			C140.96,107.72,137.18,103.465,132.52,103.465z"/>
		<path d="M132.519,223.937c4.661,0,8.442-4.257,8.442-9.505c0-2.998-1.252-5.658-3.17-7.415c-0.648-0.594-0.371-1.239,0.29-0.837
			c1.199,0.73,2.553,1.193,4.014,1.193c4.495,0,8.142-4.106,8.142-9.166c0-5.061-3.646-9.168-8.142-9.168
			c-2.996,0-5.617,1.822-7.025,4.541c-0.138,0.266-0.249,0.631-0.443,0.631c-0.267,0-0.393-0.438-0.393-1.256
			c0-3.287,1.263-7.126,3.128-11.538c-0.806,0.191-3.247,0.679-4.843,0.679c-1.594,0-4.034-0.487-4.84-0.679
			c1.866,4.412,3.128,8.251,3.128,11.538c0,0.818-0.125,1.256-0.392,1.256c-0.195,0-0.307-0.365-0.444-0.631
			c-1.408-2.719-4.03-4.541-7.025-4.541c-4.494,0-8.142,4.107-8.142,9.168c0,5.06,3.647,9.166,8.142,9.166
			c1.461,0,2.815-0.463,4.015-1.193c0.66-0.402,0.938,0.243,0.289,0.837c-1.919,1.757-3.169,4.417-3.169,7.415
			C124.08,219.68,127.861,223.937,132.519,223.937z"/>
		<path d="M89.294,56.695c-4.66,0-8.442,4.256-8.442,9.5c0,2.998,1.252,5.657,3.171,7.413c0.647,0.593,0.37,1.237-0.289,0.836
			c-1.2-0.729-2.554-1.192-4.016-1.192c-4.494,0-8.143,4.104-8.143,9.163c0,5.058,3.648,9.164,8.143,9.164
			c2.995,0,5.618-1.822,7.026-4.54c0.139-0.266,0.249-0.63,0.443-0.63c0.268,0,0.393,0.437,0.393,1.256
			c0,3.285-1.262,7.128-3.127,11.55c0.805-0.192,3.246-0.68,4.841-0.68c1.593,0,4.031,0.487,4.838,0.68
			c-1.866-4.422-3.128-8.265-3.128-11.55c0-0.819,0.126-1.256,0.392-1.256c0.194,0,0.307,0.364,0.444,0.63
			c1.406,2.718,4.029,4.54,7.025,4.54c4.495,0,8.143-4.106,8.143-9.164c0-5.059-3.647-9.163-8.143-9.163
			c-1.461,0-2.815,0.463-4.015,1.192c-0.66,0.401-0.938-0.243-0.289-0.836c1.918-1.756,3.17-4.415,3.17-7.413
			C97.731,60.951,93.95,56.695,89.294,56.695z"/>
		<path d="M5.671,14.174v1.441H5.669v2.452l2.227-0.001l-0.002-1.486h9.345c-1.448,2.656-5.353,10.627-6.765,21.688l2.238-0.001
			c0.83-6.523,2.253-11.626,3.879-15.411c0.812-1.892,1.572-3.372,2.125-4.374c0.276-0.502,0.501-0.884,0.655-1.137
			c0.161-0.266,0.432-0.705,0.471-0.766v-2.406H5.671z"/>
		<path d="M172.911,235.276v-1.442h0.002v-2.452l-2.227,0.002l0.002,1.486h-9.345c1.448-2.657,5.353-10.628,6.765-21.688
			l-2.238,0.001c-0.83,6.522-2.253,11.627-3.879,15.41c-0.812,1.892-1.572,3.373-2.125,4.375c-0.276,0.501-0.501,0.883-0.655,1.136
			c-0.161,0.266-0.432,0.705-0.471,0.767v2.406H172.911z"/>
	</g>
</g>
<g id="eight">
</g>
<g id="ten">
</g>
<g id="jack">
</g>
<g id="queen">
</g>
<g id="king">
</g>
<g id="jolly">
</g>
<g id="back">
</g>
</svg>
