<?xml version="1.0" encoding="utf-8"?>
<!-- Generator: Adobe Illustrator 16.0.4, SVG Export Plug-In . SVG Version: 6.00 Build 0)  -->
<!DOCTYPE svg PUBLIC "-//W3C//DTD SVG 1.1//EN" "http://www.w3.org/Graphics/SVG/1.1/DTD/svg11.dtd">
<svg version="1.1" xmlns="http://www.w3.org/2000/svg" xmlns:xlink="http://www.w3.org/1999/xlink" x="0px" y="0px"
	 width="178.583px" height="249.442px" viewBox="0 0 178.583 249.442" enable-background="new 0 0 178.583 249.442"
	 xml:space="preserve">
<g id="ace">
</g>
<g id="two">
</g>
<g id="three">
</g>
<g id="four">
</g>
<g id="five">
</g>
<g id="six">
</g>
<g id="seven">
	<g>
		<g>
			<path fill="#F4F4F2" stroke="#000000" d="M178.583,235.268c0,7.828-6.346,14.174-14.174,14.174H14.173
				C6.346,249.442,0,243.096,0,235.268V14.173C0,6.346,6.346,0,14.173,0h150.236c7.828,0,14.174,6.346,14.174,14.173V235.268z"/>
		</g>
		<path fill="#E44145" d="M12.768,42.52c1.787,3.47,4.145,6.309,7.076,8.512c-2.931,2.207-5.289,5.039-7.076,8.496
			c-1.802-3.457-4.167-6.289-7.098-8.496C8.6,48.829,10.965,45.99,12.768,42.52L12.768,42.52z"/>
		<path fill="#E44145" d="M165.837,189.914c1.787,3.47,4.146,6.308,7.076,8.513c-2.93,2.206-5.289,5.038-7.076,8.495
			c-1.803-3.457-4.168-6.289-7.098-8.495C161.669,196.221,164.034,193.383,165.837,189.914L165.837,189.914z"/>
		<path fill="#E44145" d="M46.088,25.512c4.469,8.675,10.366,15.77,17.692,21.283c-7.326,5.517-13.223,12.595-17.692,21.236
			c-4.502-8.642-10.417-15.72-17.741-21.236C35.671,41.281,41.585,34.187,46.088,25.512L46.088,25.512z"/>
		<path fill="#E44145" d="M46.088,103.464c4.468,8.674,10.364,15.769,17.691,21.274c-7.327,5.514-13.224,12.596-17.691,21.239
			c-4.503-8.643-10.418-15.725-17.742-21.239C35.67,119.233,41.585,112.139,46.088,103.464L46.088,103.464z"/>
		<path fill="#E44145" d="M46.088,181.41c4.469,8.675,10.364,15.769,17.691,21.282c-7.327,5.518-13.223,12.596-17.691,21.237
			c-4.503-8.642-10.417-15.72-17.742-21.237C35.671,197.178,41.585,190.084,46.088,181.41L46.088,181.41z"/>
		<path fill="#E44145" d="M132.544,25.512c4.469,8.675,10.365,15.77,17.691,21.283c-7.326,5.517-13.223,12.595-17.691,21.236
			c-4.502-8.642-10.416-15.72-17.74-21.236C122.128,41.281,128.042,34.187,132.544,25.512L132.544,25.512z"/>
		<path fill="#E44145" d="M132.544,103.464c4.469,8.676,10.365,15.769,17.691,21.274c-7.326,5.512-13.223,12.596-17.691,21.239
			c-4.502-8.643-10.416-15.727-17.74-21.239C122.128,119.233,128.042,112.141,132.544,103.464L132.544,103.464z"/>
		<path fill="#E44145" d="M132.544,181.41c4.469,8.675,10.365,15.77,17.691,21.282c-7.326,5.517-13.223,12.596-17.691,21.237
			c-4.502-8.642-10.416-15.721-17.74-21.237C122.128,197.179,128.042,190.084,132.544,181.41L132.544,181.41z"/>
		<path fill="#E44145" d="M89.315,56.693c4.471,8.675,10.365,15.77,17.691,21.283c-7.326,5.517-13.221,12.595-17.691,21.237
			c-4.502-8.642-10.416-15.72-17.741-21.237C78.899,72.463,84.813,65.368,89.315,56.693L89.315,56.693z"/>
		<path fill="#E44145" d="M5.671,14.173v1.442H5.669v2.452l2.227-0.002l-0.002-1.486h9.345c-1.448,2.657-5.353,10.628-6.765,21.688
			l2.238-0.001c0.83-6.522,2.253-11.626,3.879-15.41c0.812-1.892,1.572-3.373,2.125-4.375c0.276-0.501,0.501-0.883,0.655-1.136
			c0.161-0.266,0.432-0.705,0.471-0.767v-2.406H5.671z"/>
		<path fill="#E44145" d="M172.911,235.268v-1.442h0.002v-2.452l-2.227,0.002l0.002,1.486h-9.346
			c1.449-2.656,5.354-10.628,6.766-21.688l-2.238,0.001c-0.83,6.523-2.252,11.627-3.879,15.41c-0.812,1.892-1.572,3.373-2.125,4.375
			c-0.277,0.501-0.502,0.883-0.654,1.136c-0.162,0.266-0.434,0.705-0.473,0.767v2.406H172.911z"/>
	</g>
</g>
<g id="eight">
</g>
<g id="nine">
</g>
<g id="ten">
</g>
<g id="jack">
</g>
<g id="queen">
</g>
<g id="king">
</g>
<g id="jolly">
</g>
<g id="back">
</g>
</svg>
