<?xml version="1.0" encoding="utf-8"?>
<!-- Generator: Adobe Illustrator 16.0.4, SVG Export Plug-In . SVG Version: 6.00 Build 0)  -->
<!DOCTYPE svg PUBLIC "-//W3C//DTD SVG 1.1//EN" "http://www.w3.org/Graphics/SVG/1.1/DTD/svg11.dtd">
<svg version="1.1" xmlns="http://www.w3.org/2000/svg" xmlns:xlink="http://www.w3.org/1999/xlink" x="0px" y="0px"
	 width="178.584px" height="249.447px" viewBox="0 0 178.584 249.447" enable-background="new 0 0 178.584 249.447"
	 xml:space="preserve">
<g id="ace">
</g>
<g id="two">
</g>
<g id="three">
</g>
<g id="four">
</g>
<g id="five">
</g>
<g id="six">
</g>
<g id="seven">
	<g>
		<path fill="#F4F4F2" stroke="#000000" d="M178.583,235.274c0,7.828-6.346,14.174-14.174,14.174H14.173
			C6.346,249.448,0,243.103,0,235.274V14.172C0,6.345,6.346-0.001,14.173-0.001h150.236c7.828,0,14.174,6.346,14.174,14.173V235.274
			z"/>
		<g>
			<path fill="#E44145" d="M12.754,59.526c-0.006-0.01-0.013-0.019-0.019-0.028c-0.006,0.01-0.013,0.019-0.02,0.028H12.754z"/>
			<path fill="#E44145" d="M16.729,42.618c-1.246-0.387-3.186,0.295-3.898,3.122c-0.059,0.155-0.121,0.151-0.178-0.006
				c-1.028-2.864-2.721-3.49-3.912-3.116c-1.766,0.569-3.195,2.673-3.064,5.356c0.035,4.685,4.229,7.044,7.059,11.523
				c2.83-4.479,7.068-6.832,7.08-11.537C20.062,45.249,18.542,43.177,16.729,42.618z"/>
		</g>
		<g>
			<path fill="#E44145" d="M165.827,189.919c0.007,0.01,0.014,0.02,0.02,0.029c0.007-0.01,0.014-0.02,0.02-0.029H165.827z"/>
			<path fill="#E44145" d="M165.847,189.948c-2.83,4.48-7.068,6.832-7.082,11.537c-0.244,2.713,1.273,4.785,3.086,5.344
				c1.248,0.387,3.188-0.295,3.9-3.123c0.059-0.154,0.121-0.15,0.178,0.006c1.027,2.865,2.721,3.49,3.912,3.117
				c1.766-0.57,3.193-2.674,3.062-5.357C172.868,196.788,168.677,194.429,165.847,189.948z"/>
		</g>
		<g>
			<path fill="#E44145" d="M55.997,22.926c-3.117-0.97-7.965,0.735-9.746,7.804c-0.148,0.387-0.305,0.378-0.445-0.014
				c-2.57-7.162-6.804-8.727-9.782-7.79c-4.41,1.422-7.983,6.681-7.657,13.391c0.088,11.71,10.568,17.608,17.644,28.806
				c7.076-11.197,17.674-17.078,17.704-28.84C64.327,29.503,60.53,24.321,55.997,22.926z"/>
			<path fill="#E44145" d="M46.058,65.196c-0.016-0.025-0.032-0.049-0.048-0.074c-0.016,0.025-0.032,0.049-0.048,0.074H46.058z"/>
		</g>
		<g>
			<path fill="#E44145" d="M63.758,210.296c-0.088-11.711-10.567-17.607-17.644-28.807c-7.075,11.197-17.674,17.078-17.703,28.84
				c-0.613,6.781,3.184,11.961,7.717,13.357c3.117,0.969,7.965-0.734,9.746-7.805c0.148-0.387,0.305-0.379,0.445,0.014
				c2.569,7.162,6.803,8.727,9.783,7.791C60.511,222.265,64.085,217.005,63.758,210.296z"/>
			<path fill="#E44145" d="M46.067,181.415c0.016,0.025,0.031,0.049,0.047,0.074c0.016-0.025,0.031-0.049,0.047-0.074H46.067z"/>
		</g>
		<g>
			<path fill="#E44145" d="M132.515,145.983c-0.016-0.025-0.031-0.049-0.047-0.074c-0.016,0.025-0.033,0.049-0.049,0.074H132.515z"
				/>
			<path fill="#E44145" d="M142.454,103.713c-3.117-0.969-7.965,0.735-9.746,7.804c-0.148,0.387-0.305,0.379-0.445-0.014
				c-2.57-7.162-6.803-8.727-9.783-7.79c-4.41,1.423-7.982,6.681-7.656,13.39c0.088,11.713,10.568,17.609,17.645,28.807
				c7.076-11.197,17.674-17.078,17.703-28.842C150.784,110.288,146.987,105.108,142.454,103.713z"/>
		</g>
		<g>
			<path fill="#E44145" d="M132.515,65.196c-0.016-0.025-0.031-0.049-0.047-0.074c-0.016,0.025-0.033,0.049-0.049,0.074H132.515z"/>
			<path fill="#E44145" d="M142.454,22.926c-3.117-0.969-7.965,0.735-9.746,7.805c-0.148,0.387-0.305,0.378-0.445-0.014
				c-2.57-7.162-6.805-8.727-9.781-7.791c-4.41,1.422-7.984,6.681-7.658,13.391c0.088,11.71,10.568,17.607,17.645,28.806
				c7.076-11.197,17.674-17.078,17.703-28.84C150.784,29.503,146.989,24.321,142.454,22.926z"/>
		</g>
		<g>
			<path fill="#E44145" d="M150.216,210.296c-0.088-11.711-10.568-17.607-17.644-28.807c-7.075,11.197-17.675,17.078-17.704,28.84
				c-0.613,6.781,3.184,11.961,7.717,13.357c3.117,0.969,7.965-0.734,9.746-7.805c0.148-0.387,0.305-0.379,0.445,0.014
				c2.57,7.162,6.803,8.727,9.783,7.791C146.97,222.265,150.542,217.005,150.216,210.296z"/>
			<path fill="#E44145" d="M132.524,181.415c0.016,0.025,0.032,0.049,0.048,0.074c0.016-0.025,0.032-0.049,0.048-0.074H132.524z"/>
		</g>
		<g>
			<path fill="#E44145" d="M55.997,103.713c-3.117-0.969-7.965,0.735-9.746,7.804c-0.148,0.387-0.305,0.379-0.445-0.014
				c-2.57-7.162-6.805-8.727-9.783-7.79c-4.41,1.423-7.982,6.681-7.656,13.39c0.088,11.713,10.568,17.609,17.644,28.807
				c7.076-11.197,17.674-17.078,17.704-28.841C64.327,110.288,60.53,105.108,55.997,103.713z"/>
			<path fill="#E44145" d="M46.058,145.983c-0.016-0.025-0.031-0.049-0.048-0.074c-0.016,0.025-0.032,0.049-0.048,0.074H46.058z"/>
		</g>
		<g>
			<path fill="#E44145" d="M99.228,56.94c-3.117-0.969-7.971,0.736-9.752,7.805c-0.148,0.388-0.305,0.379-0.445-0.014
				c-2.568-7.162-6.803-8.727-9.779-7.791c-4.41,1.423-7.982,6.682-7.655,13.391c0.087,11.711,10.565,17.607,17.64,28.807
				c7.082-11.199,17.678-17.079,17.707-28.84C107.556,63.518,103.761,58.337,99.228,56.94z"/>
			<path fill="#E44145" d="M89.282,99.211c-0.016-0.024-0.031-0.049-0.047-0.073c-0.016,0.024-0.033,0.049-0.049,0.073H89.282z"/>
		</g>
		<path fill="#E44145" d="M5.671,14.172v1.442H5.669v2.452l2.227-0.002l-0.002-1.486h9.346c-1.449,2.657-5.354,10.628-6.766,21.688
			l2.238-0.002c0.83-6.522,2.254-11.626,3.879-15.409c0.812-1.892,1.572-3.373,2.125-4.375c0.277-0.501,0.502-0.883,0.656-1.136
			c0.16-0.266,0.432-0.705,0.471-0.767v-2.406H5.671z"/>
		<path fill="#E44145" d="M172.911,235.274v-1.443h0.002v-2.451l-2.227,0.002l0.002,1.486h-9.346
			c1.449-2.656,5.354-10.629,6.766-21.689l-2.238,0.002c-0.83,6.523-2.252,11.627-3.879,15.41c-0.812,1.891-1.572,3.373-2.125,4.375
			c-0.277,0.5-0.502,0.883-0.654,1.135c-0.162,0.266-0.434,0.705-0.473,0.768v2.406H172.911z"/>
	</g>
</g>
<g id="eight">
</g>
<g id="nine">
</g>
<g id="ten">
</g>
<g id="jack">
</g>
<g id="queen">
</g>
<g id="king">
</g>
<g id="jolly">
</g>
<g id="back">
</g>
</svg>
