<?xml version="1.0" encoding="utf-8"?>
<!-- Generator: Adobe Illustrator 16.0.4, SVG Export Plug-In . SVG Version: 6.00 Build 0)  -->
<!DOCTYPE svg PUBLIC "-//W3C//DTD SVG 1.1//EN" "http://www.w3.org/Graphics/SVG/1.1/DTD/svg11.dtd">
<svg version="1.1" xmlns="http://www.w3.org/2000/svg" xmlns:xlink="http://www.w3.org/1999/xlink" x="0px" y="0px"
	 width="178.584px" height="249.44px" viewBox="0 0 178.584 249.44" enable-background="new 0 0 178.584 249.44"
	 xml:space="preserve">
<g id="ace">
</g>
<g id="two">
</g>
<g id="three">
</g>
<g id="four">
</g>
<g id="five">
</g>
<g id="six">
</g>
<g id="seven">
	<g>
		<path fill="#F4F4F2" stroke="#000000" d="M178.584,235.269c0,7.828-6.346,14.174-14.174,14.174H14.173
			C6.346,249.443,0,243.097,0,235.269V14.172C0,6.344,6.346-0.002,14.173-0.002H164.41c7.828,0,14.174,6.346,14.174,14.174V235.269z
			"/>
		<path d="M5.671,14.172v1.442H5.669v2.452l2.227-0.002l-0.001-1.486h9.345c-1.449,2.657-5.353,10.628-6.766,21.688l2.238-0.001
			c0.831-6.522,2.253-11.626,3.879-15.41c0.813-1.892,1.572-3.373,2.126-4.375c0.276-0.501,0.501-0.883,0.654-1.136
			c0.161-0.266,0.433-0.705,0.472-0.767v-2.406H5.671z"/>
		<path d="M172.912,235.269v-1.441h0.002v-2.453l-2.227,0.002l0.002,1.486h-9.346c1.449-2.656,5.354-10.627,6.766-21.688h-2.238
			c-0.83,6.523-2.252,11.627-3.879,15.41c-0.812,1.893-1.572,3.373-2.125,4.375c-0.277,0.502-0.502,0.883-0.654,1.137
			c-0.162,0.266-0.434,0.705-0.473,0.766v2.406H172.912z"/>
		<path fill-rule="evenodd" clip-rule="evenodd" stroke="#000000" stroke-width="0.065" stroke-linejoin="round" d="M12.747,42.518
			c-0.041,0.027-0.07,0.042-0.117,0.072c-3.038,1.94-6.583,5.725-6.946,10.441c-0.173,2.244,1.263,3.798,3.118,3.832
			c1.184,0.021,2.137-0.399,2.653-1.203c0.429-0.668,0.538-1.699,0.607-1.223c0.25,1.816-0.511,3.562-0.922,5.088
			c0.459-0.167,1.035-0.251,1.613-0.253h0.01c0.577,0.002,1.152,0.086,1.61,0.253c-0.411-1.525-1.17-3.271-0.921-5.088
			c0.069-0.477,0.179,0.555,0.606,1.223c0.516,0.804,1.469,1.225,2.652,1.203c1.855-0.034,3.291-1.588,3.118-3.832
			c-0.364-4.717-3.908-8.501-6.943-10.441c-0.033-0.024-0.062-0.04-0.11-0.072H12.747z"/>
		<path fill-rule="evenodd" clip-rule="evenodd" stroke="#000000" stroke-width="0.065" stroke-linejoin="round" d="
			M165.818,206.921c-0.041-0.027-0.07-0.041-0.117-0.072c-3.039-1.939-6.584-5.725-6.947-10.441
			c-0.172-2.244,1.264-3.797,3.119-3.832c1.184-0.021,2.137,0.4,2.652,1.203c0.428,0.668,0.537,1.699,0.607,1.223
			c0.25-1.816-0.512-3.562-0.922-5.088c0.459,0.168,1.035,0.252,1.613,0.254h0.01c0.576-0.002,1.152-0.086,1.609-0.254
			c-0.41,1.525-1.17,3.271-0.92,5.088c0.068,0.477,0.178-0.555,0.605-1.223c0.516-0.803,1.469-1.225,2.652-1.203
			c1.855,0.035,3.291,1.588,3.119,3.832c-0.363,4.717-3.908,8.502-6.943,10.441c-0.033,0.025-0.062,0.041-0.111,0.072H165.818z"/>
		<path fill-rule="evenodd" clip-rule="evenodd" stroke="#000000" stroke-width="0.1625" stroke-linejoin="round" d="M46.039,25.511
			c-0.102,0.066-0.174,0.103-0.293,0.181C38.15,30.54,29.29,40.001,28.382,51.795c-0.432,5.61,3.155,9.495,7.794,9.579
			c2.961,0.055,5.342-0.997,6.631-3.007c1.072-1.672,1.346-4.248,1.52-3.058c0.625,4.542-1.276,8.907-2.306,12.721
			c1.147-0.417,2.589-0.627,4.034-0.632h0.023c1.442,0.005,2.881,0.215,4.027,0.632c-1.027-3.813-2.926-8.179-2.303-12.721
			c0.174-1.19,0.446,1.386,1.517,3.058c1.289,2.01,3.671,3.062,6.631,3.007c4.639-0.084,8.226-3.969,7.794-9.579
			c-0.908-11.794-9.77-21.255-17.358-26.104c-0.083-0.062-0.155-0.1-0.274-0.181H46.039z"/>
		<path fill-rule="evenodd" clip-rule="evenodd" stroke="#000000" stroke-width="0.1625" stroke-linejoin="round" d="
			M132.496,25.511c-0.102,0.066-0.174,0.103-0.293,0.181c-7.596,4.849-16.455,14.31-17.363,26.104
			c-0.434,5.61,3.154,9.495,7.793,9.579c2.961,0.055,5.342-0.997,6.631-3.007c1.072-1.672,1.346-4.248,1.52-3.058
			c0.625,4.542-1.275,8.907-2.305,12.721c1.146-0.417,2.588-0.627,4.033-0.632h0.023c1.443,0.005,2.881,0.215,4.027,0.632
			c-1.027-3.813-2.926-8.179-2.303-12.721c0.174-1.19,0.447,1.386,1.518,3.058c1.289,2.01,3.67,3.062,6.631,3.007
			c4.639-0.084,8.225-3.969,7.793-9.579c-0.908-11.794-9.77-21.255-17.357-26.104c-0.084-0.062-0.156-0.1-0.275-0.181H132.496z"/>
		<path fill-rule="evenodd" clip-rule="evenodd" stroke="#000000" stroke-width="0.1625" stroke-linejoin="round" d="M89.268,56.691
			c-0.102,0.067-0.174,0.104-0.293,0.181c-7.596,4.85-16.457,14.311-17.365,26.104c-0.432,5.61,3.156,9.495,7.795,9.58
			c2.961,0.054,5.342-0.998,6.631-3.007c1.072-1.671,1.346-4.248,1.52-3.058c0.625,4.542-1.275,8.907-2.305,12.721
			c1.146-0.418,2.588-0.627,4.033-0.633h0.023c1.443,0.006,2.881,0.215,4.027,0.633c-1.027-3.814-2.926-8.179-2.303-12.721
			c0.174-1.19,0.447,1.386,1.518,3.058c1.289,2.01,3.67,3.062,6.631,3.007c4.639-0.084,8.225-3.969,7.793-9.58
			c-0.908-11.793-9.77-21.254-17.357-26.104c-0.084-0.062-0.156-0.099-0.275-0.181H89.268z"/>
		<path fill-rule="evenodd" clip-rule="evenodd" stroke="#000000" stroke-width="0.1625" stroke-linejoin="round" d="
			M46.039,103.463c-0.102,0.066-0.174,0.104-0.293,0.18c-7.596,4.849-16.456,14.308-17.364,26.099
			c-0.432,5.611,3.155,9.496,7.794,9.58c2.961,0.055,5.342-0.998,6.631-3.008c1.072-1.672,1.346-4.248,1.52-3.057
			c0.625,4.541-1.276,8.906-2.306,12.721c1.147-0.418,2.589-0.627,4.034-0.633h0.023c1.442,0.006,2.881,0.215,4.027,0.633
			c-1.027-3.814-2.926-8.18-2.303-12.721c0.174-1.191,0.446,1.385,1.517,3.057c1.289,2.01,3.671,3.062,6.631,3.008
			c4.639-0.084,8.226-3.969,7.794-9.58c-0.908-11.792-9.77-21.25-17.358-26.099c-0.083-0.061-0.155-0.1-0.274-0.18H46.039z"/>
		<path fill-rule="evenodd" clip-rule="evenodd" stroke="#000000" stroke-width="0.1625" stroke-linejoin="round" d="
			M132.496,103.463c-0.102,0.066-0.174,0.102-0.293,0.18c-7.596,4.849-16.455,14.308-17.363,26.099
			c-0.434,5.611,3.154,9.496,7.793,9.58c2.961,0.055,5.342-0.998,6.631-3.008c1.072-1.67,1.346-4.248,1.52-3.057
			c0.625,4.541-1.275,8.906-2.305,12.721c1.146-0.418,2.588-0.627,4.033-0.633h0.023c1.443,0.006,2.881,0.215,4.027,0.633
			c-1.027-3.814-2.926-8.18-2.303-12.721c0.174-1.191,0.447,1.387,1.518,3.057c1.289,2.01,3.67,3.062,6.631,3.008
			c4.639-0.084,8.225-3.969,7.793-9.58c-0.908-11.792-9.77-21.25-17.357-26.099c-0.084-0.062-0.156-0.1-0.275-0.18H132.496z"/>
		<path fill-rule="evenodd" clip-rule="evenodd" stroke="#000000" stroke-width="0.1625" stroke-linejoin="round" d="
			M46.039,223.931c-0.102-0.066-0.174-0.104-0.293-0.182c-7.596-4.848-16.456-14.309-17.364-26.104
			c-0.432-5.609,3.155-9.494,7.794-9.578c2.961-0.055,5.342,0.996,6.631,3.006c1.072,1.672,1.346,4.248,1.52,3.059
			c0.625-4.543-1.276-8.908-2.306-12.721c1.147,0.416,2.589,0.627,4.034,0.631h0.023c1.442-0.004,2.881-0.215,4.027-0.631
			c-1.027,3.812-2.926,8.178-2.303,12.721c0.174,1.189,0.446-1.387,1.517-3.059c1.289-2.01,3.671-3.061,6.631-3.006
			c4.639,0.084,8.226,3.969,7.794,9.578c-0.908,11.795-9.77,21.256-17.358,26.104c-0.083,0.062-0.155,0.1-0.274,0.182H46.039z"/>
		<path fill-rule="evenodd" clip-rule="evenodd" stroke="#000000" stroke-width="0.1625" stroke-linejoin="round" d="
			M132.496,223.931c-0.102-0.068-0.174-0.104-0.293-0.182c-7.596-4.85-16.455-14.311-17.363-26.104
			c-0.432-5.609,3.154-9.494,7.793-9.58c2.961-0.053,5.342,0.998,6.631,3.008c1.072,1.672,1.346,4.248,1.52,3.059
			c0.625-4.543-1.275-8.908-2.305-12.721c1.146,0.416,2.588,0.627,4.033,0.631h0.023c1.443-0.004,2.881-0.215,4.029-0.631
			c-1.029,3.812-2.928,8.178-2.305,12.721c0.174,1.189,0.449-1.387,1.518-3.059c1.289-2.01,3.67-3.061,6.631-3.008
			c4.639,0.086,8.225,3.971,7.793,9.58c-0.908,11.793-9.77,21.254-17.357,26.104c-0.084,0.062-0.156,0.1-0.275,0.182H132.496z"/>
	</g>
</g>
<g id="eight">
</g>
<g id="nine">
</g>
<g id="ten">
</g>
<g id="jack">
</g>
<g id="queen">
</g>
<g id="king">
</g>
<g id="joker">
</g>
<g id="back">
</g>
</svg>
