<?xml version="1.0" encoding="utf-8"?>
<!-- Generator: Adobe Illustrator 16.0.4, SVG Export Plug-In . SVG Version: 6.00 Build 0)  -->
<!DOCTYPE svg PUBLIC "-//W3C//DTD SVG 1.1//EN" "http://www.w3.org/Graphics/SVG/1.1/DTD/svg11.dtd">
<svg version="1.1" xmlns="http://www.w3.org/2000/svg" xmlns:xlink="http://www.w3.org/1999/xlink" x="0px" y="0px"
	 width="178.582px" height="249.444px" viewBox="0 0 178.582 249.444" enable-background="new 0 0 178.582 249.444"
	 xml:space="preserve">
<g id="ace">
</g>
<g id="two">
</g>
<g id="three">
</g>
<g id="four">
</g>
<g id="five">
</g>
<g id="six">
</g>
<g id="seven">
</g>
<g id="eight">
	<g>
		<path fill="#F4F4F2" stroke="#000000" d="M178.583,235.27c0,7.828-6.346,14.174-14.174,14.174H14.173
			C6.346,249.444,0,243.098,0,235.27V14.175C0,6.347,6.346,0.002,14.173,0.002h150.235c7.828,0,14.174,6.345,14.174,14.173V235.27z"
			/>
		<path fill="#E44145" d="M12.768,42.522c1.787,3.47,4.145,6.309,7.076,8.512c-2.931,2.207-5.289,5.039-7.076,8.496
			c-1.802-3.457-4.167-6.289-7.098-8.496C8.6,48.831,10.965,45.992,12.768,42.522L12.768,42.522z"/>
		<path fill="#E44145" d="M165.836,189.916c1.787,3.47,4.146,6.308,7.076,8.513c-2.931,2.206-5.289,5.038-7.076,8.495
			c-1.803-3.457-4.168-6.289-7.098-8.495C161.668,196.223,164.034,193.385,165.836,189.916L165.836,189.916z"/>
		<path fill="#E44145" d="M46.088,25.515c4.469,8.675,10.365,15.77,17.691,21.283c-7.326,5.517-13.223,12.595-17.691,21.236
			c-4.503-8.642-10.417-15.72-17.741-21.236C35.671,41.284,41.585,34.189,46.088,25.515L46.088,25.515z"/>
		<path fill="#E44145" d="M46.088,103.467c4.468,8.674,10.365,15.765,17.691,21.279c-7.327,5.513-13.224,12.594-17.691,21.233
			c-4.503-8.639-10.417-15.72-17.741-21.233C35.671,119.231,41.585,112.141,46.088,103.467L46.088,103.467z"/>
		<path fill="#E44145" d="M46.088,181.412c4.469,8.675,10.365,15.769,17.691,21.282c-7.327,5.518-13.223,12.596-17.691,21.237
			c-4.503-8.642-10.417-15.72-17.741-21.237C35.671,197.18,41.585,190.086,46.088,181.412L46.088,181.412z"/>
		<path fill="#E44145" d="M132.543,25.514c4.469,8.675,10.365,15.77,17.691,21.284c-7.326,5.516-13.223,12.595-17.691,21.236
			c-4.502-8.642-10.417-15.721-17.741-21.236C122.126,41.284,128.042,34.189,132.543,25.514L132.543,25.514z"/>
		<path fill="#E44145" d="M132.543,103.467c4.469,8.672,10.365,15.765,17.691,21.277c-7.326,5.515-13.223,12.596-17.691,21.235
			c-4.502-8.639-10.417-15.72-17.741-21.235C122.126,119.231,128.042,112.139,132.543,103.467L132.543,103.467z"/>
		<path fill="#E44145" d="M132.543,181.412c4.469,8.675,10.365,15.77,17.691,21.282c-7.326,5.517-13.223,12.596-17.691,21.237
			c-4.502-8.642-10.416-15.721-17.741-21.237C122.127,197.181,128.042,190.086,132.543,181.412L132.543,181.412z"/>
		<path fill="#E44145" d="M89.315,66.616c4.469,8.675,10.365,15.77,17.691,21.283c-7.326,5.517-13.222,12.595-17.691,21.235
			c-4.502-8.64-10.416-15.718-17.741-21.235C78.899,82.386,84.813,75.291,89.315,66.616L89.315,66.616z"/>
		<path fill="#E44145" d="M89.315,140.309c4.468,8.675,10.365,15.771,17.691,21.285c-7.326,5.516-13.223,12.596-17.691,21.234
			c-4.502-8.639-10.417-15.719-17.741-21.234C78.899,156.08,84.813,148.984,89.315,140.309L89.315,140.309z"/>
		<path fill="#E44145" d="M17.722,26.111c-0.369-0.363-0.78-0.679-1.22-0.953c0.188-0.146,0.368-0.298,0.538-0.464
			c1.115-1.09,1.837-2.652,1.835-4.383c0.002-1.731-0.72-3.292-1.835-4.383c-1.114-1.095-2.63-1.752-4.284-1.753
			c-1.655,0.001-3.17,0.658-4.285,1.753c-1.114,1.09-1.835,2.652-1.834,4.383c-0.001,1.731,0.72,3.292,1.834,4.383
			c0.17,0.167,0.352,0.319,0.538,0.464c-0.438,0.274-0.85,0.59-1.22,0.953c-1.289,1.263-2.121,3.065-2.12,5.063
			c-0.001,1.998,0.831,3.8,2.12,5.063c1.29,1.268,3.047,2.03,4.967,2.031c1.919-0.001,3.676-0.764,4.966-2.031
			c1.29-1.263,2.123-3.066,2.12-5.063C19.845,29.177,19.012,27.374,17.722,26.111z M9.93,17.706
			c0.705-0.693,1.703-1.141,2.824-1.141h0.002c1.123-0.001,2.12,0.448,2.826,1.141c0.705,0.698,1.108,1.607,1.109,2.605
			c-0.001,0.999-0.404,1.908-1.109,2.606c-0.706,0.693-1.703,1.142-2.826,1.141c-1.122,0-2.121-0.448-2.826-1.141
			c-0.704-0.698-1.108-1.607-1.109-2.606C8.822,19.313,9.226,18.403,9.93,17.706z M16.173,34.352
			c-0.854,0.841-2.063,1.383-3.417,1.382c-1.354,0.001-2.562-0.541-3.418-1.382c-0.855-0.846-1.35-1.956-1.352-3.177
			c0.002-1.221,0.496-2.331,1.352-3.178c0.855-0.84,2.062-1.382,3.416-1.382h0.002c1.354,0,2.562,0.542,3.417,1.382
			c0.856,0.847,1.352,1.957,1.353,3.178C17.525,32.396,17.03,33.506,16.173,34.352z"/>
		<path fill="#E44145" d="M160.86,223.333c0.369,0.362,0.78,0.679,1.219,0.953c-0.187,0.146-0.367,0.298-0.537,0.464
			c-1.115,1.091-1.838,2.652-1.836,4.383c-0.002,1.731,0.721,3.293,1.836,4.383c1.114,1.096,2.63,1.753,4.284,1.754
			c1.655-0.001,3.169-0.658,4.284-1.754c1.115-1.09,1.836-2.651,1.835-4.383c0.001-1.73-0.72-3.292-1.835-4.383
			c-0.169-0.166-0.351-0.318-0.537-0.464c0.438-0.274,0.85-0.591,1.219-0.953c1.29-1.263,2.121-3.065,2.121-5.063
			s-0.831-3.801-2.121-5.063c-1.289-1.268-3.047-2.03-4.966-2.031c-1.919,0.001-3.676,0.764-4.966,2.031
			c-1.29,1.263-2.123,3.065-2.121,5.063C158.737,220.268,159.57,222.071,160.86,223.333z M168.651,231.739
			c-0.705,0.693-1.702,1.142-2.824,1.142h-0.001c-1.123,0.001-2.12-0.448-2.826-1.142c-0.705-0.697-1.108-1.607-1.109-2.605
			c0.001-0.998,0.404-1.907,1.109-2.605c0.706-0.693,1.703-1.142,2.826-1.141c1.122-0.001,2.12,0.447,2.825,1.141
			c0.705,0.698,1.109,1.607,1.11,2.605C169.76,230.131,169.356,231.042,168.651,231.739z M162.409,215.093
			c0.854-0.841,2.062-1.383,3.417-1.382c1.354-0.001,2.562,0.541,3.417,1.382c0.856,0.846,1.351,1.956,1.353,3.177
			c-0.002,1.221-0.496,2.331-1.353,3.178c-0.854,0.84-2.061,1.382-3.416,1.382h-0.001c-1.354,0-2.562-0.542-3.417-1.382
			c-0.856-0.847-1.352-1.957-1.354-3.178C161.057,217.049,161.552,215.939,162.409,215.093z"/>
	</g>
</g>
<g id="nine">
</g>
<g id="ten">
</g>
<g id="jack">
</g>
<g id="queen">
</g>
<g id="king">
</g>
<g id="jolly">
</g>
<g id="back">
</g>
</svg>
