<?xml version="1.0" encoding="utf-8"?>
<!-- Generator: Adobe Illustrator 16.0.4, SVG Export Plug-In . SVG Version: 6.00 Build 0)  -->
<!DOCTYPE svg PUBLIC "-//W3C//DTD SVG 1.1//EN" "http://www.w3.org/Graphics/SVG/1.1/DTD/svg11.dtd">
<svg version="1.1" xmlns="http://www.w3.org/2000/svg" xmlns:xlink="http://www.w3.org/1999/xlink" x="0px" y="0px"
	 width="178.583px" height="249.447px" viewBox="0 0 178.583 249.447" enable-background="new 0 0 178.583 249.447"
	 xml:space="preserve">
<g id="ace">
</g>
<g id="two">
</g>
<g id="three">
</g>
<g id="four">
</g>
<g id="five">
</g>
<g id="six">
</g>
<g id="seven">
</g>
<g id="eight">
	<path fill="#F4F4F2" stroke="#000000" d="M178.583,235.272c0,7.828-6.346,14.174-14.174,14.174H14.174
		c-7.827,0-14.173-6.346-14.173-14.174V14.174C0.001,6.346,6.347,0,14.174,0h150.235c7.828,0,14.174,6.346,14.174,14.174V235.272z"
		/>
	<g>
		<path fill="#E44145" d="M165.847,189.948c-2.83,4.479-7.069,6.83-7.08,11.535c-0.245,2.713,1.275,4.785,3.085,5.344
			c1.246,0.387,3.187-0.295,3.899-3.123c0.059-0.154,0.121-0.152,0.178,0.006c1.025,2.865,2.722,3.49,3.912,3.117
			c1.766-0.57,3.194-2.674,3.064-5.357C172.867,196.786,168.677,194.427,165.847,189.948z"/>
		<path fill="#E44145" d="M165.827,189.919c0.007,0.01,0.013,0.02,0.02,0.029c0.007-0.01,0.013-0.02,0.02-0.029H165.827z"/>
	</g>
	<g>
		<path fill="#E44145" d="M12.754,59.527c-0.006-0.009-0.012-0.019-0.018-0.027c-0.006,0.009-0.013,0.019-0.019,0.027H12.754z"/>
		<path fill="#E44145" d="M16.73,42.619c-1.246-0.388-3.184,0.295-3.896,3.122c-0.061,0.155-0.123,0.151-0.178-0.005
			c-1.029-2.865-2.723-3.491-3.913-3.117c-1.767,0.569-3.194,2.673-3.065,5.356c0.037,4.684,4.23,7.043,7.059,11.524
			c2.828-4.481,7.069-6.833,7.08-11.538C20.064,45.25,18.543,43.178,16.73,42.619z"/>
	</g>
	<g>
		<path fill="#E44145" d="M150.215,210.294c-0.091-11.711-10.568-17.607-17.645-28.807c-7.076,11.199-17.671,17.078-17.703,28.84
			c-0.609,6.781,3.183,11.963,7.717,13.357c3.118,0.969,7.964-0.734,9.747-7.805c0.145-0.387,0.303-0.379,0.446,0.014
			c2.566,7.162,6.804,8.727,9.778,7.791C146.97,222.263,150.544,217.003,150.215,210.294z"/>
		<path fill="#E44145" d="M132.522,181.413c0.016,0.025,0.032,0.051,0.048,0.074c0.017-0.023,0.033-0.049,0.049-0.074H132.522z"/>
	</g>
	<g>
		<path fill="#E44145" d="M132.515,65.196c-0.016-0.025-0.032-0.049-0.048-0.074c-0.017,0.025-0.033,0.049-0.049,0.074H132.515z"/>
		<path fill="#E44145" d="M142.452,22.926c-3.117-0.968-7.964,0.736-9.746,7.805c-0.145,0.388-0.303,0.379-0.441-0.014
			c-2.572-7.163-6.804-8.727-9.785-7.791c-4.406,1.423-7.98,6.682-7.656,13.391c0.09,11.711,10.565,17.608,17.644,28.806
			c7.077-11.197,17.677-17.078,17.703-28.839C150.785,29.503,146.988,24.322,142.452,22.926z"/>
	</g>
	<g>
		<path fill="#E44145" d="M142.452,103.713c-3.117-0.968-7.964,0.735-9.746,7.804c-0.145,0.388-0.303,0.379-0.441-0.014
			c-2.572-7.161-6.804-8.727-9.785-7.79c-4.406,1.423-7.98,6.681-7.656,13.389c0.09,11.71,10.565,17.608,17.644,28.806
			c7.077-11.197,17.677-17.078,17.703-28.84C150.785,110.29,146.988,105.109,142.452,103.713z"/>
		<path fill="#E44145" d="M132.515,145.981c-0.016-0.025-0.032-0.051-0.048-0.074c-0.017,0.023-0.033,0.049-0.049,0.074H132.515z"/>
	</g>
	<g>
		<path fill="#E44145" d="M60.926,207.46c-0.091-11.713-10.571-17.609-17.646-28.809c-7.075,11.197-17.673,17.078-17.702,28.842
			c-0.613,6.779,3.182,11.961,7.717,13.357c3.117,0.967,7.965-0.736,9.744-7.807c0.15-0.385,0.305-0.379,0.447,0.014
			c2.568,7.164,6.803,8.729,9.781,7.793C57.678,219.427,61.252,214.169,60.926,207.46z"/>
		<path fill="#E44145" d="M43.232,178.579c0.016,0.023,0.032,0.049,0.048,0.072c0.016-0.023,0.032-0.049,0.048-0.072H43.232z"/>
	</g>
	<g>
		<path fill="#E44145" d="M53.162,22.926c-3.115-0.969-7.963,0.735-9.742,7.805c-0.15,0.387-0.306,0.378-0.447-0.014
			c-2.568-7.162-6.803-8.727-9.781-7.791c-4.41,1.422-7.984,6.681-7.658,13.391c0.088,11.711,10.568,17.608,17.646,28.807
			c7.075-11.199,17.673-17.079,17.702-28.841C61.493,29.503,57.699,24.322,53.162,22.926z"/>
		<path fill="#E44145" d="M43.227,65.196c-0.016-0.024-0.032-0.048-0.048-0.072c-0.016,0.024-0.032,0.048-0.048,0.072H43.227z"/>
	</g>
	<g>
		<path fill="#E44145" d="M53.162,103.714c-3.115-0.969-7.963,0.734-9.742,7.803c-0.15,0.387-0.306,0.379-0.447-0.014
			c-2.568-7.162-6.803-8.726-9.781-7.789c-4.41,1.422-7.984,6.68-7.658,13.389c0.088,11.711,10.568,17.607,17.646,28.805
			c7.075-11.197,17.673-17.078,17.702-28.839C61.493,110.29,57.699,105.109,53.162,103.714z"/>
		<path fill="#E44145" d="M43.227,145.981c-0.016-0.025-0.032-0.049-0.048-0.074c-0.016,0.025-0.032,0.049-0.048,0.074H43.227z"/>
	</g>
	<g>
		<path fill="#E44145" d="M106.986,169.192c-0.085-11.711-10.565-17.609-17.64-28.807c-7.08,11.197-17.677,17.078-17.706,28.84
			c-0.611,6.779,3.182,11.961,7.715,13.357c3.121,0.967,7.969-0.736,9.75-7.807c0.148-0.385,0.305-0.377,0.445,0.014
			c2.569,7.164,6.804,8.729,9.783,7.793C103.742,181.161,107.315,175.901,106.986,169.192z"/>
		<path fill="#E44145" d="M89.299,140.312c0.016,0.025,0.031,0.049,0.048,0.074c0.017-0.025,0.032-0.049,0.048-0.074H89.299z"/>
	</g>
	<g>
		<path fill="#E44145" d="M99.226,64.028c-3.118-0.969-7.965,0.735-9.743,7.805c-0.15,0.388-0.307,0.379-0.447-0.014
			c-2.57-7.162-6.807-8.727-9.783-7.791c-4.41,1.423-7.982,6.682-7.656,13.392c0.088,11.711,10.566,17.608,17.645,28.807
			c7.071-11.198,17.669-17.079,17.702-28.841C107.552,70.605,103.755,65.425,99.226,64.028z"/>
		<path fill="#E44145" d="M89.287,106.299c-0.016-0.024-0.031-0.048-0.047-0.072c-0.016,0.024-0.032,0.048-0.047,0.072H89.287z"/>
	</g>
	<path fill="#E44145" d="M17.723,26.109c-0.369-0.363-0.779-0.679-1.219-0.953c0.188-0.146,0.367-0.298,0.537-0.464
		c1.115-1.09,1.838-2.652,1.836-4.383c0.002-1.731-0.721-3.292-1.836-4.383c-1.113-1.095-2.629-1.752-4.283-1.753
		c-1.656,0.001-3.17,0.658-4.285,1.753c-1.115,1.09-1.836,2.652-1.834,4.383c-0.002,1.731,0.719,3.292,1.834,4.383
		c0.17,0.167,0.352,0.319,0.537,0.464c-0.438,0.274-0.85,0.59-1.219,0.953c-1.289,1.263-2.121,3.065-2.121,5.063
		c0,1.998,0.832,3.8,2.121,5.063c1.289,1.268,3.047,2.03,4.967,2.031c1.918-0.001,3.676-0.764,4.965-2.031
		c1.291-1.263,2.123-3.066,2.121-5.063C19.846,29.175,19.014,27.372,17.723,26.109z M9.932,17.704
		c0.705-0.693,1.703-1.141,2.824-1.141h0.002c1.123-0.001,2.119,0.448,2.826,1.141c0.705,0.698,1.107,1.607,1.109,2.605
		c-0.002,0.999-0.404,1.908-1.109,2.606c-0.707,0.693-1.703,1.142-2.826,1.141c-1.123,0-2.121-0.448-2.826-1.141
		c-0.705-0.698-1.109-1.607-1.109-2.606C8.822,19.311,9.227,18.401,9.932,17.704z M16.174,34.35
		c-0.854,0.841-2.062,1.383-3.416,1.382c-1.354,0.001-2.562-0.541-3.418-1.382c-0.855-0.846-1.35-1.956-1.352-3.177
		c0.002-1.221,0.496-2.331,1.352-3.178c0.855-0.84,2.061-1.382,3.416-1.382h0.002c1.354,0,2.562,0.542,3.416,1.382
		c0.857,0.847,1.352,1.957,1.354,3.178C17.525,32.394,17.031,33.504,16.174,34.35z"/>
	<path fill="#E44145" d="M160.86,223.335c0.369,0.363,0.78,0.68,1.219,0.953c-0.187,0.146-0.367,0.299-0.537,0.465
		c-1.115,1.09-1.838,2.652-1.836,4.383c-0.002,1.73,0.721,3.293,1.836,4.383c1.114,1.096,2.63,1.752,4.284,1.754
		c1.655-0.002,3.169-0.658,4.284-1.754c1.115-1.09,1.836-2.652,1.835-4.383c0.001-1.73-0.72-3.293-1.835-4.383
		c-0.169-0.166-0.351-0.318-0.537-0.465c0.438-0.273,0.85-0.59,1.219-0.953c1.29-1.262,2.121-3.064,2.121-5.062
		s-0.831-3.801-2.121-5.064c-1.289-1.268-3.047-2.029-4.966-2.031c-1.919,0.002-3.676,0.764-4.966,2.031
		c-1.29,1.264-2.123,3.066-2.121,5.064C158.737,220.271,159.57,222.073,160.86,223.335z M168.651,231.741
		c-0.705,0.693-1.702,1.141-2.824,1.141h-0.001c-1.123,0.002-2.12-0.447-2.826-1.141c-0.705-0.697-1.108-1.607-1.109-2.605
		c0.001-0.998,0.404-1.908,1.109-2.605c0.706-0.693,1.703-1.143,2.826-1.141c1.122-0.002,2.12,0.447,2.825,1.141
		c0.705,0.697,1.109,1.607,1.11,2.605C169.761,230.134,169.356,231.044,168.651,231.741z M162.409,215.095
		c0.854-0.84,2.062-1.383,3.417-1.381c1.354-0.002,2.562,0.541,3.417,1.381c0.856,0.846,1.351,1.957,1.353,3.178
		c-0.002,1.221-0.496,2.33-1.353,3.178c-0.854,0.84-2.061,1.381-3.416,1.381h-0.001c-1.354,0-2.562-0.541-3.417-1.381
		c-0.856-0.848-1.352-1.957-1.354-3.178C161.058,217.052,161.553,215.94,162.409,215.095z"/>
</g>
<g id="nine">
</g>
<g id="ten">
</g>
<g id="jack">
</g>
<g id="queen">
</g>
<g id="king">
</g>
<g id="jolly">
</g>
<g id="back">
</g>
</svg>
