<?xml version="1.0" encoding="utf-8"?>
<!-- Generator: Adobe Illustrator 16.0.4, SVG Export Plug-In . SVG Version: 6.00 Build 0)  -->
<!DOCTYPE svg PUBLIC "-//W3C//DTD SVG 1.1//EN" "http://www.w3.org/Graphics/SVG/1.1/DTD/svg11.dtd">
<svg version="1.1" xmlns="http://www.w3.org/2000/svg" xmlns:xlink="http://www.w3.org/1999/xlink" x="0px" y="0px"
	 width="178.585px" height="249.444px" viewBox="0 0 178.585 249.444" enable-background="new 0 0 178.585 249.444"
	 xml:space="preserve">
<g id="ace">
</g>
<g id="two">
</g>
<g id="three">
</g>
<g id="four">
</g>
<g id="five">
</g>
<g id="six">
</g>
<g id="seven">
</g>
<g id="eight">
</g>
<g id="nine">
</g>
<g id="ten">
	<path fill="#F4F4F2" stroke="#000000" d="M178.585,235.27c0,7.827-6.346,14.173-14.174,14.173H14.174
		C6.346,249.443,0,243.097,0,235.27V14.172C0,6.344,6.346-0.001,14.174-0.001h150.237c7.828,0,14.174,6.346,14.174,14.174V235.27z"
		/>
	<g>
		<path fill="none" d="M12.756,26.613L12.756,26.613c-1.355,0-2.562,0.541-3.416,1.382c-0.857,0.846-1.352,1.957-1.354,3.178
			c0.002,1.22,0.496,2.33,1.354,3.177c0.855,0.841,2.062,1.382,3.416,1.381c1.355,0.001,2.562-0.54,3.418-1.381
			c0.855-0.847,1.352-1.957,1.354-3.177c-0.002-1.221-0.498-2.332-1.354-3.178C15.318,27.154,14.111,26.612,12.756,26.613z"/>
		<path fill="none" d="M12.756,24.055c1.123,0.001,2.121-0.448,2.826-1.142c0.705-0.697,1.109-1.607,1.109-2.605
			s-0.404-1.908-1.109-2.605c-0.705-0.693-1.703-1.143-2.826-1.142l0,0c-1.123,0-2.119,0.448-2.824,1.142
			C9.227,18.4,8.822,19.31,8.82,20.308c0.002,0.998,0.406,1.908,1.111,2.605C10.637,23.607,11.635,24.056,12.756,24.055z"/>
		<path d="M17.723,26.109c-0.369-0.363-0.781-0.68-1.219-0.953c0.186-0.146,0.367-0.299,0.537-0.465
			c1.115-1.091,1.838-2.651,1.836-4.383c0.002-1.731-0.721-3.292-1.836-4.383c-1.115-1.095-2.631-1.753-4.285-1.753
			s-3.168,0.658-4.283,1.753c-1.115,1.091-1.836,2.651-1.836,4.383s0.721,3.292,1.836,4.383c0.168,0.166,0.35,0.319,0.537,0.465
			c-0.439,0.273-0.85,0.59-1.219,0.953C6.5,27.372,5.67,29.174,5.67,31.172c0,1.997,0.83,3.8,2.121,5.062
			c1.289,1.268,3.047,2.03,4.965,2.031c1.92-0.001,3.676-0.764,4.967-2.031c1.289-1.263,2.123-3.065,2.121-5.062
			C19.846,29.174,19.012,27.372,17.723,26.109z M9.932,17.703c0.705-0.693,1.701-1.142,2.824-1.142l0,0
			c1.123-0.001,2.121,0.448,2.826,1.142c0.705,0.697,1.109,1.607,1.109,2.605s-0.404,1.908-1.109,2.605
			c-0.705,0.693-1.703,1.143-2.826,1.142c-1.121,0.001-2.119-0.448-2.824-1.142c-0.705-0.697-1.109-1.607-1.111-2.605
			C8.822,19.31,9.227,18.4,9.932,17.703z M16.174,34.349c-0.855,0.841-2.062,1.382-3.418,1.381c-1.354,0.001-2.561-0.54-3.416-1.381
			c-0.857-0.847-1.352-1.957-1.354-3.177c0.002-1.221,0.496-2.332,1.354-3.178c0.854-0.841,2.061-1.382,3.416-1.382l0,0
			c1.355-0.001,2.562,0.541,3.418,1.382c0.855,0.846,1.352,1.957,1.354,3.178C17.525,32.392,17.029,33.502,16.174,34.349z"/>
	</g>
	<g>
		<path fill="none" d="M165.827,222.829h0.002c1.354,0,2.561-0.541,3.416-1.381c0.855-0.847,1.35-1.957,1.352-3.178
			c-0.002-1.221-0.496-2.331-1.352-3.178c-0.855-0.841-2.064-1.382-3.418-1.381c-1.354-0.001-2.562,0.54-3.418,1.381
			c-0.855,0.847-1.352,1.957-1.352,3.178s0.496,2.331,1.352,3.178C163.265,222.288,164.474,222.83,165.827,222.829z"/>
		<path fill="none" d="M165.827,225.386c-1.123-0.001-2.119,0.448-2.826,1.142c-0.705,0.697-1.107,1.607-1.109,2.605
			c0.002,0.998,0.404,1.908,1.109,2.605c0.707,0.693,1.703,1.143,2.826,1.142h0.002c1.121,0,2.119-0.448,2.824-1.142
			c0.705-0.697,1.109-1.607,1.109-2.605s-0.404-1.908-1.109-2.605C167.948,225.834,166.95,225.385,165.827,225.386z"/>
		<path d="M160.86,223.333c0.371,0.363,0.781,0.68,1.221,0.953c-0.188,0.146-0.369,0.299-0.537,0.465
			c-1.115,1.091-1.838,2.652-1.836,4.383c-0.002,1.731,0.721,3.293,1.836,4.383c1.113,1.096,2.629,1.753,4.283,1.754
			c1.654-0.001,3.17-0.658,4.285-1.754c1.115-1.09,1.836-2.651,1.834-4.383c0.002-1.73-0.719-3.292-1.834-4.383
			c-0.17-0.166-0.352-0.318-0.539-0.465c0.439-0.273,0.852-0.59,1.221-0.953c1.289-1.262,2.121-3.064,2.121-5.062
			s-0.832-3.801-2.121-5.063c-1.291-1.268-3.047-2.03-4.967-2.031c-1.92,0.001-3.676,0.764-4.967,2.031
			c-1.289,1.263-2.121,3.065-2.119,5.063C158.739,220.268,159.571,222.071,160.86,223.333z M168.653,231.739
			c-0.705,0.693-1.703,1.142-2.824,1.142h-0.002c-1.123,0.001-2.119-0.448-2.826-1.142c-0.705-0.697-1.107-1.607-1.109-2.605
			c0.002-0.998,0.404-1.908,1.109-2.605c0.707-0.693,1.703-1.143,2.826-1.142c1.123-0.001,2.121,0.448,2.826,1.142
			c0.705,0.697,1.109,1.607,1.109,2.605S169.358,231.042,168.653,231.739z M162.409,215.092c0.855-0.841,2.064-1.382,3.418-1.381
			c1.354-0.001,2.562,0.54,3.418,1.381c0.855,0.847,1.35,1.957,1.352,3.178c-0.002,1.221-0.496,2.331-1.352,3.178
			c-0.855,0.84-2.062,1.381-3.416,1.381h-0.002c-1.354,0.001-2.562-0.541-3.418-1.381c-0.855-0.847-1.352-1.957-1.352-3.178
			S161.554,215.939,162.409,215.092z"/>
	</g>
	<path fill-rule="evenodd" clip-rule="evenodd" stroke="#000000" stroke-width="0.065" stroke-linejoin="round" d="M12.747,42.519
		c-0.041,0.027-0.07,0.041-0.117,0.072c-3.038,1.939-6.583,5.725-6.946,10.441c-0.173,2.244,1.263,3.798,3.117,3.832
		c1.185,0.021,2.137-0.399,2.653-1.203c0.429-0.668,0.538-1.699,0.607-1.223c0.25,1.816-0.511,3.562-0.922,5.088
		c0.459-0.167,1.035-0.251,1.613-0.253h0.01c0.576,0.002,1.152,0.086,1.61,0.253c-0.411-1.525-1.17-3.271-0.921-5.088
		c0.069-0.477,0.179,0.555,0.606,1.223c0.516,0.804,1.469,1.225,2.652,1.203c1.855-0.034,3.291-1.588,3.118-3.832
		c-0.364-4.717-3.908-8.502-6.943-10.441c-0.033-0.024-0.062-0.04-0.11-0.072H12.747z"/>
	<path fill-rule="evenodd" clip-rule="evenodd" stroke="#000000" stroke-width="0.065" stroke-linejoin="round" d="M165.819,206.922
		c-0.041-0.027-0.07-0.041-0.117-0.072c-3.039-1.939-6.584-5.725-6.947-10.441c-0.172-2.244,1.264-3.797,3.117-3.832
		c1.186-0.021,2.137,0.4,2.654,1.203c0.428,0.668,0.537,1.699,0.607,1.223c0.25-1.816-0.512-3.562-0.922-5.088
		c0.459,0.168,1.035,0.252,1.613,0.254h0.01c0.576-0.002,1.152-0.086,1.609-0.254c-0.41,1.525-1.17,3.271-0.92,5.088
		c0.068,0.477,0.178-0.555,0.605-1.223c0.516-0.803,1.469-1.225,2.652-1.203c1.855,0.035,3.291,1.588,3.119,3.832
		c-0.365,4.717-3.908,8.502-6.943,10.441c-0.033,0.025-0.062,0.04-0.111,0.072H165.819z"/>
	<path fill-rule="evenodd" clip-rule="evenodd" stroke="#000000" stroke-width="0.1625" stroke-linejoin="round" d="M46.041,25.51
		c-0.104,0.067-0.176,0.104-0.293,0.181c-7.596,4.85-16.457,14.311-17.365,26.104c-0.433,5.61,3.155,9.495,7.792,9.58
		c2.961,0.054,5.342-0.998,6.633-3.008c1.072-1.671,1.346-4.248,1.52-3.058c0.625,4.542-1.277,8.907-2.307,12.721
		c1.148-0.417,2.59-0.627,4.033-0.632h0.025c1.441,0.005,2.881,0.215,4.027,0.632c-1.029-3.813-2.928-8.179-2.303-12.721
		c0.172-1.19,0.445,1.387,1.516,3.058c1.289,2.01,3.67,3.062,6.631,3.008c4.639-0.085,8.227-3.97,7.795-9.58
		c-0.91-11.793-9.77-21.254-17.359-26.104c-0.082-0.062-0.154-0.1-0.273-0.181H46.041z"/>
	<path fill-rule="evenodd" clip-rule="evenodd" stroke="#000000" stroke-width="0.1625" stroke-linejoin="round" d="M132.497,25.51
		c-0.102,0.067-0.174,0.104-0.293,0.181c-7.596,4.85-16.455,14.311-17.363,26.104c-0.434,5.61,3.154,9.495,7.793,9.58
		c2.961,0.054,5.342-0.998,6.631-3.008c1.072-1.671,1.346-4.248,1.52-3.058c0.625,4.542-1.275,8.907-2.305,12.721
		c1.146-0.417,2.588-0.627,4.033-0.632h0.023c1.443,0.005,2.881,0.215,4.027,0.632c-1.027-3.813-2.926-8.179-2.303-12.721
		c0.174-1.19,0.447,1.387,1.518,3.058c1.289,2.01,3.67,3.062,6.631,3.008c4.639-0.085,8.225-3.97,7.793-9.58
		c-0.908-11.793-9.77-21.254-17.357-26.104c-0.084-0.062-0.156-0.1-0.275-0.181H132.497z"/>
	<path fill-rule="evenodd" clip-rule="evenodd" stroke="#000000" stroke-width="0.1625" stroke-linejoin="round" d="M89.267,66.613
		c-0.102,0.067-0.174,0.104-0.293,0.181c-7.594,4.85-16.455,14.311-17.363,26.104c-0.432,5.61,3.156,9.495,7.793,9.581
		c2.961,0.053,5.342-0.998,6.631-3.008c1.072-1.672,1.346-4.249,1.52-3.058c0.625,4.542-1.275,8.907-2.305,12.718
		c1.146-0.416,2.588-0.627,4.033-0.631h0.023c1.444,0.004,2.881,0.215,4.029,0.631c-1.028-3.812-2.927-8.176-2.304-12.718
		c0.174-1.19,0.447,1.386,1.518,3.058c1.29,2.01,3.671,3.061,6.632,3.008c4.639-0.086,8.225-3.971,7.793-9.581
		c-0.908-11.793-9.77-21.254-17.359-26.104c-0.084-0.062-0.156-0.1-0.275-0.181H89.267z"/>
	<path fill-rule="evenodd" clip-rule="evenodd" stroke="#000000" stroke-width="0.1625" stroke-linejoin="round" d="M46.041,103.463
		c-0.104,0.066-0.176,0.104-0.293,0.18c-7.596,4.849-16.457,14.308-17.365,26.1c-0.433,5.611,3.155,9.496,7.792,9.58
		c2.961,0.055,5.342-0.998,6.633-3.008c1.072-1.671,1.346-4.248,1.52-3.057c0.625,4.541-1.277,8.906-2.307,12.721
		c1.148-0.418,2.59-0.627,4.033-0.633h0.025c1.441,0.006,2.881,0.215,4.027,0.633c-1.029-3.814-2.928-8.18-2.303-12.721
		c0.172-1.191,0.445,1.386,1.516,3.057c1.289,2.01,3.67,3.062,6.631,3.008c4.639-0.084,8.227-3.969,7.795-9.58
		c-0.91-11.792-9.77-21.251-17.359-26.1c-0.082-0.062-0.154-0.1-0.273-0.18H46.041z"/>
	<path fill-rule="evenodd" clip-rule="evenodd" stroke="#000000" stroke-width="0.1625" stroke-linejoin="round" d="
		M129.663,103.463c-0.104,0.066-0.176,0.104-0.293,0.18c-7.596,4.849-16.457,14.308-17.365,26.1c-0.432,5.61,3.156,9.495,7.793,9.58
		c2.961,0.054,5.342-0.998,6.633-3.008c1.072-1.672,1.346-4.248,1.52-3.058c0.625,4.542-1.277,8.907-2.307,12.721
		c1.148-0.417,2.59-0.627,4.033-0.632h0.025c1.441,0.005,2.881,0.215,4.027,0.632c-1.029-3.813-2.928-8.179-2.303-12.721
		c0.172-1.19,0.445,1.386,1.516,3.058c1.289,2.01,3.67,3.062,6.631,3.008c4.639-0.085,8.227-3.97,7.795-9.58
		c-0.91-11.792-9.77-21.251-17.359-26.1c-0.082-0.061-0.154-0.099-0.273-0.18H129.663z"/>
	<path fill-rule="evenodd" clip-rule="evenodd" stroke="#000000" stroke-width="0.1625" stroke-linejoin="round" d="M89.267,182.829
		c-0.102-0.067-0.174-0.104-0.293-0.182c-7.596-4.849-16.455-14.31-17.363-26.104c-0.434-5.609,3.154-9.494,7.793-9.579
		c2.961-0.054,5.342,0.997,6.631,3.007c1.072,1.672,1.346,4.248,1.52,3.059c0.625-4.543-1.275-8.908-2.305-12.721
		c1.146,0.416,2.588,0.627,4.033,0.631h0.023c1.444-0.004,2.881-0.215,4.029-0.631c-1.028,3.812-2.927,8.178-2.304,12.721
		c0.174,1.189,0.447-1.387,1.518-3.059c1.29-2.01,3.671-3.061,6.632-3.007c4.639,0.085,8.225,3.97,7.793,9.579
		c-0.908,11.794-9.77,21.255-17.359,26.104c-0.084,0.062-0.156,0.1-0.275,0.182H89.267z"/>
	<path fill-rule="evenodd" clip-rule="evenodd" stroke="#000000" stroke-width="0.1625" stroke-linejoin="round" d="M46.039,223.93
		c-0.102-0.066-0.174-0.104-0.293-0.18c-7.596-4.85-16.455-14.311-17.363-26.104c-0.434-5.61,3.154-9.495,7.792-9.579
		c2.961-0.055,5.342,0.997,6.631,3.007c1.072,1.671,1.346,4.248,1.52,3.058c0.625-4.542-1.275-8.907-2.305-12.721
		c1.146,0.417,2.588,0.627,4.033,0.632h0.023c1.443-0.005,2.881-0.215,4.027-0.632c-1.027,3.813-2.926,8.179-2.303,12.721
		c0.174,1.19,0.447-1.387,1.518-3.058c1.289-2.01,3.67-3.062,6.631-3.007c4.639,0.084,8.225,3.969,7.793,9.579
		c-0.908,11.794-9.77,21.255-17.357,26.104c-0.084,0.061-0.156,0.099-0.275,0.18H46.039z"/>
	<path fill-rule="evenodd" clip-rule="evenodd" stroke="#000000" stroke-width="0.1625" stroke-linejoin="round" d="M132.497,223.93
		c-0.102-0.066-0.174-0.103-0.293-0.18c-7.596-4.85-16.455-14.311-17.363-26.104c-0.434-5.611,3.154-9.496,7.793-9.58
		c2.961-0.055,5.342,0.998,6.631,3.008c1.072,1.671,1.346,4.248,1.52,3.057c0.625-4.541-1.275-8.906-2.305-12.721
		c1.146,0.418,2.588,0.627,4.033,0.633h0.023c1.443-0.006,2.881-0.215,4.027-0.633c-1.027,3.814-2.926,8.18-2.303,12.721
		c0.174,1.191,0.447-1.386,1.518-3.057c1.289-2.01,3.67-3.062,6.631-3.008c4.639,0.084,8.225,3.969,7.793,9.58
		c-0.908,11.793-9.77,21.254-17.357,26.104c-0.084,0.062-0.156,0.1-0.275,0.18H132.497z"/>
</g>
<g id="jack">
</g>
<g id="queen">
</g>
<g id="king">
</g>
<g id="joker">
</g>
<g id="back">
</g>
</svg>
