<?xml version="1.0" encoding="utf-8"?>
<!-- Generator: Adobe Illustrator 16.0.4, SVG Export Plug-In . SVG Version: 6.00 Build 0)  -->
<!DOCTYPE svg PUBLIC "-//W3C//DTD SVG 1.1//EN" "http://www.w3.org/Graphics/SVG/1.1/DTD/svg11.dtd">
<svg version="1.1" xmlns="http://www.w3.org/2000/svg" xmlns:xlink="http://www.w3.org/1999/xlink" x="0px" y="0px"
	 width="178.583px" height="249.442px" viewBox="0 0 178.583 249.442" enable-background="new 0 0 178.583 249.442"
	 xml:space="preserve">
<g id="ace">
</g>
<g id="two">
</g>
<g id="three">
</g>
<g id="four">
</g>
<g id="five">
</g>
<g id="six">
</g>
<g id="seven">
</g>
<g id="eight">
</g>
<g id="nine">
	<g>
		<path fill="#F4F4F2" stroke="#000000" d="M178.583,235.27c0,7.828-6.346,14.174-14.174,14.174H14.173
			C6.346,249.444,0,243.098,0,235.27V14.171C0,6.344,6.346-0.002,14.173-0.002h150.236c7.828,0,14.174,6.346,14.174,14.173V235.27z"
			/>
		<g>
			<path fill="#E44145" d="M12.768,42.518c1.786,3.47,4.146,6.309,7.075,8.512c-2.93,2.207-5.289,5.039-7.075,8.496
				c-1.802-3.457-4.167-6.289-7.098-8.496C8.601,48.827,10.966,45.988,12.768,42.518L12.768,42.518z"/>
			<path fill="#E44145" d="M165.837,189.916c1.787,3.47,4.146,6.308,7.076,8.513c-2.93,2.206-5.289,5.038-7.076,8.495
				c-1.803-3.457-4.168-6.289-7.098-8.495C161.669,196.223,164.034,193.385,165.837,189.916L165.837,189.916z"/>
			<path fill="#E44145" d="M46.089,25.511c4.469,8.675,10.365,15.77,17.691,21.283c-7.326,5.517-13.223,12.595-17.691,21.236
				c-4.504-8.642-10.418-15.72-17.742-21.236C35.671,41.28,41.585,34.186,46.089,25.511L46.089,25.511z"/>
			<path fill="#E44145" d="M46.088,77.479c4.469,8.676,10.365,15.771,17.692,21.285c-7.327,5.516-13.224,12.595-17.692,21.232
				c-4.503-8.637-10.417-15.716-17.741-21.232C35.671,93.249,41.585,86.154,46.088,77.479L46.088,77.479z"/>
			<path fill="#E44145" d="M46.089,129.444c4.469,8.674,10.364,15.77,17.691,21.282c-7.327,5.517-13.223,12.597-17.691,21.237
				c-4.504-8.641-10.418-15.721-17.742-21.237C35.671,145.213,41.585,138.118,46.089,129.444L46.089,129.444z"/>
			<path fill="#E44145" d="M46.089,181.412c4.469,8.674,10.365,15.769,17.691,21.282c-7.326,5.518-13.223,12.597-17.691,21.237
				c-4.504-8.641-10.418-15.72-17.742-21.237C35.671,197.18,41.585,190.085,46.089,181.412L46.089,181.412z"/>
			<path fill="#E44145" d="M132.544,25.51c4.469,8.675,10.365,15.77,17.691,21.283c-7.326,5.517-13.223,12.595-17.691,21.236
				c-4.502-8.642-10.416-15.72-17.74-21.236C122.128,41.279,128.042,34.185,132.544,25.51L132.544,25.51z"/>
			<path fill="#E44145" d="M132.544,77.479c4.469,8.674,10.365,15.77,17.691,21.284c-7.326,5.516-13.223,12.595-17.691,21.232
				c-4.502-8.637-10.418-15.716-17.74-21.232C122.126,93.248,128.042,86.153,132.544,77.479L132.544,77.479z"/>
			<path fill="#E44145" d="M132.544,129.443c4.469,8.675,10.365,15.77,17.691,21.282c-7.326,5.518-13.223,12.597-17.691,21.238
				c-4.502-8.642-10.416-15.721-17.74-21.238C122.128,145.212,128.042,138.118,132.544,129.443L132.544,129.443z"/>
			<path fill="#E44145" d="M132.544,181.412c4.469,8.674,10.365,15.769,17.691,21.282c-7.326,5.518-13.223,12.597-17.691,21.237
				c-4.502-8.641-10.416-15.72-17.74-21.237C122.128,197.18,128.042,190.085,132.544,181.412L132.544,181.412z"/>
			<path fill="#E44145" d="M89.315,103.462c4.471,8.684,10.365,15.784,17.691,21.292c-7.326,5.512-13.221,12.587-17.691,21.224
				c-4.502-8.637-10.416-15.712-17.74-21.224C78.899,119.246,84.813,112.146,89.315,103.462L89.315,103.462z"/>
			<path fill="none" d="M12.806,16.463c-0.746,0.001-1.395,0.168-1.967,0.463s-1.068,0.721-1.486,1.262
				c-0.834,1.079-1.34,2.634-1.338,4.377c-0.002,1.306,0.271,2.479,0.748,3.415c0.479,0.937,1.148,1.636,1.996,2.06
				c0.566,0.282,1.221,0.444,1.982,0.444c0.014,0,0.031,0,0.055,0c0.742-0.009,1.385-0.186,1.949-0.489
				c0.566-0.306,1.057-0.743,1.469-1.296c0.826-1.104,1.32-2.691,1.32-4.441c-0.002-1.732-0.52-3.188-1.35-4.195
				C15.349,17.059,14.222,16.47,12.806,16.463z"/>
			<path fill="#E44145" d="M19.647,21.546c-0.127-1.936-0.775-3.681-1.857-4.997c-1.205-1.473-2.973-2.378-4.971-2.378
				c-0.006,0-0.014,0-0.02,0c-1.053,0-2.035,0.244-2.9,0.691c-1.299,0.671-2.318,1.785-3,3.128c-0.682,1.345-1.037,2.921-1.039,4.58
				c0.002,2.189,0.605,4.223,1.791,5.744c0.594,0.76,1.334,1.385,2.195,1.813s1.838,0.659,2.889,0.658c0.027,0,0.055,0,0.074,0
				c1.055-0.01,2.037-0.271,2.896-0.735c0.73-0.394,1.363-0.933,1.9-1.568c-0.068,1.604-0.326,3.524-1.059,4.932
				c-0.383,0.739-0.873,1.338-1.539,1.771c-0.666,0.431-1.535,0.716-2.752,0.718c-0.887-0.001-1.58-0.208-2.156-0.512
				c-0.859-0.454-1.463-1.153-1.85-1.751c-0.193-0.298-0.328-0.567-0.414-0.753c-0.041-0.093-0.07-0.165-0.088-0.211
				c-0.01-0.021-0.016-0.037-0.018-0.045l-0.025,0.011l-2.037,0.792c0.033,0.089,0.416,1.233,1.428,2.423
				c0.506,0.594,1.176,1.197,2.037,1.653c0.859,0.456,1.91,0.755,3.123,0.754c0.004,0,0.01,0,0.014,0
				c1.533,0,2.832-0.382,3.869-1.057c0.781-0.505,1.404-1.167,1.887-1.897c0.723-1.098,1.141-2.34,1.396-3.549
				c0.254-1.21,0.348-2.397,0.385-3.409c0.025-0.707,0.035-1.394,0.035-2.042C19.843,23.929,19.677,21.881,19.647,21.546z
				 M16.208,26.704c-0.412,0.554-0.902,0.991-1.469,1.296c-0.564,0.304-1.207,0.48-1.949,0.489c-0.023,0-0.041,0-0.055,0
				c-0.762,0-1.416-0.163-1.982-0.444c-0.848-0.423-1.518-1.123-1.996-2.06c-0.477-0.936-0.75-2.109-0.748-3.415
				c-0.002-1.743,0.504-3.298,1.338-4.377c0.418-0.541,0.914-0.967,1.486-1.262s1.221-0.462,1.967-0.463
				c1.416,0.006,2.543,0.595,3.379,1.6c0.83,1.006,1.348,2.462,1.35,4.195C17.528,24.013,17.034,25.6,16.208,26.704z"/>
			<path fill="#E44145" d="M158.935,227.895c0.127,1.936,0.775,3.681,1.857,4.997c1.205,1.473,2.973,2.378,4.971,2.378
				c0.006,0,0.014,0,0.02,0c1.053,0,2.035-0.244,2.9-0.691c1.299-0.671,2.318-1.785,3-3.129s1.037-2.921,1.039-4.579
				c-0.002-2.188-0.605-4.223-1.791-5.744c-0.594-0.76-1.334-1.385-2.195-1.813s-1.838-0.659-2.889-0.658c-0.027,0-0.055,0-0.074,0
				c-1.055,0.01-2.037,0.271-2.896,0.735c-0.73,0.394-1.363,0.933-1.9,1.568c0.068-1.604,0.326-3.524,1.059-4.932
				c0.383-0.739,0.873-1.338,1.539-1.771c0.666-0.431,1.535-0.716,2.752-0.718c0.887,0.001,1.58,0.209,2.156,0.512
				c0.859,0.453,1.463,1.153,1.85,1.751c0.193,0.298,0.328,0.567,0.414,0.753c0.041,0.093,0.07,0.165,0.088,0.211
				c0.01,0.021,0.016,0.037,0.018,0.045l0.025-0.011l2.037-0.792c-0.033-0.09-0.416-1.233-1.428-2.424
				c-0.506-0.594-1.176-1.197-2.037-1.653c-0.859-0.456-1.91-0.755-3.123-0.754c-0.004,0-0.01,0-0.014,0
				c-1.533,0-2.832,0.382-3.869,1.057c-0.781,0.505-1.404,1.167-1.887,1.897c-0.723,1.098-1.141,2.34-1.396,3.549
				c-0.254,1.211-0.348,2.397-0.385,3.409c-0.025,0.706-0.035,1.394-0.035,2.042C158.739,225.512,158.905,227.56,158.935,227.895z
				 M162.374,222.737c0.412-0.553,0.902-0.99,1.469-1.296c0.564-0.304,1.207-0.48,1.949-0.489c0.023,0,0.041,0,0.055,0
				c0.762,0,1.416,0.162,1.982,0.444c0.848,0.423,1.518,1.122,1.996,2.06c0.477,0.936,0.75,2.109,0.748,3.415
				c0.002,1.743-0.504,3.298-1.338,4.377c-0.418,0.541-0.914,0.967-1.486,1.262s-1.221,0.462-1.967,0.464
				c-1.416-0.007-2.543-0.596-3.379-1.6c-0.83-1.007-1.348-2.463-1.35-4.195C161.054,225.428,161.548,223.841,162.374,222.737z"/>
		</g>
	</g>
</g>
<g id="ten">
</g>
<g id="jack">
</g>
<g id="queen">
</g>
<g id="king">
</g>
<g id="jolly">
</g>
<g id="back">
</g>
</svg>
