<?xml version="1.0" encoding="utf-8"?>
<!-- Generator: Adobe Illustrator 16.0.4, SVG Export Plug-In . SVG Version: 6.00 Build 0)  -->
<!DOCTYPE svg PUBLIC "-//W3C//DTD SVG 1.1//EN" "http://www.w3.org/Graphics/SVG/1.1/DTD/svg11.dtd">
<svg version="1.1" xmlns="http://www.w3.org/2000/svg" xmlns:xlink="http://www.w3.org/1999/xlink" x="0px" y="0px"
	 width="178.583px" height="249.445px" viewBox="0 0 178.583 249.445" enable-background="new 0 0 178.583 249.445"
	 xml:space="preserve">
<g id="ace">
</g>
<g id="two">
</g>
<g id="three">
</g>
<g id="four">
</g>
<g id="five">
</g>
<g id="six">
</g>
<g id="seven">
</g>
<g id="eight">
</g>
<g id="nine">
	<g>
		<path fill="#F4F4F2" stroke="#000000" d="M178.583,235.274c0,7.828-6.346,14.174-14.174,14.174H14.173
			C6.346,249.448,0,243.103,0,235.274V14.173C0,6.345,6.346-0.001,14.173-0.001h150.236c7.828,0,14.174,6.346,14.174,14.174V235.274
			z"/>
		<g>
			<path fill="#E44145" d="M16.73,42.618c-1.247-0.387-3.187,0.294-3.899,3.122c-0.06,0.155-0.121,0.151-0.178-0.005
				c-1.029-2.865-2.723-3.491-3.914-3.117c-1.762,0.569-3.193,2.673-3.061,5.356c0.033,4.685,4.225,7.044,7.057,11.522
				c2.831-4.479,7.068-6.832,7.082-11.535C20.062,45.249,18.543,43.177,16.73,42.618z"/>
			<path fill="#E44145" d="M12.755,59.526c-0.006-0.01-0.014-0.02-0.02-0.029c-0.006,0.01-0.014,0.02-0.02,0.029H12.755z"/>
		</g>
		<g>
			<path fill="#E44145" d="M165.85,189.95c-2.832,4.477-7.071,6.83-7.083,11.535c-0.244,2.711,1.271,4.783,3.086,5.344
				c1.248,0.387,3.189-0.297,3.902-3.123c0.059-0.156,0.121-0.152,0.178,0.004c1.025,2.867,2.723,3.492,3.912,3.119
				c1.768-0.57,3.195-2.674,3.061-5.357C172.874,196.786,168.682,194.427,165.85,189.95z"/>
			<path fill="#E44145" d="M165.829,189.919c0.007,0.012,0.014,0.021,0.021,0.031c0.007-0.01,0.014-0.02,0.021-0.031H165.829z"/>
		</g>
		<g>
			<path fill="#E44145" d="M55.997,22.925c-3.117-0.968-7.965,0.735-9.746,7.805c-0.148,0.387-0.303,0.378-0.443-0.014
				c-2.57-7.162-6.805-8.728-9.783-7.792c-4.41,1.422-7.984,6.681-7.657,13.391c0.088,11.71,10.565,17.606,17.644,28.804
				c7.078-11.196,17.674-17.077,17.703-28.837C64.327,29.502,60.532,24.322,55.997,22.925z"/>
			<path fill="#E44145" d="M46.06,65.196c-0.016-0.025-0.033-0.051-0.049-0.076c-0.016,0.025-0.033,0.051-0.049,0.076H46.06z"/>
		</g>
		<g>
			<path fill="#E44145" d="M46.06,118.108c-0.016-0.025-0.033-0.05-0.049-0.075c-0.016,0.025-0.033,0.05-0.049,0.075H46.06z"/>
			<path fill="#E44145" d="M55.997,75.838c-3.117-0.968-7.965,0.736-9.746,7.806c-0.148,0.387-0.303,0.378-0.444-0.014
				c-2.569-7.162-6.804-8.728-9.782-7.792c-4.41,1.423-7.984,6.682-7.657,13.392c0.087,11.711,10.565,17.607,17.644,28.804
				c7.078-11.196,17.674-17.077,17.703-28.837C64.327,82.415,60.532,77.235,55.997,75.838z"/>
		</g>
		<g>
			<path fill="#E44145" d="M46.067,181.415c0.016,0.023,0.031,0.047,0.047,0.072c0.016-0.025,0.031-0.049,0.047-0.072H46.067z"/>
			<path fill="#E44145" d="M63.759,210.296c-0.088-11.713-10.568-17.609-17.645-28.809c-7.074,11.199-17.674,17.08-17.703,28.842
				c-0.612,6.779,3.183,11.961,7.717,13.357c3.119,0.967,7.967-0.736,9.746-7.805c0.147-0.389,0.305-0.379,0.447,0.014
				c2.568,7.162,6.804,8.727,9.781,7.791C60.513,222.265,64.087,217.005,63.759,210.296z"/>
		</g>
		<g>
			<path fill="#E44145" d="M46.067,128.503c0.016,0.023,0.031,0.047,0.047,0.072c0.016-0.025,0.031-0.049,0.047-0.072H46.067z"/>
			<path fill="#E44145" d="M63.759,157.382c-0.088-11.713-10.568-17.609-17.645-28.807c-7.074,11.197-17.674,17.078-17.703,28.84
				c-0.612,6.781,3.183,11.961,7.717,13.357c3.119,0.969,7.967-0.736,9.746-7.805c0.146-0.387,0.305-0.379,0.447,0.014
				c2.568,7.164,6.804,8.729,9.781,7.791C60.513,169.351,64.087,164.093,63.759,157.382z"/>
		</g>
		<g>
			<path fill="#E44145" d="M132.517,65.196c-0.016-0.025-0.033-0.051-0.049-0.076c-0.016,0.025-0.033,0.051-0.049,0.076H132.517z"/>
			<path fill="#E44145" d="M142.454,22.925c-3.117-0.968-7.965,0.736-9.746,7.806c-0.145,0.386-0.303,0.377-0.447-0.014
				c-2.566-7.162-6.805-8.728-9.779-7.792c-4.412,1.423-7.986,6.682-7.658,13.392c0.092,11.71,10.566,17.606,17.645,28.804
				c7.078-11.196,17.67-17.076,17.703-28.837C150.782,29.502,146.989,24.322,142.454,22.925z"/>
		</g>
		<g>
			<path fill="#E44145" d="M132.517,118.109c-0.016-0.025-0.033-0.05-0.049-0.075c-0.016,0.025-0.033,0.05-0.049,0.075H132.517z"/>
			<path fill="#E44145" d="M142.454,75.838c-3.117-0.968-7.965,0.736-9.746,7.807c-0.145,0.387-0.303,0.377-0.447-0.015
				c-2.566-7.162-6.805-8.727-9.779-7.792c-4.412,1.423-7.986,6.682-7.658,13.392c0.092,11.711,10.566,17.607,17.645,28.805
				c7.078-11.196,17.67-17.078,17.703-28.838C150.782,82.416,146.989,77.235,142.454,75.838z"/>
		</g>
		<g>
			<path fill="#E44145" d="M132.522,181.415c0.016,0.025,0.033,0.049,0.049,0.074c0.016-0.025,0.033-0.049,0.049-0.074H132.522z"/>
			<path fill="#E44145" d="M150.216,210.296c-0.092-11.711-10.566-17.607-17.645-28.807c-7.076,11.199-17.676,17.078-17.703,28.84
				c-0.615,6.781,3.182,11.959,7.719,13.357c3.115,0.969,7.963-0.736,9.746-7.805c0.145-0.389,0.301-0.379,0.439,0.014
				c2.572,7.162,6.805,8.727,9.785,7.791C146.966,222.265,150.538,217.005,150.216,210.296z"/>
		</g>
		<g>
			<path fill="#E44145" d="M150.216,157.382c-0.092-11.711-10.566-17.607-17.645-28.805c-7.076,11.197-17.676,17.078-17.703,28.838
				c-0.615,6.781,3.182,11.961,7.719,13.357c3.115,0.969,7.963-0.736,9.746-7.805c0.145-0.387,0.301-0.379,0.439,0.014
				c2.572,7.164,6.805,8.729,9.785,7.791C146.966,169.351,150.538,164.093,150.216,157.382z"/>
			<path fill="#E44145" d="M132.522,128.503c0.016,0.025,0.033,0.049,0.049,0.074c0.016-0.025,0.033-0.049,0.049-0.074H132.522z"/>
		</g>
		<g>
			<path fill="#E44145" d="M89.282,145.983c-0.016-0.025-0.031-0.049-0.047-0.072c-0.016,0.023-0.031,0.047-0.047,0.072H89.282z"/>
			<path fill="#E44145" d="M99.226,103.712c-3.117-0.968-7.969,0.736-9.748,7.806c-0.15,0.386-0.305,0.378-0.447-0.015
				c-2.568-7.162-6.803-8.727-9.779-7.791c-4.41,1.423-7.984,6.681-7.654,13.391c0.088,11.713,10.567,17.609,17.639,28.809
				c7.08-11.199,17.676-17.078,17.707-28.842C107.552,110.288,103.757,105.108,99.226,103.712z"/>
		</g>
		<path fill="#E44145" d="M19.647,21.547c-0.127-1.936-0.775-3.681-1.857-4.997c-1.205-1.473-2.973-2.378-4.971-2.378
			c-0.006,0-0.014,0-0.02,0c-1.053,0-2.035,0.244-2.9,0.691c-1.299,0.671-2.318,1.785-3,3.128c-0.682,1.345-1.037,2.921-1.039,4.58
			c0.002,2.189,0.605,4.223,1.791,5.744c0.594,0.76,1.334,1.385,2.195,1.813s1.838,0.659,2.889,0.658c0.027,0,0.055,0,0.074,0
			c1.055-0.01,2.037-0.271,2.896-0.735c0.73-0.394,1.363-0.933,1.9-1.568c-0.068,1.604-0.326,3.524-1.059,4.932
			c-0.383,0.739-0.873,1.338-1.539,1.771c-0.666,0.431-1.535,0.716-2.752,0.718c-0.887-0.001-1.58-0.208-2.156-0.512
			c-0.859-0.454-1.463-1.153-1.85-1.751c-0.193-0.298-0.328-0.567-0.414-0.753c-0.041-0.093-0.07-0.165-0.088-0.211
			c-0.01-0.021-0.016-0.037-0.018-0.045l-0.025,0.011l-2.037,0.792c0.033,0.089,0.416,1.233,1.428,2.423
			c0.506,0.594,1.176,1.197,2.037,1.653c0.859,0.456,1.91,0.755,3.123,0.754c0.004,0,0.01,0,0.014,0
			c1.533,0,2.832-0.382,3.869-1.057c0.781-0.505,1.404-1.167,1.887-1.897c0.723-1.098,1.141-2.34,1.396-3.549
			c0.254-1.21,0.348-2.397,0.385-3.409c0.025-0.707,0.035-1.394,0.035-2.042C19.843,23.93,19.677,21.882,19.647,21.547z
			 M16.208,26.705c-0.412,0.554-0.902,0.991-1.469,1.296c-0.564,0.304-1.207,0.48-1.949,0.489c-0.023,0-0.041,0-0.055,0
			c-0.762,0-1.416-0.163-1.982-0.444c-0.848-0.423-1.518-1.123-1.996-2.06c-0.477-0.936-0.75-2.109-0.748-3.415
			c-0.002-1.743,0.504-3.298,1.338-4.377c0.418-0.541,0.914-0.967,1.486-1.262s1.221-0.462,1.967-0.463
			c1.416,0.006,2.543,0.595,3.379,1.6c0.83,1.006,1.348,2.462,1.35,4.195C17.528,24.014,17.034,25.601,16.208,26.705z"/>
		<path fill="#E44145" d="M158.935,227.899c0.127,1.936,0.773,3.68,1.857,4.996c1.205,1.473,2.971,2.379,4.969,2.379
			c0.006,0,0.014,0,0.021,0c1.051,0,2.035-0.244,2.9-0.691c1.299-0.672,2.318-1.785,3-3.129s1.037-2.922,1.039-4.58
			c-0.002-2.188-0.605-4.223-1.791-5.744c-0.594-0.76-1.334-1.385-2.195-1.812c-0.861-0.43-1.838-0.66-2.889-0.658
			c-0.029,0-0.055,0-0.076,0c-1.055,0.01-2.035,0.27-2.895,0.734c-0.73,0.395-1.363,0.934-1.9,1.568
			c0.068-1.604,0.324-3.523,1.059-4.932c0.383-0.738,0.873-1.338,1.537-1.771c0.668-0.43,1.537-0.715,2.754-0.717
			c0.885,0,1.58,0.209,2.156,0.512c0.859,0.453,1.463,1.152,1.85,1.75c0.191,0.299,0.328,0.568,0.412,0.754
			c0.043,0.092,0.072,0.164,0.09,0.211c0.01,0.021,0.016,0.037,0.018,0.045l0.025-0.012l2.037-0.791
			c-0.033-0.09-0.416-1.234-1.428-2.424c-0.506-0.594-1.178-1.197-2.037-1.654c-0.859-0.455-1.91-0.754-3.123-0.754
			c-0.006,0-0.01,0-0.014,0c-1.535,0-2.832,0.383-3.869,1.057c-0.781,0.506-1.404,1.168-1.887,1.898
			c-0.723,1.098-1.141,2.34-1.396,3.549c-0.254,1.211-0.348,2.396-0.385,3.408c-0.025,0.707-0.035,1.395-0.035,2.043
			C158.739,225.517,158.905,227.563,158.935,227.899z M162.372,222.741c0.414-0.553,0.904-0.99,1.471-1.297
			c0.564-0.303,1.207-0.48,1.949-0.488c0.021,0,0.039,0,0.055,0c0.762,0,1.416,0.162,1.98,0.443c0.85,0.424,1.518,1.123,1.998,2.061
			c0.477,0.936,0.75,2.109,0.748,3.414c0.002,1.744-0.504,3.299-1.338,4.377c-0.418,0.541-0.916,0.967-1.488,1.262
			s-1.219,0.463-1.965,0.465c-1.418-0.008-2.543-0.596-3.379-1.6c-0.83-1.008-1.348-2.463-1.35-4.195
			C161.052,225.433,161.548,223.845,162.372,222.741z"/>
	</g>
</g>
<g id="ten">
</g>
<g id="jack">
</g>
<g id="queen">
</g>
<g id="king">
</g>
<g id="jolly">
</g>
<g id="back">
</g>
</svg>
