<?xml version="1.0" encoding="utf-8"?>
<!-- Generator: Adobe Illustrator 16.0.4, SVG Export Plug-In . SVG Version: 6.00 Build 0)  -->
<!DOCTYPE svg PUBLIC "-//W3C//DTD SVG 1.1//EN" "http://www.w3.org/Graphics/SVG/1.1/DTD/svg11.dtd">
<svg version="1.1" xmlns="http://www.w3.org/2000/svg" xmlns:xlink="http://www.w3.org/1999/xlink" x="0px" y="0px"
	 width="178.584px" height="249.44px" viewBox="0 0 178.584 249.44" enable-background="new 0 0 178.584 249.44"
	 xml:space="preserve">
<g id="ace">
</g>
<g id="two">
</g>
<g id="three">
</g>
<g id="four">
</g>
<g id="five">
</g>
<g id="six">
</g>
<g id="seven">
</g>
<g id="eight">
</g>
<g id="nine">
	<path fill="#F4F4F2" stroke="#000000" d="M178.584,235.27c0,7.827-6.346,14.173-14.174,14.173H14.174
		C6.346,249.443,0,243.097,0,235.27V14.172C0,6.344,6.346-0.001,14.174-0.001H164.41c7.828,0,14.174,6.346,14.174,14.174V235.27z"/>
	<g>
		<path fill="none" d="M12.801,16.47c-0.746,0.001-1.395,0.168-1.967,0.463s-1.069,0.721-1.486,1.262
			c-0.835,1.079-1.34,2.634-1.339,4.377c-0.001,1.306,0.271,2.479,0.748,3.415c0.479,0.938,1.148,1.637,1.997,2.06
			c0.565,0.282,1.22,0.444,1.981,0.444c0.015,0,0.032,0,0.055,0c0.742-0.009,1.385-0.186,1.95-0.489
			c0.565-0.306,1.056-0.742,1.469-1.296c0.825-1.104,1.32-2.691,1.319-4.441c-0.001-1.732-0.52-3.188-1.349-4.194
			C15.344,17.065,14.217,16.476,12.801,16.47z"/>
		<path d="M19.647,21.547c-0.127-1.936-0.774-3.681-1.857-4.997c-1.205-1.473-2.972-2.378-4.97-2.378c-0.006,0-0.014,0-0.02,0
			c-1.053,0-2.035,0.244-2.901,0.691c-1.299,0.671-2.318,1.785-2.999,3.129c-0.683,1.345-1.038,2.921-1.039,4.579
			c0.001,2.189,0.604,4.223,1.791,5.744c0.593,0.76,1.334,1.385,2.194,1.813c0.861,0.429,1.839,0.659,2.889,0.658
			c0.028,0,0.055,0,0.075,0c1.055-0.01,2.037-0.271,2.896-0.735c0.73-0.394,1.363-0.933,1.9-1.568
			c-0.068,1.604-0.325,3.524-1.059,4.932c-0.383,0.739-0.872,1.338-1.538,1.771c-0.667,0.431-1.535,0.716-2.752,0.718
			c-0.887-0.001-1.581-0.208-2.157-0.512c-0.859-0.453-1.463-1.153-1.85-1.751c-0.192-0.298-0.328-0.566-0.413-0.753
			c-0.042-0.093-0.071-0.165-0.089-0.211c-0.01-0.021-0.016-0.037-0.018-0.045l-0.025,0.011L5.67,33.437
			c0.032,0.089,0.416,1.232,1.428,2.423c0.506,0.594,1.176,1.197,2.036,1.653s1.91,0.755,3.124,0.754c0.004,0,0.009,0,0.013,0
			c1.534,0,2.833-0.382,3.87-1.057c0.78-0.505,1.403-1.167,1.886-1.897c0.723-1.098,1.141-2.34,1.396-3.549
			c0.255-1.211,0.348-2.397,0.385-3.409c0.025-0.706,0.035-1.394,0.035-2.042C19.843,23.93,19.677,21.882,19.647,21.547z
			 M16.209,26.706c-0.413,0.554-0.903,0.99-1.469,1.296c-0.565,0.304-1.208,0.48-1.95,0.489c-0.022,0-0.04,0-0.055,0
			c-0.762,0-1.416-0.162-1.981-0.444c-0.849-0.423-1.518-1.122-1.997-2.06c-0.477-0.936-0.749-2.109-0.748-3.415
			c-0.001-1.743,0.504-3.298,1.339-4.377c0.417-0.541,0.914-0.967,1.486-1.262s1.221-0.462,1.967-0.463
			c1.416,0.006,2.543,0.595,3.379,1.6c0.829,1.006,1.348,2.462,1.349,4.194C17.529,24.014,17.034,25.601,16.209,26.706z"/>
	</g>
	<g>
		<path fill="none" d="M165.783,232.972c0.746-0.001,1.395-0.168,1.967-0.463c0.572-0.296,1.068-0.722,1.486-1.263
			c0.834-1.078,1.34-2.633,1.338-4.377c0.002-1.305-0.271-2.479-0.748-3.414c-0.479-0.938-1.148-1.637-1.996-2.061
			c-0.566-0.281-1.221-0.443-1.982-0.443c-0.014,0-0.031,0-0.055,0c-0.742,0.009-1.385,0.186-1.949,0.489
			c-0.566,0.306-1.057,0.742-1.469,1.296c-0.826,1.104-1.32,2.691-1.32,4.441c0.002,1.732,0.52,3.188,1.35,4.194
			C163.24,232.377,164.367,232.966,165.783,232.972z"/>
		<path d="M158.936,227.895c0.127,1.936,0.775,3.681,1.857,4.997c1.205,1.473,2.973,2.378,4.971,2.378c0.006,0,0.014,0,0.02,0
			c1.053,0,2.035-0.244,2.9-0.691c1.299-0.671,2.318-1.785,3-3.129c0.682-1.345,1.037-2.921,1.039-4.58
			c-0.002-2.188-0.605-4.222-1.791-5.744c-0.594-0.759-1.334-1.384-2.195-1.812c-0.861-0.43-1.838-0.659-2.889-0.658
			c-0.027,0-0.055,0-0.074,0c-1.055,0.01-2.037,0.271-2.896,0.734c-0.73,0.395-1.363,0.934-1.9,1.569
			c0.068-1.604,0.326-3.524,1.059-4.932c0.383-0.739,0.873-1.339,1.539-1.771c0.666-0.431,1.535-0.716,2.752-0.718
			c0.887,0.001,1.58,0.208,2.156,0.512c0.859,0.453,1.463,1.152,1.85,1.751c0.193,0.298,0.328,0.566,0.414,0.753
			c0.041,0.092,0.07,0.165,0.088,0.211c0.01,0.021,0.016,0.037,0.018,0.045l0.025-0.011l2.037-0.793
			c-0.033-0.089-0.416-1.232-1.428-2.423c-0.506-0.594-1.176-1.197-2.037-1.653c-0.859-0.456-1.91-0.755-3.123-0.754
			c-0.004,0-0.01,0-0.014,0c-1.533,0-2.832,0.382-3.869,1.056c-0.781,0.506-1.404,1.168-1.887,1.898
			c-0.723,1.098-1.141,2.34-1.396,3.549c-0.254,1.211-0.348,2.396-0.385,3.408c-0.025,0.707-0.035,1.395-0.035,2.043
			C158.74,225.512,158.906,227.56,158.936,227.895z M162.375,222.737c0.412-0.554,0.902-0.99,1.469-1.296
			c0.564-0.304,1.207-0.48,1.949-0.489c0.023,0,0.041,0,0.055,0c0.762,0,1.416,0.162,1.982,0.443
			c0.848,0.424,1.518,1.123,1.996,2.061c0.477,0.936,0.75,2.109,0.748,3.414c0.002,1.744-0.504,3.299-1.338,4.377
			c-0.418,0.541-0.914,0.967-1.486,1.263c-0.572,0.295-1.221,0.462-1.967,0.463c-1.416-0.006-2.543-0.595-3.379-1.6
			c-0.83-1.006-1.348-2.462-1.35-4.194C161.055,225.428,161.549,223.841,162.375,222.737z"/>
	</g>
	<path fill-rule="evenodd" clip-rule="evenodd" stroke="#000000" stroke-width="0.065" stroke-linejoin="round" d="M12.747,42.518
		c-0.041,0.027-0.07,0.041-0.117,0.072c-3.038,1.939-6.583,5.725-6.946,10.441c-0.173,2.244,1.263,3.798,3.118,3.832
		c1.184,0.021,2.137-0.399,2.652-1.203c0.429-0.668,0.538-1.699,0.607-1.223c0.25,1.816-0.511,3.562-0.922,5.088
		c0.459-0.167,1.035-0.251,1.613-0.253h0.01c0.577,0.002,1.152,0.086,1.61,0.253c-0.411-1.525-1.17-3.271-0.921-5.088
		c0.069-0.477,0.179,0.555,0.606,1.223c0.516,0.804,1.469,1.225,2.652,1.203c1.855-0.034,3.291-1.588,3.118-3.832
		c-0.363-4.717-3.908-8.502-6.943-10.441c-0.033-0.024-0.062-0.04-0.11-0.072H12.747z"/>
	<path fill-rule="evenodd" clip-rule="evenodd" stroke="#000000" stroke-width="0.065" stroke-linejoin="round" d="M165.818,206.922
		c-0.041-0.026-0.07-0.041-0.117-0.072c-3.039-1.939-6.584-5.724-6.947-10.441c-0.172-2.244,1.264-3.797,3.119-3.832
		c1.184-0.021,2.137,0.4,2.652,1.203c0.428,0.669,0.537,1.699,0.607,1.223c0.25-1.816-0.512-3.562-0.922-5.088
		c0.459,0.168,1.035,0.252,1.613,0.254h0.01c0.576-0.002,1.152-0.086,1.609-0.254c-0.41,1.525-1.17,3.271-0.92,5.088
		c0.068,0.477,0.178-0.554,0.605-1.223c0.516-0.803,1.469-1.225,2.652-1.203c1.855,0.035,3.291,1.588,3.119,3.832
		c-0.363,4.718-3.908,8.502-6.943,10.441c-0.033,0.025-0.062,0.041-0.111,0.072H165.818z"/>
	<path fill-rule="evenodd" clip-rule="evenodd" stroke="#000000" stroke-width="0.1625" stroke-linejoin="round" d="M46.039,25.511
		c-0.102,0.066-0.174,0.103-0.293,0.181c-7.595,4.849-16.456,14.31-17.364,26.104c-0.432,5.61,3.155,9.495,7.794,9.579
		c2.961,0.055,5.342-0.997,6.632-3.007c1.072-1.672,1.346-4.248,1.52-3.058c0.625,4.542-1.277,8.907-2.307,12.721
		c1.147-0.417,2.59-0.627,4.034-0.632h0.023c1.442,0.005,2.882,0.215,4.027,0.632c-1.027-3.813-2.926-8.179-2.303-12.721
		c0.174-1.19,0.446,1.386,1.517,3.058c1.289,2.01,3.671,3.062,6.631,3.007c4.639-0.084,8.227-3.969,7.794-9.579
		c-0.908-11.794-9.77-21.255-17.358-26.104c-0.082-0.062-0.155-0.1-0.274-0.181H46.039z"/>
	<path fill-rule="evenodd" clip-rule="evenodd" stroke="#000000" stroke-width="0.1625" stroke-linejoin="round" d="M132.496,25.511
		c-0.102,0.066-0.174,0.103-0.293,0.181c-7.596,4.849-16.457,14.31-17.365,26.104c-0.432,5.61,3.156,9.495,7.795,9.579
		c2.961,0.055,5.342-0.997,6.631-3.007c1.072-1.672,1.346-4.248,1.52-3.058c0.625,4.542-1.277,8.907-2.307,12.721
		c1.148-0.417,2.59-0.627,4.035-0.632h0.023c1.441,0.005,2.881,0.215,4.027,0.632c-1.027-3.813-2.926-8.179-2.303-12.721
		c0.174-1.19,0.445,1.386,1.516,3.058c1.289,2.01,3.672,3.062,6.631,3.007c4.639-0.084,8.227-3.969,7.795-9.579
		c-0.908-11.794-9.77-21.255-17.359-26.104c-0.082-0.062-0.154-0.1-0.273-0.181H132.496z"/>
	<path fill-rule="evenodd" clip-rule="evenodd" stroke="#000000" stroke-width="0.1625" stroke-linejoin="round" d="M46.039,77.479
		c-0.102,0.067-0.174,0.104-0.293,0.181c-7.595,4.85-16.456,14.311-17.364,26.104c-0.432,5.608,3.155,9.493,7.794,9.577
		c2.961,0.055,5.342-0.998,6.632-3.006c1.072-1.672,1.346-4.248,1.52-3.059c0.625,4.541-1.277,8.905-2.307,12.719
		c1.147-0.418,2.59-0.627,4.034-0.633h0.023c1.442,0.006,2.882,0.215,4.027,0.633c-1.027-3.813-2.926-8.178-2.303-12.719
		c0.174-1.189,0.446,1.387,1.517,3.059c1.289,2.008,3.671,3.061,6.631,3.006c4.639-0.084,8.227-3.969,7.794-9.577
		c-0.908-11.793-9.77-21.254-17.358-26.104c-0.082-0.062-0.155-0.099-0.274-0.181H46.039z"/>
	<path fill-rule="evenodd" clip-rule="evenodd" stroke="#000000" stroke-width="0.1625" stroke-linejoin="round" d="M132.496,77.479
		c-0.102,0.067-0.174,0.104-0.293,0.181c-7.596,4.85-16.457,14.311-17.365,26.104c-0.432,5.608,3.156,9.493,7.795,9.577
		c2.961,0.055,5.342-0.998,6.631-3.006c1.072-1.672,1.346-4.248,1.52-3.059c0.625,4.541-1.277,8.905-2.307,12.719
		c1.148-0.418,2.59-0.627,4.035-0.633h0.023c1.441,0.006,2.881,0.215,4.027,0.633c-1.027-3.813-2.926-8.178-2.303-12.719
		c0.174-1.189,0.445,1.387,1.516,3.059c1.289,2.008,3.672,3.061,6.631,3.006c4.639-0.084,8.227-3.969,7.795-9.577
		c-0.908-11.793-9.77-21.254-17.359-26.104c-0.082-0.062-0.154-0.099-0.273-0.181H132.496z"/>
	<path fill-rule="evenodd" clip-rule="evenodd" stroke="#000000" stroke-width="0.1625" stroke-linejoin="round" d="M89.268,103.463
		c-0.102,0.066-0.174,0.104-0.293,0.18c-7.595,4.849-16.456,14.308-17.364,26.1c-0.432,5.611,3.155,9.495,7.794,9.58
		c2.961,0.054,5.342-0.998,6.632-3.008c1.072-1.672,1.346-4.248,1.52-3.057c0.625,4.541-1.277,8.906-2.307,12.72
		c1.147-0.417,2.59-0.627,4.034-0.632h0.023c1.443,0.005,2.883,0.215,4.027,0.632c-1.027-3.813-2.926-8.179-2.303-12.72
		c0.174-1.191,0.447,1.385,1.518,3.057c1.289,2.01,3.67,3.062,6.631,3.008c4.639-0.085,8.227-3.969,7.793-9.58
		c-0.908-11.792-9.77-21.251-17.358-26.1c-0.082-0.061-0.155-0.099-0.274-0.18H89.268z"/>
	<path fill-rule="evenodd" clip-rule="evenodd" stroke="#000000" stroke-width="0.1625" stroke-linejoin="round" d="M46.039,171.963
		c-0.102-0.068-0.174-0.104-0.293-0.182c-7.595-4.85-16.456-14.311-17.364-26.104c-0.432-5.611,3.155-9.494,7.794-9.58
		c2.961-0.053,5.342,0.998,6.632,3.008c1.072,1.672,1.346,4.248,1.52,3.057c0.625-4.541-1.277-8.906-2.307-12.719
		c1.147,0.416,2.59,0.627,4.034,0.631h0.023c1.442-0.004,2.882-0.215,4.027-0.631c-1.027,3.812-2.926,8.178-2.303,12.719
		c0.174,1.191,0.446-1.385,1.517-3.057c1.289-2.01,3.671-3.061,6.631-3.008c4.639,0.086,8.227,3.969,7.794,9.58
		c-0.908,11.793-9.77,21.254-17.358,26.104c-0.082,0.062-0.155,0.1-0.274,0.182H46.039z"/>
	<path fill-rule="evenodd" clip-rule="evenodd" stroke="#000000" stroke-width="0.1625" stroke-linejoin="round" d="
		M132.496,171.963c-0.102-0.068-0.174-0.104-0.293-0.182c-7.594-4.85-16.455-14.311-17.363-26.104
		c-0.432-5.611,3.154-9.494,7.793-9.58c2.961-0.053,5.342,0.998,6.633,3.008c1.072,1.672,1.346,4.248,1.52,3.057
		c0.625-4.541-1.277-8.906-2.307-12.719c1.146,0.416,2.59,0.627,4.033,0.631h0.023c1.443-0.004,2.883-0.215,4.027-0.631
		c-1.027,3.812-2.926,8.178-2.303,12.719c0.174,1.191,0.447-1.385,1.518-3.057c1.289-2.01,3.67-3.061,6.631-3.008
		c4.639,0.086,8.227,3.969,7.793,9.58c-0.908,11.793-9.77,21.254-17.357,26.104c-0.082,0.062-0.156,0.1-0.275,0.182H132.496z"/>
	<path fill-rule="evenodd" clip-rule="evenodd" stroke="#000000" stroke-width="0.1625" stroke-linejoin="round" d="M46.039,223.931
		c-0.102-0.067-0.174-0.103-0.293-0.181c-7.595-4.85-16.456-14.311-17.364-26.104c-0.432-5.611,3.155-9.495,7.794-9.58
		c2.961-0.054,5.342,0.998,6.632,3.008c1.072,1.672,1.346,4.248,1.52,3.057c0.625-4.541-1.277-8.906-2.307-12.72
		c1.147,0.417,2.59,0.627,4.034,0.632h0.023c1.442-0.005,2.882-0.215,4.027-0.632c-1.027,3.813-2.926,8.179-2.303,12.72
		c0.174,1.191,0.446-1.385,1.517-3.057c1.289-2.01,3.671-3.062,6.631-3.008c4.639,0.085,8.227,3.969,7.794,9.58
		c-0.908,11.793-9.77,21.254-17.358,26.104c-0.082,0.062-0.155,0.1-0.274,0.181H46.039z"/>
	<path fill-rule="evenodd" clip-rule="evenodd" stroke="#000000" stroke-width="0.1625" stroke-linejoin="round" d="
		M132.496,223.931c-0.102-0.067-0.174-0.104-0.293-0.181c-7.594-4.85-16.455-14.311-17.363-26.104
		c-0.432-5.611,3.154-9.495,7.793-9.58c2.961-0.054,5.342,0.998,6.633,3.008c1.072,1.672,1.346,4.248,1.52,3.057
		c0.625-4.541-1.277-8.906-2.307-12.72c1.146,0.417,2.59,0.627,4.033,0.632h0.023c1.443-0.005,2.883-0.215,4.027-0.632
		c-1.027,3.813-2.926,8.179-2.303,12.72c0.174,1.191,0.447-1.385,1.518-3.057c1.289-2.01,3.67-3.062,6.631-3.008
		c4.639,0.085,8.227,3.969,7.793,9.58c-0.908,11.793-9.77,21.254-17.357,26.104c-0.082,0.062-0.156,0.1-0.275,0.181H132.496z"/>
</g>
<g id="ten">
</g>
<g id="jack">
</g>
<g id="queen">
</g>
<g id="king">
</g>
<g id="joker">
</g>
<g id="back">
</g>
</svg>
