<?xml version="1.0" encoding="utf-8"?>
<!-- Generator: Adobe Illustrator 16.0.4, SVG Export Plug-In . SVG Version: 6.00 Build 0)  -->
<!DOCTYPE svg PUBLIC "-//W3C//DTD SVG 1.1//EN" "http://www.w3.org/Graphics/SVG/1.1/DTD/svg11.dtd">
<svg version="1.1" xmlns="http://www.w3.org/2000/svg" xmlns:xlink="http://www.w3.org/1999/xlink" x="0px" y="0px"
	 width="178.583px" height="249.449px" viewBox="0 0 178.583 249.449" enable-background="new 0 0 178.583 249.449"
	 xml:space="preserve">
<g id="ace">
	<g>
		<path fill="#F4F4F2" stroke="#000000" d="M178.583,235.276c0,7.827-6.345,14.173-14.173,14.173H14.174
			C6.346,249.449,0,243.104,0,235.276V14.173C0,6.346,6.346,0,14.174,0H164.41c7.828,0,14.173,6.346,14.173,14.173V235.276z"/>
		<path d="M12.755,42.521c-1.862,0-3.376,1.703-3.376,3.802c0,1.198,0.501,2.265,1.269,2.966c0.258,0.238,0.146,0.496-0.115,0.334
			c-0.48-0.291-1.021-0.477-1.606-0.477c-1.797,0-3.256,1.643-3.256,3.666c0,2.025,1.459,3.668,3.256,3.668
			c1.197,0,2.247-0.729,2.811-1.816c0.056-0.107,0.098-0.252,0.176-0.252c0.108,0,0.158,0.174,0.158,0.502
			c0,1.314-0.504,2.85-1.252,4.615c0.324-0.076,1.298-0.271,1.937-0.271s1.615,0.195,1.937,0.271
			c-0.744-1.766-1.25-3.301-1.25-4.615c0-0.328,0.048-0.502,0.156-0.502c0.078,0,0.124,0.145,0.176,0.252
			c0.566,1.088,1.613,1.816,2.813,1.816c1.798,0,3.256-1.643,3.256-3.668c0-2.023-1.458-3.666-3.256-3.666
			c-0.585,0-1.129,0.186-1.608,0.477c-0.263,0.162-0.374-0.096-0.116-0.334c0.771-0.701,1.269-1.768,1.269-2.966
			C16.131,44.224,14.621,42.521,12.755,42.521z"/>
		<path d="M165.828,206.93c1.862,0,3.377-1.704,3.377-3.802c0-1.2-0.503-2.264-1.267-2.967c-0.262-0.238-0.148-0.495,0.116-0.334
			c0.477,0.292,1.021,0.477,1.603,0.477c1.797,0,3.258-1.643,3.258-3.667c0-2.023-1.461-3.666-3.258-3.666
			c-1.196,0-2.246,0.729-2.811,1.816c-0.055,0.106-0.101,0.253-0.177,0.253c-0.107,0-0.157-0.176-0.157-0.504
			c0-1.313,0.506-2.851,1.255-4.615c-0.323,0.076-1.303,0.271-1.939,0.271s-1.615-0.195-1.935-0.271
			c0.744,1.765,1.251,3.302,1.251,4.615c0,0.328-0.051,0.504-0.159,0.504c-0.075,0-0.121-0.146-0.176-0.253
			c-0.563-1.088-1.614-1.816-2.812-1.816c-1.797,0-3.257,1.643-3.257,3.666c0,2.024,1.46,3.667,3.257,3.667
			c0.583,0,1.127-0.185,1.604-0.477c0.266-0.161,0.377,0.096,0.122,0.334c-0.771,0.703-1.271,1.767-1.271,2.967
			C162.452,205.226,163.965,206.93,165.828,206.93z"/>
		<path d="M89.292,103.466c-4.659,0-8.44,4.258-8.44,9.502c0,3,1.251,5.66,3.172,7.416c0.647,0.594,0.369,1.238-0.292,0.836
			c-1.198-0.729-2.552-1.191-4.015-1.191c-4.493,0-8.141,4.105-8.141,9.164c0,5.061,3.647,9.167,8.141,9.167
			c2.997,0,5.618-1.822,7.028-4.54c0.137-0.267,0.246-0.631,0.443-0.631c0.266,0,0.391,0.437,0.391,1.255
			c0,3.288-1.262,7.126-3.127,11.541c0.805-0.192,3.248-0.679,4.84-0.679c1.597,0,4.037,0.486,4.845,0.679
			c-1.867-4.415-3.131-8.253-3.131-11.541c0-0.818,0.128-1.255,0.395-1.255c0.196,0,0.306,0.364,0.44,0.631
			c1.412,2.718,4.03,4.54,7.027,4.54c4.496,0,8.141-4.106,8.141-9.167c0-5.059-3.645-9.164-8.141-9.164
			c-1.46,0-2.814,0.463-4.018,1.191c-0.655,0.402-0.937-0.242-0.286-0.836c1.918-1.756,3.169-4.416,3.169-7.416
			C97.733,107.724,93.952,103.466,89.292,103.466z"/>
		<g>
			<polygon fill="none" points="10.643,30.132 14.969,30.126 12.81,18.571 			"/>
			<path d="M18.231,35.966l-4.066-21.767l-2.189-0.026l0.004,0.016l-0.545-0.004L7.377,35.966l-1.705,0.001l-0.003,2.302h5.45
				l0.003-2.303H9.55l0.624-3.334l5.262-0.008l0.624,3.342l-1.667-0.002l-0.004,2.303l5.45,0.002l0.003-2.303H18.231z
				 M10.643,30.132l2.167-11.561l2.159,11.555L10.643,30.132z"/>
		</g>
		<g>
			<polygon fill="none" points="167.94,219.317 163.615,219.323 165.773,230.878 			"/>
			<path d="M160.352,213.483l4.067,21.767l2.188,0.026l-0.003-0.016l0.545,0.004l4.056-21.781l1.705-0.001l0.003-2.302h-5.449
				l-0.004,2.303h1.572l-0.624,3.334l-5.261,0.008l-0.625-3.342l1.667,0.002l0.005-2.303l-5.451-0.002l-0.003,2.303H160.352z
				 M167.94,219.317l-2.167,11.561l-2.158-11.555L167.94,219.317z"/>
		</g>
	</g>
</g>
<g id="two">
</g>
<g id="three">
</g>
<g id="four">
</g>
<g id="nine">
</g>
<g id="five">
</g>
<g id="six">
</g>
<g id="seven">
</g>
<g id="eight">
</g>
<g id="ten">
</g>
<g id="jack">
</g>
<g id="queen">
</g>
<g id="king">
</g>
<g id="jolly">
</g>
<g id="back">
</g>
</svg>
