<?xml version="1.0" encoding="utf-8"?>
<!-- Generator: Adobe Illustrator 16.0.4, SVG Export Plug-In . SVG Version: 6.00 Build 0)  -->
<!DOCTYPE svg PUBLIC "-//W3C//DTD SVG 1.1//EN" "http://www.w3.org/Graphics/SVG/1.1/DTD/svg11.dtd">
<svg version="1.1" xmlns="http://www.w3.org/2000/svg" xmlns:xlink="http://www.w3.org/1999/xlink" x="0px" y="0px"
	 width="178.583px" height="249.449px" viewBox="0 0 178.583 249.449" enable-background="new 0 0 178.583 249.449"
	 xml:space="preserve">
<g id="ace">
	<g>
		<path fill="#F4F4F2" stroke="#000000" d="M178.583,235.275c0,7.828-6.346,14.174-14.174,14.174H14.173
			C6.346,249.449,0,243.104,0,235.275V14.173C0,6.346,6.346,0,14.173,0H164.41c7.828,0,14.174,6.346,14.174,14.173V235.275z"/>
		<path fill="#E44145" d="M12.767,42.52c1.786,3.471,4.145,6.309,7.075,8.513c-2.931,2.206-5.289,5.038-7.075,8.495
			c-1.802-3.457-4.168-6.289-7.098-8.495C8.599,48.828,10.965,45.99,12.767,42.52L12.767,42.52z"/>
		<path fill="#E44145" d="M165.837,189.921c1.787,3.47,4.146,6.308,7.076,8.513c-2.93,2.206-5.289,5.038-7.076,8.495
			c-1.802-3.457-4.168-6.289-7.098-8.495C161.669,196.229,164.036,193.391,165.837,189.921L165.837,189.921z"/>
		<path fill="#E44145" d="M88.527,105.789c4.468,8.395,10.363,15.254,17.691,20.561c-7.328,5.33-13.224,12.182-17.691,20.541
			c-4.503-8.359-10.417-15.211-17.742-20.541C78.11,121.043,84.024,114.184,88.527,105.789L88.527,105.789z"/>
		<path fill="#E44145" d="M18.231,35.965l-4.067-21.767l-2.188-0.025l0.003,0.016l-0.545-0.005L7.376,35.966H5.672l-0.002,2.302
			h5.449l0.003-2.302H9.55l0.625-3.334l5.261-0.008l0.624,3.34h-1.667l-0.004,2.302l5.451,0.002l0.003-2.302L18.231,35.965z
			 M10.643,30.131l2.166-11.56l2.159,11.554L10.643,30.131z"/>
		<path fill="#E44145" d="M160.351,213.483l4.067,21.767l2.188,0.025l-0.003-0.016l0.545,0.005l4.057-21.782h1.704l0.004-2.302
			h-5.45l-0.003,2.302h1.572l-0.625,3.334l-5.261,0.008l-0.624-3.34h1.667l0.004-2.302l-5.45-0.002l-0.004,2.302L160.351,213.483z
			 M167.939,219.317l-2.166,11.56l-2.159-11.554L167.939,219.317z"/>
	</g>
</g>
<g id="two">
</g>
<g id="three">
</g>
<g id="four">
</g>
<g id="five">
</g>
<g id="six">
</g>
<g id="seven">
</g>
<g id="eight">
</g>
<g id="nine">
</g>
<g id="ten">
</g>
<g id="jack">
</g>
<g id="queen">
</g>
<g id="king">
</g>
<g id="jolly">
</g>
<g id="back">
</g>
</svg>
