<?xml version="1.0" encoding="utf-8"?>
<!-- Generator: Adobe Illustrator 16.0.4, SVG Export Plug-In . SVG Version: 6.00 Build 0)  -->
<!DOCTYPE svg PUBLIC "-//W3C//DTD SVG 1.1//EN" "http://www.w3.org/Graphics/SVG/1.1/DTD/svg11.dtd">
<svg version="1.1" xmlns="http://www.w3.org/2000/svg" xmlns:xlink="http://www.w3.org/1999/xlink" x="0px" y="0px"
	 width="178.584px" height="249.449px" viewBox="0 0 178.584 249.449" enable-background="new 0 0 178.584 249.449"
	 xml:space="preserve">
<g id="ace">
	<g>
		<path fill="#F4F4F2" stroke="#000000" d="M178.584,235.276c0,7.827-6.346,14.173-14.174,14.173H14.174
			c-7.827,0-14.173-6.346-14.173-14.173V14.174C0.001,6.346,6.347,0,14.174,0H164.41c7.828,0,14.174,6.346,14.174,14.174V235.276z"
			/>
		<g>
			<path fill="#E44145" d="M16.73,42.619c-1.247-0.387-3.186,0.295-3.898,3.123c-0.06,0.154-0.122,0.15-0.178-0.006
				c-1.028-2.865-2.722-3.491-3.913-3.117c-1.764,0.569-3.193,2.673-3.062,5.356c0.035,4.685,4.227,7.044,7.057,11.524
				c2.83-4.479,7.069-6.832,7.082-11.537C20.062,45.25,18.544,43.178,16.73,42.619z"/>
			<path fill="#E44145" d="M12.755,59.528c-0.006-0.01-0.013-0.019-0.02-0.029c-0.006,0.01-0.012,0.019-0.019,0.029H12.755z"/>
		</g>
		<g>
			<path fill="#E44145" d="M165.849,189.95c-2.83,4.479-7.069,6.833-7.082,11.538c-0.245,2.712,1.274,4.784,3.087,5.344
				c1.246,0.387,3.186-0.296,3.898-3.123c0.061-0.155,0.123-0.15,0.179,0.006c1.028,2.865,2.722,3.49,3.911,3.117
				c1.766-0.569,3.195-2.674,3.064-5.357C172.871,196.789,168.679,194.429,165.849,189.95z"/>
			<path fill="#E44145" d="M165.83,189.922c0.006,0.01,0.013,0.019,0.019,0.028c0.006-0.009,0.013-0.018,0.019-0.028H165.83z"/>
		</g>
		<g>
			<path fill="#E44145" d="M89.281,145.985c-0.016-0.025-0.032-0.049-0.048-0.074c-0.016,0.025-0.032,0.049-0.048,0.074H89.281z"/>
			<path fill="#E44145" d="M99.229,103.714c-3.116-0.969-7.975,0.735-9.755,7.803c-0.148,0.387-0.305,0.379-0.445-0.014
				c-2.569-7.16-6.802-8.725-9.78-7.789c-4.408,1.422-7.98,6.68-7.653,13.389c0.088,11.714,10.563,17.613,17.638,28.809
				c7.086-11.195,17.681-17.079,17.71-28.844C107.557,110.288,103.762,105.11,99.229,103.714z"/>
		</g>
		<path fill="#E44145" d="M18.231,35.965l-4.067-21.767l-2.188-0.025l0.003,0.016l-0.545-0.005L7.377,35.966H5.673L5.67,38.268
			h5.449l0.003-2.302H9.55l0.625-3.334l5.261-0.008l0.624,3.341l-1.667-0.001l-0.004,2.302l5.45,0.002l0.004-2.302L18.231,35.965z
			 M10.644,30.131l2.166-11.56l2.159,11.554L10.644,30.131z"/>
		<path fill="#E44145" d="M160.352,213.483l4.067,21.768l2.188,0.025l-0.003-0.016l0.545,0.004l4.057-21.781h1.704l0.004-2.303
			h-5.45l-0.003,2.303h1.572l-0.625,3.334l-5.261,0.008l-0.624-3.341l1.667,0.001l0.004-2.303l-5.45-0.002l-0.004,2.303H160.352z
			 M167.939,219.317l-2.166,11.561l-2.159-11.555L167.939,219.317z"/>
	</g>
</g>
<g id="two">
</g>
<g id="three">
</g>
<g id="four">
</g>
<g id="five">
</g>
<g id="six">
</g>
<g id="seven">
</g>
<g id="eight">
</g>
<g id="nine">
</g>
<g id="ten">
</g>
<g id="jack">
</g>
<g id="queen">
</g>
<g id="king">
</g>
<g id="jolly">
</g>
<g id="back">
</g>
</svg>
