<?xml version="1.0" encoding="utf-8"?>
<!-- Generator: Adobe Illustrator 16.0.4, SVG Export Plug-In . SVG Version: 6.00 Build 0)  -->
<!DOCTYPE svg PUBLIC "-//W3C//DTD SVG 1.1//EN" "http://www.w3.org/Graphics/SVG/1.1/DTD/svg11.dtd">
<svg version="1.1" xmlns="http://www.w3.org/2000/svg" xmlns:xlink="http://www.w3.org/1999/xlink" x="0px" y="0px"
	 width="178.583px" height="249.448px" viewBox="0 0 178.583 249.448" enable-background="new 0 0 178.583 249.448"
	 xml:space="preserve">
<g id="ace">
	<g>
		<path fill="#F4F4F2" stroke="#000000" d="M178.583,235.275c0,7.827-6.346,14.173-14.173,14.173H14.174
			C6.346,249.448,0,243.103,0,235.275V14.173C0,6.346,6.346,0,14.174,0h150.236c7.827,0,14.173,6.346,14.173,14.173V235.275z"/>
		<path fill-rule="evenodd" clip-rule="evenodd" stroke="#000000" stroke-width="0.065" stroke-linejoin="round" d="M12.748,42.52
			c-0.041,0.027-0.07,0.042-0.117,0.072c-3.039,1.94-6.583,5.725-6.946,10.441c-0.173,2.244,1.262,3.798,3.117,3.832
			c1.185,0.021,2.137-0.399,2.653-1.203c0.429-0.668,0.538-1.699,0.607-1.223c0.25,1.816-0.511,3.562-0.922,5.088
			c0.459-0.167,1.035-0.251,1.613-0.253h0.01c0.576,0.002,1.152,0.086,1.61,0.253c-0.411-1.525-1.17-3.271-0.921-5.088
			c0.069-0.477,0.179,0.555,0.606,1.223c0.516,0.804,1.469,1.225,2.652,1.203c1.855-0.034,3.291-1.588,3.118-3.832
			c-0.364-4.717-3.908-8.501-6.943-10.441c-0.033-0.024-0.062-0.039-0.11-0.072H12.748z"/>
		<path fill-rule="evenodd" clip-rule="evenodd" stroke="#000000" stroke-width="0.065" stroke-linejoin="round" d="M165.818,206.93
			c-0.041-0.027-0.07-0.041-0.117-0.072c-3.038-1.939-6.583-5.725-6.946-10.441c-0.173-2.244,1.263-3.798,3.118-3.832
			c1.184-0.021,2.137,0.399,2.652,1.203c0.429,0.668,0.538,1.699,0.607,1.223c0.25-1.816-0.511-3.562-0.922-5.088
			c0.459,0.167,1.035,0.251,1.613,0.253h0.01c0.577-0.002,1.152-0.086,1.61-0.253c-0.411,1.525-1.17,3.271-0.921,5.088
			c0.069,0.477,0.179-0.555,0.606-1.223c0.516-0.804,1.469-1.225,2.652-1.203c1.855,0.034,3.291,1.588,3.118,3.832
			c-0.363,4.717-3.908,8.502-6.943,10.441c-0.033,0.024-0.062,0.04-0.11,0.072H165.818z"/>
		<g>
			<polygon fill="none" points="163.715,219.317 168.041,219.323 165.881,230.877 			"/>
			<path d="M172.915,213.482l-0.004-2.302l-5.45,0.002l0.004,2.302l1.667-0.001l-0.624,3.341l-5.261-0.008l-0.625-3.334h1.572
				l-0.003-2.302h-5.449l0.002,2.302h1.705l4.057,21.781l0.545-0.004l-0.003,0.016l2.188-0.026l4.067-21.766L172.915,213.482z
				 M168.041,219.323l-2.159,11.554l-2.166-11.56L168.041,219.323z"/>
		</g>
		<g>
			<polygon fill="none" points="10.644,30.131 14.969,30.125 12.81,18.571 			"/>
			<path d="M18.232,35.966l-4.067-21.767l-2.188-0.026l0.003,0.016l-0.545-0.004L7.377,35.966l-1.705,0.001L5.67,38.268h5.45
				l0.003-2.302H9.55l0.625-3.334l5.261-0.008l0.624,3.341l-1.667-0.001l-0.004,2.302l5.45,0.002l0.004-2.302H18.232z
				 M10.644,30.131l2.167-11.56l2.159,11.554L10.644,30.131z"/>
		</g>
		<path fill-rule="evenodd" clip-rule="evenodd" fill="none" stroke="#000000" stroke-width="1.5" stroke-linejoin="round" d="
			M89.178,69.652c-0.189,0.146-0.323,0.223-0.544,0.391c-14.08,10.457-30.506,30.86-32.19,56.296
			c-0.801,12.101,5.85,20.477,14.448,20.659c5.489,0.117,9.902-2.151,12.294-6.485c1.987-3.604,2.495-9.161,2.817-6.593
			c1.158,9.795-2.368,19.208-4.275,27.431c2.127-0.898,4.8-1.352,7.478-1.361h0.044c2.675,0.01,5.343,0.463,7.467,1.361
			c-1.905-8.223-5.426-17.636-4.269-27.431c0.322-2.568,0.828,2.988,2.812,6.593c2.39,4.334,6.803,6.603,12.292,6.485
			c8.599-0.183,15.249-8.559,14.448-20.659c-1.685-25.436-18.111-45.839-32.181-56.296c-0.152-0.134-0.278-0.25-0.509-0.391H89.178z
			"/>
		<path d="M65.954,132.306c-0.014-0.204-0.021-0.404-0.02-0.602l0,0c0-4.756,3.691-8.753,8.499-9.067l0,0
			c0.251-0.018,0.499-0.024,0.744-0.024l0,0c5.877,0,10.818,4.564,11.207,10.513l0,0h0.001c0.018,0.276-0.192,0.514-0.467,0.531l0,0
			c-0.276,0.018-0.514-0.191-0.531-0.467l0,0c-0.353-5.418-4.859-9.578-10.21-9.578l0,0c-0.226,0-0.45,0.008-0.677,0.023l0,0
			c-4.281,0.277-7.566,3.84-7.566,8.069l0,0c0,0.177,0.005,0.354,0.018,0.535l0,0c0.219,3.372,3.023,5.96,6.354,5.96l0,0
			c0.139,0,0.28-0.005,0.422-0.014l0,0c2.646-0.171,4.675-2.374,4.675-4.985l0,0c0-0.109-0.004-0.22-0.011-0.329l0,0
			c-0.134-2.063-1.852-3.648-3.888-3.648l0,0c-0.088,0-0.171,0.002-0.258,0.01l0,0c-1.598,0.104-2.824,1.433-2.824,3.009l0,0
			c0,0.068,0.002,0.132,0.007,0.201l0,0c0.079,1.225,1.1,2.165,2.31,2.165l0,0c0.049,0,0.104-0.002,0.152-0.003l0,0
			c0.927-0.061,1.639-0.833,1.639-1.747l0,0c0-0.039-0.002-0.081-0.004-0.117l0,0c-0.044-0.689-0.619-1.219-1.299-1.219l0,0
			c-0.035,0-0.058,0.001-0.084,0.004l0,0c-0.5,0.032-0.882,0.447-0.882,0.938l0,0c0,0.024,0.001,0.04,0.002,0.052l0,0
			c0.024,0.275-0.179,0.519-0.454,0.543l0,0c-0.275,0.023-0.519-0.18-0.542-0.453l0,0c-0.005-0.056-0.006-0.103-0.006-0.142l0,0
			c0-1.017,0.789-1.868,1.799-1.935l0,0c0.068-0.007,0.124-0.007,0.167-0.007l0,0c1.206,0,2.217,0.936,2.297,2.159l0,0
			c0.003,0.056,0.005,0.114,0.005,0.177l0,0c0,1.439-1.116,2.648-2.586,2.745l0,0c-0.062,0.002-0.13,0.005-0.204,0.006l0,0
			c-1.734-0.001-3.193-1.346-3.307-3.097l0,0c-0.006-0.094-0.009-0.184-0.009-0.271l0,0c0-2.102,1.632-3.867,3.748-4.006l0,0
			c0.117-0.01,0.229-0.012,0.333-0.013l0,0c2.563,0.001,4.715,1.99,4.886,4.585l0,0c0.008,0.129,0.013,0.261,0.013,0.393l0,0
			c0,3.138-2.436,5.775-5.612,5.984l0,0c-0.161,0.009-0.321,0.014-0.484,0.015l0,0C69.451,139.198,66.209,136.205,65.954,132.306
			L65.954,132.306z"/>
		<path d="M104.703,139.184c-3.17-0.209-5.601-2.846-5.601-5.981l0,0c0-0.131,0.003-0.265,0.014-0.396l0,0
			c0.168-2.592,2.318-4.582,4.876-4.582l0,0c0.104,0,0.215,0.002,0.322,0.011l0,0c2.125,0.14,3.753,1.905,3.753,4.007l0,0
			c0,0.09-0.003,0.176-0.009,0.267l0,0c-0.113,1.754-1.569,3.1-3.302,3.1l0,0c-0.075,0-0.144-0.002-0.217-0.006l0,0
			c-1.454-0.097-2.57-1.306-2.57-2.745l0,0c0-0.057,0.001-0.123,0.007-0.181l0,0c0.079-1.218,1.088-2.154,2.292-2.154l0,0
			c0.043,0,0.099,0,0.151,0.006l0,0c1.026,0.068,1.812,0.92,1.812,1.938l0,0c0,0.047-0.001,0.083-0.002,0.11l0,0
			c-0.009,0.276-0.24,0.492-0.516,0.484l0,0c-0.276-0.009-0.493-0.24-0.484-0.516l0,0c0.001-0.038,0.002-0.063,0.002-0.079l0,0
			c0-0.493-0.382-0.907-0.893-0.94l0,0c-0.015-0.002-0.036-0.003-0.071-0.003l0,0c-0.677,0-1.251,0.529-1.296,1.236l0,0
			c-0.003,0.021-0.004,0.056-0.004,0.099l0,0c0,0.914,0.713,1.688,1.624,1.746l0,0c0.061,0.003,0.115,0.006,0.164,0.005l0,0
			c1.207,0.001,2.226-0.939,2.305-2.16l0,0c0.004-0.074,0.006-0.142,0.006-0.206l0,0c0-1.576-1.224-2.905-2.827-3.009l0,0
			c-0.078-0.008-0.161-0.01-0.248-0.01l0,0c-2.029,0-3.745,1.585-3.879,3.654l0,0c-0.008,0.104-0.012,0.214-0.012,0.325l0,0
			c0,2.611,2.027,4.812,4.663,4.983l0,0c0.144,0.008,0.285,0.014,0.424,0.014l0,0c3.323,0,6.124-2.588,6.343-5.959l0,0
			c0.011-0.183,0.017-0.361,0.017-0.537l0,0c0.001-4.229-3.279-7.791-7.554-8.069l0,0c-0.226-0.015-0.45-0.022-0.676-0.021l0,0
			c-5.341-0.001-9.849,4.159-10.199,9.577l0,0v0.001c-0.019,0.275-0.257,0.484-0.531,0.467l0,0
			c-0.276-0.019-0.485-0.257-0.467-0.533l0,0c0.388-5.947,5.329-10.512,11.197-10.512l0,0c0.244,0,0.492,0.007,0.742,0.024l0,0
			c4.805,0.314,8.488,4.312,8.488,9.066l0,0c0,0.198-0.007,0.397-0.02,0.601l0,0c-0.255,3.901-3.491,6.895-7.341,6.895l0,0
			C105.026,139.198,104.865,139.193,104.703,139.184L104.703,139.184z"/>
		<path d="M89.253,137.501c-0.133,0-0.259-0.052-0.354-0.146l0,0c-0.095-0.094-0.146-0.22-0.146-0.354l0,0
			c0.001-0.078,0.005-0.155,0.01-0.232l0,0c-0.104-1.848-1.637-3.795-2.44-4.637l0,0c-0.276-0.295-0.448-0.453-0.449-0.453l0,0
			c-0.145-0.132-0.199-0.335-0.14-0.522l0,0c0.001-0.006,0.946-2.957,1.654-6.144l0,0c0.486-2.17,0.863-4.512,1.407-6.471l0,0
			c-0.218-0.76-0.45-1.451-0.705-2.043l0,0c-0.012-0.028-0.021-0.058-0.027-0.087l0,0c-1.01-2.532-3.411-4.147-5.972-4.146l0,0
			c-0.68,0-1.372,0.113-2.057,0.354l0,0c-2.036,0.714-3.308,2.627-3.309,4.668l0,0c0.001,0.546,0.091,1.1,0.283,1.644l0,0
			c0.557,1.586,2.049,2.58,3.64,2.58l0,0c0.426,0,0.857-0.07,1.281-0.22l0,0c1.229-0.433,1.997-1.589,1.998-2.818l0,0
			c-0.001-0.33-0.055-0.664-0.171-0.992l0,0c-0.331-0.943-1.217-1.531-2.16-1.531l0,0c-0.252,0-0.507,0.041-0.761,0.131l0,0
			c-0.713,0.249-1.157,0.919-1.158,1.634l0,0c0,0.19,0.032,0.383,0.1,0.575l0,0c0.185,0.527,0.683,0.858,1.212,0.858l0,0
			c0.143,0,0.286-0.023,0.427-0.072l0,0c0.382-0.135,0.621-0.495,0.621-0.877l0,0c0-0.102-0.017-0.205-0.053-0.308l0,0
			c-0.094-0.266-0.342-0.429-0.606-0.43l0,0c-0.07,0-0.141,0.011-0.214,0.037l0,0c-0.171,0.059-0.276,0.219-0.277,0.391l0,0
			c0.001,0.044,0.009,0.09,0.025,0.137l0,0v0.002c0.091,0.26-0.046,0.545-0.307,0.637l0,0c-0.261,0.091-0.546-0.046-0.637-0.307l0,0
			c-0.055-0.153-0.082-0.312-0.081-0.469l0,0c-0.001-0.585,0.364-1.131,0.944-1.334l0,0c0.179-0.063,0.364-0.094,0.546-0.094l0,0
			c0.678,0,1.312,0.422,1.55,1.098l0,0c0.074,0.211,0.109,0.428,0.109,0.64l0,0c0,0.797-0.496,1.538-1.289,1.82l0,0
			c-0.251,0.088-0.508,0.129-0.759,0.129l0,0c-0.943,0-1.824-0.589-2.155-1.526l0,0c-0.105-0.299-0.156-0.605-0.156-0.907l0,0
			c-0.001-1.128,0.704-2.183,1.827-2.576l0,0c0.359-0.128,0.729-0.188,1.092-0.188l0,0c1.356,0,2.626,0.846,3.104,2.198l0,0
			c0.154,0.438,0.228,0.885,0.228,1.325l0,0c0,1.645-1.027,3.183-2.666,3.761l0,0c-0.533,0.188-1.077,0.277-1.613,0.277l0,0
			c-2.005,0-3.88-1.251-4.584-3.248l0,0c-0.229-0.652-0.339-1.319-0.338-1.976l0,0c-0.001-2.455,1.53-4.751,3.976-5.611l0,0
			c0.791-0.278,1.597-0.412,2.389-0.412l0,0c3.015,0.002,5.801,1.911,6.937,4.869l0,0c0.006,0.018,0.012,0.034,0.017,0.052l0,0
			c0.098,0.234,0.192,0.479,0.283,0.735l0,0c0.118-0.298,0.243-0.579,0.379-0.84l0,0c1.457-2.787,4.051-4.794,7.03-4.8l0,0
			c0.741,0,1.503,0.126,2.266,0.396l0,0c2.445,0.861,3.976,3.157,3.975,5.611l0,0c0.001,0.655-0.109,1.321-0.338,1.976l0,0
			c-0.704,1.998-2.578,3.248-4.583,3.247l0,0c-0.536,0.001-1.081-0.089-1.613-0.276l0,0c-1.64-0.577-2.666-2.115-2.665-3.761l0,0
			c-0.001-0.44,0.072-0.889,0.227-1.324l0,0c0.477-1.353,1.746-2.199,3.104-2.199l0,0c0.362,0,0.731,0.06,1.093,0.188l0,0
			c1.123,0.396,1.825,1.448,1.824,2.576l0,0c0,0.301-0.051,0.606-0.155,0.907l0,0c-0.33,0.939-1.212,1.528-2.155,1.526l0,0
			c-0.254,0.002-0.51-0.042-0.758-0.129l0,0c-0.794-0.279-1.29-1.023-1.289-1.82l0,0c-0.001-0.211,0.032-0.43,0.109-0.64l0,0
			c0.238-0.676,0.872-1.098,1.55-1.098l0,0c0.179,0,0.365,0.028,0.545,0.094l0,0c0.581,0.206,0.945,0.749,0.944,1.334l0,0
			c0.001,0.158-0.027,0.314-0.076,0.464l0,0c-0.089,0.261-0.373,0.401-0.635,0.313l0,0c-0.262-0.088-0.402-0.371-0.313-0.633l0,0
			c0.019-0.055,0.024-0.104,0.025-0.145l0,0c-0.001-0.171-0.106-0.332-0.28-0.392l0,0c-0.069-0.025-0.138-0.036-0.21-0.036l0,0
			c-0.265,0-0.514,0.165-0.607,0.434l0,0c-0.035,0.098-0.052,0.199-0.053,0.304l0,0c0.001,0.383,0.239,0.743,0.62,0.876l0,0
			c0.142,0.05,0.287,0.073,0.428,0.073l0,0c0.529,0,1.027-0.329,1.212-0.856l0,0c0.067-0.194,0.099-0.388,0.099-0.577l0,0
			c0-0.714-0.444-1.385-1.157-1.634l0,0c-0.253-0.09-0.508-0.131-0.76-0.131l0,0c-0.943,0-1.829,0.589-2.16,1.533l0,0
			c-0.116,0.326-0.17,0.66-0.17,0.99l0,0c0,1.229,0.769,2.386,1.997,2.818l0,0c0.425,0.148,0.856,0.219,1.281,0.219l0,0
			c1.591,0,3.082-0.992,3.64-2.578l0,0c0.19-0.547,0.281-1.1,0.281-1.645l0,0c0-2.04-1.272-3.953-3.308-4.669l0,0
			c-0.659-0.232-1.304-0.338-1.933-0.338l0,0c-2.502-0.006-4.811,1.718-6.146,4.264l0,0c-0.286,0.541-0.533,1.223-0.757,1.996l0,0
			c0.546,1.964,0.986,4.256,1.477,6.459l0,0c0.672,3.02,1.556,5.831,1.647,6.12l0,0c0.08,0.197,0.027,0.426-0.138,0.567l0,0
			c0,0.001-0.185,0.159-0.477,0.453l0,0c-0.292,0.296-0.684,0.72-1.073,1.228l0,0c-0.735,0.956-1.437,2.21-1.511,3.405l0,0
			c0.004,0.075,0.007,0.151,0.008,0.227l0,0c0,0.134-0.052,0.26-0.146,0.354l0,0c-0.094,0.095-0.22,0.146-0.354,0.146l0,0H89.253
			L89.253,137.501z M89.275,134.753c0.747-1.721,2.095-3.071,2.648-3.592l0,0c-0.256-0.825-1.001-3.299-1.588-5.943l0,0
			c-0.344-1.556-0.667-3.148-1.012-4.618l0,0c-0.324,1.474-0.62,3.09-0.96,4.63l0,0c-0.587,2.642-1.329,5.112-1.586,5.94l0,0
			C87.298,131.688,88.568,133.04,89.275,134.753L89.275,134.753z"/>
		<path d="M98.878,98.122c-1.796,0-3.601-0.646-5.026-1.956l0,0c-1.302-1.191-1.964-2.827-1.963-4.463l0,0
			c-0.001-1.459,0.526-2.929,1.593-4.088l0,0c0.973-1.063,2.308-1.604,3.643-1.604l0,0c1.19-0.001,2.391,0.431,3.34,1.3l0,0
			c0.871,0.799,1.314,1.894,1.313,2.989l0,0c0.001,0.977-0.354,1.961-1.065,2.738l0,0c-0.658,0.718-1.562,1.085-2.465,1.084l0,0
			c-0.807,0-1.619-0.291-2.258-0.879l0,0c-0.597-0.546-0.901-1.296-0.9-2.046l0,0c-0.001-0.668,0.241-1.344,0.729-1.873l0,0
			c0.456-0.499,1.084-0.754,1.71-0.754l0,0c0.558,0,1.122,0.203,1.566,0.61l0,0c0.421,0.385,0.636,0.916,0.635,1.442l0,0
			c0,0.472-0.171,0.946-0.514,1.322l0,0c-0.327,0.355-0.779,0.538-1.228,0.538l0,0c-0.4,0-0.806-0.146-1.124-0.438l0,0
			c-0.204-0.187-0.218-0.503-0.03-0.706l0,0c0.187-0.204,0.502-0.218,0.706-0.031l0,0c0.128,0.118,0.286,0.174,0.448,0.175l0,0
			c0.182-0.001,0.358-0.071,0.489-0.215l0,0c0.17-0.186,0.252-0.414,0.252-0.646l0,0c-0.001-0.261-0.103-0.516-0.31-0.704l0,0
			c-0.257-0.234-0.572-0.347-0.892-0.348l0,0c-0.359,0.001-0.711,0.143-0.974,0.429l0,0c-0.313,0.341-0.465,0.766-0.466,1.197l0,0
			c0.001,0.482,0.192,0.957,0.576,1.309l0,0c0.449,0.413,1.014,0.615,1.582,0.615l0,0c0.637,0,1.265-0.255,1.728-0.758l0,0
			c0.539-0.59,0.802-1.326,0.803-2.063l0,0c-0.001-0.829-0.331-1.648-0.989-2.251l0,0c-0.761-0.697-1.712-1.038-2.664-1.038l0,0
			c-1.067,0-2.128,0.43-2.906,1.279l0,0c-0.892,0.97-1.329,2.191-1.329,3.412l0,0c0,1.369,0.551,2.729,1.639,3.727l0,0
			c1.237,1.134,2.794,1.692,4.351,1.692l0,0c1.744,0,3.479-0.702,4.751-2.087l0,0c1.438-1.572,2.147-3.549,2.148-5.524l0,0
			c-0.001-2.213-0.891-4.414-2.649-6.028l0,0v0.001c-0.203-0.188-0.218-0.504-0.031-0.707l0,0c0.187-0.204,0.504-0.218,0.707-0.031
			l0,0c1.973,1.809,2.975,4.285,2.974,6.766l0,0c0.001,2.214-0.799,4.438-2.412,6.2l0,0c-1.466,1.598-3.474,2.411-5.483,2.411l0,0
			C98.881,98.122,98.88,98.122,98.878,98.122L98.878,98.122z"/>
		<path d="M74.017,95.711c-1.614-1.762-2.413-3.986-2.412-6.199l0,0c-0.001-2.48,1.002-4.958,2.974-6.767l0,0h0.001
			c0.204-0.186,0.52-0.173,0.706,0.031l0,0c0.187,0.203,0.174,0.52-0.029,0.706l0,0c-1.761,1.613-2.651,3.814-2.652,6.029l0,0
			c0.001,1.975,0.71,3.951,2.15,5.522l0,0c1.271,1.387,3.007,2.088,4.753,2.088l0,0c1.558,0,3.117-0.559,4.357-1.692l0,0
			c1.09-0.998,1.641-2.357,1.641-3.727l0,0c0-1.221-0.438-2.441-1.33-3.413l0,0c-0.78-0.849-1.842-1.277-2.913-1.278l0,0
			c-0.955,0.001-1.908,0.342-2.667,1.037l0,0c-0.658,0.604-0.99,1.424-0.99,2.252l0,0c0,0.738,0.264,1.474,0.803,2.062l0,0
			c0.464,0.505,1.093,0.759,1.729,0.76l0,0c0.568,0,1.135-0.202,1.587-0.616l0,0c0.384-0.351,0.575-0.827,0.576-1.309l0,0
			c-0.001-0.43-0.153-0.856-0.467-1.198l0,0c-0.262-0.285-0.616-0.428-0.976-0.428l0,0c-0.322,0-0.64,0.113-0.894,0.347l0,0
			c-0.208,0.19-0.311,0.445-0.312,0.705l0,0c0.001,0.232,0.082,0.459,0.252,0.645l0,0c0.132,0.145,0.309,0.215,0.491,0.216l0,0
			c0.163-0.001,0.322-0.058,0.452-0.176l0,0c0.204-0.186,0.521-0.171,0.707,0.033l0,0c0.186,0.204,0.17,0.521-0.033,0.707l0,0
			c-0.319,0.29-0.725,0.437-1.126,0.436l0,0c-0.447,0.001-0.9-0.183-1.228-0.539l0,0c-0.345-0.374-0.516-0.851-0.516-1.321l0,0
			c0-0.528,0.215-1.058,0.636-1.442l0,0c0.444-0.407,1.011-0.61,1.569-0.61l0,0c0.626,0,1.255,0.254,1.712,0.752l0,0
			c0.487,0.531,0.731,1.206,0.73,1.875l0,0c0.001,0.75-0.305,1.5-0.901,2.047l0,0c-0.642,0.586-1.455,0.878-2.262,0.878l0,0
			c-0.902,0-1.809-0.365-2.467-1.083l0,0c-0.713-0.778-1.067-1.763-1.066-2.739l0,0c-0.001-1.096,0.444-2.191,1.315-2.989l0,0
			c0.948-0.87,2.15-1.3,3.343-1.3l0,0c1.337,0,2.675,0.54,3.649,1.603l0,0c1.066,1.16,1.595,2.629,1.594,4.089l0,0
			c0.001,1.637-0.662,3.271-1.966,4.464l0,0c-1.43,1.308-3.236,1.956-5.032,1.956l0,0C77.495,98.123,75.484,97.311,74.017,95.711
			L74.017,95.711z"/>
		<path d="M71.302,112.693c-2.37-0.782-3.872-2.984-3.872-5.352l0,0c0-0.586,0.091-1.183,0.285-1.767l0,0
			c0.641-1.939,2.441-3.168,4.376-3.168l0,0c0.479,0,0.968,0.075,1.446,0.234l0,0c1.593,0.526,2.603,2.005,2.602,3.596l0,0
			c0,0.395-0.062,0.794-0.191,1.188l0,0c-0.436,1.315-1.657,2.148-2.973,2.148l0,0c-0.326,0-0.656-0.051-0.981-0.157l0,0
			c-1.095-0.362-1.789-1.379-1.789-2.474l0,0c0-0.27,0.043-0.547,0.133-0.816l0,0c0.304-0.917,1.155-1.499,2.072-1.499l0,0
			c0.228,0,0.459,0.035,0.686,0.111l0,0c0.775,0.256,1.269,0.978,1.269,1.754l0,0c0,0.19-0.031,0.386-0.093,0.577l0,0
			c-0.086,0.262-0.369,0.405-0.631,0.319l0,0c-0.263-0.087-0.406-0.369-0.32-0.631l0,0c0.03-0.09,0.043-0.18,0.043-0.266l0,0
			c0-0.355-0.226-0.688-0.583-0.806l0,0c-0.123-0.041-0.246-0.06-0.37-0.06l0,0c-0.495,0-0.96,0.315-1.123,0.814l0,0
			c-0.056,0.166-0.081,0.334-0.081,0.501l0,0c0,0.673,0.427,1.302,1.102,1.523l0,0c0.222,0.074,0.447,0.107,0.668,0.107l0,0
			c0.895,0,1.729-0.566,2.022-1.461l0,0c0.096-0.293,0.142-0.587,0.142-0.876l0,0c0-1.17-0.742-2.261-1.915-2.646l0,0
			c-0.378-0.124-0.758-0.183-1.133-0.183l0,0c-1.514,0-2.926,0.961-3.426,2.48l0,0c-0.16,0.482-0.235,0.971-0.235,1.453l0,0
			c0,1.945,1.235,3.76,3.185,4.402l0,0c0.616,0.203,1.242,0.3,1.857,0.3l0,0c2.485,0,4.801-1.578,5.622-4.066l0,0
			c0.258-0.785,0.382-1.579,0.382-2.36l0,0c-0.001-3.159-2.006-6.103-5.17-7.147l0,0c-0.994-0.327-2-0.482-2.99-0.482l0,0
			c-4.001,0-7.729,2.54-9.052,6.548l0,0h0.001c-0.087,0.264-0.369,0.405-0.632,0.318l0,0c-0.263-0.086-0.405-0.368-0.318-0.631l0,0
			c1.463-4.429,5.578-7.235,10.001-7.235l0,0c1.094,0,2.207,0.171,3.303,0.534l0,0c3.585,1.184,5.857,4.516,5.857,8.096l0,0
			c0,0.886-0.14,1.787-0.433,2.674l0,0c-0.961,2.908-3.665,4.753-6.571,4.753l0,0C72.752,113.044,72.021,112.931,71.302,112.693
			L71.302,112.693z"/>
		<path d="M98.511,108.291c-0.295-0.888-0.434-1.79-0.434-2.677l0,0c0-3.578,2.27-6.909,5.849-8.093l0,0
			c1.093-0.362,2.204-0.534,3.297-0.534l0,0c4.416,0,8.525,2.808,9.985,7.235l0,0c0.086,0.263-0.056,0.545-0.318,0.632l0,0
			c-0.263,0.086-0.546-0.057-0.632-0.319l0,0c-1.319-4.009-5.041-6.548-9.035-6.549l0,0c-0.988,0.001-1.993,0.155-2.982,0.484l0,0
			c-3.159,1.043-5.163,3.986-5.163,7.144l0,0c0,0.782,0.122,1.577,0.383,2.363l0,0c0.819,2.489,3.132,4.065,5.611,4.066l0,0
			c0.613-0.001,1.236-0.097,1.853-0.3l0,0c1.946-0.643,3.18-2.456,3.18-4.401l0,0c0-0.482-0.076-0.972-0.235-1.455l0,0
			c-0.499-1.519-1.909-2.479-3.419-2.479l0,0c-0.375,0-0.754,0.058-1.13,0.183l0,0c-1.17,0.386-1.911,1.478-1.912,2.647l0,0
			c0.001,0.29,0.045,0.583,0.142,0.874l0,0c0.295,0.896,1.127,1.463,2.019,1.463l0,0c0.22,0,0.444-0.034,0.666-0.108l0,0
			c0.672-0.221,1.1-0.85,1.1-1.522l0,0c0-0.166-0.026-0.337-0.081-0.503l0,0c-0.163-0.498-0.627-0.813-1.121-0.813l0,0
			c-0.123,0-0.247,0.019-0.37,0.06l0,0c-0.354,0.117-0.58,0.449-0.581,0.805l0,0c0.001,0.09,0.014,0.176,0.043,0.262l0,0
			c0.088,0.262-0.052,0.545-0.313,0.634l0,0c-0.262,0.089-0.545-0.052-0.634-0.312l0,0c-0.066-0.195-0.096-0.395-0.096-0.583l0,0
			c0-0.776,0.492-1.497,1.265-1.752l0,0c0.228-0.077,0.46-0.112,0.687-0.112l0,0c0.916-0.001,1.768,0.583,2.071,1.502l0,0
			c0.087,0.268,0.131,0.543,0.131,0.814l0,0c0,1.094-0.692,2.109-1.786,2.473l0,0c-0.324,0.106-0.654,0.157-0.979,0.157l0,0
			c-1.314,0.001-2.534-0.834-2.968-2.148l0,0c-0.131-0.394-0.192-0.795-0.192-1.188l0,0c0-1.592,1.008-3.07,2.598-3.596l0,0
			c0.478-0.159,0.965-0.235,1.444-0.235l0,0c1.933,0,3.729,1.229,4.369,3.168l0,0c0.192,0.584,0.285,1.181,0.284,1.768l0,0
			c0.001,2.366-1.498,4.568-3.865,5.352l0,0c-0.719,0.235-1.448,0.35-2.166,0.35l0,0C102.169,113.044,99.47,111.199,98.511,108.291
			L98.511,108.291z"/>
		<g>
			<path d="M95.611,171.309c-0.521,0-1.05-0.088-1.565-0.272l0,0c-1.554-0.559-2.521-2.021-2.521-3.583l0,0
				c0-0.428,0.07-0.863,0.225-1.286l0,0c0.461-1.285,1.669-2.086,2.96-2.085l0,0c0.353-0.001,0.713,0.059,1.063,0.186l0,0
				c1.068,0.385,1.732,1.39,1.732,2.463l0,0c0,0.293-0.05,0.591-0.153,0.884l0,0c-0.322,0.896-1.165,1.453-2.065,1.453l0,0
				c-0.247,0-0.497-0.043-0.739-0.129l0,0c-0.758-0.272-1.23-0.984-1.23-1.746l0,0c0-0.207,0.034-0.423,0.11-0.626l0,0
				c0.232-0.646,0.84-1.05,1.49-1.05l0,0c0.176,0,0.358,0.029,0.535,0.094l0,0c0.56,0.201,0.906,0.726,0.905,1.286l0,0
				c0,0.154-0.026,0.309-0.08,0.463l0,0c-0.087,0.24-0.242,0.435-0.436,0.571l0,0c0.255-0.134,0.464-0.359,0.567-0.65l0,0
				c0.065-0.186,0.096-0.371,0.096-0.55l0,0c0-0.663-0.41-1.286-1.07-1.522l0,0c-0.241-0.086-0.484-0.126-0.726-0.127l0,0
				c-0.879,0.001-1.706,0.546-2.02,1.425l0,0c-0.113,0.312-0.166,0.631-0.166,0.947l0,0c0,1.149,0.714,2.23,1.859,2.642l0,0
				c0.406,0.145,0.82,0.214,1.229,0.214l0,0c1.489-0.001,2.889-0.923,3.422-2.406l0,0c0.187-0.523,0.274-1.055,0.274-1.577l0,0
				c0-1.915-1.186-3.712-3.092-4.393l0,0h0.001c-0.261-0.093-0.396-0.38-0.304-0.64l0,0c0.093-0.261,0.38-0.396,0.64-0.303l0,0
				c2.314,0.83,3.756,3.01,3.755,5.335l0,0c0.001,0.635-0.107,1.282-0.333,1.914l0,0c-0.681,1.891-2.461,3.069-4.36,3.069l0,0
				C95.613,171.309,95.612,171.309,95.611,171.309L95.611,171.309z M94.366,166.909c-0.034,0.091-0.05,0.186-0.05,0.283l0,0
				c0,0.143,0.036,0.282,0.104,0.406l0,0c0.001-0.052,0.01-0.104,0.028-0.156l0,0c0.091-0.261,0.377-0.396,0.638-0.305l0,0
				c0.022,0.007,0.045,0.011,0.067,0.011l0,0c0.079,0,0.156-0.05,0.181-0.121l0,0c0.017-0.049,0.023-0.091,0.023-0.131l0,0
				c-0.001-0.15-0.093-0.293-0.245-0.346l0,0c-0.066-0.023-0.13-0.034-0.195-0.034l0,0
				C94.678,166.517,94.453,166.664,94.366,166.909L94.366,166.909z"/>
			<path d="M101.449,164.225c-1.395,0.001-2.796-0.513-3.89-1.546l0,0l0.001,0.001c-0.202-0.19-0.211-0.506-0.021-0.707l0,0
				c0.188-0.2,0.505-0.21,0.707-0.021l0,0c0.902,0.853,2.051,1.271,3.202,1.272l0,0c1.241-0.001,2.476-0.489,3.396-1.462l0,0
				c0.664-0.705,0.991-1.6,0.992-2.496l0,0c-0.001-0.967-0.382-1.928-1.139-2.642l0,0c-0.545-0.514-1.234-0.767-1.928-0.768l0,0
				c-0.748,0.001-1.489,0.294-2.042,0.882l0,0c-0.393,0.416-0.585,0.941-0.585,1.472l0,0c0,0.57,0.225,1.137,0.673,1.562l0,0
				c0.312,0.295,0.708,0.439,1.108,0.44l0,0c0.431-0.001,0.856-0.17,1.177-0.506l0,0c0.214-0.228,0.32-0.511,0.324-0.801l0,0
				c-0.034,0.232-0.139,0.46-0.314,0.646l0,0c-0.268,0.28-0.63,0.427-0.992,0.426l0,0c-0.334,0.001-0.674-0.123-0.937-0.371l0,0
				c-0.331-0.312-0.499-0.734-0.498-1.152l0,0c-0.001-0.39,0.146-0.783,0.432-1.086l0,0c0.363-0.388,0.859-0.584,1.351-0.583l0,0
				c0.456-0.001,0.917,0.169,1.273,0.507l0,0c0.454,0.43,0.687,1.012,0.687,1.595l0,0c0.001,0.537-0.197,1.082-0.599,1.507l0,0
				c-0.515,0.541-1.21,0.819-1.903,0.818l0,0c-0.643,0.001-1.29-0.237-1.796-0.714l0,0c-0.654-0.618-0.986-1.456-0.985-2.288l0,0
				c-0.001-0.774,0.284-1.553,0.856-2.158l0,0c0.748-0.794,1.761-1.196,2.771-1.195l0,0c0.937-0.001,1.88,0.347,2.614,1.04l0,0
				c0.964,0.909,1.452,2.141,1.451,3.369l0,0c0.001,1.141-0.419,2.287-1.265,3.184l0,0c-1.113,1.176-2.616,1.774-4.118,1.774l0,0
				C101.452,164.225,101.451,164.225,101.449,164.225L101.449,164.225z M101.844,158.055c-0.109,0.115-0.159,0.256-0.16,0.4l0,0
				c0.001,0.156,0.06,0.308,0.184,0.425l0,0c0.071,0.066,0.158,0.098,0.251,0.099l0,0c0.097-0.001,0.193-0.037,0.268-0.113l0,0
				c0.036-0.039,0.053-0.085,0.053-0.134l0,0c0-0.052-0.021-0.103-0.062-0.142l0,0c-0.199-0.19-0.208-0.507-0.018-0.707l0,0
				c0.038-0.04,0.082-0.072,0.129-0.097l0,0c-0.008-0.001-0.016-0.001-0.022-0.001l0,0
				C102.236,157.786,102.013,157.874,101.844,158.055L101.844,158.055z"/>
			<path d="M108.053,168.537c-0.803,0.001-1.607-0.325-2.193-0.962l0,0c-0.438-0.476-0.657-1.081-0.657-1.681l0,0
				c-0.001-0.671,0.271-1.343,0.804-1.831l0,0c0.399-0.367,0.908-0.552,1.412-0.551l0,0c0.562-0.001,1.127,0.229,1.538,0.676l0,0
				c0.312,0.337,0.467,0.771,0.466,1.196l0,0c0.001,0.477-0.193,0.954-0.571,1.305l0,0c-0.29,0.266-0.662,0.399-1.026,0.399l0,0
				c-0.408,0-0.818-0.167-1.115-0.488l0,0c-0.23-0.251-0.349-0.573-0.348-0.891l0,0c-0.001-0.352,0.143-0.71,0.424-0.965l0,0
				c0.051-0.047,0.105-0.089,0.162-0.125l0,0c-0.094,0.046-0.183,0.105-0.265,0.181l0,0c-0.32,0.293-0.48,0.689-0.481,1.094l0,0
				c0.001,0.359,0.13,0.716,0.394,1.003l0,0c0.391,0.425,0.922,0.64,1.458,0.641l0,0c0.482-0.001,0.959-0.173,1.341-0.522l0,0
				c0.558-0.516,0.839-1.213,0.841-1.916l0,0c-0.002-0.63-0.227-1.259-0.687-1.76l0,0c-0.668-0.727-1.574-1.091-2.486-1.092l0,0
				c-0.817,0-1.635,0.295-2.284,0.893l0,0l0.001,0.001c-0.204,0.187-0.521,0.174-0.707-0.029l0,0
				c-0.188-0.204-0.175-0.521,0.029-0.707l0,0c0.839-0.773,1.903-1.157,2.961-1.156l0,0c1.179-0.001,2.359,0.476,3.223,1.414l0,0
				c0.636,0.69,0.95,1.567,0.949,2.437l0,0c0.001,0.97-0.393,1.94-1.163,2.651l0,0c-0.57,0.525-1.295,0.786-2.013,0.786l0,0
				C108.056,168.537,108.055,168.537,108.053,168.537L108.053,168.537z M107.461,165.483c-0.065,0.06-0.099,0.14-0.1,0.227l0,0
				c0.001,0.077,0.026,0.15,0.084,0.213l0,0c0.024,0.026,0.052,0.05,0.08,0.07l0,0c-0.036-0.166,0.013-0.346,0.145-0.471l0,0
				c0.01-0.009,0.011-0.016,0.011-0.021l0,0c-0.001-0.007-0.001-0.01-0.004-0.013l0,0c-0.034-0.035-0.07-0.049-0.111-0.05l0,0
				C107.53,165.439,107.496,165.452,107.461,165.483L107.461,165.483z"/>
		</g>
		<g>
			<path d="M78.542,168.224c-0.229-0.632-0.335-1.278-0.335-1.914l0,0c0-2.327,1.442-4.505,3.756-5.335l0,0
				c0.259-0.093,0.546,0.041,0.639,0.301l0,0c0.094,0.261-0.042,0.547-0.302,0.64l0,0c-1.905,0.684-3.092,2.479-3.093,4.395l0,0
				c0.001,0.522,0.088,1.053,0.275,1.576l0,0c0.532,1.484,1.933,2.406,3.424,2.407l0,0c0.406,0,0.82-0.069,1.227-0.214l0,0
				c1.146-0.41,1.859-1.492,1.859-2.644l0,0c0-0.315-0.054-0.636-0.166-0.948l0,0c-0.313-0.876-1.141-1.422-2.02-1.422l0,0
				c-0.242,0-0.484,0.04-0.726,0.129l0,0c-0.66,0.235-1.07,0.858-1.071,1.521l0,0c0.001,0.181,0.03,0.363,0.096,0.546l0,0
				c0.104,0.292,0.311,0.517,0.565,0.651l0,0c-0.192-0.136-0.347-0.33-0.433-0.568l0,0c-0.055-0.153-0.081-0.311-0.081-0.464l0,0
				c0-0.561,0.35-1.086,0.9-1.284l0,0c0.18-0.067,0.364-0.097,0.54-0.096l0,0c0.651-0.001,1.259,0.403,1.491,1.049l0,0
				c0.073,0.205,0.109,0.418,0.109,0.627l0,0c0.001,0.761-0.472,1.474-1.231,1.747l0,0c-0.241,0.085-0.49,0.128-0.738,0.127l0,0
				c-0.9,0.001-1.742-0.557-2.063-1.451l0,0c-0.105-0.292-0.155-0.591-0.155-0.884l0,0c0-1.074,0.665-2.079,1.731-2.462l0,0
				c0.352-0.129,0.713-0.188,1.065-0.188l0,0c1.29,0,2.499,0.801,2.961,2.085l0,0c0.151,0.422,0.224,0.857,0.224,1.285l0,0
				c0,1.562-0.967,3.026-2.522,3.585l0,0c-0.516,0.184-1.044,0.272-1.562,0.272l0,0C81.004,171.294,79.222,170.115,78.542,168.224
				L78.542,168.224z M84.069,167.43c0.017,0.05,0.025,0.102,0.026,0.151l0,0c0.066-0.123,0.103-0.263,0.103-0.405l0,0
				c0-0.097-0.016-0.193-0.05-0.288l0,0c-0.086-0.239-0.312-0.388-0.551-0.389l0,0c-0.066,0.001-0.129,0.012-0.196,0.036l0,0
				c-0.15,0.054-0.243,0.195-0.244,0.345l0,0c0,0.042,0.008,0.082,0.023,0.125l0,0c0.025,0.078,0.101,0.127,0.181,0.128l0,0
				c0.021-0.001,0.044-0.004,0.072-0.013l0,0c0.054-0.019,0.109-0.028,0.163-0.028l0,0C83.804,167.092,83.998,167.223,84.069,167.43
				L84.069,167.43z"/>
			<path d="M72.942,162.434c-0.843-0.896-1.264-2.042-1.263-3.182l0,0c-0.001-1.229,0.487-2.461,1.452-3.37l0,0
				c0.734-0.694,1.677-1.04,2.613-1.04l0,0c1.01,0,2.021,0.401,2.77,1.193l0,0c0.573,0.606,0.858,1.387,0.858,2.159l0,0
				c0,0.834-0.333,1.67-0.986,2.29l0,0c-0.505,0.476-1.153,0.713-1.796,0.713l0,0c-0.693,0-1.39-0.278-1.903-0.82l0,0
				c-0.399-0.423-0.6-0.968-0.599-1.506l0,0c-0.001-0.581,0.23-1.167,0.688-1.595l0,0c0.356-0.338,0.817-0.508,1.272-0.507l0,0
				c0.491-0.001,0.985,0.196,1.35,0.582l0,0c0.288,0.305,0.433,0.698,0.432,1.087l0,0c0.001,0.419-0.167,0.84-0.497,1.152l0,0
				c-0.263,0.248-0.604,0.372-0.937,0.371l0,0c-0.363,0.001-0.727-0.145-0.994-0.428l0,0c-0.175-0.184-0.279-0.412-0.314-0.646l0,0
				c0.005,0.291,0.111,0.575,0.327,0.803l0,0c0.318,0.337,0.745,0.505,1.176,0.506l0,0c0.4-0.001,0.796-0.146,1.108-0.438l0,0
				c0.448-0.426,0.673-0.993,0.674-1.563l0,0c-0.001-0.53-0.193-1.056-0.586-1.472l0,0c-0.554-0.587-1.294-0.88-2.042-0.881l0,0
				c-0.692,0.001-1.383,0.254-1.927,0.768l0,0c-0.758,0.715-1.139,1.675-1.14,2.643l0,0c0.001,0.896,0.329,1.791,0.992,2.494l0,0
				c0.918,0.973,2.153,1.462,3.395,1.463l0,0c1.152-0.001,2.302-0.421,3.204-1.273l0,0v0.001c0.201-0.19,0.517-0.181,0.707,0.02l0,0
				c0.189,0.2,0.18,0.517-0.02,0.706l0,0c-1.094,1.033-2.497,1.547-3.892,1.547l0,0C75.562,164.209,74.056,163.611,72.942,162.434
				L72.942,162.434z M76.159,157.87c0.188,0.202,0.177,0.519-0.025,0.706l0,0c-0.038,0.037-0.057,0.084-0.058,0.139l0,0
				c0.001,0.049,0.017,0.095,0.052,0.132l0,0c0.072,0.076,0.17,0.116,0.269,0.116l0,0c0.092-0.002,0.181-0.032,0.249-0.099l0,0
				c0.125-0.119,0.185-0.271,0.186-0.426l0,0c-0.001-0.145-0.052-0.286-0.159-0.399l0,0c-0.172-0.181-0.395-0.27-0.623-0.271l0,0
				c-0.008,0-0.015,0-0.022,0.001l0,0C76.075,157.795,76.12,157.828,76.159,157.87L76.159,157.87z"/>
			<path d="M68.443,167.735c-0.771-0.711-1.163-1.683-1.162-2.652l0,0c0-0.869,0.315-1.746,0.949-2.436l0,0
				c0.861-0.938,2.043-1.416,3.223-1.415l0,0c1.058-0.001,2.122,0.384,2.961,1.156l0,0l0.001,0.001
				c0.203,0.187,0.216,0.503,0.028,0.706l0,0c-0.188,0.203-0.504,0.217-0.705,0.029l0,0c-0.651-0.599-1.467-0.892-2.285-0.893l0,0
				c-0.914,0.001-1.819,0.366-2.486,1.091l0,0c-0.46,0.502-0.686,1.13-0.687,1.76l0,0c0.001,0.703,0.282,1.401,0.841,1.916l0,0
				c0.381,0.35,0.859,0.521,1.34,0.521l0,0c0.536-0.001,1.067-0.215,1.459-0.639l0,0c0.264-0.286,0.391-0.644,0.392-1.004l0,0
				c-0.001-0.402-0.161-0.8-0.479-1.094l0,0c-0.082-0.075-0.172-0.136-0.267-0.181l0,0c0.057,0.035,0.111,0.077,0.161,0.123l0,0
				c0.282,0.258,0.426,0.613,0.425,0.966l0,0c0.001,0.317-0.113,0.639-0.347,0.892l0,0c-0.298,0.321-0.707,0.49-1.114,0.489l0,0
				c-0.367,0-0.736-0.134-1.026-0.401l0,0c-0.378-0.348-0.573-0.827-0.572-1.303l0,0c-0.001-0.427,0.155-0.858,0.467-1.197l0,0
				c0.411-0.447,0.977-0.676,1.538-0.676l0,0c0.503,0,1.013,0.184,1.412,0.552l0,0c0.531,0.488,0.804,1.161,0.802,1.83l0,0
				c0.002,0.6-0.216,1.206-0.655,1.682l0,0c-0.587,0.636-1.391,0.962-2.194,0.962l0,0C69.742,168.521,69.016,168.261,68.443,167.735
				L68.443,167.735z M70.838,165.474c-0.004,0.006-0.005,0.008-0.005,0.012l0,0c0.001,0.007,0,0.01,0.009,0.018l0,0
				c0.134,0.125,0.184,0.307,0.147,0.474l0,0c0.028-0.021,0.055-0.044,0.08-0.07l0,0c0.055-0.062,0.081-0.135,0.082-0.214l0,0
				c-0.001-0.086-0.034-0.167-0.102-0.228l0,0c-0.029-0.028-0.064-0.041-0.102-0.041l0,0
				C70.906,165.426,70.87,165.439,70.838,165.474L70.838,165.474z"/>
		</g>
		<g>
			<path d="M85.547,71.474c-1.504,0.001-3.01-0.598-4.123-1.776l0,0c-0.844-0.895-1.264-2.041-1.264-3.182l0,0
				c0-1.229,0.488-2.46,1.452-3.37l0,0c0.735-0.693,1.677-1.04,2.612-1.04l0,0c1.01,0,2.022,0.402,2.771,1.194l0,0
				c0.573,0.606,0.859,1.386,0.858,2.158l0,0c0.001,0.835-0.332,1.671-0.985,2.289l0,0c-0.505,0.478-1.153,0.715-1.797,0.714l0,0
				c-0.694,0.001-1.39-0.275-1.903-0.819l0,0c-0.399-0.423-0.599-0.967-0.599-1.506l0,0c0-0.582,0.231-1.166,0.688-1.594l0,0
				c0.356-0.339,0.817-0.51,1.273-0.508l0,0c0.49-0.002,0.984,0.196,1.349,0.581l0,0c0.288,0.306,0.433,0.699,0.432,1.088l0,0
				c0.001,0.419-0.167,0.84-0.495,1.152l0,0c-0.264,0.247-0.604,0.372-0.938,0.372l0,0c-0.362,0-0.727-0.146-0.994-0.429l0,0
				c-0.174-0.184-0.278-0.411-0.313-0.645l0,0c0.006,0.289,0.111,0.573,0.327,0.801l0,0c0.317,0.336,0.744,0.506,1.175,0.507l0,0
				c0.4-0.001,0.796-0.146,1.108-0.441l0,0c0.448-0.424,0.673-0.99,0.674-1.562l0,0c-0.001-0.529-0.192-1.056-0.585-1.472l0,0
				c-0.555-0.586-1.295-0.88-2.044-0.88l0,0c-0.692,0-1.382,0.253-1.926,0.766l0,0c-0.758,0.716-1.138,1.677-1.139,2.644l0,0
				c0.001,0.897,0.328,1.791,0.992,2.495l0,0c0.918,0.973,2.153,1.463,3.395,1.463l0,0c1.151,0,2.301-0.421,3.204-1.273l0,0v0.001
				c0.2-0.19,0.517-0.182,0.706,0.02l0,0c0.19,0.2,0.181,0.517-0.02,0.706l0,0c-1.093,1.033-2.493,1.547-3.887,1.547l0,0
				C85.55,71.474,85.548,71.474,85.547,71.474L85.547,71.474z M84.64,65.134c0.188,0.201,0.178,0.518-0.022,0.707l0,0
				c-0.041,0.037-0.061,0.085-0.061,0.139l0,0c0,0.05,0.017,0.095,0.052,0.133l0,0c0.074,0.077,0.17,0.115,0.269,0.115l0,0
				c0.093-0.001,0.181-0.033,0.251-0.098l0,0c0.123-0.118,0.183-0.271,0.184-0.427l0,0c-0.001-0.146-0.053-0.287-0.159-0.401l0,0
				c-0.171-0.18-0.394-0.267-0.622-0.268l0,0c-0.007,0-0.014,0-0.021,0l0,0C84.557,65.06,84.601,65.093,84.64,65.134L84.64,65.134z"
				/>
			<path d="M78.943,75.785c-0.72,0.001-1.446-0.261-2.018-0.786l0,0c-0.771-0.71-1.164-1.682-1.163-2.651l0,0
				c-0.001-0.87,0.315-1.746,0.949-2.437l0,0c0.862-0.938,2.044-1.415,3.223-1.414l0,0c1.058-0.001,2.123,0.383,2.962,1.155l0,0
				c0.203,0.188,0.216,0.504,0.028,0.707l0,0c-0.187,0.203-0.503,0.216-0.706,0.029l0,0c-0.649-0.598-1.465-0.891-2.284-0.891l0,0
				c-0.913,0-1.819,0.365-2.485,1.09l0,0c-0.461,0.502-0.686,1.129-0.687,1.76l0,0c0.001,0.704,0.282,1.4,0.84,1.916l0,0
				c0.382,0.35,0.859,0.521,1.341,0.522l0,0c0.537-0.001,1.066-0.215,1.458-0.641l0,0c0.264-0.286,0.392-0.643,0.393-1.004l0,0
				c-0.001-0.402-0.161-0.8-0.48-1.094l0,0c-0.082-0.075-0.172-0.136-0.267-0.181l0,0c0.058,0.036,0.112,0.078,0.164,0.125l0,0
				c0.279,0.258,0.424,0.613,0.423,0.966l0,0c0.001,0.315-0.114,0.638-0.348,0.891l0,0c-0.297,0.321-0.707,0.489-1.114,0.488l0,0
				c-0.365,0.001-0.736-0.133-1.026-0.4l0,0c-0.378-0.348-0.572-0.827-0.572-1.303l0,0c0-0.427,0.156-0.859,0.467-1.197l0,0
				c0.41-0.447,0.977-0.677,1.538-0.676l0,0c0.503,0,1.014,0.184,1.412,0.552l0,0c0.532,0.488,0.804,1.16,0.803,1.829l0,0
				c0.001,0.6-0.218,1.205-0.655,1.682l0,0c-0.585,0.636-1.389,0.962-2.19,0.962l0,0C78.946,75.785,78.944,75.785,78.943,75.785
				L78.943,75.785z M79.321,72.737c-0.006,0.006-0.006,0.009-0.006,0.014l0,0c0.001,0.007,0.001,0.009,0.008,0.016l0,0
				c0.135,0.124,0.186,0.307,0.149,0.475l0,0c0.027-0.021,0.055-0.044,0.079-0.07l0,0c0.056-0.062,0.081-0.135,0.082-0.213l0,0
				c0-0.086-0.034-0.168-0.101-0.229l0,0c-0.03-0.027-0.064-0.04-0.102-0.04l0,0C79.388,72.689,79.351,72.704,79.321,72.737
				L79.321,72.737z"/>
		</g>
		<g>
			<path d="M88.983,69.876c-0.201-0.189-0.21-0.505-0.021-0.706l0,0c0.189-0.201,0.506-0.21,0.706-0.02l0,0
				c0.902,0.852,2.053,1.272,3.204,1.273l0,0c1.24-0.001,2.476-0.49,3.396-1.463l0,0c0.664-0.705,0.99-1.599,0.992-2.496l0,0
				c-0.002-0.966-0.382-1.927-1.139-2.642l0,0c-0.545-0.515-1.235-0.767-1.927-0.767l0,0c-0.749,0-1.49,0.294-2.043,0.881l0,0
				c-0.394,0.416-0.585,0.941-0.586,1.471l0,0c0.001,0.571,0.225,1.137,0.674,1.562l0,0c0.312,0.296,0.708,0.439,1.109,0.44l0,0
				c0.431-0.001,0.856-0.17,1.175-0.506l0,0c0.215-0.229,0.322-0.516,0.326-0.808l0,0c-0.033,0.235-0.138,0.466-0.313,0.652l0,0
				c-0.268,0.281-0.632,0.428-0.993,0.427l0,0c-0.336,0.001-0.676-0.124-0.938-0.372l0,0c-0.33-0.31-0.499-0.733-0.498-1.151l0,0
				c-0.001-0.391,0.145-0.784,0.433-1.087l0,0c0.363-0.387,0.858-0.583,1.349-0.583l0,0c0.456,0,0.917,0.169,1.274,0.508l0,0
				c0.454,0.429,0.687,1.012,0.687,1.594l0,0c0.001,0.539-0.199,1.082-0.599,1.507l0,0c-0.515,0.543-1.21,0.82-1.902,0.819l0,0
				c-0.644,0.001-1.292-0.237-1.797-0.713l0,0c-0.656-0.619-0.988-1.457-0.987-2.29l0,0c-0.001-0.773,0.286-1.553,0.859-2.157l0,0
				c0.747-0.794,1.761-1.195,2.771-1.194l0,0c0.936-0.001,1.878,0.345,2.612,1.039l0,0c0.965,0.909,1.454,2.141,1.453,3.369l0,0
				c0.001,1.141-0.421,2.288-1.266,3.183l0,0c-1.114,1.179-2.619,1.776-4.122,1.776l0,0C91.478,71.424,90.076,70.91,88.983,69.876
				L88.983,69.876z M93.267,65.254c-0.107,0.113-0.158,0.254-0.159,0.399l0,0c0.001,0.155,0.06,0.307,0.184,0.425l0,0
				c0.072,0.066,0.16,0.099,0.252,0.1l0,0c0.098-0.001,0.193-0.038,0.266-0.114l0,0c0.036-0.038,0.054-0.084,0.054-0.134l0,0
				c0-0.052-0.021-0.104-0.061-0.143l0,0c-0.201-0.19-0.208-0.507-0.018-0.706l0,0c0.038-0.04,0.081-0.072,0.127-0.097l0,0
				c-0.008,0-0.015-0.001-0.022-0.001l0,0C93.66,64.984,93.437,65.073,93.267,65.254L93.267,65.254z"/>
			<path d="M99.478,75.735c-0.804,0.002-1.609-0.324-2.194-0.962l0,0c-0.438-0.476-0.657-1.081-0.657-1.682l0,0
				c-0.001-0.669,0.271-1.342,0.804-1.829l0,0c0.399-0.368,0.909-0.553,1.413-0.552l0,0c0.562-0.001,1.126,0.228,1.537,0.676l0,0
				c0.312,0.338,0.467,0.771,0.467,1.197l0,0c0,0.476-0.195,0.954-0.572,1.303l0,0c-0.29,0.268-0.661,0.4-1.026,0.4l0,0
				c-0.408,0-0.818-0.166-1.114-0.489l0,0c-0.232-0.251-0.349-0.573-0.348-0.89l0,0c-0.001-0.352,0.143-0.71,0.424-0.966l0,0
				c0.052-0.047,0.106-0.089,0.164-0.125l0,0c-0.096,0.045-0.186,0.105-0.269,0.182l0,0c-0.319,0.294-0.479,0.689-0.479,1.093l0,0
				c0,0.36,0.129,0.717,0.394,1.005l0,0c0.391,0.425,0.92,0.639,1.458,0.639l0,0c0.48,0,0.958-0.172,1.339-0.521l0,0
				c0.558-0.515,0.84-1.213,0.841-1.916l0,0c-0.001-0.631-0.226-1.259-0.687-1.76l0,0c-0.668-0.726-1.573-1.09-2.485-1.091l0,0
				c-0.818,0-1.635,0.294-2.284,0.892l0,0h0.001c-0.203,0.187-0.52,0.174-0.707-0.029l0,0c-0.187-0.203-0.175-0.52,0.029-0.707l0,0
				c0.839-0.772,1.903-1.156,2.961-1.156l0,0c1.179,0,2.359,0.477,3.223,1.415l0,0c0.635,0.691,0.95,1.566,0.949,2.437l0,0
				c0.001,0.971-0.394,1.941-1.163,2.652l0,0c-0.57,0.523-1.295,0.785-2.013,0.785l0,0C99.48,75.735,99.479,75.735,99.478,75.735
				L99.478,75.735z M98.884,72.682c-0.065,0.06-0.098,0.139-0.099,0.227l0,0c0.001,0.077,0.026,0.15,0.084,0.213l0,0
				c0.024,0.026,0.051,0.05,0.079,0.07l0,0c-0.036-0.166,0.014-0.347,0.146-0.472l0,0c0.008-0.008,0.009-0.015,0.01-0.019l0,0
				c-0.001-0.008-0.002-0.01-0.005-0.013l0,0c-0.033-0.036-0.069-0.049-0.111-0.05l0,0C98.953,72.64,98.918,72.65,98.884,72.682
				L98.884,72.682z"/>
		</g>
		<path fill-rule="evenodd" clip-rule="evenodd" stroke="#000000" stroke-width="0.455" stroke-linejoin="round" d="M89.258,72.997
			C72.86,85.569,74.977,89.634,74.977,89.634s13.946-16.763,28.061-0.183C103.038,89.451,105.658,85.569,89.258,72.997
			L89.258,72.997z"/>
		<path fill-rule="evenodd" clip-rule="evenodd" stroke="#000000" stroke-width="0.455" stroke-linejoin="round" d="M111.916,101.63
			c0,0,13.316,23.593,4.875,37.216c-7.15,11.538-22.75,2.763-20.638-6.338c0,0,1.95,9.751,11.537,9.101
			c0,0,10.366-0.841,7.638-13.326c-0.206-0.944-2.6-8.614-10.562-9.589C104.765,118.693,113.541,118.205,111.916,101.63z"/>
		<path fill-rule="evenodd" clip-rule="evenodd" stroke="#000000" stroke-width="0.455" stroke-linejoin="round" d="M66.726,101.63
			c0,0-13.316,23.593-4.875,37.216c7.149,11.538,23.163,3.787,20.638-6.338c0,0-1.95,9.751-11.538,9.101
			c0,0-10.366-0.841-7.638-13.326c0.207-0.944,2.601-8.614,10.562-9.589C73.875,118.693,65.101,118.205,66.726,101.63z"/>
		<path fill-rule="evenodd" clip-rule="evenodd" stroke="#000000" stroke-width="0.455" stroke-linejoin="round" d="M89.372,90.255
			c0,0,0.976,12.464,7.801,9.864c0,0-2.925,3.785-0.812,8.336c0,0-6.642,0.294-6.804,4.519h-0.208
			c-0.162-4.225-7.172-4.519-7.172-4.519c2.113-4.551-0.812-8.336-0.812-8.336c6.825,2.6,7.801-9.864,7.801-9.864H89.372z"/>
		
			<circle fill-rule="evenodd" clip-rule="evenodd" stroke="#000000" stroke-width="0.455" stroke-linejoin="round" cx="72.871" cy="106.609" r="1.189"/>
		
			<circle fill-rule="evenodd" clip-rule="evenodd" stroke="#000000" stroke-width="0.455" stroke-linejoin="round" cx="80.708" cy="90.796" r="1.189"/>
		
			<circle fill-rule="evenodd" clip-rule="evenodd" stroke="#000000" stroke-width="0.455" stroke-linejoin="round" cx="97.637" cy="90.844" r="1.19"/>
		
			<circle fill-rule="evenodd" clip-rule="evenodd" stroke="#000000" stroke-width="0.455" stroke-linejoin="round" cx="105.564" cy="106.562" r="1.189"/>
		
			<circle fill-rule="evenodd" clip-rule="evenodd" stroke="#000000" stroke-width="0.455" stroke-linejoin="round" cx="73.747" cy="132.503" r="1.19"/>
		
			<circle fill-rule="evenodd" clip-rule="evenodd" stroke="#000000" stroke-width="0.455" stroke-linejoin="round" cx="104.779" cy="132.503" r="1.189"/>
		
			<circle fill-rule="evenodd" clip-rule="evenodd" stroke="#000000" stroke-width="0.3458" stroke-linejoin="round" cx="80.987" cy="117.93" r="0.904"/>
		
			<circle fill-rule="evenodd" clip-rule="evenodd" stroke="#000000" stroke-width="0.3458" stroke-linejoin="round" cx="97.642" cy="117.993" r="0.904"/>
		
			<circle fill-rule="evenodd" clip-rule="evenodd" stroke="#000000" stroke-width="0.3458" stroke-linejoin="round" cx="80.769" cy="109.898" r="1.197"/>
		
			<circle fill-rule="evenodd" clip-rule="evenodd" stroke="#000000" stroke-width="0.3458" stroke-linejoin="round" cx="97.751" cy="109.898" r="1.197"/>
		
			<circle fill-rule="evenodd" clip-rule="evenodd" stroke="#000000" stroke-width="0.2628" stroke-linejoin="round" cx="89.355" cy="114.692" r="0.91"/>
		
			<circle fill-rule="evenodd" clip-rule="evenodd" stroke="#000000" stroke-width="0.2628" stroke-linejoin="round" cx="79.947" cy="99.491" r="0.909"/>
		
			<circle fill-rule="evenodd" clip-rule="evenodd" stroke="#000000" stroke-width="0.2628" stroke-linejoin="round" cx="98.71" cy="99.354" r="0.91"/>
		
			<circle fill-rule="evenodd" clip-rule="evenodd" stroke="#000000" stroke-width="0.2628" stroke-linejoin="round" cx="89.054" cy="87.234" r="2.123"/>
		<g>
			<path d="M55.922,105.168c-1.793-0.735-2.879-2.466-2.878-4.291l0,0c0-0.585,0.11-1.181,0.346-1.753l0,0
				c0.604-1.474,2.025-2.368,3.524-2.367l0,0c0.481,0,0.971,0.092,1.442,0.285l0,0c1.218,0.498,1.955,1.672,1.954,2.911l0,0
				c0,0.398-0.076,0.802-0.234,1.192l0,0c-0.415,1.013-1.393,1.626-2.424,1.625l0,0c-0.331,0.001-0.667-0.062-0.99-0.194l0,0
				c-0.849-0.349-1.363-1.167-1.362-2.031l0,0c-0.001-0.275,0.053-0.56,0.164-0.829l0,0c0.294-0.718,0.985-1.154,1.717-1.153l0,0
				c0.234,0,0.473,0.044,0.702,0.139l0,0c0.612,0.252,0.984,0.843,0.983,1.466l0,0c0,0.199-0.038,0.403-0.118,0.601l0,0
				c-0.218,0.528-0.728,0.849-1.265,0.848l0,0c-0.174,0-0.35-0.033-0.518-0.102l0,0c-0.235-0.097-0.424-0.261-0.552-0.46l0,0
				c0.122,0.261,0.339,0.479,0.626,0.597l0,0c0.201,0.082,0.408,0.121,0.612,0.121l0,0c0.638-0.001,1.242-0.379,1.498-1.004l0,0
				c0.108-0.269,0.16-0.543,0.161-0.814l0,0c-0.001-0.846-0.503-1.646-1.334-1.985l0,0c-0.35-0.145-0.708-0.211-1.063-0.211l0,0
				c-1.105,0.001-2.154,0.658-2.6,1.747l0,0c-0.185,0.449-0.271,0.914-0.271,1.373l0,0c0.001,1.432,0.852,2.79,2.259,3.366l0,0
				c0.579,0.236,1.178,0.348,1.766,0.348l0,0c1.841,0,3.585-1.094,4.323-2.899l0,0c0.104-0.257,0.396-0.379,0.652-0.274l0,0
				c0.255,0.105,0.378,0.397,0.273,0.652l0,0c-0.898,2.194-3.015,3.522-5.249,3.522l0,0
				C57.353,105.592,56.625,105.454,55.922,105.168L55.922,105.168z M56.97,99.686c0.254,0.107,0.374,0.4,0.267,0.654l0,0
				c-0.008,0.021-0.013,0.042-0.013,0.069l0,0c0,0.075,0.046,0.148,0.121,0.179l0,0c0.045,0.019,0.093,0.028,0.139,0.028l0,0
				c0.144-0.001,0.283-0.087,0.339-0.226l0,0c0.031-0.076,0.045-0.151,0.045-0.224l0,0c-0.001-0.23-0.137-0.448-0.363-0.54l0,0
				c-0.107-0.045-0.215-0.065-0.323-0.065l0,0c-0.129,0.001-0.257,0.03-0.372,0.086l0,0C56.864,99.651,56.917,99.664,56.97,99.686
				L56.97,99.686z"/>
			<path d="M54.947,112.005c-0.31,0-0.624-0.049-0.932-0.15l0,0c-1.517-0.5-2.478-1.906-2.477-3.421l0,0
				c0-0.374,0.059-0.752,0.181-1.125l0,0c0.606-1.841,2.317-3.01,4.156-3.009l0,0c0.454,0,0.916,0.071,1.37,0.221l0,0
				c0.263,0.088,0.404,0.37,0.317,0.632l0,0c-0.086,0.262-0.369,0.404-0.631,0.318l0,0c-0.352-0.116-0.706-0.171-1.057-0.171l0,0
				c-1.417,0-2.739,0.9-3.205,2.322l0,0c-0.09,0.271-0.132,0.544-0.133,0.812l0,0c0.001,1.093,0.694,2.111,1.79,2.472l0,0
				c0.206,0.067,0.413,0.1,0.619,0.1l0,0c0.83,0,1.607-0.529,1.882-1.363l0,0c0.051-0.153,0.073-0.31,0.073-0.464l0,0
				c0-0.623-0.396-1.205-1.02-1.409l0,0c-0.104-0.034-0.207-0.051-0.31-0.054l0,0c0.064,0.009,0.129,0.024,0.191,0.045l0,0
				c0.553,0.184,0.903,0.694,0.903,1.247l0,0c0,0.136-0.021,0.274-0.067,0.411l0,0c-0.211,0.637-0.801,1.042-1.439,1.041l0,0
				c-0.157,0-0.317-0.024-0.474-0.076l0,0c-0.745-0.245-1.218-0.937-1.217-1.681l0,0c-0.001-0.185,0.028-0.371,0.088-0.552l0,0
				c0.29-0.88,1.105-1.438,1.983-1.437l0,0c0.217-0.001,0.438,0.034,0.653,0.104l0,0c1.044,0.346,1.708,1.314,1.707,2.359l0,0
				c0.001,0.257-0.039,0.52-0.124,0.777l0,0c-0.414,1.253-1.577,2.05-2.829,2.05l0,0C54.948,112.005,54.947,112.005,54.947,112.005
				L54.947,112.005z M55.261,108.808l-0.001,0.005c0.001,0.006,0.005,0.017,0.016,0.02l0,0c0.175,0.059,0.296,0.203,0.332,0.371l0,0
				c0.018-0.03,0.032-0.063,0.044-0.098l0,0c0.01-0.033,0.016-0.066,0.016-0.099l0,0c0-0.131-0.085-0.255-0.216-0.297l0,0
				c-0.018-0.005-0.032-0.007-0.048-0.008l0,0C55.341,108.703,55.283,108.742,55.261,108.808L55.261,108.808z"/>
		</g>
		<g>
			<path d="M115.27,102.069L115.27,102.069c-0.104-0.255,0.018-0.548,0.273-0.651l0,0c0.255-0.104,0.547,0.017,0.651,0.272l0,0
				c0.739,1.808,2.483,2.9,4.322,2.901l0,0c0.589-0.001,1.186-0.112,1.768-0.349l0,0c1.405-0.576,2.256-1.935,2.257-3.366l0,0
				c-0.001-0.458-0.087-0.924-0.271-1.374l0,0c-0.444-1.088-1.494-1.745-2.601-1.746l0,0c-0.355,0-0.714,0.067-1.062,0.211l0,0
				c-0.831,0.339-1.333,1.14-1.334,1.986l0,0c0,0.271,0.051,0.544,0.161,0.812l0,0c0.256,0.626,0.86,1.004,1.498,1.005l0,0
				c0.202-0.001,0.409-0.039,0.611-0.12l0,0c0.286-0.118,0.502-0.334,0.625-0.594l0,0c-0.128,0.197-0.316,0.36-0.552,0.457l0,0
				c-0.167,0.067-0.342,0.102-0.516,0.101l0,0c-0.538,0.001-1.048-0.319-1.264-0.847l0,0c-0.083-0.197-0.12-0.404-0.12-0.602l0,0
				c0-0.625,0.372-1.215,0.982-1.466l0,0c0.229-0.095,0.47-0.139,0.704-0.139l0,0c0.731-0.001,1.423,0.436,1.719,1.155l0,0
				c0.108,0.269,0.162,0.55,0.162,0.827l0,0c0,0.864-0.513,1.682-1.364,2.032l0,0c-0.322,0.131-0.658,0.194-0.988,0.194l0,0
				c-1.031,0.001-2.008-0.613-2.422-1.624l0,0c-0.162-0.391-0.237-0.796-0.236-1.193l0,0c-0.001-1.24,0.737-2.414,1.953-2.911l0,0
				c0.471-0.194,0.962-0.286,1.442-0.286l0,0c1.501-0.001,2.922,0.894,3.526,2.367l0,0c0.232,0.573,0.345,1.168,0.345,1.753l0,0
				c0.001,1.825-1.086,3.556-2.88,4.291l0,0c-0.702,0.287-1.43,0.424-2.145,0.424l0,0
				C118.284,105.593,116.167,104.264,115.27,102.069L115.27,102.069z M121.082,99.626c-0.227,0.093-0.361,0.312-0.363,0.541l0,0
				c0,0.074,0.014,0.146,0.044,0.222l0,0c0.059,0.141,0.196,0.227,0.34,0.227l0,0c0.045,0,0.092-0.008,0.14-0.026l0,0
				c0.074-0.03,0.119-0.104,0.12-0.181l0,0c0-0.024-0.004-0.049-0.014-0.073l0,0c-0.104-0.257,0.019-0.547,0.274-0.651l0,0
				c0.051-0.021,0.103-0.032,0.154-0.036l0,0c-0.115-0.056-0.242-0.085-0.372-0.085l0,0
				C121.296,99.562,121.188,99.583,121.082,99.626L121.082,99.626z"/>
			<path d="M120.809,109.956c-0.086-0.258-0.126-0.521-0.126-0.778l0,0c0-1.044,0.663-2.015,1.708-2.359l0,0
				c0.216-0.07,0.436-0.104,0.652-0.104l0,0c0.878,0,1.693,0.557,1.984,1.437l0,0c0.061,0.184,0.089,0.37,0.089,0.552l0,0
				c0,0.745-0.474,1.435-1.218,1.682l0,0c-0.157,0.051-0.317,0.076-0.475,0.076l0,0c-0.638,0-1.229-0.405-1.438-1.039l0,0
				c-0.046-0.136-0.068-0.276-0.068-0.414l0,0c-0.001-0.552,0.35-1.065,0.901-1.246l0,0c0.065-0.021,0.133-0.037,0.199-0.047l0,0
				c-0.104,0.002-0.209,0.02-0.314,0.055l0,0c-0.625,0.204-1.021,0.786-1.021,1.409l0,0c0,0.154,0.023,0.31,0.075,0.465l0,0
				c0.273,0.834,1.049,1.362,1.881,1.362l0,0c0.205,0,0.414-0.031,0.619-0.099l0,0c1.095-0.361,1.788-1.381,1.789-2.473l0,0
				c-0.001-0.269-0.042-0.543-0.131-0.812l0,0c-0.468-1.422-1.79-2.322-3.206-2.322l0,0c-0.351,0-0.705,0.055-1.057,0.171l0,0h0.001
				c-0.263,0.086-0.546-0.056-0.632-0.318l0,0c-0.087-0.263,0.056-0.544,0.318-0.632l0,0c0.453-0.149,0.915-0.221,1.369-0.221l0,0
				c1.839,0,3.548,1.168,4.156,3.009l0,0c0.123,0.373,0.181,0.752,0.18,1.125l0,0c0.001,1.514-0.961,2.921-2.475,3.422l0,0
				c-0.309,0.102-0.623,0.148-0.933,0.148l0,0C122.386,112.006,121.221,111.209,120.809,109.956L120.809,109.956z M123.133,108.711
				c-0.132,0.042-0.214,0.164-0.215,0.296l0,0c0,0.03,0.004,0.062,0.018,0.099l0,0c0.011,0.034,0.025,0.067,0.043,0.097l0,0
				c0.035-0.167,0.156-0.312,0.33-0.369l0,0c0.009-0.002,0.016-0.016,0.016-0.021l0,0c0,0-0.001-0.006,0-0.004l0,0
				c-0.021-0.066-0.082-0.104-0.144-0.105l0,0C123.167,108.702,123.153,108.704,123.133,108.711L123.133,108.711z"/>
		</g>
		<polygon stroke="#000000" stroke-width="0.1007" stroke-linecap="round" stroke-linejoin="round" points="91.996,156.615 
			86.297,156.614 89.149,143.757 		"/>
		<polygon stroke="#000000" stroke-width="0.0503" stroke-linecap="round" stroke-linejoin="round" points="90.717,131.136 
			87.869,131.135 89.295,124.705 		"/>
		<polygon stroke="#000000" stroke-width="0.0503" stroke-linecap="round" stroke-linejoin="round" points="68.261,94.739 
			69.792,92.337 74.449,96.992 		"/>
		<polygon stroke="#000000" stroke-width="0.0503" stroke-linecap="round" stroke-linejoin="round" points="110.303,94.685 
			108.773,92.281 104.116,96.937 		"/>
		<polygon stroke="#000000" stroke-width="0.0503" stroke-linecap="round" stroke-linejoin="round" points="71.67,101.137 
			73.201,98.733 77.858,103.389 		"/>
		<polygon stroke="#000000" stroke-width="0.0503" stroke-linecap="round" stroke-linejoin="round" points="106.985,101.137 
			105.455,98.733 100.797,103.389 		"/>
		<polygon stroke="#000000" stroke-width="0.0503" stroke-linecap="round" stroke-linejoin="round" points="92.806,125.271 
			95.364,124.019 91.257,118.869 		"/>
		<polygon stroke="#000000" stroke-width="0.0503" stroke-linecap="round" stroke-linejoin="round" points="85.909,125.29 
			83.351,124.038 87.457,118.889 		"/>
		<polygon stroke="#000000" stroke-width="0.0503" stroke-linecap="round" stroke-linejoin="round" points="74.163,124.122 
			75.6,126.582 69.332,128.598 		"/>
		<polygon stroke="#000000" stroke-width="0.0503" stroke-linecap="round" stroke-linejoin="round" points="104.586,124.249 
			103.149,126.709 109.418,128.725 		"/>
		
			<rect x="87.495" y="138.842" stroke="#000000" stroke-width="0.0244" stroke-linecap="round" stroke-linejoin="round" width="3.638" height="3.637"/>
		
			<circle fill-rule="evenodd" clip-rule="evenodd" stroke="#000000" stroke-width="0.1971" stroke-linejoin="round" cx="89.175" cy="68.805" r="0.682"/>
		<polygon fill-rule="evenodd" clip-rule="evenodd" stroke="#000000" stroke-width="0.0246" stroke-linejoin="round" points="
			74.101,121.762 73.729,120.618 74.702,119.911 75.674,120.618 75.303,121.762 		"/>
		<polygon fill-rule="evenodd" clip-rule="evenodd" stroke="#000000" stroke-width="0.0246" stroke-linejoin="round" points="
			71.178,122.437 70.806,121.293 71.779,120.586 72.751,121.293 72.38,122.437 		"/>
		<polygon fill-rule="evenodd" clip-rule="evenodd" stroke="#000000" stroke-width="0.0246" stroke-linejoin="round" points="
			68.414,123.875 68.042,122.731 69.014,122.024 69.987,122.731 69.616,123.875 		"/>
		<polygon fill-rule="evenodd" clip-rule="evenodd" stroke="#000000" stroke-width="0.0246" stroke-linejoin="round" points="
			104.233,121.6 104.605,120.456 103.632,119.749 102.66,120.456 103.031,121.6 		"/>
		<polygon fill-rule="evenodd" clip-rule="evenodd" stroke="#000000" stroke-width="0.0246" stroke-linejoin="round" points="
			107.156,122.274 107.528,121.131 106.555,120.424 105.583,121.131 105.954,122.274 		"/>
		<polygon fill-rule="evenodd" clip-rule="evenodd" stroke="#000000" stroke-width="0.0246" stroke-linejoin="round" points="
			109.92,123.712 110.292,122.568 109.32,121.861 108.347,122.568 108.718,123.712 		"/>
		
			<circle fill-rule="evenodd" clip-rule="evenodd" stroke="#000000" stroke-width="0.1971" stroke-linejoin="round" cx="85.491" cy="70.127" r="0.682"/>
		
			<circle fill-rule="evenodd" clip-rule="evenodd" stroke="#000000" stroke-width="0.1971" stroke-linejoin="round" cx="92.902" cy="70.104" r="0.682"/>
		
			<circle fill-rule="evenodd" clip-rule="evenodd" stroke="#000000" stroke-width="0.1971" stroke-linejoin="round" cx="58.169" cy="104.393" r="0.683"/>
		
			<circle fill-rule="evenodd" clip-rule="evenodd" stroke="#000000" stroke-width="0.1971" stroke-linejoin="round" cx="120.69" cy="104.3" r="0.683"/>
		
			<circle fill-rule="evenodd" clip-rule="evenodd" stroke="#000000" stroke-width="0.1971" stroke-linejoin="round" cx="76.652" cy="162.701" r="0.683"/>
		
			<circle fill-rule="evenodd" clip-rule="evenodd" stroke="#000000" stroke-width="0.1971" stroke-linejoin="round" cx="102.165" cy="162.712" r="0.682"/>
		<polygon fill-rule="evenodd" clip-rule="evenodd" stroke="#000000" stroke-width="0.0394" stroke-linejoin="round" points="
			83.684,158.99 85.102,156.535 86.519,158.99 		"/>
		<polygon fill-rule="evenodd" clip-rule="evenodd" stroke="#000000" stroke-width="0.0394" stroke-linejoin="round" points="
			92.036,158.969 93.453,156.514 94.871,158.969 		"/>
		<polygon fill-rule="evenodd" clip-rule="evenodd" stroke="#000000" stroke-width="0.0394" stroke-linejoin="round" points="
			83.826,84.685 85.244,87.14 86.661,84.685 		"/>
		<polygon fill-rule="evenodd" clip-rule="evenodd" stroke="#000000" stroke-width="0.0394" stroke-linejoin="round" points="
			91.555,84.805 92.974,87.26 94.391,84.805 		"/>
		<polygon stroke="#000000" stroke-width="0.0327" stroke-linecap="round" stroke-linejoin="round" points="101.42,104.709 
			99.639,105.215 101.672,108.981 		"/>
		<polygon stroke="#000000" stroke-width="0.0327" stroke-linecap="round" stroke-linejoin="round" points="103.382,109.755 
			103.652,111.587 107.652,110.062 		"/>
		<polygon stroke="#000000" stroke-width="0.0327" stroke-linecap="round" stroke-linejoin="round" points="76.978,104.709 
			78.759,105.215 76.726,108.981 		"/>
		<polygon stroke="#000000" stroke-width="0.0327" stroke-linecap="round" stroke-linejoin="round" points="74.826,109.755 
			74.556,111.587 70.557,110.062 		"/>
		<polygon stroke="#000000" stroke-width="0.0327" stroke-linecap="round" stroke-linejoin="round" points="78.194,94.643 
			78.463,96.475 82.463,94.95 		"/>
		<polygon stroke="#000000" stroke-width="0.0327" stroke-linecap="round" stroke-linejoin="round" points="71.694,135.597 
			71.963,137.428 75.963,135.903 		"/>
		<polygon stroke="#000000" stroke-width="0.0327" stroke-linecap="round" stroke-linejoin="round" points="69.569,130.712 
			67.789,131.218 69.822,134.985 		"/>
		<polygon stroke="#000000" stroke-width="0.0327" stroke-linecap="round" stroke-linejoin="round" points="108.992,130.062 
			110.772,130.567 108.739,134.336 		"/>
		<polygon stroke="#000000" stroke-width="0.0327" stroke-linecap="round" stroke-linejoin="round" points="107.489,135.759 
			107.22,137.591 103.22,136.066 		"/>
		<polygon stroke="#000000" stroke-width="0.0327" stroke-linecap="round" stroke-linejoin="round" points="100.014,94.643 
			99.745,96.475 95.746,94.95 		"/>
		<polygon stroke="#000000" stroke-width="0.0327" stroke-linecap="round" stroke-linejoin="round" points="85.594,117.614 
			87.162,116.627 84.15,113.585 		"/>
		<polygon stroke="#000000" stroke-width="0.0327" stroke-linecap="round" stroke-linejoin="round" points="93.193,117.755 
			91.625,116.768 94.637,113.726 		"/>
		
			<circle fill-rule="evenodd" clip-rule="evenodd" stroke="#000000" stroke-width="0.2628" stroke-linejoin="round" cx="80.884" cy="128.632" r="2.123"/>
		
			<circle fill-rule="evenodd" clip-rule="evenodd" stroke="#000000" stroke-width="0.2628" stroke-linejoin="round" cx="97.274" cy="128.777" r="2.123"/>
		
			<circle fill-rule="evenodd" clip-rule="evenodd" stroke="#000000" stroke-width="0.3458" stroke-linejoin="round" cx="73.123" cy="115.12" r="1.197"/>
		
			<circle fill-rule="evenodd" clip-rule="evenodd" stroke="#000000" stroke-width="0.3458" stroke-linejoin="round" cx="106.035" cy="115.12" r="1.197"/>
	</g>
</g>
<g id="two">
</g>
<g id="three">
</g>
<g id="four">
</g>
<g id="five">
</g>
<g id="six">
</g>
<g id="seven">
</g>
<g id="eight">
</g>
<g id="nine">
</g>
<g id="ten">
</g>
<g id="jack">
</g>
<g id="queen">
</g>
<g id="king">
</g>
<g id="joker">
</g>
<g id="back">
</g>
</svg>
